<svg width="121" height="121" viewBox="0 0 121 121" fill="none" xmlns="http://www.w3.org/2000/svg">
<path fill-rule="evenodd" clip-rule="evenodd" d="M21.75 95.5C21.75 94.5054 22.1451 93.5516 22.8483 92.8483C23.5516 92.1451 24.5054 91.75 25.5 91.75H95.5C96.4946 91.75 97.4484 92.1451 98.1517 92.8483C98.8549 93.5516 99.25 94.5054 99.25 95.5C99.25 96.4946 98.8549 97.4484 98.1517 98.1517C97.4484 98.8549 96.4946 99.25 95.5 99.25H25.5C24.5054 99.25 23.5516 98.8549 22.8483 98.1517C22.1451 97.4484 21.75 96.4946 21.75 95.5ZM36.75 110.5C36.75 109.505 37.1451 108.552 37.8483 107.848C38.5516 107.145 39.5054 106.75 40.5 106.75H80.5C81.4946 106.75 82.4484 107.145 83.1517 107.848C83.8549 108.552 84.25 109.505 84.25 110.5C84.25 111.495 83.8549 112.448 83.1517 113.152C82.4484 113.855 81.4946 114.25 80.5 114.25H40.5C39.5054 114.25 38.5516 113.855 37.8483 113.152C37.1451 112.448 36.75 111.495 36.75 110.5Z" fill="white"/>
<path d="M30.915 76.7507C28.0947 71.6114 26.6616 65.8262 26.757 59.9646C26.8523 54.1031 28.4728 48.3675 31.4589 43.3227C34.4449 38.2778 38.6935 34.0978 43.7863 31.1942C48.879 28.2907 54.6402 26.7637 60.5025 26.7637C66.3648 26.7637 72.126 28.2907 77.2188 31.1942C82.3115 34.0978 86.5601 38.2778 89.5461 43.3227C92.5322 48.3675 94.1527 54.1031 94.248 59.9646C94.3434 65.8262 92.9103 71.6114 90.09 76.7507H110.5C111.495 76.7507 112.448 77.1458 113.152 77.8491C113.855 78.5523 114.25 79.5062 114.25 80.5007C114.25 81.4953 113.855 82.4491 113.152 83.1524C112.448 83.8557 111.495 84.2507 110.5 84.2507H10.5C9.50544 84.2507 8.55161 83.8557 7.84835 83.1524C7.14509 82.4491 6.75 81.4953 6.75 80.5007C6.75 79.5062 7.14509 78.5523 7.84835 77.8491C8.55161 77.1458 9.50544 76.7507 10.5 76.7507H30.915Z" fill="white"/>
<path fill-rule="evenodd" clip-rule="evenodd" d="M60.5 6.75C61.4946 6.75 62.4484 7.14509 63.1516 7.84835C63.8549 8.55161 64.25 9.50544 64.25 10.5V15.5C64.25 16.4946 63.8549 17.4484 63.1516 18.1517C62.4484 18.8549 61.4946 19.25 60.5 19.25C59.5054 19.25 58.5516 18.8549 57.8484 18.1517C57.1451 17.4484 56.75 16.4946 56.75 15.5V10.5C56.75 9.50544 57.1451 8.55161 57.8484 7.84835C58.5516 7.14509 59.5054 6.75 60.5 6.75ZM22.495 22.495C23.1981 21.7927 24.1512 21.3983 25.145 21.3983C26.1388 21.3983 27.0919 21.7927 27.795 22.495L29.76 24.455C30.4434 25.1619 30.8219 26.109 30.8138 27.0923C30.8057 28.0755 30.4118 29.0162 29.7168 29.7119C29.0219 30.4075 28.0815 30.8023 27.0983 30.8113C26.115 30.8203 25.1676 30.4428 24.46 29.76L22.495 27.795C21.7927 27.0919 21.3983 26.1388 21.3983 25.145C21.3983 24.1512 21.7927 23.1981 22.495 22.495ZM98.505 22.495C99.2073 23.1981 99.6017 24.1512 99.6017 25.145C99.6017 26.1388 99.2073 27.0919 98.505 27.795L96.54 29.76C95.8291 30.4224 94.8889 30.783 93.9174 30.7659C92.9459 30.7487 92.019 30.3552 91.3319 29.6681C90.6448 28.981 90.2513 28.0541 90.2341 27.0826C90.217 26.1111 90.5776 25.1709 91.24 24.46L93.205 22.495C93.9081 21.7927 94.8612 21.3983 95.855 21.3983C96.8487 21.3983 97.8019 21.7927 98.505 22.495ZM6.75 60.5C6.75 59.5054 7.14509 58.5516 7.84835 57.8484C8.55161 57.1451 9.50544 56.75 10.5 56.75H15.5C16.4946 56.75 17.4484 57.1451 18.1517 57.8484C18.8549 58.5516 19.25 59.5054 19.25 60.5C19.25 61.4946 18.8549 62.4484 18.1517 63.1516C17.4484 63.8549 16.4946 64.25 15.5 64.25H10.5C9.50544 64.25 8.55161 63.8549 7.84835 63.1516C7.14509 62.4484 6.75 61.4946 6.75 60.5ZM101.75 60.5C101.75 59.5054 102.145 58.5516 102.848 57.8484C103.552 57.1451 104.505 56.75 105.5 56.75H110.5C111.495 56.75 112.448 57.1451 113.152 57.8484C113.855 58.5516 114.25 59.5054 114.25 60.5C114.25 61.4946 113.855 62.4484 113.152 63.1516C112.448 63.8549 111.495 64.25 110.5 64.25H105.5C104.505 64.25 103.552 63.8549 102.848 63.1516C102.145 62.4484 101.75 61.4946 101.75 60.5Z" fill="white"/>
</svg>
