<svg width="121" height="121" viewBox="0 0 121 121" fill="none" xmlns="http://www.w3.org/2000/svg">
<path d="M100.001 12.0357C99.8241 11.5827 99.5148 11.1935 99.1134 10.9192C98.7119 10.6448 98.237 10.498 97.7508 10.498C97.2645 10.498 96.7896 10.6448 96.3882 10.9192C95.9867 11.1935 95.6774 11.5827 95.5008 12.0357L93.3508 17.5107C93.2313 17.8208 93.0487 18.1026 92.8146 18.3385C92.5805 18.5743 92.3 18.7589 91.9908 18.8807L86.5358 21.0407C86.084 21.2206 85.6967 21.532 85.4238 21.9344C85.1509 22.3369 85.005 22.812 85.005 23.2982C85.005 23.7845 85.1509 24.2595 85.4238 24.662C85.6967 25.0644 86.084 25.3758 86.5358 25.5557L91.9908 27.7157C92.2995 27.8369 92.5797 28.0208 92.8138 28.2557C93.0479 28.4907 93.2307 28.7716 93.3508 29.0807L95.5008 34.5507C96.3108 36.6007 99.2008 36.6007 100.001 34.5507L102.151 29.0757C102.271 28.7661 102.455 28.4849 102.69 28.2499C102.925 28.015 103.206 27.8313 103.516 27.7107L108.971 25.5507C109.423 25.3708 109.81 25.0594 110.083 24.657C110.356 24.2545 110.502 23.7795 110.502 23.2932C110.502 22.807 110.356 22.3319 110.083 21.9294C109.81 21.527 109.423 21.2156 108.971 21.0357L103.516 18.8757C103.206 18.7545 102.924 18.5701 102.689 18.3343C102.454 18.0984 102.271 17.8163 102.151 17.5057L100.001 12.0357ZM80.6658 41.1507C80.4891 40.6977 80.1798 40.3085 79.7784 40.0342C79.3769 39.7598 78.902 39.613 78.4158 39.613C77.9295 39.613 77.4546 39.7598 77.0532 40.0342C76.6517 40.3085 76.3424 40.6977 76.1658 41.1507L75.3808 43.1457C75.2607 43.4549 75.0779 43.7357 74.8438 43.9707C74.6097 44.2056 74.3295 44.3895 74.0208 44.5107L72.0308 45.3007C71.579 45.4806 71.1917 45.792 70.9188 46.1944C70.6459 46.5969 70.5 47.072 70.5 47.5582C70.5 48.0445 70.6459 48.5195 70.9188 48.922C71.1917 49.3244 71.579 49.6358 72.0308 49.8157L74.0208 50.6007C74.6458 50.8507 75.1358 51.3407 75.3808 51.9707L76.1658 53.9657C76.9708 56.0157 79.8608 56.0157 80.6658 53.9657L81.4508 51.9657C81.5709 51.6566 81.7537 51.3757 81.9878 51.1407C82.2219 50.9058 82.5021 50.7219 82.8108 50.6007L84.8008 49.8157C85.2525 49.6358 85.6399 49.3244 85.9128 48.922C86.1857 48.5195 86.3316 48.0445 86.3316 47.5582C86.3316 47.072 86.1857 46.5969 85.9128 46.1944C85.6399 45.792 85.2525 45.4806 84.8008 45.3007L82.8108 44.5107C82.5021 44.3895 82.2219 44.2056 81.9878 43.9707C81.7537 43.7357 81.5709 43.4549 81.4508 43.1457L80.6658 41.1507Z" fill="white"/>
<path d="M60.5 110.5C88.115 110.5 110.5 88.115 110.5 60.5C110.5 58.185 107.03 57.8 105.835 59.785C103.286 64.0067 99.8102 67.593 95.6701 70.2723C91.53 72.9517 86.8345 74.6537 81.9392 75.2495C77.0439 75.8454 72.0772 75.3194 67.4152 73.7114C62.7533 72.1034 58.5185 69.4556 55.0314 65.9686C51.5444 62.4815 48.8966 58.2467 47.2886 53.5848C45.6806 48.9228 45.1546 43.9561 45.7505 39.0608C46.3463 34.1655 48.0483 29.47 50.7277 25.3299C53.407 21.1898 56.9933 17.7138 61.215 15.165C63.2 13.965 62.815 10.5 60.5 10.5C32.885 10.5 10.5 32.885 10.5 60.5C10.5 88.115 32.885 110.5 60.5 110.5Z" fill="white"/>
</svg>
