<svg width="415" height="415" viewBox="0 0 415 415" fill="none" xmlns="http://www.w3.org/2000/svg">
<path fill-rule="evenodd" clip-rule="evenodd" d="M415 0H0V415H415V0ZM370.911 169.216L370.915 169.219C387.087 183.075 391.71 197.94 388.838 219.511C385.226 231.987 379.178 239.549 368.754 246.731C368.214 247.071 367.682 247.405 367.154 247.736C366.763 247.982 366.374 248.227 365.985 248.471C366.064 248.707 366.143 248.944 366.222 249.18C368.579 256.225 370.925 263.236 371.671 270.68C371.784 285.763 367.724 298.238 357.952 309.603C348.987 318.063 337.871 324.895 325.446 324.946C323.691 324.792 321.988 324.643 320.285 324.493C319.977 331.325 319.338 337.936 317.462 344.516C312.116 357.336 301.512 367.563 289.543 373.852C276.374 378.588 262.488 377.92 249.643 372.346C248.587 371.79 247.55 371.244 246.521 370.703C245.912 370.382 245.305 370.063 244.699 369.743C232.896 381.138 223.39 388.186 206.799 388.636C191.503 388.055 183.637 383.806 173.133 372.325C172.366 371.447 171.619 370.595 170.873 369.743C166.077 372.068 161.921 373.817 156.812 375.175C139.873 376.636 126.373 375.164 112.806 364.116C102.417 353.823 97.7211 342.513 97.0627 327.817C97.058 326.687 97.0524 325.59 97.0488 324.493C91.0821 324.353 85.34 323.814 79.4696 322.683C66.1589 317.598 56.7375 308.26 49.4173 295.893C43.7108 283.131 44.0464 266.349 47.8646 253.123C48.3432 251.831 48.5589 251.249 48.7982 250.604C48.9938 250.077 49.2053 249.507 49.5891 248.471C42.7905 242.981 36.1587 237.484 31.1534 230.166C24.7803 217.112 24.7473 202.922 28.714 189.08C33.7146 180.327 38.6455 172.655 47.6116 168.038C48.5096 167.793 49.3885 167.553 50.2618 167.315C50.6239 167.216 50.9849 167.117 51.3461 167.019C49.0359 162.062 47.3776 157.844 46.0728 152.539C44.5422 134.935 45.339 122.248 55.8511 108.081C66.3775 96.224 78.2588 89.9411 93.8203 89.2015C94.9834 89.1964 95.3166 89.195 95.9936 89.1921C96.265 89.191 96.5915 89.1896 97.0488 89.1876C96.3132 81.9937 97.3848 76.2365 99.6855 69.5032C105.209 56.2985 113.874 47.18 126.6 41.2218C140.903 36.1391 154.101 37.2986 168.092 42.749C168.685 43.0022 169.267 43.2508 169.844 43.4977C170.188 43.6447 170.53 43.791 170.873 43.9374C173.822 39.1067 176.997 35.5406 181.545 32.2709C194.001 25.0536 206.366 23.1502 220.338 26.8258C228.141 29.9701 235.659 34.6295 239.667 42.3602C240 43.1033 240.189 43.5235 240.357 43.8985C240.576 44.3867 240.76 44.7985 241.185 45.7466C248.959 41.6146 256.227 38.7811 264.975 37.8354C281.198 37.5317 291.295 39.9087 303.915 50.6114C314.859 61.1327 319.045 70.8517 320.148 86.1332C320.169 86.6114 320.19 87.0832 320.211 87.5514C320.236 88.1 320.26 88.6438 320.285 89.1876C327.988 88.7068 334.116 90.1468 341.378 92.8084C354.769 99.7688 362.768 108.099 368.292 122.448C372.806 136.243 372.858 148.833 366.756 162.155C366.322 162.99 365.894 163.813 365.47 164.629C365.054 165.429 364.641 166.224 364.228 167.019C367.893 166.683 367.894 166.683 370.911 169.216Z" fill="white"/>
</svg>
