<svg width="514" height="585" viewBox="0 0 514 585" fill="none" xmlns="http://www.w3.org/2000/svg">
<path fill-rule="evenodd" clip-rule="evenodd" d="M361.964 566.142L342.324 574.232L345.441 581.801L372.719 570.563L301.944 403.156L294.405 406.343L361.964 566.142Z" fill="black"/>
<path fill-rule="evenodd" clip-rule="evenodd" d="M200.811 575.952H179.528V584.136H208.996V426.172H200.811V575.952Z" fill="black"/>
<path d="M488.211 210.121C484.05 206.627 484.051 206.626 479 207.09C480.148 204.878 481.298 202.669 482.482 200.39C490.888 182.038 490.816 164.696 484.598 145.693C476.989 125.929 465.97 114.454 447.524 104.866C437.521 101.2 429.079 99.216 418.468 99.8783C418.406 98.4899 418.344 97.1014 418.28 95.6709C416.76 74.6209 410.995 61.2332 395.919 46.7402C378.536 31.9975 364.628 28.7232 342.28 29.1416C330.229 30.4442 320.219 34.3472 309.51 40.039C308.475 37.7296 308.475 37.7303 307.419 35.3744C301.897 24.7253 291.541 18.3072 280.793 13.9759C261.548 8.91286 244.514 11.5347 227.356 21.4764C221.091 25.9804 216.718 30.8927 212.655 37.5469C211.392 37.0068 210.128 36.4663 208.825 35.9099C189.552 28.4021 171.372 26.8049 151.67 33.8062C134.14 42.0135 122.204 54.5741 114.596 72.7634C111.427 82.0384 109.951 89.9688 110.964 99.8783C108.762 99.8878 108.761 99.8875 106.517 99.8975C85.0811 100.916 68.7147 109.571 54.2147 125.903C39.7344 145.418 38.6368 162.895 40.7451 187.144C42.5425 194.452 44.8268 200.262 48.0091 207.09C46.3116 207.553 44.6147 208.017 42.8649 208.493C30.5142 214.853 23.7219 225.421 16.8337 237.479C11.3696 256.546 11.415 276.093 20.1939 294.074C27.0887 304.155 36.2239 311.726 45.5888 319.289C44.4135 322.461 44.4116 322.461 43.2133 325.697C37.9539 343.915 37.4917 367.032 45.3522 384.611C55.4358 401.647 68.4135 414.51 86.7488 421.514C94.8353 423.072 102.745 423.815 110.964 424.008C110.969 425.519 110.977 427.029 110.983 428.586C111.89 448.83 118.359 464.409 132.669 478.588C151.358 493.806 169.954 495.834 193.287 493.821C200.324 491.951 206.049 489.541 212.655 486.339C213.683 487.513 214.712 488.686 215.77 489.896C230.238 505.711 241.073 511.564 262.144 512.364C284.997 511.744 298.092 502.036 314.35 486.339C316.598 487.523 318.845 488.705 321.16 489.925C338.854 497.602 357.982 498.523 376.122 491.998C392.61 483.336 407.216 469.249 414.581 451.59C417.165 442.526 418.045 433.419 418.468 424.008C420.815 424.214 423.161 424.42 425.579 424.631C442.694 424.561 458.005 415.15 470.355 403.497C483.816 387.843 489.407 370.658 489.253 349.88C488.19 339.283 484.775 329.323 481.42 319.289C482.678 318.498 483.938 317.708 485.234 316.892C499.594 306.999 507.924 296.582 512.899 279.396C516.856 249.683 510.488 229.207 488.211 210.121Z" fill="#626B86"/>
<path d="M475.115 198.66C470.954 195.166 470.955 195.166 465.904 195.629C467.053 193.417 468.202 191.208 469.386 188.929C477.792 170.577 477.721 153.235 471.502 134.232C463.894 114.468 452.875 102.993 434.428 93.4049C424.425 89.7387 415.983 87.7551 405.373 88.4174C405.31 87.029 405.248 85.6405 405.184 84.21C403.665 63.1599 397.899 49.7722 382.823 35.2793C365.44 20.5366 351.532 17.2622 329.185 17.6806C317.134 18.9833 307.123 22.8863 296.414 28.5781C295.379 26.2687 295.379 26.2693 294.323 23.9135C288.802 13.2644 278.445 6.84624 267.697 2.51498C248.452 -2.54808 231.419 0.0737778 214.26 10.0155C207.996 14.5194 203.623 19.4318 199.56 26.0859C198.296 25.5459 197.033 25.0054 195.73 24.449C176.456 16.9412 158.276 15.3439 138.574 22.3453C121.044 30.5525 109.109 43.1131 101.5 61.3024C98.3311 70.5775 96.855 78.5079 97.8683 88.4174C95.6666 88.4269 95.6653 88.4266 93.4211 88.4366C71.9854 89.4553 55.619 98.1099 41.119 114.442C26.6387 133.957 25.5411 151.434 27.6494 175.683C29.4468 182.991 31.7311 188.801 34.9134 195.629C33.2158 196.092 31.519 196.556 29.7691 197.032C17.4185 203.392 10.6262 213.96 3.73801 226.018C-1.72608 245.085 -1.68068 264.632 7.09821 282.613C13.993 292.694 23.1282 300.265 32.4931 307.828C31.3178 311 31.3159 311 30.1176 314.236C24.8582 332.454 24.396 355.571 32.2565 373.15C42.3401 390.186 55.3178 403.049 73.6531 410.053C81.7396 411.611 89.6492 412.354 97.8683 412.547C97.8732 414.058 97.8809 415.568 97.8875 417.125C98.7943 437.369 105.264 452.948 119.574 467.127C138.263 482.346 156.859 484.373 180.192 482.36C187.229 480.49 192.953 478.08 199.56 474.878C200.588 476.052 201.616 477.226 202.674 478.435C217.143 494.25 227.978 500.103 249.048 500.903C271.902 500.283 284.996 490.575 301.254 474.878C303.502 476.062 305.75 477.244 308.064 478.464C325.758 486.141 344.886 487.062 363.026 480.537C379.514 471.875 394.12 457.788 401.485 440.129C404.069 431.065 404.949 421.958 405.373 412.547C407.72 412.753 410.065 412.959 412.483 413.17C429.598 413.1 444.909 403.689 457.259 392.036C470.72 376.382 476.312 359.197 476.157 338.42C475.095 327.822 471.679 317.862 468.324 307.828C469.582 307.037 470.843 306.247 472.139 305.431C486.498 295.538 494.828 285.122 499.803 267.935C503.761 238.222 497.392 217.746 475.115 198.66Z" fill="#769BFF"/>
<path d="M178.296 295.324C214.91 295.324 244.592 262.345 244.592 221.662C244.592 180.98 214.91 148 178.296 148C141.682 148 112 180.98 112 221.662C112 262.345 141.682 295.324 178.296 295.324Z" fill="white"/>
<path d="M322.296 296.324C358.91 296.324 388.592 263.345 388.592 222.662C388.592 181.98 358.91 149 322.296 149C285.682 149 256 181.98 256 222.662C256 263.345 285.682 296.324 322.296 296.324Z" fill="white"/>
<path d="M162.745 256.038C183.539 256.038 200.395 237.716 200.395 215.115C200.395 192.513 183.539 174.191 162.745 174.191C141.952 174.191 125.096 192.513 125.096 215.115C125.096 237.716 141.952 256.038 162.745 256.038Z" fill="black"/>
<path d="M308.382 257.038C329.175 257.038 346.032 238.716 346.032 216.115C346.032 193.513 329.175 175.191 308.382 175.191C287.589 175.191 270.732 193.513 270.732 216.115C270.732 238.716 287.589 257.038 308.382 257.038Z" fill="black"/>
<path d="M129.319 327.389C133.84 327.389 137.504 323.724 137.504 319.204C137.504 314.684 133.84 311.02 129.319 311.02C124.799 311.02 121.135 314.684 121.135 319.204C121.135 323.724 124.799 327.389 129.319 327.389Z" fill="white"/>
<path d="M250.452 327.389C254.973 327.389 258.637 323.724 258.637 319.204C258.637 314.684 254.973 311.02 250.452 311.02C245.932 311.02 242.268 314.684 242.268 319.204C242.268 323.724 245.932 327.389 250.452 327.389Z" fill="white"/>
<path d="M371.587 327.389C376.107 327.389 379.772 323.724 379.772 319.204C379.772 314.684 376.107 311.02 371.587 311.02C367.067 311.02 363.402 314.684 363.402 319.204C363.402 323.724 367.067 327.389 371.587 327.389Z" fill="white"/>
<path d="M196.435 394.502C200.955 394.502 204.619 390.838 204.619 386.317C204.619 381.797 200.955 378.133 196.435 378.133C191.914 378.133 188.25 381.797 188.25 386.317C188.25 390.838 191.914 394.502 196.435 394.502Z" fill="white"/>
<path d="M312.657 394.502C317.178 394.502 320.842 390.838 320.842 386.317C320.842 381.797 317.178 378.133 312.657 378.133C308.137 378.133 304.473 381.797 304.473 386.317C304.473 390.838 308.137 394.502 312.657 394.502Z" fill="white"/>
<path d="M129.319 327.389C133.84 327.389 137.504 323.724 137.504 319.204C137.504 314.684 133.84 311.02 129.319 311.02C124.799 311.02 121.135 314.684 121.135 319.204C121.135 323.724 124.799 327.389 129.319 327.389Z" fill="white"/>
<path d="M250.452 327.389C254.973 327.389 258.637 323.724 258.637 319.204C258.637 314.684 254.973 311.02 250.452 311.02C245.932 311.02 242.268 314.684 242.268 319.204C242.268 323.724 245.932 327.389 250.452 327.389Z" fill="white"/>
<path d="M371.587 327.389C376.107 327.389 379.772 323.724 379.772 319.204C379.772 314.684 376.107 311.02 371.587 311.02C367.067 311.02 363.402 314.684 363.402 319.204C363.402 323.724 367.067 327.389 371.587 327.389Z" fill="white"/>
<path d="M196.435 394.502C200.955 394.502 204.619 390.838 204.619 386.317C204.619 381.797 200.955 378.133 196.435 378.133C191.914 378.133 188.25 381.797 188.25 386.317C188.25 390.838 191.914 394.502 196.435 394.502Z" fill="white"/>
<path d="M312.657 394.502C317.178 394.502 320.842 390.838 320.842 386.317C320.842 381.797 317.178 378.133 312.657 378.133C308.137 378.133 304.473 381.797 304.473 386.317C304.473 390.838 308.137 394.502 312.657 394.502Z" fill="white"/>
<mask id="mask0_1591_1112" style="mask-type:alpha" maskUnits="userSpaceOnUse" x="346" y="24" width="158" height="160">
<rect x="346.581" y="49.5156" width="134.34" height="136.204" transform="rotate(-10.5676 346.581 49.5156)" fill="#D9D9D9"/>
</mask>
<g mask="url(#mask0_1591_1112)">
<path d="M421.721 155.809C415.943 156.887 410.682 155.776 405.938 152.475C401.194 149.175 398.276 144.596 397.183 138.738C396.09 132.88 397.161 127.557 400.396 122.768C403.631 117.979 408.137 115.045 413.915 113.967C416.482 113.488 418.867 113.428 421.07 113.787C423.272 114.146 425.274 114.831 427.076 115.842L415.367 53.0789L447.557 47.0736L451.07 65.9024L427.133 70.368L438.452 131.039C439.545 136.897 438.474 142.22 435.239 147.009C432.005 151.798 427.498 154.731 421.721 155.809Z" fill="#EEA9A9"/>
</g>
<mask id="mask1_1591_1112" style="mask-type:alpha" maskUnits="userSpaceOnUse" x="372" y="143" width="139" height="139">
<rect x="404.163" y="143" width="111.545" height="111.545" transform="rotate(16.7586 404.163 143)" fill="#D9D9D9"/>
</mask>
<g mask="url(#mask1_1591_1112)">
<path d="M420.004 244.131C415.331 242.724 411.867 239.921 409.613 235.723C407.358 231.525 406.934 227.09 408.341 222.417C409.748 217.744 412.551 214.28 416.749 212.025C420.947 209.77 425.382 209.346 430.055 210.754C432.132 211.379 433.915 212.24 435.405 213.336C436.896 214.431 438.115 215.688 439.063 217.107L454.139 167.041L480.174 174.88L475.651 189.9L456.292 184.071L441.718 232.468C440.311 237.14 437.508 240.604 433.31 242.859C429.112 245.114 424.677 245.538 420.004 244.131Z" fill="#FFD2A4"/>
</g>
<mask id="mask2_1591_1112" style="mask-type:alpha" maskUnits="userSpaceOnUse" x="14" y="338" width="115" height="115">
<rect x="20.7393" y="338" width="108.093" height="108.093" transform="rotate(3.57467 20.7393 338)" fill="#D9D9D9"/>
</mask>
<g mask="url(#mask2_1591_1112)">
<path d="M58.551 434.406C53.8312 434.111 49.9436 432.233 46.8882 428.77C43.8328 425.308 42.4526 421.216 42.7474 416.497C43.0423 411.777 44.921 407.889 48.3835 404.834C51.8461 401.778 55.9373 400.398 60.6571 400.693C62.7548 400.824 64.6278 401.242 66.276 401.947C67.9243 402.651 69.3524 403.568 70.5605 404.696L73.7196 354.126L100.016 355.769L99.0683 370.94L79.5146 369.718L76.4607 418.603C76.1659 423.323 74.2872 427.21 70.8246 430.266C67.3621 433.321 63.2709 434.701 58.551 434.406Z" fill="#1754FF"/>
</g>
<circle cx="159" cy="273" r="10" fill="white"/>
</svg>
