<svg width="1015" height="937" viewBox="0 0 1015 937" fill="none" xmlns="http://www.w3.org/2000/svg">
<path d="M976.853 489.881C970.698 484.714 970.697 484.714 963.225 485.4C964.924 482.129 966.622 478.858 968.373 475.487C980.808 448.341 980.707 422.685 971.508 394.573C960.252 365.334 943.948 348.359 916.66 334.175C901.863 328.752 889.375 325.819 873.678 326.798C873.586 324.744 873.493 322.69 873.398 320.574C871.15 289.434 862.622 269.629 840.32 248.189C814.605 226.379 794.032 221.535 760.975 222.154C743.147 224.081 728.335 229.856 712.492 238.276C710.962 234.86 710.962 234.86 709.4 231.375C701.232 215.622 685.916 206.128 670.014 199.721C641.543 192.231 616.343 196.108 590.961 210.815C581.693 217.478 575.225 224.744 569.217 234.588C567.347 233.789 565.478 232.99 563.551 232.167C535.038 221.061 508.144 218.698 478.998 229.055C453.066 241.197 435.405 259.779 424.15 286.687C419.462 300.408 417.279 312.139 418.777 326.798C415.522 326.812 415.522 326.812 412.201 326.827C380.491 328.334 356.276 341.135 334.826 365.296C313.405 394.165 311.782 420.019 314.902 455.893C317.56 466.702 320.94 475.3 325.648 485.4C323.136 486.085 320.623 486.769 318.035 487.475C299.763 496.883 289.72 512.517 279.531 530.353C271.448 558.56 271.511 587.476 284.498 614.077C294.696 628.988 308.212 640.191 322.066 651.379C320.328 656.071 320.329 656.071 318.555 660.859C310.775 687.809 310.091 722.006 321.717 748.012C336.634 773.212 355.832 792.242 382.957 802.604C394.92 804.909 406.619 806.004 418.777 806.292C418.786 808.527 418.796 810.761 418.805 813.064C420.148 843.012 429.721 866.059 450.889 887.034C478.536 909.547 506.044 912.547 540.562 909.568C550.971 906.804 559.443 903.239 569.217 898.502C570.736 900.238 572.255 901.973 573.82 903.761C595.222 927.156 611.251 935.815 642.422 937C676.23 936.083 695.604 921.721 719.656 898.502C722.981 900.252 726.305 902.002 729.73 903.804C755.905 915.162 784.2 916.525 811.035 906.873C835.426 894.059 857.033 873.219 867.928 847.095C871.75 833.687 873.053 820.212 873.678 806.292C877.151 806.596 880.622 806.901 884.199 807.214C909.518 807.109 932.166 793.187 950.436 775.949C970.349 752.791 978.621 727.37 978.393 696.634C976.82 680.957 971.769 666.223 966.807 651.379C968.667 650.209 970.528 649.039 972.445 647.834C993.688 633.198 1006.01 617.789 1013.37 592.364C1019.22 548.408 1009.81 518.117 976.853 489.881Z" fill="#769BFF"/>
<path d="M372.767 155.864C369.502 153.123 369.503 153.123 365.54 153.487C366.442 151.753 367.343 150.018 368.271 148.23C374.866 133.832 374.812 120.225 369.933 105.316C363.963 89.8089 355.316 80.8056 340.843 73.2832C332.995 70.4067 326.372 68.8513 318.046 69.3708C317.997 68.2815 317.948 67.192 317.898 66.0697C316.706 49.5541 312.185 39.0501 300.357 27.6792C286.718 16.1122 275.805 13.5429 258.273 13.8711C248.817 14.8932 240.962 17.9563 232.56 22.4219C231.748 20.6101 231.749 20.6101 230.921 18.7616C226.588 10.4066 218.465 5.37166 210.031 1.97344C194.931 -1.99896 181.565 0.0572519 168.103 7.85735C163.188 11.3911 159.759 15.2449 156.572 20.4657C155.581 20.042 154.588 19.6184 153.566 19.1819C138.444 13.2913 124.182 12.0383 108.724 17.5314C94.9701 23.9707 85.6042 33.8261 79.6342 48.0971C77.1483 55.3742 75.9896 61.596 76.7846 69.3708C75.0576 69.3784 75.0573 69.3783 73.2964 69.386C56.4784 70.1853 43.6363 76.9745 32.2592 89.7886C20.8983 105.1 20.0388 118.812 21.6928 137.838C23.1028 143.571 24.8951 148.131 27.3921 153.487C26.0601 153.851 24.7279 154.214 23.3549 154.588C13.6649 159.577 8.33606 167.869 2.93307 177.329C-1.35391 192.289 -1.32016 207.625 5.56784 221.733C10.9768 229.641 18.1437 235.583 25.4917 241.517C24.5697 244.006 24.5714 244.006 23.6303 246.545C19.5043 260.838 19.1401 278.975 25.3061 292.768C33.2171 306.133 43.3996 316.225 57.7866 321.721C64.1306 322.944 70.3356 323.525 76.7846 323.677C76.7896 324.862 76.7953 326.047 76.8003 327.269C77.5113 343.152 82.5869 355.375 93.8139 366.5C108.477 378.44 123.067 380.031 141.374 378.451C146.894 376.985 151.389 375.094 156.572 372.582C157.378 373.503 158.183 374.423 159.013 375.371C170.364 387.779 178.866 392.372 195.398 393C213.328 392.514 223.603 384.897 236.359 372.582C238.122 373.51 239.886 374.438 241.703 375.394C255.585 381.418 270.591 382.141 284.824 377.022C297.759 370.226 309.219 359.173 314.998 345.318C317.025 338.206 317.714 331.06 318.046 323.677C319.888 323.839 321.729 324 323.626 324.166C337.055 324.11 349.068 316.727 358.757 307.584C369.319 295.302 373.705 281.82 373.583 265.518C372.75 257.204 370.071 249.389 367.439 241.517C368.426 240.896 369.412 240.276 370.429 239.637C381.695 231.874 388.233 223.702 392.136 210.217C395.241 186.905 390.245 170.84 372.767 155.864Z" fill="#CDDBFF"/>
<path d="M611.682 71.7846C610.179 70.5224 610.179 70.5224 608.354 70.6901C608.769 69.891 609.184 69.0921 609.612 68.2689C612.649 61.6379 612.624 55.3709 610.377 48.5042C607.628 41.3622 603.645 37.2158 596.979 33.7513C593.365 32.4265 590.315 31.71 586.481 31.9493C586.458 31.4476 586.436 30.9458 586.413 30.4289C585.864 22.8225 583.78 17.9849 578.333 12.7479C572.051 7.42063 567.027 6.23732 558.952 6.38851C554.597 6.85921 550.978 8.26997 547.108 10.3266C546.734 9.49218 546.735 9.49214 546.354 8.64083C544.359 4.79283 540.617 2.47398 536.733 0.908899C529.778 -0.920629 523.622 0.0263278 517.422 3.61874C515.158 5.24624 513.58 7.02113 512.112 9.42562C511.655 9.2305 511.197 9.03547 510.727 8.83444C503.762 6.12146 497.194 5.54427 490.075 8.07418C483.741 11.0399 479.426 15.5789 476.676 22.1516C475.531 25.5031 474.998 28.3685 475.364 31.9493C474.569 31.9528 474.569 31.9529 473.758 31.9564C466.012 32.3245 460.097 35.4514 454.858 41.353C449.625 48.4048 449.229 54.7199 449.991 63.4825C450.64 66.1228 451.466 68.2229 452.616 70.6901C452.002 70.8573 451.39 71.0246 450.758 71.1969C446.294 73.4949 443.841 77.3139 441.352 81.6705C439.378 88.5605 439.393 95.6236 442.565 102.121C445.056 105.764 448.357 108.5 451.741 111.233C451.316 112.379 451.316 112.379 450.883 113.549C448.983 120.131 448.815 128.485 451.655 134.837C455.299 140.992 459.99 145.641 466.616 148.172C469.538 148.735 472.394 149.002 475.364 149.073C475.366 149.619 475.369 150.164 475.372 150.727C475.7 158.042 478.037 163.672 483.208 168.795C489.961 174.294 496.68 175.027 505.112 174.299C507.654 173.624 509.725 172.753 512.112 171.596C512.483 172.02 512.853 172.444 513.235 172.881C518.463 178.596 522.379 180.711 529.993 181C538.251 180.776 542.983 177.268 548.858 171.596C549.67 172.024 550.482 172.451 551.319 172.891C557.713 175.666 564.625 175.999 571.18 173.641C577.138 170.511 582.416 165.421 585.077 159.039C586.01 155.764 586.328 152.473 586.481 149.073C587.329 149.147 588.178 149.221 589.051 149.298C595.236 149.272 600.766 145.872 605.229 141.661C610.093 136.004 612.115 129.795 612.059 122.287C611.675 118.458 610.441 114.859 609.229 111.233C609.684 110.947 610.138 110.661 610.606 110.367C615.795 106.792 618.804 103.028 620.602 96.8177C622.032 86.0807 619.732 78.6818 611.682 71.7846Z" fill="#326BFF"/>
</svg>
