<svg width="415" height="388" viewBox="0 0 415 388" fill="none" xmlns="http://www.w3.org/2000/svg">
<path fill-rule="evenodd" clip-rule="evenodd" d="M334.415 373.671L360.381 364.304L358.64 359.599L335.376 367.992L266.09 310.089L262.907 313.911L334.415 373.671Z" fill="black"/>
<path fill-rule="evenodd" clip-rule="evenodd" d="M133.659 380.483L120.472 369.627L117.294 373.488L134.341 387.521L170.285 343.857L166.425 340.68L133.659 380.483Z" fill="black"/>
<path d="M228 382C331.277 382 415 298.277 415 195C415 91.7228 331.277 8 228 8C124.723 8 41 91.7228 41 195C41 298.277 124.723 382 228 382Z" fill="url(#paint0_radial_305_1721)"/>
<path d="M219 374C322.277 374 406 290.277 406 187C406 83.7228 322.277 0 219 0C115.723 0 32 83.7228 32 187C32 290.277 115.723 374 219 374Z" fill="#769BFF"/>
<path d="M189 189C191.761 189 194 186.761 194 184C194 181.239 191.761 179 189 179C186.239 179 184 181.239 184 184C184 186.761 186.239 189 189 189Z" fill="white"/>
<path d="M174 203C176.761 203 179 200.761 179 198C179 195.239 176.761 193 174 193C171.239 193 169 195.239 169 198C169 200.761 171.239 203 174 203Z" fill="white"/>
<path d="M195 211C197.761 211 200 208.761 200 206C200 203.239 197.761 201 195 201C192.239 201 190 203.239 190 206C190 208.761 192.239 211 195 211Z" fill="white"/>
<path d="M188 133.5C188 155.315 172.106 173 152.5 173C132.894 173 117 155.315 117 133.5C117 122.592 122.847 116.509 129.271 109.361C135.696 102.213 142.697 94 152.5 94C172.106 94 188 111.685 188 133.5Z" fill="white"/>
<path d="M296 159C296 186.614 275.853 209 251 209C226.147 209 206 186.614 206 159C206 131.386 226.147 109 251 109C263.426 109 271.19 118.286 279.333 127.334C287.476 136.382 296 145.193 296 159Z" fill="white"/>
<path d="M139.5 159C146.956 159 153 152.508 153 144.5C153 136.492 146.956 130 139.5 130C132.044 130 126 136.492 126 144.5C126 152.508 132.044 159 139.5 159Z" fill="black"/>
<path d="M269.5 154C276.956 154 283 147.508 283 139.5C283 131.492 276.956 125 269.5 125C262.044 125 256 131.492 256 139.5C256 147.508 262.044 154 269.5 154Z" fill="black"/>
<path fill-rule="evenodd" clip-rule="evenodd" d="M159.477 213.037L159.745 216.571L159.293 220.057L157.806 222.768L155.936 225.718C155.853 225.849 155.783 225.988 155.725 226.133C155.695 226.209 155.668 226.286 155.646 226.365C155.623 226.444 155.605 226.523 155.59 226.603C155.575 226.684 155.564 226.765 155.557 226.846C155.55 226.928 155.547 227.01 155.548 227.092C155.549 227.174 155.555 227.254 155.564 227.335C155.573 227.416 155.586 227.499 155.603 227.579C155.62 227.659 155.641 227.737 155.666 227.815C155.691 227.893 155.72 227.97 155.752 228.045C155.784 228.12 155.821 228.194 155.861 228.266C155.9 228.338 155.943 228.407 155.989 228.474C156.036 228.541 156.085 228.607 156.138 228.669C156.191 228.732 156.246 228.791 156.305 228.848C156.364 228.905 156.425 228.959 156.489 229.01C156.553 229.061 156.62 229.11 156.689 229.155C156.757 229.199 156.827 229.239 156.9 229.277C156.973 229.314 157.048 229.349 157.124 229.379C157.191 229.406 157.259 229.43 157.328 229.45C157.397 229.471 157.467 229.489 157.538 229.504C157.608 229.519 157.679 229.53 157.751 229.539C157.823 229.547 157.895 229.552 157.967 229.555C158.039 229.557 158.111 229.557 158.184 229.553C158.256 229.549 158.327 229.541 158.398 229.531C158.47 229.521 158.54 229.508 158.611 229.491C158.681 229.475 158.751 229.457 158.82 229.435C158.889 229.413 158.956 229.388 159.022 229.36C159.088 229.332 159.154 229.3 159.217 229.266C159.281 229.233 159.343 229.196 159.404 229.157C159.465 229.118 159.524 229.076 159.581 229.032C159.638 228.987 159.693 228.94 159.746 228.891C159.799 228.842 159.85 228.791 159.898 228.738C159.947 228.684 159.992 228.629 160.036 228.572C160.08 228.514 160.121 228.456 160.16 228.395L160.161 228.393L162.072 225.379C162.1 225.334 162.126 225.289 162.151 225.243L162.551 224.513L170.076 224.306L178.476 226.055L187.985 229.997L193.724 233.419L193.515 233.896C193.372 234.222 193.301 234.561 193.304 234.918L193.329 238.569C193.329 238.628 193.332 238.687 193.337 238.746L193.616 242.323C193.621 242.394 193.629 242.464 193.641 242.534C193.652 242.604 193.667 242.674 193.684 242.743C193.701 242.812 193.722 242.88 193.746 242.947C193.769 243.014 193.794 243.079 193.823 243.143C193.852 243.208 193.884 243.273 193.918 243.335C193.952 243.398 193.988 243.457 194.028 243.516C194.067 243.575 194.109 243.633 194.153 243.688C194.197 243.744 194.243 243.796 194.292 243.848C194.341 243.899 194.392 243.948 194.445 243.996C194.498 244.043 194.553 244.088 194.61 244.131C194.666 244.173 194.725 244.213 194.785 244.251C194.846 244.288 194.906 244.323 194.969 244.355C195.033 244.387 195.097 244.418 195.163 244.445C195.229 244.472 195.295 244.494 195.363 244.515C195.43 244.536 195.499 244.555 195.568 244.57C195.637 244.585 195.708 244.598 195.778 244.607C195.941 244.629 196.103 244.634 196.267 244.624C196.431 244.613 196.593 244.587 196.752 244.545C196.91 244.502 197.063 244.446 197.21 244.373C197.358 244.301 197.497 244.215 197.627 244.116C197.758 244.016 197.877 243.903 197.985 243.78C198.094 243.657 198.189 243.525 198.271 243.383C198.353 243.241 198.421 243.092 198.474 242.936C198.527 242.781 198.564 242.622 198.586 242.459C198.609 242.285 198.614 242.11 198.601 241.935L198.328 238.446L198.308 235.419L199.702 232.248L201.86 229.338C201.987 229.168 202.09 228.984 202.17 228.787C202.25 228.591 202.304 228.387 202.332 228.177C202.343 228.096 202.349 228.015 202.352 227.933C202.355 227.851 202.355 227.771 202.349 227.689C202.344 227.607 202.335 227.525 202.321 227.444C202.308 227.364 202.291 227.283 202.27 227.204C202.249 227.124 202.224 227.047 202.196 226.97C202.167 226.894 202.134 226.818 202.098 226.745C202.062 226.671 202.022 226.6 201.979 226.531C201.936 226.461 201.889 226.394 201.839 226.329C201.79 226.264 201.738 226.202 201.682 226.142C201.626 226.082 201.567 226.024 201.505 225.97C201.444 225.916 201.38 225.865 201.314 225.817C201.247 225.77 201.179 225.725 201.108 225.684C201.037 225.643 200.964 225.606 200.89 225.572C200.815 225.538 200.739 225.507 200.662 225.481C200.584 225.454 200.505 225.432 200.425 225.413C200.346 225.395 200.266 225.38 200.184 225.369C200.074 225.355 199.964 225.347 199.853 225.347C199.741 225.347 199.63 225.354 199.52 225.369C199.41 225.384 199.302 225.407 199.195 225.436C199.088 225.465 198.983 225.501 198.88 225.544C198.778 225.587 198.68 225.638 198.584 225.694C198.488 225.751 198.396 225.813 198.309 225.881C198.222 225.95 198.14 226.024 198.062 226.104C197.985 226.183 197.912 226.268 197.846 226.357L195.943 228.922L190.39 225.609C190.286 225.547 190.179 225.493 190.067 225.446L180.173 221.346C180.028 221.286 179.879 221.241 179.726 221.209L170.809 219.352C170.618 219.312 170.425 219.294 170.23 219.299L164.412 219.461L164.736 216.959C164.758 216.789 164.763 216.62 164.75 216.449L164.462 212.659C164.454 212.542 164.437 212.429 164.412 212.315C164.388 212.201 164.355 212.088 164.314 211.979C164.274 211.87 164.226 211.765 164.171 211.662C164.116 211.56 164.053 211.462 163.984 211.368C163.915 211.274 163.841 211.186 163.759 211.103C163.678 211.019 163.591 210.941 163.499 210.87C163.407 210.799 163.309 210.735 163.208 210.677C163.107 210.62 163.003 210.569 162.894 210.526C162.742 210.466 162.585 210.419 162.423 210.389C162.262 210.359 162.099 210.346 161.935 210.348C161.771 210.351 161.609 210.37 161.448 210.404C161.288 210.438 161.132 210.486 160.981 210.551C160.831 210.616 160.688 210.696 160.553 210.789C160.417 210.883 160.292 210.987 160.178 211.105C160.064 211.223 159.961 211.351 159.872 211.489C159.783 211.626 159.708 211.77 159.647 211.923C159.505 212.281 159.448 212.653 159.477 213.037Z" fill="#3D3D3D"/>
<path d="M159 183C161.761 183 164 180.761 164 178C164 175.239 161.761 173 159 173C156.239 173 154 175.239 154 178C154 180.761 156.239 183 159 183Z" fill="white"/>
<path d="M216 207C218.761 207 221 204.761 221 202C221 199.239 218.761 197 216 197C213.239 197 211 199.239 211 202C211 204.761 213.239 207 216 207Z" fill="white"/>
<path d="M276.5 337C320.407 337 356 301.407 356 257.5C356 213.593 320.407 178 276.5 178C232.593 178 197 213.593 197 257.5C197 301.407 232.593 337 276.5 337Z" fill="#769BFF"/>
<path d="M80 284C124.183 284 160 248.407 160 204.5C160 160.593 124.183 125 80 125C35.8172 125 0 160.593 0 204.5C0 248.407 35.8172 284 80 284Z" fill="#769BFF"/>
<defs>
<radialGradient id="paint0_radial_305_1721" cx="0" cy="0" r="1" gradientUnits="userSpaceOnUse" gradientTransform="translate(226.42 114.528) rotate(89.6615) scale(267.476)">
<stop stop-color="#769BFF"/>
<stop offset="1" stop-color="#626B86"/>
</radialGradient>
</defs>
</svg>
