<svg width="322" height="384" viewBox="0 0 322 384" fill="none" xmlns="http://www.w3.org/2000/svg">
<path fill-rule="evenodd" clip-rule="evenodd" d="M178.979 41.312C178.338 44.6053 178.001 48.0122 178.001 51.5C178.001 67.5004 185.085 81.7965 196.199 91.2423C195.415 94.8657 195.001 98.6331 195.001 102.5C195.001 130.943 217.387 154 245.001 154C250.899 154 256.558 152.948 261.811 151.017C267.103 158.294 275.521 163 285.001 163C290.426 163 295.504 161.459 299.847 158.776C312.159 170.039 315.648 182.261 313.328 199.681C310.289 210.18 305.2 216.543 296.428 222.587C295.976 222.872 295.53 223.151 295.089 223.429C294.757 223.637 294.427 223.844 294.098 224.051L294.298 224.648C296.281 230.577 298.255 236.476 298.883 242.74C298.977 255.433 295.562 265.93 287.338 275.493C279.794 282.612 270.44 288.362 259.985 288.405C259.411 288.354 258.844 288.305 258.281 288.255C257.395 288.178 256.518 288.101 255.641 288.024C255.382 293.773 254.845 299.336 253.266 304.873C248.767 315.661 239.844 324.267 229.772 329.559C218.69 333.545 207.005 332.982 196.196 328.292C195.312 327.827 194.444 327.37 193.582 326.916L192.036 326.102C182.104 335.691 174.104 341.621 160.143 342C147.271 341.511 140.652 337.936 131.813 328.275C131.31 327.699 130.817 327.137 130.328 326.578L129.911 326.102C125.875 328.058 122.377 329.53 118.078 330.672C103.825 331.902 92.4642 330.663 81.0472 321.366C72.3053 312.704 68.3532 303.188 67.7992 290.821L67.7951 289.89V289.89V289.89C67.7923 289.262 67.7895 288.643 67.7875 288.024C62.7665 287.906 57.9345 287.452 52.9945 286.5C41.7935 282.221 33.8654 274.363 27.7054 263.956C22.9034 253.217 23.1858 239.095 26.3988 227.966C26.8014 226.879 26.9829 226.389 27.1842 225.847L27.1849 225.845C27.3495 225.401 27.5273 224.922 27.85 224.051C22.129 219.431 16.5483 214.806 12.3363 208.648C6.97331 197.663 6.94557 185.721 10.2836 174.074C14.4916 166.708 18.6409 160.251 26.1859 156.366C26.9361 156.162 27.6703 155.962 28.3999 155.763L29.3285 155.509C27.3845 151.338 25.989 147.788 24.891 143.324C23.603 128.51 24.2735 117.834 33.1195 105.912C41.9775 95.9351 51.9757 90.648 65.0707 90.0257L66.6941 90.0186L67.7875 90.0139C67.1685 83.9602 68.0702 79.1156 70.0062 73.4495C74.6542 62.3377 81.9457 54.6645 92.6547 49.6507C104.691 45.3736 115.797 46.3493 127.571 50.9358C128.072 51.1497 128.563 51.3598 129.051 51.5684L129.911 51.9358C132.393 47.8708 135.064 44.8699 138.891 42.1184C149.373 36.0451 159.779 34.4434 171.536 37.5364C174.108 38.573 176.644 39.8053 178.979 41.312Z" fill="#626B86"/>
<path fill-rule="evenodd" clip-rule="evenodd" d="M183.949 378.028L170.974 378.028L170.973 383.028L188.995 383.028L187.974 272L182.974 272.046L183.949 378.028Z" fill="black"/>
<path fill-rule="evenodd" clip-rule="evenodd" d="M130.501 378.5H142.001V383.5H125.501V282H130.501V378.5Z" fill="black"/>
<path d="M302.001 360C302.001 360.066 301.997 360.13 301.989 360.195C301.981 360.26 301.969 360.326 301.953 360.391C301.937 360.455 301.917 360.517 301.894 360.58C301.87 360.643 301.842 360.705 301.811 360.766C301.779 360.826 301.745 360.886 301.706 360.943C301.667 361.001 301.626 361.057 301.58 361.111C301.535 361.166 301.486 361.219 301.434 361.27C301.382 361.32 301.326 361.368 301.269 361.414C301.211 361.46 301.15 361.505 301.087 361.547C301.024 361.588 300.958 361.626 300.89 361.662C300.822 361.698 300.752 361.733 300.68 361.764C300.607 361.795 300.534 361.823 300.458 361.848C300.382 361.873 300.305 361.895 300.227 361.914C300.148 361.933 300.069 361.948 299.988 361.961C299.908 361.974 299.828 361.984 299.746 361.99C299.665 361.997 299.583 362 299.501 362C299.419 362 299.337 361.997 299.256 361.99C299.174 361.984 299.094 361.974 299.014 361.961C298.933 361.948 298.854 361.933 298.775 361.914C298.697 361.895 298.62 361.873 298.544 361.848C298.468 361.823 298.394 361.795 298.322 361.764C298.25 361.733 298.18 361.698 298.112 361.662C298.044 361.626 297.978 361.588 297.915 361.547C297.852 361.505 297.791 361.46 297.733 361.414C297.676 361.368 297.62 361.32 297.568 361.27C297.516 361.219 297.467 361.166 297.422 361.111C297.376 361.057 297.334 361.001 297.296 360.943C297.257 360.886 297.223 360.826 297.191 360.766C297.16 360.705 297.132 360.643 297.108 360.58C297.085 360.517 297.065 360.455 297.049 360.391C297.033 360.326 297.021 360.26 297.013 360.195C297.005 360.13 297.001 360.066 297.001 360C297.001 359.935 297.005 359.87 297.013 359.805C297.021 359.74 297.033 359.674 297.049 359.609C297.065 359.545 297.085 359.483 297.108 359.42C297.132 359.357 297.16 359.295 297.191 359.234C297.223 359.174 297.257 359.114 297.296 359.057C297.334 358.999 297.376 358.943 297.422 358.889C297.467 358.834 297.516 358.781 297.568 358.73C297.62 358.68 297.676 358.632 297.733 358.586C297.791 358.54 297.852 358.495 297.915 358.453C297.978 358.412 298.044 358.374 298.112 358.338C298.18 358.301 298.25 358.267 298.322 358.236C298.394 358.205 298.468 358.177 298.544 358.152C298.62 358.127 298.697 358.105 298.775 358.086C298.854 358.067 298.933 358.052 299.014 358.039C299.094 358.026 299.174 358.016 299.256 358.01C299.337 358.003 299.419 358 299.501 358C299.583 358 299.665 358.003 299.746 358.01C299.828 358.016 299.908 358.026 299.988 358.039C300.069 358.052 300.148 358.067 300.227 358.086C300.305 358.105 300.382 358.127 300.458 358.152C300.534 358.177 300.607 358.205 300.68 358.236C300.752 358.267 300.822 358.301 300.89 358.338C300.958 358.374 301.024 358.412 301.087 358.453C301.15 358.495 301.211 358.54 301.269 358.586C301.326 358.632 301.382 358.68 301.434 358.73C301.486 358.781 301.535 358.834 301.58 358.889C301.626 358.943 301.667 358.999 301.706 359.057C301.745 359.114 301.779 359.174 301.811 359.234C301.842 359.295 301.87 359.357 301.894 359.42C301.917 359.483 301.937 359.545 301.953 359.609C301.969 359.674 301.981 359.74 301.989 359.805C301.997 359.87 302.001 359.935 302.001 360ZM322.001 374C322.001 374.098 321.997 374.197 321.989 374.295C321.981 374.393 321.969 374.49 321.953 374.588C321.937 374.686 321.917 374.784 321.893 374.881C321.869 374.978 321.841 375.074 321.809 375.17C321.777 375.266 321.741 375.362 321.701 375.457C321.662 375.552 321.618 375.648 321.57 375.742C321.523 375.836 321.471 375.929 321.416 376.021C321.361 376.114 321.303 376.206 321.24 376.297C321.178 376.388 321.111 376.476 321.041 376.564C320.971 376.653 320.898 376.742 320.82 376.828C320.743 376.915 320.662 377 320.578 377.084C320.494 377.168 320.407 377.252 320.316 377.334C320.225 377.416 320.131 377.495 320.033 377.574C319.936 377.653 319.835 377.731 319.731 377.807C319.627 377.883 319.52 377.956 319.411 378.029C319.301 378.102 319.188 378.173 319.072 378.242C318.956 378.312 318.837 378.379 318.717 378.445C318.595 378.511 318.471 378.576 318.345 378.639C318.218 378.701 318.089 378.76 317.958 378.818C317.827 378.877 317.693 378.934 317.557 378.988C317.421 379.043 317.282 379.096 317.142 379.146C317.001 379.197 316.859 379.245 316.715 379.291C316.57 379.337 316.425 379.382 316.277 379.424C316.129 379.466 315.979 379.505 315.828 379.543C315.677 379.581 315.524 379.615 315.37 379.648C315.216 379.682 315.061 379.714 314.904 379.742C314.748 379.771 314.589 379.796 314.431 379.82C314.272 379.844 314.113 379.866 313.952 379.885C313.791 379.904 313.63 379.921 313.468 379.936C313.306 379.95 313.144 379.961 312.981 379.971C312.819 379.98 312.656 379.987 312.492 379.992C312.328 379.997 312.164 380 312.001 380C311.838 380 311.674 379.997 311.51 379.992C311.346 379.987 311.183 379.98 311.021 379.971C310.858 379.961 310.696 379.95 310.534 379.936C310.372 379.921 310.21 379.904 310.05 379.885C309.889 379.866 309.73 379.844 309.571 379.82C309.413 379.796 309.254 379.771 309.098 379.742C308.941 379.714 308.786 379.682 308.632 379.648C308.478 379.615 308.325 379.581 308.174 379.543C308.023 379.505 307.874 379.466 307.726 379.424C307.578 379.382 307.431 379.337 307.287 379.291C307.143 379.245 307.001 379.197 306.86 379.146C306.72 379.096 306.581 379.043 306.445 378.988C306.309 378.934 306.175 378.877 306.044 378.818C305.912 378.76 305.784 378.701 305.657 378.639C305.531 378.576 305.406 378.511 305.285 378.445C305.164 378.379 305.045 378.312 304.93 378.242C304.814 378.173 304.702 378.102 304.592 378.029C304.482 377.956 304.374 377.883 304.271 377.807C304.167 377.731 304.066 377.653 303.969 377.574C303.871 377.495 303.777 377.416 303.687 377.334C303.596 377.252 303.508 377.168 303.424 377.084C303.34 377 303.259 376.915 303.182 376.828C303.105 376.742 303.031 376.653 302.961 376.564C302.891 376.476 302.824 376.388 302.762 376.297C302.699 376.206 302.641 376.114 302.586 376.021C302.531 375.929 302.479 375.836 302.432 375.742C302.384 375.648 302.341 375.552 302.301 375.457C302.261 375.362 302.225 375.266 302.193 375.17C302.161 375.074 302.133 374.978 302.109 374.881C302.085 374.784 302.065 374.686 302.049 374.588C302.033 374.49 302.021 374.393 302.013 374.295C302.005 374.197 302.001 374.098 302.001 374C302.001 373.902 302.005 373.803 302.013 373.705C302.021 373.607 302.033 373.51 302.049 373.412C302.065 373.314 302.085 373.216 302.109 373.119C302.133 373.022 302.161 372.926 302.193 372.83C302.225 372.734 302.261 372.638 302.301 372.543C302.341 372.448 302.384 372.352 302.432 372.258C302.479 372.164 302.531 372.071 302.586 371.979C302.641 371.886 302.699 371.794 302.762 371.703C302.824 371.612 302.891 371.524 302.961 371.436C303.031 371.347 303.104 371.258 303.182 371.172C303.259 371.085 303.34 371 303.424 370.916C303.508 370.832 303.596 370.748 303.687 370.666C303.777 370.584 303.871 370.505 303.969 370.426C304.066 370.347 304.167 370.269 304.271 370.193C304.374 370.117 304.482 370.044 304.592 369.971C304.702 369.898 304.814 369.827 304.93 369.758C305.045 369.688 305.164 369.621 305.285 369.555C305.406 369.489 305.531 369.424 305.657 369.361C305.784 369.299 305.912 369.24 306.044 369.182C306.175 369.123 306.309 369.066 306.445 369.012C306.581 368.957 306.72 368.904 306.86 368.854C307.001 368.803 307.143 368.755 307.287 368.709C307.431 368.663 307.578 368.618 307.726 368.576C307.874 368.534 308.023 368.495 308.174 368.457C308.325 368.419 308.478 368.385 308.632 368.352C308.786 368.318 308.941 368.286 309.098 368.258C309.254 368.229 309.413 368.204 309.571 368.18C309.73 368.156 309.889 368.134 310.05 368.115C310.21 368.096 310.372 368.079 310.534 368.064C310.696 368.05 310.858 368.039 311.021 368.029C311.183 368.02 311.346 368.013 311.51 368.008C311.674 368.003 311.838 368 312.001 368C312.164 368 312.328 368.003 312.492 368.008C312.656 368.013 312.819 368.02 312.981 368.029C313.144 368.039 313.306 368.05 313.468 368.064C313.63 368.079 313.791 368.096 313.952 368.115C314.113 368.134 314.272 368.156 314.431 368.18C314.589 368.204 314.748 368.229 314.904 368.258C315.061 368.286 315.216 368.318 315.37 368.352C315.524 368.385 315.677 368.419 315.828 368.457C315.979 368.495 316.129 368.534 316.277 368.576C316.425 368.618 316.57 368.663 316.715 368.709C316.859 368.755 317.001 368.803 317.142 368.854C317.282 368.904 317.421 368.957 317.557 369.012C317.693 369.066 317.827 369.123 317.958 369.182C318.089 369.24 318.218 369.299 318.345 369.361C318.471 369.424 318.595 369.489 318.717 369.555C318.837 369.621 318.956 369.688 319.072 369.758C319.188 369.827 319.301 369.898 319.411 369.971C319.52 370.044 319.627 370.117 319.731 370.193C319.835 370.269 319.936 370.347 320.033 370.426C320.131 370.505 320.225 370.584 320.316 370.666C320.407 370.748 320.494 370.832 320.578 370.916C320.662 371 320.743 371.085 320.82 371.172C320.898 371.258 320.971 371.347 321.041 371.436C321.111 371.524 321.178 371.612 321.24 371.703C321.303 371.794 321.361 371.886 321.416 371.979C321.471 372.071 321.523 372.164 321.57 372.258C321.618 372.352 321.662 372.448 321.701 372.543C321.741 372.638 321.777 372.734 321.809 372.83C321.841 372.926 321.869 373.022 321.893 373.119C321.917 373.216 321.937 373.314 321.953 373.412C321.969 373.51 321.981 373.607 321.989 373.705C321.997 373.803 322.001 373.902 322.001 374ZM260.836 368.516C260.801 368.73 260.759 368.944 260.713 369.156C260.666 369.369 260.615 369.58 260.558 369.791C260.5 370.002 260.437 370.212 260.368 370.42C260.3 370.628 260.226 370.834 260.146 371.039C260.067 371.244 259.983 371.448 259.893 371.65C259.803 371.853 259.707 372.053 259.606 372.252C259.506 372.45 259.4 372.647 259.289 372.842C259.178 373.036 259.062 373.228 258.941 373.418C258.82 373.608 258.695 373.795 258.564 373.98C258.434 374.166 258.298 374.349 258.157 374.529C258.017 374.709 257.872 374.886 257.723 375.061C257.573 375.235 257.418 375.406 257.26 375.574C257.101 375.743 256.938 375.91 256.771 376.072C256.603 376.235 256.432 376.393 256.256 376.549C256.08 376.705 255.9 376.857 255.717 377.006C255.533 377.155 255.346 377.301 255.154 377.443C254.963 377.585 254.769 377.723 254.57 377.857C254.372 377.992 254.169 378.121 253.964 378.248C253.758 378.375 253.55 378.498 253.338 378.617C253.126 378.736 252.911 378.85 252.693 378.961C252.475 379.071 252.255 379.177 252.031 379.279C251.808 379.381 251.582 379.481 251.354 379.574C251.125 379.668 250.894 379.757 250.661 379.842C250.428 379.926 250.192 380.006 249.955 380.082C249.718 380.158 249.479 380.228 249.237 380.295C248.996 380.362 248.753 380.423 248.509 380.48C248.264 380.538 248.019 380.591 247.771 380.639C247.524 380.687 247.276 380.731 247.026 380.77C246.777 380.808 246.527 380.84 246.275 380.869C246.024 380.898 245.772 380.922 245.52 380.941C245.267 380.961 245.014 380.977 244.761 380.986C244.507 380.996 244.254 381 244.001 381C243.723 381 243.445 380.994 243.167 380.982C242.889 380.971 242.612 380.953 242.335 380.93C242.058 380.906 241.782 380.879 241.507 380.844C241.232 380.809 240.957 380.767 240.685 380.721C240.412 380.674 240.14 380.622 239.87 380.564C239.6 380.507 239.333 380.444 239.066 380.375C238.8 380.306 238.535 380.232 238.273 380.152C238.011 380.072 237.752 379.987 237.495 379.896C237.238 379.806 236.984 379.709 236.732 379.607C236.481 379.506 236.233 379.399 235.987 379.287C235.742 379.175 235.5 379.059 235.262 378.938C235.023 378.816 234.788 378.689 234.557 378.557C234.325 378.425 234.097 378.288 233.874 378.146C233.651 378.005 233.431 377.86 233.216 377.709C233.001 377.558 232.791 377.403 232.585 377.244C232.379 377.085 232.177 376.922 231.98 376.754C231.784 376.586 231.591 376.414 231.404 376.238C231.217 376.062 231.036 375.883 230.859 375.699C230.683 375.516 230.512 375.327 230.347 375.137C230.181 374.946 230.021 374.754 229.866 374.557C229.712 374.359 229.563 374.159 229.42 373.955C229.277 373.752 229.139 373.545 229.008 373.336C228.877 373.127 228.752 372.914 228.633 372.699C228.514 372.485 228.401 372.268 228.295 372.049C228.188 371.83 228.089 371.608 227.995 371.385C227.901 371.161 227.814 370.936 227.733 370.709C227.653 370.482 227.578 370.254 227.511 370.023C227.443 369.793 227.381 369.561 227.327 369.328C227.273 369.095 227.225 368.862 227.185 368.627C227.144 368.392 227.11 368.158 227.083 367.922C227.056 367.686 227.035 367.448 227.021 367.211C227.008 366.974 227.001 366.737 227.001 366.5C227.001 366.263 227.008 366.026 227.021 365.789C227.035 365.552 227.056 365.314 227.083 365.078C227.11 364.842 227.144 364.608 227.185 364.373C227.225 364.138 227.273 363.905 227.327 363.672C227.381 363.439 227.443 363.207 227.511 362.977C227.578 362.746 227.653 362.518 227.733 362.291C227.814 362.064 227.901 361.839 227.995 361.615C228.089 361.392 228.188 361.17 228.295 360.951C228.401 360.732 228.514 360.515 228.633 360.301C228.752 360.086 228.877 359.873 229.008 359.664C229.139 359.455 229.277 359.248 229.42 359.045C229.563 358.841 229.712 358.641 229.866 358.443C230.021 358.246 230.181 358.054 230.347 357.863C230.512 357.673 230.683 357.484 230.859 357.301C231.036 357.117 231.217 356.938 231.404 356.762C231.591 356.586 231.784 356.414 231.98 356.246C232.177 356.078 232.379 355.915 232.585 355.756C232.791 355.596 233.001 355.442 233.216 355.291C233.431 355.14 233.651 354.995 233.874 354.854C234.097 354.712 234.325 354.575 234.557 354.443C234.788 354.312 235.022 354.184 235.261 354.062C235.499 353.941 235.742 353.825 235.987 353.713C236.233 353.601 236.481 353.494 236.732 353.393C236.984 353.291 237.238 353.194 237.495 353.104C237.752 353.013 238.011 352.928 238.273 352.848C238.535 352.768 238.8 352.694 239.066 352.625C239.333 352.556 239.6 352.491 239.87 352.434C240.14 352.376 240.412 352.326 240.685 352.279C240.957 352.233 241.232 352.191 241.507 352.156C241.782 352.121 242.058 352.094 242.335 352.07C242.612 352.047 242.889 352.029 243.167 352.018C243.445 352.006 243.723 352 244.001 352C244.381 352 244.761 352.011 245.141 352.033C245.52 352.055 245.899 352.087 246.275 352.131C246.652 352.174 247.027 352.228 247.399 352.293C247.772 352.358 248.141 352.434 248.508 352.52C248.874 352.606 249.238 352.702 249.597 352.809C249.956 352.915 250.31 353.031 250.66 353.158C251.01 353.285 251.354 353.424 251.693 353.57C252.032 353.717 252.366 353.873 252.692 354.039C253.019 354.205 253.339 354.38 253.652 354.564C253.965 354.749 254.271 354.941 254.569 355.143C254.867 355.344 255.156 355.553 255.438 355.771C255.719 355.99 255.991 356.215 256.255 356.449C256.518 356.683 256.773 356.925 257.018 357.174C257.262 357.422 257.497 357.676 257.722 357.938C257.946 358.199 258.16 358.468 258.363 358.742C258.567 359.016 258.759 359.295 258.94 359.58C259.091 359.455 259.248 359.337 259.412 359.225C259.576 359.112 259.745 359.008 259.921 358.91C260.097 358.812 260.278 358.72 260.465 358.637C260.651 358.553 260.842 358.478 261.037 358.41C261.232 358.343 261.43 358.284 261.632 358.232C261.834 358.181 262.038 358.138 262.245 358.104C262.452 358.069 262.66 358.043 262.87 358.025C263.08 358.008 263.29 358 263.501 358C263.607 358 263.714 358.001 263.82 358.006C263.927 358.01 264.032 358.019 264.138 358.027C264.244 358.036 264.35 358.045 264.455 358.059C264.56 358.072 264.665 358.088 264.77 358.105C264.874 358.123 264.977 358.142 265.08 358.164C265.183 358.186 265.286 358.21 265.388 358.236C265.489 358.262 265.59 358.292 265.69 358.322C265.791 358.353 265.89 358.384 265.988 358.418C266.087 358.452 266.184 358.489 266.28 358.527C266.376 358.566 266.472 358.608 266.565 358.65C266.659 358.693 266.752 358.737 266.843 358.783C266.934 358.829 267.024 358.878 267.112 358.928C267.201 358.978 267.288 359.028 267.373 359.082C267.459 359.136 267.543 359.191 267.625 359.248C267.707 359.305 267.787 359.363 267.866 359.424C267.945 359.484 268.022 359.548 268.098 359.611C268.173 359.675 268.246 359.74 268.317 359.807C268.389 359.873 268.458 359.942 268.525 360.012C268.593 360.081 268.658 360.152 268.722 360.225C268.785 360.297 268.846 360.37 268.905 360.445C268.964 360.52 269.022 360.595 269.076 360.672C269.131 360.749 269.183 360.829 269.233 360.908C269.284 360.988 269.331 361.067 269.377 361.148C269.422 361.23 269.465 361.311 269.506 361.395C269.547 361.478 269.585 361.562 269.621 361.646C269.657 361.731 269.69 361.818 269.721 361.904C269.752 361.99 269.781 362.077 269.807 362.164C269.833 362.251 269.855 362.339 269.876 362.428C269.897 362.516 269.915 362.604 269.931 362.693C269.946 362.782 269.959 362.871 269.97 362.961C269.98 363.051 269.988 363.141 269.993 363.23C269.998 363.32 270.001 363.41 270.001 363.5C270.001 363.59 269.998 363.68 269.993 363.77C269.988 363.859 269.98 363.949 269.97 364.039C269.959 364.129 269.946 364.218 269.931 364.307C269.915 364.396 269.897 364.484 269.876 364.572C269.855 364.661 269.833 364.749 269.807 364.836C269.781 364.923 269.752 365.01 269.721 365.096C269.69 365.182 269.657 365.269 269.621 365.354C269.585 365.438 269.547 365.522 269.506 365.605C269.465 365.689 269.422 365.77 269.377 365.852C269.331 365.933 269.284 366.012 269.233 366.092C269.183 366.171 269.131 366.251 269.076 366.328C269.022 366.405 268.964 366.48 268.905 366.555C268.846 366.63 268.785 366.703 268.722 366.775C268.658 366.848 268.593 366.919 268.525 366.988C268.458 367.058 268.389 367.127 268.317 367.193C268.246 367.26 268.173 367.325 268.098 367.389C268.022 367.452 267.945 367.516 267.866 367.576C267.787 367.637 267.707 367.695 267.625 367.752C267.543 367.809 267.459 367.864 267.373 367.918C267.288 367.972 267.201 368.022 267.112 368.072C267.024 368.122 266.934 368.171 266.843 368.217C266.752 368.263 266.659 368.309 266.565 368.352C266.472 368.394 266.376 368.434 266.28 368.473C266.184 368.511 266.087 368.548 265.988 368.582C265.89 368.616 265.791 368.647 265.69 368.678C265.59 368.708 265.489 368.738 265.388 368.764C265.286 368.79 265.183 368.814 265.08 368.836C264.977 368.858 264.874 368.877 264.77 368.895C264.665 368.912 264.56 368.928 264.455 368.941C264.35 368.955 264.244 368.964 264.138 368.973C264.032 368.981 263.927 368.99 263.82 368.994C263.714 368.999 263.607 369 263.501 369C263.042 369 262.587 368.958 262.138 368.877C261.688 368.795 261.255 368.675 260.836 368.516ZM280.501 381C280.591 381 280.681 380.997 280.771 380.992C280.86 380.987 280.95 380.98 281.04 380.971C281.13 380.961 281.219 380.95 281.308 380.936C281.397 380.921 281.486 380.904 281.574 380.885C281.662 380.866 281.75 380.844 281.837 380.82C281.924 380.796 282.012 380.771 282.098 380.742C282.184 380.714 282.269 380.682 282.354 380.648C282.438 380.615 282.522 380.581 282.605 380.543C282.689 380.505 282.771 380.466 282.853 380.424C282.934 380.382 283.014 380.337 283.094 380.291C283.173 380.245 283.251 380.197 283.328 380.146C283.405 380.096 283.482 380.043 283.557 379.988C283.632 379.934 283.705 379.877 283.777 379.818C283.85 379.76 283.921 379.701 283.99 379.639C284.06 379.576 284.128 379.511 284.194 379.445C284.261 379.379 284.326 379.312 284.39 379.242C284.453 379.173 284.516 379.102 284.576 379.029C284.637 378.956 284.696 378.883 284.753 378.807C284.81 378.731 284.865 378.653 284.919 378.574C284.973 378.495 285.024 378.416 285.074 378.334C285.124 378.252 285.172 378.168 285.219 378.084C285.265 378 285.309 377.915 285.352 377.828C285.394 377.742 285.434 377.653 285.473 377.564C285.511 377.476 285.548 377.388 285.582 377.297C285.617 377.206 285.649 377.114 285.68 377.021C285.71 376.929 285.739 376.836 285.765 376.742C285.791 376.648 285.814 376.552 285.836 376.457C285.858 376.362 285.878 376.266 285.896 376.17C285.913 376.074 285.928 375.978 285.941 375.881C285.955 375.784 285.966 375.686 285.975 375.588C285.983 375.49 285.99 375.393 285.994 375.295C285.999 375.197 286.001 375.098 286.001 375C286.001 374.902 285.999 374.803 285.994 374.705C285.99 374.607 285.983 374.51 285.975 374.412C285.966 374.314 285.955 374.216 285.941 374.119C285.928 374.022 285.913 373.926 285.896 373.83C285.878 373.734 285.858 373.638 285.836 373.543C285.814 373.448 285.791 373.352 285.765 373.258C285.739 373.164 285.71 373.071 285.68 372.979C285.649 372.886 285.617 372.794 285.582 372.703C285.548 372.612 285.511 372.524 285.473 372.436C285.434 372.347 285.394 372.258 285.352 372.172C285.309 372.085 285.265 372 285.219 371.916C285.172 371.832 285.124 371.748 285.074 371.666C285.024 371.584 284.973 371.505 284.919 371.426C284.865 371.347 284.81 371.269 284.753 371.193C284.696 371.117 284.637 371.044 284.576 370.971C284.516 370.898 284.453 370.827 284.39 370.758C284.326 370.688 284.261 370.621 284.194 370.555C284.128 370.489 284.06 370.424 283.99 370.361C283.921 370.299 283.85 370.24 283.777 370.182C283.705 370.123 283.632 370.066 283.557 370.012C283.482 369.957 283.405 369.904 283.328 369.854C283.251 369.803 283.173 369.755 283.094 369.709C283.014 369.663 282.934 369.618 282.853 369.576C282.771 369.534 282.689 369.495 282.605 369.457C282.522 369.419 282.438 369.385 282.354 369.352C282.269 369.318 282.184 369.286 282.098 369.258C282.012 369.229 281.924 369.204 281.837 369.18C281.75 369.156 281.662 369.134 281.574 369.115C281.486 369.096 281.397 369.079 281.308 369.064C281.219 369.05 281.13 369.039 281.04 369.029C280.95 369.02 280.86 369.013 280.771 369.008C280.681 369.003 280.591 369 280.501 369C280.411 369 280.321 369.003 280.231 369.008C280.142 369.013 280.052 369.02 279.962 369.029C279.872 369.039 279.783 369.05 279.694 369.064C279.605 369.079 279.516 369.096 279.428 369.115C279.339 369.134 279.252 369.156 279.165 369.18C279.078 369.204 278.99 369.229 278.904 369.258C278.818 369.286 278.733 369.318 278.648 369.352C278.564 369.385 278.48 369.419 278.396 369.457C278.313 369.495 278.231 369.534 278.149 369.576C278.068 369.618 277.988 369.663 277.908 369.709C277.829 369.755 277.751 369.803 277.674 369.854C277.597 369.904 277.52 369.957 277.445 370.012C277.37 370.066 277.297 370.123 277.225 370.182C277.152 370.24 277.081 370.299 277.012 370.361C276.942 370.424 276.874 370.489 276.808 370.555C276.741 370.621 276.676 370.688 276.612 370.758C276.549 370.827 276.486 370.898 276.426 370.971C276.365 371.044 276.306 371.117 276.249 371.193C276.192 371.269 276.137 371.347 276.083 371.426C276.029 371.505 275.978 371.584 275.928 371.666C275.878 371.748 275.829 371.832 275.783 371.916C275.737 372 275.693 372.085 275.65 372.172C275.608 372.258 275.568 372.347 275.529 372.436C275.491 372.524 275.454 372.612 275.42 372.703C275.385 372.794 275.353 372.886 275.322 372.979C275.292 373.071 275.263 373.164 275.237 373.258C275.211 373.352 275.188 373.448 275.166 373.543C275.144 373.638 275.124 373.734 275.106 373.83C275.089 373.926 275.074 374.022 275.061 374.119C275.047 374.216 275.036 374.314 275.027 374.412C275.018 374.51 275.012 374.607 275.008 374.705C275.003 374.803 275.001 374.902 275.001 375C275.001 375.098 275.003 375.197 275.008 375.295C275.012 375.393 275.018 375.49 275.027 375.588C275.036 375.686 275.047 375.784 275.061 375.881C275.074 375.978 275.089 376.074 275.106 376.17C275.124 376.266 275.144 376.362 275.166 376.457C275.188 376.552 275.211 376.648 275.237 376.742C275.263 376.836 275.292 376.929 275.322 377.021C275.353 377.114 275.385 377.206 275.42 377.297C275.454 377.388 275.491 377.476 275.529 377.564C275.568 377.653 275.608 377.742 275.65 377.828C275.693 377.915 275.737 378 275.783 378.084C275.829 378.168 275.878 378.252 275.928 378.334C275.978 378.416 276.029 378.495 276.083 378.574C276.137 378.653 276.192 378.731 276.249 378.807C276.306 378.883 276.365 378.956 276.426 379.029C276.486 379.102 276.549 379.173 276.612 379.242C276.676 379.312 276.741 379.379 276.808 379.445C276.874 379.511 276.942 379.576 277.012 379.639C277.081 379.701 277.152 379.76 277.225 379.818C277.297 379.877 277.37 379.934 277.445 379.988C277.52 380.043 277.597 380.096 277.674 380.146C277.751 380.197 277.829 380.245 277.908 380.291C277.988 380.337 278.068 380.382 278.149 380.424C278.231 380.466 278.313 380.505 278.396 380.543C278.48 380.581 278.564 380.615 278.648 380.648C278.733 380.682 278.818 380.714 278.904 380.742C278.99 380.771 279.078 380.796 279.165 380.82C279.252 380.844 279.339 380.866 279.428 380.885C279.516 380.904 279.605 380.921 279.694 380.936C279.783 380.95 279.872 380.961 279.962 380.971C280.052 380.98 280.142 380.987 280.231 380.992C280.321 380.997 280.411 381 280.501 381ZM210.501 383C210.583 383 210.665 382.997 210.746 382.99C210.828 382.984 210.908 382.974 210.988 382.961C211.069 382.948 211.148 382.933 211.227 382.914C211.305 382.895 211.382 382.873 211.458 382.848C211.534 382.823 211.607 382.795 211.68 382.764C211.752 382.733 211.822 382.699 211.89 382.662C211.958 382.626 212.024 382.588 212.087 382.547C212.15 382.505 212.211 382.46 212.269 382.414C212.326 382.368 212.382 382.32 212.434 382.27C212.486 382.219 212.535 382.166 212.58 382.111C212.626 382.057 212.667 382.001 212.706 381.943C212.745 381.886 212.779 381.826 212.811 381.766C212.842 381.705 212.87 381.643 212.894 381.58C212.917 381.517 212.937 381.455 212.953 381.391C212.969 381.326 212.981 381.261 212.989 381.195C212.997 381.13 213.001 381.066 213.001 381C213.001 380.934 212.997 380.87 212.989 380.805C212.981 380.739 212.969 380.674 212.953 380.609C212.937 380.545 212.917 380.483 212.894 380.42C212.87 380.357 212.842 380.295 212.811 380.234C212.779 380.174 212.745 380.114 212.706 380.057C212.667 379.999 212.626 379.943 212.58 379.889C212.535 379.834 212.486 379.781 212.434 379.73C212.382 379.68 212.326 379.632 212.269 379.586C212.211 379.54 212.15 379.495 212.087 379.453C212.024 379.412 211.958 379.374 211.89 379.338C211.822 379.301 211.752 379.267 211.68 379.236C211.607 379.205 211.534 379.177 211.458 379.152C211.382 379.127 211.305 379.105 211.227 379.086C211.148 379.067 211.069 379.052 210.988 379.039C210.908 379.026 210.828 379.016 210.746 379.01C210.665 379.003 210.583 379 210.501 379C210.419 379 210.337 379.003 210.256 379.01C210.174 379.016 210.094 379.026 210.014 379.039C209.933 379.052 209.854 379.067 209.775 379.086C209.697 379.105 209.62 379.127 209.544 379.152C209.468 379.177 209.394 379.205 209.322 379.236C209.25 379.267 209.18 379.301 209.112 379.338C209.044 379.374 208.978 379.412 208.915 379.453C208.852 379.495 208.791 379.54 208.733 379.586C208.676 379.632 208.62 379.68 208.568 379.73C208.516 379.781 208.467 379.834 208.422 379.889C208.376 379.943 208.334 379.999 208.296 380.057C208.257 380.114 208.223 380.174 208.191 380.234C208.16 380.295 208.132 380.357 208.108 380.42C208.085 380.483 208.065 380.545 208.049 380.609C208.033 380.674 208.021 380.739 208.013 380.805C208.005 380.87 208.001 380.934 208.001 381C208.001 381.066 208.005 381.13 208.013 381.195C208.021 381.261 208.033 381.326 208.049 381.391C208.065 381.455 208.085 381.517 208.108 381.58C208.132 381.643 208.16 381.705 208.191 381.766C208.223 381.826 208.257 381.886 208.296 381.943C208.334 382.001 208.376 382.057 208.422 382.111C208.467 382.166 208.516 382.219 208.568 382.27C208.62 382.32 208.676 382.368 208.733 382.414C208.791 382.46 208.852 382.505 208.915 382.547C208.978 382.588 209.044 382.626 209.112 382.662C209.18 382.699 209.25 382.733 209.322 382.764C209.394 382.795 209.468 382.823 209.544 382.848C209.62 382.873 209.697 382.895 209.775 382.914C209.854 382.933 209.933 382.948 210.014 382.961C210.094 382.974 210.174 382.984 210.256 382.99C210.337 382.997 210.419 383 210.501 383Z" fill="#626B86"/>
<path d="M301.001 358C301.001 358.066 300.997 358.13 300.989 358.195C300.981 358.26 300.969 358.326 300.953 358.391C300.937 358.455 300.917 358.517 300.894 358.58C300.87 358.643 300.842 358.705 300.811 358.766C300.779 358.826 300.745 358.886 300.706 358.943C300.667 359.001 300.626 359.057 300.58 359.111C300.535 359.166 300.486 359.219 300.434 359.27C300.382 359.32 300.326 359.368 300.269 359.414C300.211 359.46 300.15 359.505 300.087 359.547C300.024 359.588 299.958 359.626 299.89 359.662C299.822 359.698 299.752 359.733 299.68 359.764C299.607 359.795 299.534 359.823 299.458 359.848C299.382 359.873 299.305 359.895 299.227 359.914C299.148 359.933 299.069 359.948 298.988 359.961C298.908 359.974 298.828 359.984 298.746 359.99C298.665 359.997 298.583 360 298.501 360C298.419 360 298.337 359.997 298.256 359.99C298.174 359.984 298.094 359.974 298.014 359.961C297.933 359.948 297.854 359.933 297.775 359.914C297.697 359.895 297.62 359.873 297.544 359.848C297.468 359.823 297.394 359.795 297.322 359.764C297.25 359.733 297.18 359.698 297.112 359.662C297.044 359.626 296.978 359.588 296.915 359.547C296.852 359.505 296.791 359.46 296.733 359.414C296.676 359.368 296.62 359.32 296.568 359.27C296.516 359.219 296.467 359.166 296.422 359.111C296.376 359.057 296.334 359.001 296.296 358.943C296.257 358.886 296.223 358.826 296.191 358.766C296.16 358.705 296.132 358.643 296.108 358.58C296.085 358.517 296.065 358.455 296.049 358.391C296.033 358.326 296.021 358.26 296.013 358.195C296.005 358.13 296.001 358.066 296.001 358C296.001 357.935 296.005 357.87 296.013 357.805C296.021 357.74 296.033 357.674 296.049 357.609C296.065 357.545 296.085 357.483 296.108 357.42C296.132 357.357 296.16 357.295 296.191 357.234C296.223 357.174 296.257 357.114 296.296 357.057C296.334 356.999 296.376 356.943 296.422 356.889C296.467 356.834 296.516 356.781 296.568 356.73C296.62 356.68 296.676 356.632 296.733 356.586C296.791 356.54 296.852 356.495 296.915 356.453C296.978 356.412 297.044 356.374 297.112 356.338C297.18 356.301 297.25 356.267 297.322 356.236C297.394 356.205 297.468 356.177 297.544 356.152C297.62 356.127 297.697 356.105 297.775 356.086C297.854 356.067 297.933 356.052 298.014 356.039C298.094 356.026 298.174 356.016 298.256 356.01C298.337 356.003 298.419 356 298.501 356C298.583 356 298.665 356.003 298.746 356.01C298.828 356.016 298.908 356.026 298.988 356.039C299.069 356.052 299.148 356.067 299.227 356.086C299.305 356.105 299.382 356.127 299.458 356.152C299.534 356.177 299.607 356.205 299.68 356.236C299.752 356.267 299.822 356.301 299.89 356.338C299.958 356.374 300.024 356.412 300.087 356.453C300.15 356.495 300.211 356.54 300.269 356.586C300.326 356.632 300.382 356.68 300.434 356.73C300.486 356.781 300.535 356.834 300.58 356.889C300.626 356.943 300.667 356.999 300.706 357.057C300.745 357.114 300.779 357.174 300.811 357.234C300.842 357.295 300.87 357.357 300.894 357.42C300.917 357.483 300.937 357.545 300.953 357.609C300.969 357.674 300.981 357.74 300.989 357.805C300.997 357.87 301.001 357.935 301.001 358ZM321.001 372C321.001 372.098 320.997 372.197 320.989 372.295C320.981 372.393 320.969 372.49 320.953 372.588C320.937 372.686 320.917 372.784 320.893 372.881C320.869 372.978 320.841 373.074 320.809 373.17C320.777 373.266 320.741 373.362 320.701 373.457C320.662 373.552 320.618 373.648 320.57 373.742C320.523 373.836 320.471 373.929 320.416 374.021C320.361 374.114 320.303 374.206 320.24 374.297C320.178 374.388 320.111 374.476 320.041 374.564C319.971 374.653 319.898 374.742 319.82 374.828C319.743 374.915 319.662 375 319.578 375.084C319.494 375.168 319.407 375.252 319.316 375.334C319.225 375.416 319.131 375.495 319.033 375.574C318.936 375.653 318.835 375.731 318.731 375.807C318.627 375.883 318.52 375.956 318.411 376.029C318.301 376.102 318.188 376.173 318.072 376.242C317.956 376.312 317.837 376.379 317.717 376.445C317.595 376.511 317.471 376.576 317.345 376.639C317.218 376.701 317.089 376.76 316.958 376.818C316.827 376.877 316.693 376.934 316.557 376.988C316.421 377.043 316.282 377.096 316.142 377.146C316.001 377.197 315.859 377.245 315.715 377.291C315.57 377.337 315.425 377.382 315.277 377.424C315.129 377.466 314.979 377.505 314.828 377.543C314.677 377.581 314.524 377.615 314.37 377.648C314.216 377.682 314.061 377.714 313.904 377.742C313.748 377.771 313.589 377.796 313.431 377.82C313.272 377.844 313.113 377.866 312.952 377.885C312.791 377.904 312.63 377.921 312.468 377.936C312.306 377.95 312.144 377.961 311.981 377.971C311.819 377.98 311.656 377.987 311.492 377.992C311.328 377.997 311.164 378 311.001 378C310.838 378 310.674 377.997 310.51 377.992C310.346 377.987 310.183 377.98 310.021 377.971C309.858 377.961 309.696 377.95 309.534 377.936C309.372 377.921 309.21 377.904 309.05 377.885C308.889 377.866 308.73 377.844 308.571 377.82C308.413 377.796 308.254 377.771 308.098 377.742C307.941 377.714 307.786 377.682 307.632 377.648C307.478 377.615 307.325 377.581 307.174 377.543C307.023 377.505 306.874 377.466 306.726 377.424C306.578 377.382 306.431 377.337 306.287 377.291C306.143 377.245 306.001 377.197 305.86 377.146C305.72 377.096 305.581 377.043 305.445 376.988C305.309 376.934 305.175 376.877 305.044 376.818C304.912 376.76 304.784 376.701 304.657 376.639C304.531 376.576 304.406 376.511 304.285 376.445C304.164 376.379 304.045 376.312 303.93 376.242C303.814 376.173 303.702 376.102 303.592 376.029C303.482 375.956 303.374 375.883 303.271 375.807C303.167 375.731 303.066 375.653 302.969 375.574C302.871 375.495 302.777 375.416 302.687 375.334C302.596 375.252 302.508 375.168 302.424 375.084C302.34 375 302.259 374.915 302.182 374.828C302.105 374.742 302.031 374.653 301.961 374.564C301.891 374.476 301.824 374.388 301.762 374.297C301.699 374.206 301.641 374.114 301.586 374.021C301.531 373.929 301.479 373.836 301.432 373.742C301.384 373.648 301.341 373.552 301.301 373.457C301.261 373.362 301.225 373.266 301.193 373.17C301.161 373.074 301.133 372.978 301.109 372.881C301.085 372.784 301.065 372.686 301.049 372.588C301.033 372.49 301.021 372.393 301.013 372.295C301.005 372.197 301.001 372.098 301.001 372C301.001 371.902 301.005 371.803 301.013 371.705C301.021 371.607 301.033 371.51 301.049 371.412C301.065 371.314 301.085 371.216 301.109 371.119C301.133 371.022 301.161 370.926 301.193 370.83C301.225 370.734 301.261 370.638 301.301 370.543C301.341 370.448 301.384 370.352 301.432 370.258C301.479 370.164 301.531 370.071 301.586 369.979C301.641 369.886 301.699 369.794 301.762 369.703C301.824 369.612 301.891 369.524 301.961 369.436C302.031 369.347 302.104 369.258 302.182 369.172C302.259 369.085 302.34 369 302.424 368.916C302.508 368.832 302.596 368.748 302.687 368.666C302.777 368.584 302.871 368.505 302.969 368.426C303.066 368.347 303.167 368.269 303.271 368.193C303.374 368.117 303.482 368.044 303.592 367.971C303.702 367.898 303.814 367.827 303.93 367.758C304.045 367.688 304.164 367.621 304.285 367.555C304.406 367.489 304.531 367.424 304.657 367.361C304.784 367.299 304.912 367.24 305.044 367.182C305.175 367.123 305.309 367.066 305.445 367.012C305.581 366.957 305.72 366.904 305.86 366.854C306.001 366.803 306.143 366.755 306.287 366.709C306.431 366.663 306.578 366.618 306.726 366.576C306.874 366.534 307.023 366.495 307.174 366.457C307.325 366.419 307.478 366.385 307.632 366.352C307.786 366.318 307.941 366.286 308.098 366.258C308.254 366.229 308.413 366.204 308.571 366.18C308.73 366.156 308.889 366.134 309.05 366.115C309.21 366.096 309.372 366.079 309.534 366.064C309.696 366.05 309.858 366.039 310.021 366.029C310.183 366.02 310.346 366.013 310.51 366.008C310.674 366.003 310.838 366 311.001 366C311.164 366 311.328 366.003 311.492 366.008C311.656 366.013 311.819 366.02 311.981 366.029C312.144 366.039 312.306 366.05 312.468 366.064C312.63 366.079 312.791 366.096 312.952 366.115C313.113 366.134 313.272 366.156 313.431 366.18C313.589 366.204 313.748 366.229 313.904 366.258C314.061 366.286 314.216 366.318 314.37 366.352C314.524 366.385 314.677 366.419 314.828 366.457C314.979 366.495 315.129 366.534 315.277 366.576C315.425 366.618 315.57 366.663 315.715 366.709C315.859 366.755 316.001 366.803 316.142 366.854C316.282 366.904 316.421 366.957 316.557 367.012C316.693 367.066 316.827 367.123 316.958 367.182C317.089 367.24 317.218 367.299 317.345 367.361C317.471 367.424 317.595 367.489 317.717 367.555C317.837 367.621 317.956 367.688 318.072 367.758C318.188 367.827 318.301 367.898 318.411 367.971C318.52 368.044 318.627 368.117 318.731 368.193C318.835 368.269 318.936 368.347 319.033 368.426C319.131 368.505 319.225 368.584 319.316 368.666C319.407 368.748 319.494 368.832 319.578 368.916C319.662 369 319.743 369.085 319.82 369.172C319.898 369.258 319.971 369.347 320.041 369.436C320.111 369.524 320.178 369.612 320.24 369.703C320.303 369.794 320.361 369.886 320.416 369.979C320.471 370.071 320.523 370.164 320.57 370.258C320.618 370.352 320.662 370.448 320.701 370.543C320.741 370.638 320.777 370.734 320.809 370.83C320.841 370.926 320.869 371.022 320.893 371.119C320.917 371.216 320.937 371.314 320.953 371.412C320.969 371.51 320.981 371.607 320.989 371.705C320.997 371.803 321.001 371.902 321.001 372ZM259.836 366.516C259.801 366.73 259.759 366.944 259.713 367.156C259.666 367.369 259.615 367.58 259.558 367.791C259.5 368.002 259.437 368.212 259.368 368.42C259.3 368.628 259.226 368.834 259.146 369.039C259.067 369.244 258.983 369.448 258.893 369.65C258.803 369.853 258.707 370.053 258.606 370.252C258.506 370.45 258.4 370.647 258.289 370.842C258.178 371.036 258.062 371.228 257.941 371.418C257.82 371.608 257.695 371.795 257.564 371.98C257.434 372.166 257.298 372.349 257.157 372.529C257.017 372.709 256.872 372.886 256.723 373.061C256.573 373.235 256.418 373.406 256.26 373.574C256.101 373.743 255.938 373.91 255.771 374.072C255.603 374.235 255.432 374.393 255.256 374.549C255.08 374.705 254.9 374.857 254.717 375.006C254.533 375.155 254.346 375.301 254.154 375.443C253.963 375.585 253.769 375.723 253.57 375.857C253.372 375.992 253.169 376.121 252.964 376.248C252.758 376.375 252.55 376.498 252.338 376.617C252.126 376.736 251.911 376.85 251.693 376.961C251.475 377.071 251.255 377.177 251.031 377.279C250.808 377.381 250.582 377.481 250.354 377.574C250.125 377.668 249.894 377.757 249.661 377.842C249.428 377.926 249.192 378.006 248.955 378.082C248.718 378.158 248.479 378.228 248.237 378.295C247.996 378.362 247.753 378.423 247.509 378.48C247.264 378.538 247.019 378.591 246.771 378.639C246.524 378.687 246.276 378.731 246.026 378.77C245.777 378.808 245.527 378.84 245.275 378.869C245.024 378.898 244.772 378.922 244.52 378.941C244.267 378.961 244.014 378.977 243.761 378.986C243.507 378.996 243.254 379 243.001 379C242.723 379 242.445 378.994 242.167 378.982C241.889 378.971 241.612 378.953 241.335 378.93C241.058 378.906 240.782 378.879 240.507 378.844C240.232 378.809 239.957 378.767 239.685 378.721C239.412 378.674 239.14 378.622 238.87 378.564C238.6 378.507 238.333 378.444 238.066 378.375C237.8 378.306 237.535 378.232 237.273 378.152C237.011 378.072 236.752 377.987 236.495 377.896C236.238 377.806 235.984 377.709 235.732 377.607C235.481 377.506 235.233 377.399 234.987 377.287C234.742 377.175 234.5 377.059 234.262 376.938C234.023 376.816 233.788 376.689 233.557 376.557C233.325 376.425 233.097 376.288 232.874 376.146C232.651 376.005 232.431 375.86 232.216 375.709C232.001 375.558 231.791 375.403 231.585 375.244C231.379 375.085 231.177 374.922 230.98 374.754C230.784 374.586 230.591 374.414 230.404 374.238C230.217 374.062 230.036 373.883 229.859 373.699C229.683 373.516 229.512 373.327 229.347 373.137C229.181 372.946 229.021 372.754 228.866 372.557C228.712 372.359 228.563 372.159 228.42 371.955C228.277 371.752 228.139 371.545 228.008 371.336C227.877 371.127 227.752 370.914 227.633 370.699C227.514 370.485 227.401 370.268 227.295 370.049C227.188 369.83 227.089 369.608 226.995 369.385C226.901 369.161 226.814 368.936 226.733 368.709C226.653 368.482 226.578 368.254 226.511 368.023C226.443 367.793 226.381 367.561 226.327 367.328C226.273 367.095 226.225 366.862 226.185 366.627C226.144 366.392 226.11 366.158 226.083 365.922C226.056 365.686 226.035 365.448 226.021 365.211C226.008 364.974 226.001 364.737 226.001 364.5C226.001 364.263 226.008 364.026 226.021 363.789C226.035 363.552 226.056 363.314 226.083 363.078C226.11 362.842 226.144 362.608 226.185 362.373C226.225 362.138 226.273 361.905 226.327 361.672C226.381 361.439 226.443 361.207 226.511 360.977C226.578 360.746 226.653 360.518 226.733 360.291C226.814 360.064 226.901 359.839 226.995 359.615C227.089 359.392 227.188 359.17 227.295 358.951C227.401 358.732 227.514 358.515 227.633 358.301C227.752 358.086 227.877 357.873 228.008 357.664C228.139 357.455 228.277 357.248 228.42 357.045C228.563 356.841 228.712 356.641 228.866 356.443C229.021 356.246 229.181 356.054 229.347 355.863C229.512 355.673 229.683 355.484 229.859 355.301C230.036 355.117 230.217 354.938 230.404 354.762C230.591 354.586 230.784 354.414 230.98 354.246C231.177 354.078 231.379 353.915 231.585 353.756C231.791 353.596 232.001 353.442 232.216 353.291C232.431 353.14 232.651 352.995 232.874 352.854C233.097 352.712 233.325 352.575 233.557 352.443C233.788 352.312 234.022 352.184 234.261 352.062C234.499 351.941 234.742 351.825 234.987 351.713C235.233 351.601 235.481 351.494 235.732 351.393C235.984 351.291 236.238 351.194 236.495 351.104C236.752 351.013 237.011 350.928 237.273 350.848C237.535 350.768 237.8 350.694 238.066 350.625C238.333 350.556 238.6 350.491 238.87 350.434C239.14 350.376 239.412 350.326 239.685 350.279C239.957 350.233 240.232 350.191 240.507 350.156C240.782 350.121 241.058 350.094 241.335 350.07C241.612 350.047 241.889 350.029 242.167 350.018C242.445 350.006 242.723 350 243.001 350C243.381 350 243.761 350.011 244.141 350.033C244.52 350.055 244.899 350.087 245.275 350.131C245.652 350.174 246.027 350.228 246.399 350.293C246.772 350.358 247.141 350.434 247.508 350.52C247.874 350.606 248.238 350.702 248.597 350.809C248.956 350.915 249.31 351.031 249.66 351.158C250.01 351.285 250.354 351.424 250.693 351.57C251.032 351.717 251.366 351.873 251.692 352.039C252.019 352.205 252.339 352.38 252.652 352.564C252.965 352.749 253.271 352.941 253.569 353.143C253.867 353.344 254.156 353.553 254.438 353.771C254.719 353.99 254.991 354.215 255.255 354.449C255.518 354.683 255.773 354.925 256.018 355.174C256.262 355.422 256.497 355.676 256.722 355.938C256.946 356.199 257.16 356.468 257.363 356.742C257.567 357.016 257.759 357.295 257.94 357.58C258.091 357.455 258.248 357.337 258.412 357.225C258.576 357.112 258.745 357.008 258.921 356.91C259.097 356.812 259.278 356.72 259.465 356.637C259.651 356.553 259.842 356.478 260.037 356.41C260.232 356.343 260.43 356.284 260.632 356.232C260.834 356.181 261.038 356.138 261.245 356.104C261.452 356.069 261.66 356.043 261.87 356.025C262.08 356.008 262.29 356 262.501 356C262.607 356 262.714 356.001 262.82 356.006C262.927 356.01 263.032 356.019 263.138 356.027C263.244 356.036 263.35 356.045 263.455 356.059C263.56 356.072 263.665 356.088 263.77 356.105C263.874 356.123 263.977 356.142 264.08 356.164C264.183 356.186 264.286 356.21 264.388 356.236C264.489 356.262 264.59 356.292 264.69 356.322C264.791 356.353 264.89 356.384 264.988 356.418C265.087 356.452 265.184 356.489 265.28 356.527C265.376 356.566 265.472 356.608 265.565 356.65C265.659 356.693 265.752 356.737 265.843 356.783C265.934 356.829 266.024 356.878 266.112 356.928C266.201 356.978 266.288 357.028 266.373 357.082C266.459 357.136 266.543 357.191 266.625 357.248C266.707 357.305 266.787 357.363 266.866 357.424C266.945 357.484 267.022 357.548 267.098 357.611C267.173 357.675 267.246 357.74 267.317 357.807C267.389 357.873 267.458 357.942 267.525 358.012C267.593 358.081 267.658 358.152 267.722 358.225C267.785 358.297 267.846 358.37 267.905 358.445C267.964 358.52 268.022 358.595 268.076 358.672C268.131 358.749 268.183 358.829 268.233 358.908C268.284 358.988 268.331 359.067 268.377 359.148C268.422 359.23 268.465 359.311 268.506 359.395C268.547 359.478 268.585 359.562 268.621 359.646C268.657 359.731 268.69 359.818 268.721 359.904C268.752 359.99 268.781 360.077 268.807 360.164C268.833 360.251 268.855 360.339 268.876 360.428C268.897 360.516 268.915 360.604 268.931 360.693C268.946 360.782 268.959 360.871 268.97 360.961C268.98 361.051 268.988 361.141 268.993 361.23C268.998 361.32 269.001 361.41 269.001 361.5C269.001 361.59 268.998 361.68 268.993 361.77C268.988 361.859 268.98 361.949 268.97 362.039C268.959 362.129 268.946 362.218 268.931 362.307C268.915 362.396 268.897 362.484 268.876 362.572C268.855 362.661 268.833 362.749 268.807 362.836C268.781 362.923 268.752 363.01 268.721 363.096C268.69 363.182 268.657 363.269 268.621 363.354C268.585 363.438 268.547 363.522 268.506 363.605C268.465 363.689 268.422 363.77 268.377 363.852C268.331 363.933 268.284 364.012 268.233 364.092C268.183 364.171 268.131 364.251 268.076 364.328C268.022 364.405 267.964 364.48 267.905 364.555C267.846 364.63 267.785 364.703 267.722 364.775C267.658 364.848 267.593 364.919 267.525 364.988C267.458 365.058 267.389 365.127 267.317 365.193C267.246 365.26 267.173 365.325 267.098 365.389C267.022 365.452 266.945 365.516 266.866 365.576C266.787 365.637 266.707 365.695 266.625 365.752C266.543 365.809 266.459 365.864 266.373 365.918C266.288 365.972 266.201 366.022 266.112 366.072C266.024 366.122 265.934 366.171 265.843 366.217C265.752 366.263 265.659 366.309 265.565 366.352C265.472 366.394 265.376 366.434 265.28 366.473C265.184 366.511 265.087 366.548 264.988 366.582C264.89 366.616 264.791 366.647 264.69 366.678C264.59 366.708 264.489 366.738 264.388 366.764C264.286 366.79 264.183 366.814 264.08 366.836C263.977 366.858 263.874 366.877 263.77 366.895C263.665 366.912 263.56 366.928 263.455 366.941C263.35 366.955 263.244 366.964 263.138 366.973C263.032 366.981 262.927 366.99 262.82 366.994C262.714 366.999 262.607 367 262.501 367C262.042 367 261.587 366.958 261.138 366.877C260.688 366.795 260.255 366.675 259.836 366.516ZM279.501 379C279.591 379 279.681 378.997 279.771 378.992C279.86 378.987 279.95 378.98 280.04 378.971C280.13 378.961 280.219 378.95 280.308 378.936C280.397 378.921 280.486 378.904 280.574 378.885C280.662 378.866 280.75 378.844 280.837 378.82C280.924 378.796 281.012 378.771 281.098 378.742C281.184 378.714 281.269 378.682 281.354 378.648C281.438 378.615 281.522 378.581 281.605 378.543C281.689 378.505 281.771 378.466 281.853 378.424C281.934 378.382 282.014 378.337 282.094 378.291C282.173 378.245 282.251 378.197 282.328 378.146C282.405 378.096 282.482 378.043 282.557 377.988C282.632 377.934 282.705 377.877 282.777 377.818C282.85 377.76 282.921 377.701 282.99 377.639C283.06 377.576 283.128 377.511 283.194 377.445C283.261 377.379 283.326 377.312 283.39 377.242C283.453 377.173 283.516 377.102 283.576 377.029C283.637 376.956 283.696 376.883 283.753 376.807C283.81 376.731 283.865 376.653 283.919 376.574C283.973 376.495 284.024 376.416 284.074 376.334C284.124 376.252 284.172 376.168 284.219 376.084C284.265 376 284.309 375.915 284.352 375.828C284.394 375.742 284.434 375.653 284.473 375.564C284.511 375.476 284.548 375.388 284.582 375.297C284.617 375.206 284.649 375.114 284.68 375.021C284.71 374.929 284.739 374.836 284.765 374.742C284.791 374.648 284.814 374.552 284.836 374.457C284.858 374.362 284.878 374.266 284.896 374.17C284.913 374.074 284.928 373.978 284.941 373.881C284.955 373.784 284.966 373.686 284.975 373.588C284.983 373.49 284.99 373.393 284.994 373.295C284.999 373.197 285.001 373.098 285.001 373C285.001 372.902 284.999 372.803 284.994 372.705C284.99 372.607 284.983 372.51 284.975 372.412C284.966 372.314 284.955 372.216 284.941 372.119C284.928 372.022 284.913 371.926 284.896 371.83C284.878 371.734 284.858 371.638 284.836 371.543C284.814 371.448 284.791 371.352 284.765 371.258C284.739 371.164 284.71 371.071 284.68 370.979C284.649 370.886 284.617 370.794 284.582 370.703C284.548 370.612 284.511 370.524 284.473 370.436C284.434 370.347 284.394 370.258 284.352 370.172C284.309 370.085 284.265 370 284.219 369.916C284.172 369.832 284.124 369.748 284.074 369.666C284.024 369.584 283.973 369.505 283.919 369.426C283.865 369.347 283.81 369.269 283.753 369.193C283.696 369.117 283.637 369.044 283.576 368.971C283.516 368.898 283.453 368.827 283.39 368.758C283.326 368.688 283.261 368.621 283.194 368.555C283.128 368.489 283.06 368.424 282.99 368.361C282.921 368.299 282.85 368.24 282.777 368.182C282.705 368.123 282.632 368.066 282.557 368.012C282.482 367.957 282.405 367.904 282.328 367.854C282.251 367.803 282.173 367.755 282.094 367.709C282.014 367.663 281.934 367.618 281.853 367.576C281.771 367.534 281.689 367.495 281.605 367.457C281.522 367.419 281.438 367.385 281.354 367.352C281.269 367.318 281.184 367.286 281.098 367.258C281.012 367.229 280.924 367.204 280.837 367.18C280.75 367.156 280.662 367.134 280.574 367.115C280.486 367.096 280.397 367.079 280.308 367.064C280.219 367.05 280.13 367.039 280.04 367.029C279.95 367.02 279.86 367.013 279.771 367.008C279.681 367.003 279.591 367 279.501 367C279.411 367 279.321 367.003 279.231 367.008C279.142 367.013 279.052 367.02 278.962 367.029C278.872 367.039 278.783 367.05 278.694 367.064C278.605 367.079 278.516 367.096 278.428 367.115C278.339 367.134 278.252 367.156 278.165 367.18C278.078 367.204 277.99 367.229 277.904 367.258C277.818 367.286 277.733 367.318 277.648 367.352C277.564 367.385 277.48 367.419 277.396 367.457C277.313 367.495 277.231 367.534 277.149 367.576C277.068 367.618 276.988 367.663 276.908 367.709C276.829 367.755 276.751 367.803 276.674 367.854C276.597 367.904 276.52 367.957 276.445 368.012C276.37 368.066 276.297 368.123 276.225 368.182C276.152 368.24 276.081 368.299 276.012 368.361C275.942 368.424 275.874 368.489 275.808 368.555C275.741 368.621 275.676 368.688 275.612 368.758C275.549 368.827 275.486 368.898 275.426 368.971C275.365 369.044 275.306 369.117 275.249 369.193C275.192 369.269 275.137 369.347 275.083 369.426C275.029 369.505 274.978 369.584 274.928 369.666C274.878 369.748 274.829 369.832 274.783 369.916C274.737 370 274.693 370.085 274.65 370.172C274.608 370.258 274.568 370.347 274.529 370.436C274.491 370.524 274.454 370.612 274.42 370.703C274.385 370.794 274.353 370.886 274.322 370.979C274.292 371.071 274.263 371.164 274.237 371.258C274.211 371.352 274.188 371.448 274.166 371.543C274.144 371.638 274.124 371.734 274.106 371.83C274.089 371.926 274.074 372.022 274.061 372.119C274.047 372.216 274.036 372.314 274.027 372.412C274.018 372.51 274.012 372.607 274.008 372.705C274.003 372.803 274.001 372.902 274.001 373C274.001 373.098 274.003 373.197 274.008 373.295C274.012 373.393 274.018 373.49 274.027 373.588C274.036 373.686 274.047 373.784 274.061 373.881C274.074 373.978 274.089 374.074 274.106 374.17C274.124 374.266 274.144 374.362 274.166 374.457C274.188 374.552 274.211 374.648 274.237 374.742C274.263 374.836 274.292 374.929 274.322 375.021C274.353 375.114 274.385 375.206 274.42 375.297C274.454 375.388 274.491 375.476 274.529 375.564C274.568 375.653 274.608 375.742 274.65 375.828C274.693 375.915 274.737 376 274.783 376.084C274.829 376.168 274.878 376.252 274.928 376.334C274.978 376.416 275.029 376.495 275.083 376.574C275.137 376.653 275.192 376.731 275.249 376.807C275.306 376.883 275.365 376.956 275.426 377.029C275.486 377.102 275.549 377.173 275.612 377.242C275.676 377.312 275.741 377.379 275.808 377.445C275.874 377.511 275.942 377.576 276.012 377.639C276.081 377.701 276.152 377.76 276.225 377.818C276.297 377.877 276.37 377.934 276.445 377.988C276.52 378.043 276.597 378.096 276.674 378.146C276.751 378.197 276.829 378.245 276.908 378.291C276.988 378.337 277.068 378.382 277.149 378.424C277.231 378.466 277.313 378.505 277.396 378.543C277.48 378.581 277.564 378.615 277.648 378.648C277.733 378.682 277.818 378.714 277.904 378.742C277.99 378.771 278.078 378.796 278.165 378.82C278.252 378.844 278.339 378.866 278.428 378.885C278.516 378.904 278.605 378.921 278.694 378.936C278.783 378.95 278.872 378.961 278.962 378.971C279.052 378.98 279.142 378.987 279.231 378.992C279.321 378.997 279.411 379 279.501 379ZM209.501 381C209.583 381 209.665 380.997 209.746 380.99C209.828 380.984 209.908 380.974 209.988 380.961C210.069 380.948 210.148 380.933 210.227 380.914C210.305 380.895 210.382 380.873 210.458 380.848C210.534 380.823 210.607 380.795 210.68 380.764C210.752 380.733 210.822 380.699 210.89 380.662C210.958 380.626 211.024 380.588 211.087 380.547C211.15 380.505 211.211 380.46 211.269 380.414C211.326 380.368 211.382 380.32 211.434 380.27C211.486 380.219 211.535 380.166 211.58 380.111C211.626 380.057 211.667 380.001 211.706 379.943C211.745 379.886 211.779 379.826 211.811 379.766C211.842 379.705 211.87 379.643 211.894 379.58C211.917 379.517 211.937 379.455 211.953 379.391C211.969 379.326 211.981 379.261 211.989 379.195C211.997 379.13 212.001 379.066 212.001 379C212.001 378.934 211.997 378.87 211.989 378.805C211.981 378.739 211.969 378.674 211.953 378.609C211.937 378.545 211.917 378.483 211.894 378.42C211.87 378.357 211.842 378.295 211.811 378.234C211.779 378.174 211.745 378.114 211.706 378.057C211.667 377.999 211.626 377.943 211.58 377.889C211.535 377.834 211.486 377.781 211.434 377.73C211.382 377.68 211.326 377.632 211.269 377.586C211.211 377.54 211.15 377.495 211.087 377.453C211.024 377.412 210.958 377.374 210.89 377.338C210.822 377.301 210.752 377.267 210.68 377.236C210.607 377.205 210.534 377.177 210.458 377.152C210.382 377.127 210.305 377.105 210.227 377.086C210.148 377.067 210.069 377.052 209.988 377.039C209.908 377.026 209.828 377.016 209.746 377.01C209.665 377.003 209.583 377 209.501 377C209.419 377 209.337 377.003 209.256 377.01C209.174 377.016 209.094 377.026 209.014 377.039C208.933 377.052 208.854 377.067 208.775 377.086C208.697 377.105 208.62 377.127 208.544 377.152C208.468 377.177 208.394 377.205 208.322 377.236C208.25 377.267 208.18 377.301 208.112 377.338C208.044 377.374 207.978 377.412 207.915 377.453C207.852 377.495 207.791 377.54 207.733 377.586C207.676 377.632 207.62 377.68 207.568 377.73C207.516 377.781 207.467 377.834 207.422 377.889C207.376 377.943 207.334 377.999 207.296 378.057C207.257 378.114 207.223 378.174 207.191 378.234C207.16 378.295 207.132 378.357 207.108 378.42C207.085 378.483 207.065 378.545 207.049 378.609C207.033 378.674 207.021 378.739 207.013 378.805C207.005 378.87 207.001 378.934 207.001 379C207.001 379.066 207.005 379.13 207.013 379.195C207.021 379.261 207.033 379.326 207.049 379.391C207.065 379.455 207.085 379.517 207.108 379.58C207.132 379.643 207.16 379.705 207.191 379.766C207.223 379.826 207.257 379.886 207.296 379.943C207.334 380.001 207.376 380.057 207.422 380.111C207.467 380.166 207.516 380.219 207.568 380.27C207.62 380.32 207.676 380.368 207.733 380.414C207.791 380.46 207.852 380.505 207.915 380.547C207.978 380.588 208.044 380.626 208.112 380.662C208.18 380.699 208.25 380.733 208.322 380.764C208.394 380.795 208.468 380.823 208.544 380.848C208.62 380.873 208.697 380.895 208.775 380.914C208.854 380.933 208.933 380.948 209.014 380.961C209.094 380.974 209.174 380.984 209.256 380.99C209.337 380.997 209.419 381 209.501 381Z" fill="#769BFF"/>
<path fill-rule="evenodd" clip-rule="evenodd" d="M178.719 42.7566C178.247 45.5984 178.001 48.5196 178.001 51.5C178.001 67.5004 185.085 81.7965 196.199 91.2423C195.415 94.8657 195.001 98.6331 195.001 102.5C195.001 130.943 217.387 154 245.001 154C250.899 154 256.558 152.948 261.811 151.017C267.103 158.294 275.521 163 285.001 163C289.762 163 294.255 161.813 298.219 159.71C305.326 169.156 307.183 179.758 305.328 193.681C302.289 204.18 297.2 210.543 288.428 216.587C287.976 216.872 287.53 217.151 287.089 217.429C286.757 217.637 286.427 217.844 286.098 218.051L286.298 218.648C288.281 224.577 290.255 230.476 290.883 236.74C290.977 249.433 287.562 259.93 279.338 269.493C271.794 276.612 262.44 282.362 251.985 282.405C251.411 282.354 250.844 282.305 250.281 282.255C249.395 282.178 248.518 282.101 247.641 282.024C247.382 287.773 246.845 293.336 245.266 298.873C240.767 309.661 231.844 318.267 221.772 323.559C210.69 327.545 199.005 326.982 188.196 322.292C187.312 321.827 186.444 321.37 185.582 320.916L184.036 320.102C174.104 329.691 166.104 335.621 152.143 336C139.271 335.511 132.652 331.936 123.813 322.275C123.31 321.699 122.817 321.137 122.328 320.578L121.911 320.102C117.875 322.058 114.377 323.53 110.078 324.672C95.8245 325.902 84.4642 324.663 73.0472 315.366C64.3053 306.704 60.3532 297.188 59.7992 284.821L59.7951 283.89V283.89V283.89C59.7923 283.262 59.7895 282.643 59.7875 282.024C54.7665 281.906 49.9345 281.452 44.9945 280.5C33.7935 276.221 25.8654 268.363 19.7054 257.956C14.9034 247.217 15.1858 233.095 18.3988 221.966C18.8014 220.879 18.9829 220.389 19.1842 219.847L19.1849 219.845C19.3495 219.401 19.5273 218.922 19.85 218.051C14.129 213.431 8.54831 208.806 4.33631 202.648C-1.02669 191.663 -1.05443 179.721 2.28357 168.074C6.49157 160.708 10.6409 154.251 18.1859 150.366C18.9361 150.162 19.6703 149.962 20.3999 149.763L21.3285 149.509C19.3845 145.338 17.989 141.788 16.891 137.324C15.603 122.51 16.2735 111.834 25.1195 99.9124C33.9775 89.9351 43.9757 84.648 57.0707 84.0257L58.6941 84.0186L59.7875 84.0139C59.1685 77.9602 60.0702 73.1156 62.0062 67.4495C66.6542 56.3377 73.9457 48.6645 84.6547 43.6507C96.6907 39.3736 107.797 40.3493 119.571 44.9358C120.072 45.1497 120.563 45.3598 121.051 45.5684L121.911 45.9358C124.393 41.8708 127.064 38.8699 130.891 36.1184C141.373 30.0451 151.779 28.4434 163.536 31.5364C169.453 33.9212 175.177 37.3416 178.719 42.7566Z" fill="#769BFF"/>
<path d="M84.001 247C86.7624 247 89.001 244.761 89.001 242C89.001 239.239 86.7624 237 84.001 237C81.2396 237 79.001 239.239 79.001 242C79.001 244.761 81.2396 247 84.001 247Z" fill="white"/>
<path d="M158.001 247C160.762 247 163.001 244.761 163.001 242C163.001 239.239 160.762 237 158.001 237C155.24 237 153.001 239.239 153.001 242C153.001 244.761 155.24 247 158.001 247Z" fill="white"/>
<path d="M232.001 247C234.762 247 237.001 244.761 237.001 242C237.001 239.239 234.762 237 232.001 237C229.24 237 227.001 239.239 227.001 242C227.001 244.761 229.24 247 232.001 247Z" fill="white"/>
<path d="M125.001 288C127.762 288 130.001 285.761 130.001 283C130.001 280.239 127.762 278 125.001 278C122.24 278 120.001 280.239 120.001 283C120.001 285.761 122.24 288 125.001 288Z" fill="white"/>
<path d="M196.001 288C198.762 288 201.001 285.761 201.001 283C201.001 280.239 198.762 278 196.001 278C193.24 278 191.001 280.239 191.001 283C191.001 285.761 193.24 288 196.001 288Z" fill="white"/>
<path d="M158.001 178C158.001 202.853 139.868 223 117.501 223C95.1335 223 77.001 202.853 77.001 178C77.001 165.574 86.1719 156.643 93.501 148.5C100.83 140.357 106.317 133 117.501 133C139.868 133 158.001 153.147 158.001 178Z" fill="white"/>
<path d="M228.001 178C228.001 202.853 209.868 223 187.501 223C165.133 223 147.001 202.853 147.001 178C147.001 153.147 165.133 133 187.501 133C198.685 133 204.172 140.857 211.501 149C218.83 157.143 228.001 165.574 228.001 178Z" fill="white"/>
<path d="M124.001 223C136.704 223 147.001 211.807 147.001 198C147.001 184.193 136.704 173 124.001 173C111.298 173 101.001 184.193 101.001 198C101.001 211.807 111.298 223 124.001 223Z" fill="black"/>
<path d="M107.871 220.311C106.846 222.016 105.642 223.525 104.26 224.838C102.878 226.151 101.422 227.169 99.893 227.89C98.3643 228.612 96.8799 228.982 95.4376 229.003C93.9954 229.023 92.7055 228.692 91.5693 228.008C90.433 227.325 89.5372 226.341 88.8799 225.057C88.2226 223.773 87.8541 222.288 87.7758 220.599C87.6975 218.911 87.9149 217.147 88.4275 215.311C88.9402 213.475 89.7089 211.704 90.7344 210L99.3028 215.156L107.871 220.311Z" fill="white"/>
<path d="M184.001 223C196.704 223 207.001 211.807 207.001 198C207.001 184.193 196.704 173 184.001 173C171.298 173 161.001 184.193 161.001 198C161.001 211.807 171.298 223 184.001 223Z" fill="black"/>
</svg>
