<svg width="405" height="461" viewBox="0 0 405 461" fill="none" xmlns="http://www.w3.org/2000/svg">
<path d="M340.246 197.361C337.704 195.227 337.705 195.226 334.619 195.509C335.321 194.158 336.023 192.808 336.746 191.416C341.882 180.205 341.838 169.611 338.039 158.002C333.391 145.928 326.66 138.918 315.391 133.061C309.28 130.821 304.123 129.609 297.641 130.014C297.603 129.166 297.565 128.318 297.526 127.444C296.598 114.584 293.075 106.406 283.866 97.552C273.246 88.5457 264.75 86.5454 251.098 86.801C243.736 87.5968 237.62 89.9812 231.078 93.4583C230.446 92.0475 230.446 92.0479 229.801 90.6087C226.428 84.1032 220.101 80.1823 213.535 77.5364C201.778 74.4434 191.373 76.0451 180.891 82.1184C177.064 84.8699 174.392 87.8708 171.91 91.9358C171.138 91.6059 170.367 91.2757 169.571 90.9358C157.797 86.3493 146.691 85.3736 134.655 89.6507C123.946 94.6645 116.654 102.338 112.006 113.449C110.07 119.116 109.168 123.96 109.787 130.014C108.442 130.02 108.442 130.02 107.071 130.026C93.9756 130.648 83.9775 135.935 75.1195 145.912C66.2735 157.834 65.603 168.51 66.891 183.324C67.989 187.788 69.3845 191.338 71.3285 195.509C70.2915 195.792 69.2549 196.075 68.1859 196.366C60.6409 200.251 56.4915 206.708 52.2835 214.074C48.9455 225.722 48.9733 237.663 54.3363 248.648C58.5483 254.806 64.1289 259.431 69.8499 264.051C69.1319 265.989 69.1308 265.989 68.3988 267.966C65.1858 279.095 64.9034 293.217 69.7054 303.956C75.8654 314.363 83.7935 322.221 94.9945 326.5C99.9345 327.452 104.766 327.906 109.787 328.024C109.79 328.947 109.795 329.87 109.799 330.821C110.353 343.188 114.305 352.704 123.047 361.366C134.464 370.663 145.824 371.902 160.078 370.672C164.377 369.53 167.874 368.058 171.91 366.102C172.538 366.819 173.167 367.536 173.813 368.275C182.652 377.936 189.271 381.511 202.143 382C216.104 381.621 224.103 375.691 234.035 366.102C235.408 366.825 236.782 367.547 238.196 368.292C249.005 372.982 260.69 373.545 271.772 369.559C281.844 364.267 290.767 355.661 295.266 344.873C296.845 339.336 297.382 333.773 297.641 328.024C299.075 328.15 300.507 328.276 301.985 328.405C312.44 328.362 321.794 322.612 329.338 315.493C337.562 305.93 340.977 295.433 340.883 282.74C340.234 276.266 338.147 270.181 336.098 264.051C336.866 263.568 337.636 263.085 338.428 262.587C347.2 256.543 352.289 250.18 355.328 239.681C357.746 221.529 353.855 209.021 340.246 197.361Z" fill="#626B86"/>
<path fill-rule="evenodd" clip-rule="evenodd" d="M163.668 399.851L145.468 401.482L145.915 406.462L169.13 404.381L158.425 293.863L153.448 294.345L163.668 399.851Z" fill="black"/>
<path fill-rule="evenodd" clip-rule="evenodd" d="M325.389 361.059L317.963 389.544L322.801 390.805L331.488 357.481L241.979 334.148L240.718 338.987L325.389 361.059Z" fill="black"/>
<path d="M332.246 185.48C329.704 183.346 329.705 183.345 326.619 183.628C327.321 182.277 328.023 180.927 328.746 179.535C333.882 168.324 333.838 157.73 330.039 146.121C325.391 134.047 318.66 127.037 307.391 121.18C301.28 118.94 296.123 117.728 289.641 118.133C289.603 117.285 289.565 116.437 289.526 115.563C288.598 102.703 285.075 94.5249 275.866 85.6712C265.246 76.6649 256.75 74.6646 243.098 74.9202C235.736 75.716 229.62 78.1003 223.078 81.5774C222.446 80.1666 222.446 80.167 221.801 78.7278C218.428 72.2223 212.101 68.3015 205.535 65.6555C193.778 62.5625 183.373 64.1642 172.891 70.2376C169.064 72.989 166.392 75.9899 163.91 80.0549C163.138 79.725 162.367 79.3948 161.571 79.0549C149.797 74.4684 138.691 73.4927 126.655 77.7698C115.946 82.7836 108.654 90.4568 104.006 101.569C102.07 107.235 101.168 112.079 101.787 118.133C100.442 118.139 100.442 118.139 99.0706 118.145C85.9756 118.767 75.9775 124.054 67.1195 134.032C58.2735 145.953 57.603 156.63 58.891 171.444C59.989 175.908 61.3845 179.457 63.3285 183.628C62.2915 183.911 61.2549 184.195 60.1859 184.486C52.6409 188.371 48.4915 194.827 44.2835 202.193C40.9455 213.841 40.9733 225.782 46.3363 236.767C50.5483 242.925 56.1289 247.55 61.8499 252.17C61.1319 254.108 61.1308 254.108 60.3988 256.085C57.1858 267.214 56.9034 281.336 61.7054 292.075C67.8654 302.482 75.7935 310.34 86.9945 314.619C91.9345 315.571 96.7664 316.025 101.787 316.143C101.79 317.066 101.795 317.989 101.799 318.94C102.353 331.307 106.305 340.824 115.047 349.486C126.464 358.783 137.824 360.021 152.078 358.791C156.377 357.649 159.874 356.177 163.91 354.221C164.538 354.938 165.167 355.655 165.813 356.394C174.652 366.055 181.271 369.63 194.143 370.119C208.104 369.74 216.103 363.81 226.035 354.221C227.408 354.944 228.782 355.666 230.196 356.411C241.005 361.101 252.69 361.664 263.772 357.678C273.844 352.386 282.767 343.78 287.266 332.992C288.845 327.455 289.382 321.892 289.641 316.143C291.075 316.269 292.507 316.395 293.985 316.524C304.44 316.481 313.794 310.732 321.338 303.613C329.562 294.05 332.977 283.552 332.883 270.859C332.234 264.385 330.147 258.3 328.098 252.17C328.866 251.687 329.636 251.204 330.428 250.706C339.2 244.662 344.289 238.299 347.328 227.8C349.746 209.648 345.855 197.14 332.246 185.48Z" fill="#769BFF"/>
<path d="M126.001 281.119C128.762 281.119 131.001 278.881 131.001 276.119C131.001 273.358 128.762 271.119 126.001 271.119C123.24 271.119 121.001 273.358 121.001 276.119C121.001 278.881 123.24 281.119 126.001 281.119Z" fill="white"/>
<path d="M200.001 281.119C202.762 281.119 205.001 278.881 205.001 276.119C205.001 273.358 202.762 271.119 200.001 271.119C197.24 271.119 195.001 273.358 195.001 276.119C195.001 278.881 197.24 281.119 200.001 281.119Z" fill="white"/>
<path d="M243.001 234.119C245.762 234.119 248.001 231.881 248.001 229.119C248.001 226.358 245.762 224.119 243.001 224.119C240.24 224.119 238.001 226.358 238.001 229.119C238.001 231.881 240.24 234.119 243.001 234.119Z" fill="white"/>
<path d="M274.001 281.119C276.762 281.119 279.001 278.881 279.001 276.119C279.001 273.358 276.762 271.119 274.001 271.119C271.24 271.119 269.001 273.358 269.001 276.119C269.001 278.881 271.24 281.119 274.001 281.119Z" fill="white"/>
<path d="M167.001 322.119C169.762 322.119 172.001 319.881 172.001 317.119C172.001 314.358 169.762 312.119 167.001 312.119C164.24 312.119 162.001 314.358 162.001 317.119C162.001 319.881 164.24 322.119 167.001 322.119Z" fill="white"/>
<path d="M238.001 322.119C240.762 322.119 243.001 319.881 243.001 317.119C243.001 314.358 240.762 312.119 238.001 312.119C235.24 312.119 233.001 314.358 233.001 317.119C233.001 319.881 235.24 322.119 238.001 322.119Z" fill="white"/>
<path d="M100.488 251.092C122.849 251.644 141.474 231.951 142.088 207.106C142.701 182.261 125.072 161.672 102.711 161.119C80.3506 160.567 61.726 180.26 61.1122 205.105C60.4984 229.951 78.1278 250.54 100.488 251.092Z" fill="white"/>
<path d="M170.466 252.819C192.827 253.371 211.451 233.678 212.065 208.832C212.679 183.987 195.05 163.398 172.689 162.846C150.328 162.294 131.704 181.987 131.09 206.832C130.476 231.677 148.105 252.266 170.466 252.819Z" fill="white"/>
<path d="M87.9934 241.553C100.692 241.867 111.263 230.931 111.604 217.128C111.945 203.326 101.927 191.882 89.2283 191.568C76.5297 191.254 65.9589 202.189 65.6179 215.992C65.2769 229.795 75.2948 241.239 87.9934 241.553Z" fill="black"/>
<path d="M157.993 242.553C170.692 242.867 181.263 231.931 181.604 218.128C181.945 204.326 171.927 192.882 159.228 192.568C146.53 192.254 135.959 203.189 135.618 216.992C135.277 230.795 145.295 242.239 157.993 242.553Z" fill="black"/>
<path d="M294.643 77.6767C296.98 75.1169 299.056 72.4959 300.868 69.8144C302.681 67.133 304.092 64.5958 305.104 62.201C306.116 59.8062 306.651 57.7368 306.708 55.9932C306.765 54.2496 306.342 52.9641 305.436 52.1372C304.53 51.3103 303.212 51.0053 301.481 51.221C299.749 51.4366 297.737 52.1568 295.444 53.3822C293.151 54.6076 290.753 56.2435 288.247 58.2921C285.741 60.3407 283.319 62.6458 280.982 65.2056L287.813 71.4415L294.643 77.6767Z" fill="url(#paint0_linear_1162_1194)"/>
<path d="M326.748 70.8977C329.44 68.7149 331.883 66.4339 334.075 64.0526C336.266 61.6713 338.042 59.3716 339.399 57.1544C340.757 54.9372 341.594 52.9705 341.911 51.255C342.227 49.5395 341.999 48.2064 341.226 47.2537C340.454 46.3011 339.197 45.8017 337.453 45.7569C335.709 45.7121 333.612 46.1242 331.162 46.9941C328.712 47.864 326.095 49.1254 323.312 50.7776C320.529 52.4298 317.791 54.3468 315.099 56.5297L320.924 63.7141L326.748 70.8977Z" fill="url(#paint1_linear_1162_1194)"/>
<path d="M343.85 99.7767C346.899 98.128 349.721 96.3349 352.315 94.3987C354.908 92.4626 357.076 90.5307 358.819 88.602C360.562 86.6733 361.748 84.8948 362.375 83.2671C363.003 81.6394 363.026 80.2862 362.443 79.2074C361.859 78.1286 360.714 77.4068 359.008 77.0411C357.303 76.6754 355.165 76.6936 352.597 77.0966C350.029 77.4996 347.226 78.2557 344.186 79.3662C341.145 80.4766 338.1 81.8568 335.051 83.5056L339.451 91.6411L343.85 99.7767Z" fill="url(#paint2_linear_1162_1194)"/>
<path d="M312.499 101.312C315.298 99.267 317.852 97.1092 320.16 94.8405C322.469 92.572 324.355 90.3651 325.822 88.2187C327.289 86.0722 328.224 84.1507 328.626 82.4532C329.028 80.7557 328.868 79.4109 328.144 78.4208C327.42 77.4306 326.188 76.8701 324.449 76.7381C322.709 76.606 320.594 76.9135 318.104 77.6596C315.614 78.4058 312.938 79.5334 310.076 81.0442C307.214 82.555 304.382 84.3338 301.584 86.3791L307.041 93.8453L312.499 101.312Z" fill="url(#paint3_linear_1162_1194)"/>
<path d="M331.621 137.897C334.674 136.256 337.501 134.47 340.099 132.54C342.697 130.61 344.869 128.683 346.617 126.759C348.365 124.834 349.554 123.058 350.186 121.432C350.818 119.806 350.844 118.453 350.263 117.373C349.682 116.292 348.539 115.568 346.834 115.198C345.129 114.828 342.992 114.841 340.422 115.238C337.853 115.635 335.048 116.385 332.006 117.488C328.963 118.591 325.914 119.964 322.861 121.605L327.241 129.751L331.621 137.897Z" fill="url(#paint4_linear_1162_1194)"/>
<defs>
<linearGradient id="paint0_linear_1162_1194" x1="305.436" y1="52.1369" x2="287.813" y2="71.4411" gradientUnits="userSpaceOnUse">
<stop stop-color="#769BFF"/>
<stop offset="0.495097" stop-color="#769BFF" stop-opacity="0"/>
<stop offset="1" stop-color="#769BFF" stop-opacity="0"/>
</linearGradient>
<linearGradient id="paint1_linear_1162_1194" x1="341.226" y1="47.2534" x2="320.924" y2="63.7137" gradientUnits="userSpaceOnUse">
<stop stop-color="#769BFF"/>
<stop offset="0.495097" stop-color="#769BFF" stop-opacity="0"/>
<stop offset="1" stop-color="#769BFF" stop-opacity="0"/>
</linearGradient>
<linearGradient id="paint2_linear_1162_1194" x1="362.443" y1="79.2074" x2="339.451" y2="91.6411" gradientUnits="userSpaceOnUse">
<stop stop-color="#769BFF"/>
<stop offset="0.495097" stop-color="#769BFF" stop-opacity="0"/>
<stop offset="1" stop-color="#769BFF" stop-opacity="0"/>
</linearGradient>
<linearGradient id="paint3_linear_1162_1194" x1="328.144" y1="78.4212" x2="307.042" y2="93.8457" gradientUnits="userSpaceOnUse">
<stop stop-color="#769BFF"/>
<stop offset="0.495097" stop-color="#769BFF" stop-opacity="0"/>
<stop offset="1" stop-color="#769BFF" stop-opacity="0"/>
</linearGradient>
<linearGradient id="paint4_linear_1162_1194" x1="350.263" y1="117.373" x2="327.241" y2="129.751" gradientUnits="userSpaceOnUse">
<stop stop-color="#769BFF"/>
<stop offset="0.495097" stop-color="#769BFF" stop-opacity="0"/>
<stop offset="1" stop-color="#769BFF" stop-opacity="0"/>
</linearGradient>
</defs>
</svg>
