<svg width="405" height="461" viewBox="0 0 405 461" fill="none" xmlns="http://www.w3.org/2000/svg">
<path d="M340.246 197.361C337.704 195.227 337.705 195.226 334.619 195.509C335.321 194.158 336.023 192.808 336.746 191.416C341.882 180.205 341.838 169.611 338.039 158.002C333.391 145.928 326.66 138.918 315.391 133.061C309.28 130.821 304.123 129.609 297.641 130.014C297.603 129.166 297.565 128.318 297.526 127.444C296.598 114.584 293.075 106.406 283.866 97.552C273.246 88.5457 264.75 86.5454 251.098 86.801C243.736 87.5968 237.62 89.9812 231.078 93.4583C230.446 92.0475 230.446 92.0479 229.801 90.6087C226.428 84.1032 220.101 80.1823 213.535 77.5364C201.778 74.4434 191.373 76.0451 180.891 82.1184C177.064 84.8699 174.392 87.8708 171.91 91.9358C171.138 91.6059 170.367 91.2757 169.571 90.9358C157.797 86.3493 146.691 85.3736 134.655 89.6507C123.946 94.6645 116.654 102.338 112.006 113.449C110.07 119.116 109.168 123.96 109.787 130.014C108.442 130.02 108.442 130.02 107.071 130.026C93.9756 130.648 83.9775 135.935 75.1195 145.912C66.2735 157.834 65.603 168.51 66.891 183.324C67.989 187.788 69.3845 191.338 71.3285 195.509C70.2915 195.792 69.2549 196.075 68.1859 196.366C60.6409 200.251 56.4915 206.708 52.2835 214.074C48.9455 225.722 48.9733 237.663 54.3363 248.648C58.5483 254.806 64.1289 259.431 69.8499 264.051C69.1319 265.989 69.1308 265.989 68.3988 267.966C65.1858 279.095 64.9034 293.217 69.7054 303.956C75.8654 314.363 83.7935 322.221 94.9945 326.5C99.9345 327.452 104.766 327.906 109.787 328.024C109.79 328.947 109.795 329.87 109.799 330.821C110.353 343.188 114.305 352.704 123.047 361.366C134.464 370.663 145.824 371.902 160.078 370.672C164.377 369.53 167.874 368.058 171.91 366.102C172.538 366.819 173.167 367.536 173.813 368.275C182.652 377.936 189.271 381.511 202.143 382C216.104 381.621 224.103 375.691 234.035 366.102C235.408 366.825 236.782 367.547 238.196 368.292C249.005 372.982 260.69 373.545 271.772 369.559C281.844 364.267 290.767 355.661 295.266 344.873C296.845 339.336 297.382 333.773 297.641 328.024C299.075 328.15 300.507 328.276 301.985 328.405C312.44 328.362 321.794 322.612 329.338 315.493C337.562 305.93 340.977 295.433 340.883 282.74C340.234 276.266 338.147 270.181 336.098 264.051C336.866 263.568 337.636 263.085 338.428 262.587C347.2 256.543 352.289 250.18 355.328 239.681C357.746 221.529 353.855 209.021 340.246 197.361Z" fill="#626B86"/>
<path fill-rule="evenodd" clip-rule="evenodd" d="M141.024 399.913L123.916 393.493L122.159 398.174L143.981 406.364L182.251 302.132L177.557 300.409L141.024 399.913Z" fill="black"/>
<path fill-rule="evenodd" clip-rule="evenodd" d="M322.333 378.457L304.087 401.557L308.01 404.657L329.356 377.633L256.77 320.297L253.67 324.22L322.333 378.457Z" fill="black"/>
<path d="M332.246 185.48C329.704 183.346 329.705 183.345 326.619 183.628C327.321 182.277 328.023 180.927 328.746 179.535C333.882 168.324 333.838 157.73 330.039 146.121C325.391 134.047 318.66 127.037 307.391 121.18C301.28 118.94 296.123 117.728 289.641 118.133C289.603 117.285 289.565 116.437 289.526 115.563C288.598 102.703 285.075 94.5249 275.866 85.6712C265.246 76.6649 256.75 74.6646 243.098 74.9202C235.736 75.716 229.62 78.1003 223.078 81.5774C222.446 80.1666 222.446 80.167 221.801 78.7278C218.428 72.2223 212.101 68.3015 205.535 65.6555C193.778 62.5625 183.373 64.1642 172.891 70.2376C169.064 72.989 166.392 75.9899 163.91 80.0549C163.138 79.725 162.367 79.3948 161.571 79.0549C149.797 74.4684 138.691 73.4927 126.655 77.7698C115.946 82.7836 108.654 90.4568 104.006 101.569C102.07 107.235 101.168 112.079 101.787 118.133C100.442 118.139 100.442 118.139 99.0706 118.145C85.9756 118.767 75.9775 124.054 67.1195 134.032C58.2735 145.953 57.603 156.63 58.891 171.444C59.989 175.908 61.3845 179.457 63.3285 183.628C62.2915 183.911 61.2549 184.195 60.1859 184.486C52.6409 188.371 48.4915 194.827 44.2835 202.193C40.9455 213.841 40.9733 225.782 46.3363 236.767C50.5483 242.925 56.1289 247.55 61.8499 252.17C61.1319 254.108 61.1308 254.108 60.3988 256.085C57.1858 267.214 56.9034 281.336 61.7054 292.075C67.8654 302.482 75.7935 310.34 86.9945 314.619C91.9345 315.571 96.7664 316.025 101.787 316.143C101.79 317.066 101.795 317.989 101.799 318.94C102.353 331.307 106.305 340.824 115.047 349.486C126.464 358.783 137.824 360.021 152.078 358.791C156.377 357.649 159.874 356.177 163.91 354.221C164.538 354.938 165.167 355.655 165.813 356.394C174.652 366.055 181.271 369.63 194.143 370.119C208.104 369.74 216.103 363.81 226.035 354.221C227.408 354.944 228.782 355.666 230.196 356.411C241.005 361.101 252.69 361.664 263.772 357.678C273.844 352.386 282.767 343.78 287.266 332.992C288.845 327.455 289.382 321.892 289.641 316.143C291.075 316.269 292.507 316.395 293.985 316.524C304.44 316.481 313.794 310.732 321.338 303.613C329.562 294.05 332.977 283.552 332.883 270.859C332.234 264.385 330.147 258.3 328.098 252.17C328.866 251.687 329.636 251.204 330.428 250.706C339.2 244.662 344.289 238.299 347.328 227.8C349.746 209.648 345.855 197.14 332.246 185.48Z" fill="#769BFF"/>
<path d="M126.001 281.119C128.762 281.119 131.001 278.881 131.001 276.119C131.001 273.358 128.762 271.119 126.001 271.119C123.24 271.119 121.001 273.358 121.001 276.119C121.001 278.881 123.24 281.119 126.001 281.119Z" fill="white"/>
<path d="M200.001 281.119C202.762 281.119 205.001 278.881 205.001 276.119C205.001 273.358 202.762 271.119 200.001 271.119C197.24 271.119 195.001 273.358 195.001 276.119C195.001 278.881 197.24 281.119 200.001 281.119Z" fill="white"/>
<path d="M243.001 234.119C245.762 234.119 248.001 231.881 248.001 229.119C248.001 226.358 245.762 224.119 243.001 224.119C240.24 224.119 238.001 226.358 238.001 229.119C238.001 231.881 240.24 234.119 243.001 234.119Z" fill="white"/>
<path d="M274.001 281.119C276.762 281.119 279.001 278.881 279.001 276.119C279.001 273.358 276.762 271.119 274.001 271.119C271.24 271.119 269.001 273.358 269.001 276.119C269.001 278.881 271.24 281.119 274.001 281.119Z" fill="white"/>
<path d="M167.001 322.119C169.762 322.119 172.001 319.881 172.001 317.119C172.001 314.358 169.762 312.119 167.001 312.119C164.24 312.119 162.001 314.358 162.001 317.119C162.001 319.881 164.24 322.119 167.001 322.119Z" fill="white"/>
<path d="M238.001 322.119C240.762 322.119 243.001 319.881 243.001 317.119C243.001 314.358 240.762 312.119 238.001 312.119C235.24 312.119 233.001 314.358 233.001 317.119C233.001 319.881 235.24 322.119 238.001 322.119Z" fill="white"/>
<path d="M100.488 251.092C122.849 251.644 141.474 231.951 142.088 207.106C142.701 182.261 125.072 161.672 102.711 161.119C80.3506 160.567 61.726 180.26 61.1122 205.105C60.4984 229.951 78.1278 250.54 100.488 251.092Z" fill="white"/>
<path d="M170.466 252.819C192.827 253.371 211.451 233.678 212.065 208.832C212.679 183.987 195.05 163.398 172.689 162.846C150.328 162.294 131.704 181.987 131.09 206.832C130.476 231.677 148.105 252.266 170.466 252.819Z" fill="white"/>
<path d="M87.9934 241.553C100.692 241.867 111.263 230.931 111.604 217.128C111.945 203.326 101.927 191.882 89.2283 191.568C76.5297 191.254 65.9589 202.189 65.6179 215.992C65.2769 229.795 75.2948 241.239 87.9934 241.553Z" fill="black"/>
<path d="M157.993 242.553C170.692 242.867 181.263 231.931 181.604 218.128C181.945 204.326 171.927 192.882 159.228 192.568C146.53 192.254 135.959 203.189 135.618 216.992C135.277 230.795 145.295 242.239 157.993 242.553Z" fill="black"/>
<path d="M293.466 84.8422C295.064 81.7665 296.395 78.699 297.455 75.641C298.515 72.583 299.224 69.7678 299.585 67.1931C299.945 64.6183 299.928 62.4811 299.534 60.7816C299.141 59.0821 298.4 57.9492 297.312 57.3837C296.223 56.8182 294.871 56.8634 293.254 57.518C291.637 58.1725 289.878 59.3871 287.978 61.162C286.079 62.937 284.183 65.1359 282.29 67.7611C280.397 70.3862 278.65 73.2378 277.052 76.3134L285.259 80.578L293.466 84.8422Z" fill="url(#paint0_linear_1162_1194)"/>
<path d="M322.739 70.0171C324.778 67.2141 326.55 64.3807 328.054 61.5149C329.558 58.6491 330.68 55.9695 331.421 53.4773C332.161 50.9851 332.463 48.8692 332.327 47.13C332.191 45.3908 331.626 44.1617 330.634 43.4403C329.642 42.7189 328.299 42.5604 326.602 42.9666C324.906 43.3728 322.986 44.3116 320.843 45.7836C318.7 47.2555 316.496 49.1488 314.233 51.4625C311.97 53.7762 309.819 56.334 307.781 59.137L315.26 64.5774L322.739 70.0171Z" fill="url(#paint1_linear_1162_1194)"/>
<path d="M346.707 93.5124C349.228 91.1335 351.493 88.6735 353.499 86.1343C355.506 83.5951 357.102 81.1699 358.29 78.8571C359.477 76.5442 360.164 74.5202 360.351 72.7857C360.538 71.0513 360.211 69.7378 359.369 68.8459C358.528 67.9539 357.235 67.5516 355.493 67.6379C353.751 67.7242 351.69 68.2927 349.312 69.3441C346.935 70.3955 344.421 71.8485 341.77 73.705C339.119 75.5615 336.532 77.68 334.011 80.0589L340.359 86.7856L346.707 93.5124Z" fill="url(#paint2_linear_1162_1194)"/>
<path d="M316.811 103.077C318.987 100.379 320.899 97.6361 322.545 94.8492C324.19 92.0623 325.444 89.4438 326.308 86.9918C327.173 84.5397 327.581 82.4422 327.532 80.6984C327.483 78.9545 326.981 77.6966 326.026 76.9265C325.072 76.1563 323.737 75.9322 322.022 76.253C320.308 76.5738 318.344 77.4159 316.13 78.7787C313.916 80.1416 311.621 81.9207 309.245 84.1182C306.869 86.3157 304.592 88.7641 302.415 91.4616L309.613 97.2689L316.811 103.077Z" fill="url(#paint3_linear_1162_1194)"/>
<path d="M344.717 133.497C347.243 131.124 349.514 128.67 351.527 126.135C353.54 123.601 355.142 121.18 356.335 118.87C357.527 116.56 358.219 114.537 358.41 112.803C358.601 111.069 358.278 109.755 357.438 108.861C356.599 107.967 355.307 107.562 353.565 107.644C351.822 107.726 349.76 108.289 347.38 109.335C345 110.381 342.483 111.828 339.827 113.678C337.172 115.528 334.58 117.64 332.053 120.013L338.385 126.755L344.717 133.497Z" fill="url(#paint4_linear_1162_1194)"/>
<defs>
<linearGradient id="paint0_linear_1162_1194" x1="297.311" y1="57.3835" x2="285.259" y2="80.5778" gradientUnits="userSpaceOnUse">
<stop stop-color="#769BFF"/>
<stop offset="0.495097" stop-color="#769BFF" stop-opacity="0"/>
<stop offset="1" stop-color="#769BFF" stop-opacity="0"/>
</linearGradient>
<linearGradient id="paint1_linear_1162_1194" x1="330.634" y1="43.44" x2="315.26" y2="64.5771" gradientUnits="userSpaceOnUse">
<stop stop-color="#769BFF"/>
<stop offset="0.495097" stop-color="#769BFF" stop-opacity="0"/>
<stop offset="1" stop-color="#769BFF" stop-opacity="0"/>
</linearGradient>
<linearGradient id="paint2_linear_1162_1194" x1="359.369" y1="68.8459" x2="340.359" y2="86.7856" gradientUnits="userSpaceOnUse">
<stop stop-color="#769BFF"/>
<stop offset="0.495097" stop-color="#769BFF" stop-opacity="0"/>
<stop offset="1" stop-color="#769BFF" stop-opacity="0"/>
</linearGradient>
<linearGradient id="paint3_linear_1162_1194" x1="326.027" y1="76.9268" x2="309.613" y2="97.2692" gradientUnits="userSpaceOnUse">
<stop stop-color="#769BFF"/>
<stop offset="0.495097" stop-color="#769BFF" stop-opacity="0"/>
<stop offset="1" stop-color="#769BFF" stop-opacity="0"/>
</linearGradient>
<linearGradient id="paint4_linear_1162_1194" x1="357.438" y1="108.861" x2="338.385" y2="126.755" gradientUnits="userSpaceOnUse">
<stop stop-color="#769BFF"/>
<stop offset="0.495097" stop-color="#769BFF" stop-opacity="0"/>
<stop offset="1" stop-color="#769BFF" stop-opacity="0"/>
</linearGradient>
</defs>
</svg>
