<svg width="405" height="461" viewBox="0 0 405 461" fill="none" xmlns="http://www.w3.org/2000/svg">
<path d="M340.246 197.361C337.704 195.227 337.705 195.226 334.619 195.509C335.321 194.158 336.023 192.808 336.746 191.416C341.882 180.205 341.838 169.611 338.039 158.002C333.391 145.928 326.66 138.918 315.391 133.061C309.28 130.821 304.123 129.609 297.641 130.014C297.603 129.166 297.565 128.318 297.526 127.444C296.598 114.584 293.075 106.406 283.866 97.552C273.246 88.5457 264.75 86.5454 251.098 86.801C243.736 87.5968 237.62 89.9812 231.078 93.4583C230.446 92.0475 230.446 92.0479 229.801 90.6087C226.428 84.1032 220.101 80.1823 213.535 77.5364C201.778 74.4434 191.373 76.0451 180.891 82.1184C177.064 84.8699 174.392 87.8708 171.91 91.9358C171.138 91.6059 170.367 91.2757 169.571 90.9358C157.797 86.3493 146.691 85.3736 134.655 89.6507C123.946 94.6645 116.654 102.338 112.006 113.449C110.07 119.116 109.168 123.96 109.787 130.014C108.442 130.02 108.442 130.02 107.071 130.026C93.9756 130.648 83.9775 135.935 75.1195 145.912C66.2735 157.834 65.603 168.51 66.891 183.324C67.989 187.788 69.3845 191.338 71.3285 195.509C70.2915 195.792 69.2549 196.075 68.1859 196.366C60.6409 200.251 56.4915 206.708 52.2835 214.074C48.9455 225.722 48.9733 237.663 54.3363 248.648C58.5483 254.806 64.1289 259.431 69.8499 264.051C69.1319 265.989 69.1308 265.989 68.3988 267.966C65.1858 279.095 64.9034 293.217 69.7054 303.956C75.8654 314.363 83.7935 322.221 94.9945 326.5C99.9345 327.452 104.766 327.906 109.787 328.024C109.79 328.947 109.795 329.87 109.799 330.821C110.353 343.188 114.305 352.704 123.047 361.366C134.464 370.663 145.824 371.902 160.078 370.672C164.377 369.53 167.874 368.058 171.91 366.102C172.538 366.819 173.167 367.536 173.813 368.275C182.652 377.936 189.271 381.511 202.143 382C216.104 381.621 224.103 375.691 234.035 366.102C235.408 366.825 236.782 367.547 238.196 368.292C249.005 372.982 260.69 373.545 271.772 369.559C281.844 364.267 290.767 355.661 295.266 344.873C296.845 339.336 297.382 333.773 297.641 328.024C299.075 328.15 300.507 328.276 301.985 328.405C312.44 328.362 321.794 322.612 329.338 315.493C337.562 305.93 340.977 295.433 340.883 282.74C340.234 276.266 338.147 270.181 336.098 264.051C336.866 263.568 337.636 263.085 338.428 262.587C347.2 256.543 352.289 250.18 355.328 239.681C357.746 221.529 353.855 209.021 340.246 197.361Z" fill="#626B86"/>
<path fill-rule="evenodd" clip-rule="evenodd" d="M140.662 399.831L123.602 393.286L121.811 397.955L143.573 406.303L182.6 302.352L177.919 300.595L140.662 399.831Z" fill="black"/>
<path fill-rule="evenodd" clip-rule="evenodd" d="M284.293 386.149L263.868 407.348L267.469 410.817L291.363 386.017L224.749 321.839L221.28 325.44L284.293 386.149Z" fill="black"/>
<path d="M332.246 185.48C329.704 183.346 329.705 183.345 326.619 183.628C327.321 182.277 328.023 180.927 328.746 179.535C333.882 168.324 333.838 157.73 330.039 146.121C325.391 134.047 318.66 127.037 307.391 121.18C301.28 118.94 296.123 117.728 289.641 118.133C289.603 117.285 289.565 116.437 289.526 115.563C288.598 102.703 285.075 94.5249 275.866 85.6712C265.246 76.6649 256.75 74.6646 243.098 74.9202C235.736 75.716 229.62 78.1003 223.078 81.5774C222.446 80.1666 222.446 80.167 221.801 78.7278C218.428 72.2223 212.101 68.3015 205.535 65.6555C193.778 62.5625 183.373 64.1642 172.891 70.2376C169.064 72.989 166.392 75.9899 163.91 80.0549C163.138 79.725 162.367 79.3948 161.571 79.0549C149.797 74.4684 138.691 73.4927 126.655 77.7698C115.946 82.7836 108.654 90.4568 104.006 101.569C102.07 107.235 101.168 112.079 101.787 118.133C100.442 118.139 100.442 118.139 99.0706 118.145C85.9756 118.767 75.9775 124.054 67.1195 134.032C58.2735 145.953 57.603 156.63 58.891 171.444C59.989 175.908 61.3845 179.457 63.3285 183.628C62.2915 183.911 61.2549 184.195 60.1859 184.486C52.6409 188.371 48.4915 194.827 44.2835 202.193C40.9455 213.841 40.9733 225.782 46.3363 236.767C50.5483 242.925 56.1289 247.55 61.8499 252.17C61.1319 254.108 61.1308 254.108 60.3988 256.085C57.1858 267.214 56.9034 281.336 61.7054 292.075C67.8654 302.482 75.7935 310.34 86.9945 314.619C91.9345 315.571 96.7664 316.025 101.787 316.143C101.79 317.066 101.795 317.989 101.799 318.94C102.353 331.307 106.305 340.824 115.047 349.486C126.464 358.783 137.824 360.021 152.078 358.791C156.377 357.649 159.874 356.177 163.91 354.221C164.538 354.938 165.167 355.655 165.813 356.394C174.652 366.055 181.271 369.63 194.143 370.119C208.104 369.74 216.103 363.81 226.035 354.221C227.408 354.944 228.782 355.666 230.196 356.411C241.005 361.101 252.69 361.664 263.772 357.678C273.844 352.386 282.767 343.78 287.266 332.992C288.845 327.455 289.382 321.892 289.641 316.143C291.075 316.269 292.507 316.395 293.985 316.524C304.44 316.481 313.794 310.732 321.338 303.613C329.562 294.05 332.977 283.552 332.883 270.859C332.234 264.385 330.147 258.3 328.098 252.17C328.866 251.687 329.636 251.204 330.428 250.706C339.2 244.662 344.289 238.299 347.328 227.8C349.746 209.648 345.855 197.14 332.246 185.48Z" fill="#769BFF"/>
<path d="M126.001 281.119C128.762 281.119 131.001 278.881 131.001 276.119C131.001 273.358 128.762 271.119 126.001 271.119C123.24 271.119 121.001 273.358 121.001 276.119C121.001 278.881 123.24 281.119 126.001 281.119Z" fill="white"/>
<path d="M200.001 281.119C202.762 281.119 205.001 278.881 205.001 276.119C205.001 273.358 202.762 271.119 200.001 271.119C197.24 271.119 195.001 273.358 195.001 276.119C195.001 278.881 197.24 281.119 200.001 281.119Z" fill="white"/>
<path d="M243.001 234.119C245.762 234.119 248.001 231.881 248.001 229.119C248.001 226.358 245.762 224.119 243.001 224.119C240.24 224.119 238.001 226.358 238.001 229.119C238.001 231.881 240.24 234.119 243.001 234.119Z" fill="white"/>
<path d="M274.001 281.119C276.762 281.119 279.001 278.881 279.001 276.119C279.001 273.358 276.762 271.119 274.001 271.119C271.24 271.119 269.001 273.358 269.001 276.119C269.001 278.881 271.24 281.119 274.001 281.119Z" fill="white"/>
<path d="M167.001 322.119C169.762 322.119 172.001 319.881 172.001 317.119C172.001 314.358 169.762 312.119 167.001 312.119C164.24 312.119 162.001 314.358 162.001 317.119C162.001 319.881 164.24 322.119 167.001 322.119Z" fill="white"/>
<path d="M238.001 322.119C240.762 322.119 243.001 319.881 243.001 317.119C243.001 314.358 240.762 312.119 238.001 312.119C235.24 312.119 233.001 314.358 233.001 317.119C233.001 319.881 235.24 322.119 238.001 322.119Z" fill="white"/>
<path d="M100.488 251.092C122.849 251.644 141.474 231.951 142.088 207.106C142.701 182.261 125.072 161.672 102.711 161.119C80.3506 160.567 61.726 180.26 61.1122 205.105C60.4984 229.951 78.1278 250.54 100.488 251.092Z" fill="white"/>
<path d="M170.466 252.819C192.827 253.371 211.451 233.678 212.065 208.832C212.679 183.987 195.05 163.398 172.689 162.846C150.328 162.294 131.704 181.987 131.09 206.832C130.476 231.677 148.105 252.266 170.466 252.819Z" fill="white"/>
<path d="M87.9934 241.553C100.692 241.867 111.263 230.931 111.604 217.128C111.945 203.326 101.927 191.882 89.2283 191.568C76.5297 191.254 65.9589 202.189 65.6179 215.992C65.2769 229.795 75.2948 241.239 87.9934 241.553Z" fill="black"/>
<path d="M157.993 242.553C170.692 242.867 181.263 231.931 181.604 218.128C181.945 204.326 171.927 192.882 159.228 192.568C146.53 192.254 135.959 203.189 135.618 216.992C135.277 230.795 145.295 242.239 157.993 242.553Z" fill="black"/>
<path d="M292.568 87.545C293.972 84.3761 295.11 81.2319 295.978 78.114C296.846 74.9961 297.38 72.1423 297.58 69.5502C297.78 66.9581 297.63 64.826 297.131 63.1542C296.633 61.4825 295.823 60.3977 294.702 59.9008C293.581 59.404 292.233 59.533 290.66 60.2867C289.087 61.0403 287.407 62.3617 285.621 64.2511C283.835 66.1405 282.08 68.4528 280.353 71.1904C278.627 73.928 277.061 76.8824 275.657 80.0514L284.113 83.7984L292.568 87.545Z" fill="url(#paint0_linear_1162_1194)"/>
<path d="M320.865 70.9324C322.726 68.0082 324.318 65.0703 325.641 62.1166C326.965 59.163 327.919 56.419 328.503 53.8857C329.087 51.3523 329.257 49.2217 329.013 47.4943C328.769 45.7669 328.13 44.5753 327.095 43.9168C326.06 43.2584 324.71 43.1835 323.042 43.6942C321.374 44.2049 319.515 45.261 317.468 46.8632C315.42 48.4653 313.339 50.4917 311.224 52.9414C309.108 55.3911 307.121 58.0774 305.26 61.0016L313.063 65.9672L320.865 70.9324Z" fill="url(#paint1_linear_1162_1194)"/>
<path d="M346.244 92.8945C348.613 90.3638 350.721 87.768 352.566 85.1091C354.411 82.4503 355.854 79.9307 356.895 77.5486C357.937 75.1665 358.497 73.1038 358.576 71.3611C358.655 69.6184 358.247 68.3277 357.352 67.4897C356.456 66.6517 355.141 66.3304 353.408 66.5247C351.674 66.7189 349.653 67.4142 347.345 68.6111C345.037 69.8081 342.619 71.4143 340.088 73.4317C337.557 75.4492 335.107 77.7242 332.738 80.2549L339.491 86.5747L346.244 92.8945Z" fill="url(#paint2_linear_1162_1194)"/>
<path d="M317 104.296C319.005 101.468 320.743 98.6118 322.212 95.7281C323.682 92.8445 324.771 90.1532 325.481 87.6523C326.191 85.1513 326.469 83.0325 326.312 81.2951C326.155 79.5576 325.576 78.3333 324.575 77.6239C323.575 76.9145 322.229 76.7736 320.537 77.2002C318.845 77.6268 316.937 78.5892 314.812 80.0868C312.687 81.5844 310.508 83.5025 308.273 85.8432C306.037 88.1839 303.916 90.7689 301.912 93.5963L309.455 98.9458L317 104.296Z" fill="url(#paint3_linear_1162_1194)"/>
<path d="M346.74 132.926C349.114 130.401 351.228 127.81 353.08 125.156C354.932 122.501 356.38 119.985 357.427 117.606C358.475 115.226 359.039 113.165 359.123 111.422C359.206 109.68 358.801 108.388 357.908 107.548C357.014 106.708 355.7 106.383 353.966 106.573C352.232 106.763 350.209 107.454 347.899 108.645C345.588 109.837 343.165 111.437 340.63 113.448C338.094 115.46 335.638 117.729 333.264 120.254L340.002 126.59L346.74 132.926Z" fill="url(#paint4_linear_1162_1194)"/>
<defs>
<linearGradient id="paint0_linear_1162_1194" x1="294.702" y1="59.9006" x2="284.112" y2="83.7982" gradientUnits="userSpaceOnUse">
<stop stop-color="#769BFF"/>
<stop offset="0.495097" stop-color="#769BFF" stop-opacity="0"/>
<stop offset="1" stop-color="#769BFF" stop-opacity="0"/>
</linearGradient>
<linearGradient id="paint1_linear_1162_1194" x1="327.095" y1="43.9166" x2="313.062" y2="65.967" gradientUnits="userSpaceOnUse">
<stop stop-color="#769BFF"/>
<stop offset="0.495097" stop-color="#769BFF" stop-opacity="0"/>
<stop offset="1" stop-color="#769BFF" stop-opacity="0"/>
</linearGradient>
<linearGradient id="paint2_linear_1162_1194" x1="357.352" y1="67.4897" x2="339.491" y2="86.5747" gradientUnits="userSpaceOnUse">
<stop stop-color="#769BFF"/>
<stop offset="0.495097" stop-color="#769BFF" stop-opacity="0"/>
<stop offset="1" stop-color="#769BFF" stop-opacity="0"/>
</linearGradient>
<linearGradient id="paint3_linear_1162_1194" x1="324.575" y1="77.6242" x2="309.456" y2="98.9461" gradientUnits="userSpaceOnUse">
<stop stop-color="#769BFF"/>
<stop offset="0.495097" stop-color="#769BFF" stop-opacity="0"/>
<stop offset="1" stop-color="#769BFF" stop-opacity="0"/>
</linearGradient>
<linearGradient id="paint4_linear_1162_1194" x1="357.908" y1="107.548" x2="340.002" y2="126.59" gradientUnits="userSpaceOnUse">
<stop stop-color="#769BFF"/>
<stop offset="0.495097" stop-color="#769BFF" stop-opacity="0"/>
<stop offset="1" stop-color="#769BFF" stop-opacity="0"/>
</linearGradient>
</defs>
</svg>
