<svg width="515" height="586" viewBox="0 0 515 586" fill="none" xmlns="http://www.w3.org/2000/svg">
<path fill-rule="evenodd" clip-rule="evenodd" d="M362.464 567.072L342.824 575.161L345.941 582.73L373.219 571.493L302.444 404.086L294.905 407.273L362.464 567.072Z" fill="black"/>
<path fill-rule="evenodd" clip-rule="evenodd" d="M201.311 576.883H180.028V585.068H209.496V427.104H201.311V576.883Z" fill="black"/>
<path d="M488.711 211.05C484.55 207.557 484.551 207.556 479.5 208.019C480.648 205.808 481.798 203.598 482.982 201.32C491.388 182.968 491.316 165.626 485.098 146.623C477.489 126.858 466.47 115.383 448.024 105.796C438.021 102.129 429.579 100.146 418.968 100.808C418.906 99.4196 418.844 98.0311 418.78 96.6006C417.26 75.5506 411.495 62.1629 396.419 47.6699C379.036 32.9272 365.128 29.6529 342.78 30.0713C330.729 31.3739 320.719 35.2769 310.01 40.9687C308.975 38.6593 308.975 38.66 307.919 36.3041C302.397 25.655 292.041 19.2369 281.293 14.9056C262.048 9.84254 245.014 12.4644 227.856 22.4061C221.591 26.9101 217.218 31.8224 213.155 38.4765C211.892 37.9365 210.628 37.396 209.325 36.8396C190.052 29.3318 171.872 27.7345 152.17 34.7359C134.64 42.9432 122.704 55.5037 115.096 73.6931C111.927 82.9681 110.451 90.8985 111.464 100.808C109.262 100.818 109.261 100.817 107.017 100.827C85.5811 101.846 69.2147 110.501 54.7147 126.833C40.2344 146.348 39.1368 163.824 41.2451 188.074C43.0425 195.381 45.3268 201.192 48.5091 208.019C46.8116 208.483 45.1147 208.947 43.3648 209.423C31.0142 215.782 24.222 226.351 17.3337 238.408C11.8696 257.475 11.915 277.022 20.6939 295.004C27.5887 305.084 36.7239 312.656 46.0888 320.218C44.9135 323.391 44.9116 323.391 43.7133 326.627C38.4539 344.844 37.9917 367.962 45.8522 385.541C55.9358 402.576 68.9135 415.439 87.2488 422.444C95.3353 424.002 103.245 424.744 111.464 424.938C111.469 426.448 111.477 427.959 111.483 429.516C112.39 449.76 118.859 465.338 133.169 479.518C151.858 494.736 170.454 496.764 193.787 494.75C200.824 492.881 206.549 490.471 213.155 487.269C214.184 488.443 215.212 489.616 216.27 490.826C230.738 506.64 241.573 512.493 262.644 513.294C285.497 512.673 298.592 502.966 314.85 487.269C317.098 488.453 319.345 489.635 321.66 490.855C339.354 498.532 358.482 499.453 376.622 492.928C393.11 484.265 407.716 470.179 415.081 452.519C417.665 443.456 418.545 434.348 418.968 424.938C421.315 425.144 423.661 425.35 426.079 425.561C443.194 425.491 458.505 416.08 470.855 404.426C484.316 388.772 489.907 371.588 489.753 350.81C488.69 340.213 485.275 330.253 481.92 320.218C483.178 319.428 484.438 318.637 485.734 317.822C500.094 307.928 508.424 297.512 513.399 280.326C517.356 250.612 510.988 230.137 488.711 211.05Z" fill="#626B86"/>
<path d="M475.615 199.591C471.454 196.098 471.455 196.097 466.404 196.56C467.553 194.349 468.702 192.139 469.886 189.861C478.292 171.509 478.221 154.167 472.002 135.164C464.394 115.399 453.375 103.924 434.928 94.3366C424.925 90.6703 416.483 88.6867 405.873 89.349C405.81 87.9606 405.748 86.5721 405.684 85.1416C404.165 64.0916 398.399 50.7039 383.323 36.2109C365.94 21.4682 352.032 18.1939 329.685 18.6123C317.634 19.9149 307.623 23.8179 296.914 29.5097C295.879 27.2003 295.879 27.201 294.823 24.8451C289.302 14.1961 278.945 7.77788 268.197 3.44662C248.952 -1.61644 231.919 1.00542 214.76 10.9471C208.496 15.4511 204.123 20.3634 200.06 27.0176C198.796 26.4775 197.533 25.937 196.23 25.3806C176.956 17.8728 158.776 16.2756 139.074 23.2769C121.544 31.4842 109.609 44.0448 102 62.2341C98.8311 71.5091 97.355 79.4395 98.3683 89.349C96.1666 89.3585 96.1653 89.3582 93.9211 89.3682C72.4854 90.3869 56.119 99.0416 41.619 115.374C27.1387 134.889 26.0411 152.365 28.1494 176.615C29.9468 183.922 32.2311 189.733 35.4134 196.56C33.7159 197.024 32.019 197.488 30.2691 197.964C17.9185 204.323 11.1263 214.892 4.23801 226.949C-1.22607 246.016 -1.18069 265.563 7.59821 283.545C14.493 293.625 23.6282 301.197 32.9931 308.759C31.8178 311.932 31.8159 311.932 30.6176 315.168C25.3582 333.385 24.896 356.503 32.7565 374.082C42.8401 391.117 55.8178 403.98 74.1531 410.985C82.2396 412.543 90.1492 413.285 98.3683 413.479C98.3732 414.989 98.3809 416.5 98.3875 418.057C99.2943 438.301 105.764 453.879 120.074 468.059C138.763 483.277 157.359 485.305 180.691 483.291C187.729 481.422 193.453 479.012 200.06 475.81C201.088 476.984 202.116 478.157 203.174 479.367C217.643 495.181 228.478 501.034 249.548 501.835C272.402 501.214 285.496 491.507 301.755 475.81C304.002 476.994 306.25 478.176 308.564 479.396C326.258 487.073 345.386 487.994 363.526 481.469C380.014 472.806 394.62 458.72 401.985 441.06C404.569 431.997 405.449 422.889 405.873 413.479C408.22 413.685 410.565 413.891 412.983 414.102C430.098 414.032 445.409 404.621 457.759 392.967C471.22 377.313 476.812 360.129 476.657 339.351C475.595 328.754 472.179 318.794 468.824 308.759C470.082 307.969 471.343 307.178 472.639 306.363C486.998 296.469 495.328 286.053 500.303 268.867C504.261 239.153 497.892 218.678 475.615 199.591Z" fill="#93AAE7"/>
<path d="M187.931 285.76C224.545 285.76 254.227 252.78 254.227 212.098C254.227 171.415 224.545 138.436 187.931 138.436C151.317 138.436 121.635 171.415 121.635 212.098C121.635 252.78 151.317 285.76 187.931 285.76Z" fill="white"/>
<path d="M302.517 285.76C339.131 285.76 368.813 252.78 368.813 212.098C368.813 171.415 339.131 138.436 302.517 138.436C265.902 138.436 236.221 171.415 236.221 212.098C236.221 252.78 265.902 285.76 302.517 285.76Z" fill="white"/>
<path d="M172.381 246.474C193.174 246.474 210.03 228.152 210.03 205.55C210.03 182.949 193.174 164.627 172.381 164.627C151.587 164.627 134.731 182.949 134.731 205.55C134.731 228.152 151.587 246.474 172.381 246.474Z" fill="black"/>
<path d="M288.602 246.474C309.395 246.474 326.252 228.152 326.252 205.55C326.252 182.949 309.395 164.627 288.602 164.627C267.809 164.627 250.953 182.949 250.953 205.55C250.953 228.152 267.809 246.474 288.602 246.474Z" fill="black"/>
<path d="M129.82 328.321C134.34 328.321 138.005 324.656 138.005 320.136C138.005 315.616 134.34 311.951 129.82 311.951C125.3 311.951 121.635 315.616 121.635 320.136C121.635 324.656 125.3 328.321 129.82 328.321Z" fill="white"/>
<path d="M250.953 328.321C255.473 328.321 259.137 324.656 259.137 320.136C259.137 315.616 255.473 311.951 250.953 311.951C246.432 311.951 242.768 315.616 242.768 320.136C242.768 324.656 246.432 328.321 250.953 328.321Z" fill="white"/>
<path d="M372.087 328.321C376.607 328.321 380.272 324.656 380.272 320.136C380.272 315.616 376.607 311.951 372.087 311.951C367.567 311.951 363.902 315.616 363.902 320.136C363.902 324.656 367.567 328.321 372.087 328.321Z" fill="white"/>
<path d="M196.934 395.434C201.454 395.434 205.119 391.769 205.119 387.249C205.119 382.729 201.454 379.064 196.934 379.064C192.414 379.064 188.75 382.729 188.75 387.249C188.75 391.769 192.414 395.434 196.934 395.434Z" fill="white"/>
<path d="M313.158 395.434C317.678 395.434 321.343 391.769 321.343 387.249C321.343 382.729 317.678 379.064 313.158 379.064C308.638 379.064 304.973 382.729 304.973 387.249C304.973 391.769 308.638 395.434 313.158 395.434Z" fill="white"/>
<path d="M129.82 328.321C134.34 328.321 138.005 324.656 138.005 320.136C138.005 315.616 134.34 311.951 129.82 311.951C125.3 311.951 121.635 315.616 121.635 320.136C121.635 324.656 125.3 328.321 129.82 328.321Z" fill="white"/>
<path d="M250.953 328.321C255.473 328.321 259.137 324.656 259.137 320.136C259.137 315.616 255.473 311.951 250.953 311.951C246.432 311.951 242.768 315.616 242.768 320.136C242.768 324.656 246.432 328.321 250.953 328.321Z" fill="white"/>
<path d="M372.087 328.321C376.607 328.321 380.272 324.656 380.272 320.136C380.272 315.616 376.607 311.951 372.087 311.951C367.567 311.951 363.902 315.616 363.902 320.136C363.902 324.656 367.567 328.321 372.087 328.321Z" fill="white"/>
<path d="M196.934 395.434C201.454 395.434 205.119 391.769 205.119 387.249C205.119 382.729 201.454 379.064 196.934 379.064C192.414 379.064 188.75 382.729 188.75 387.249C188.75 391.769 192.414 395.434 196.934 395.434Z" fill="white"/>
<path d="M313.158 395.434C317.678 395.434 321.343 391.769 321.343 387.249C321.343 382.729 317.678 379.064 313.158 379.064C308.638 379.064 304.973 382.729 304.973 387.249C304.973 391.769 308.638 395.434 313.158 395.434Z" fill="white"/>
</svg>
