<svg width="352" height="350" viewBox="0 0 352 350" fill="none" xmlns="http://www.w3.org/2000/svg">
<path d="M333.887 143.485C331.045 141.1 331.046 141.099 327.597 141.416C328.381 139.905 329.166 138.397 329.975 136.841C335.715 124.309 335.666 112.466 331.42 99.4892C326.224 85.9921 318.699 78.1562 306.103 71.6088C299.272 69.1052 293.507 67.7506 286.261 68.2029C286.218 67.2547 286.176 66.3066 286.132 65.3297C285.095 50.955 281.158 41.8128 270.863 31.9158C258.992 21.8483 249.494 19.6123 234.234 19.898C226.004 20.7876 219.168 23.4529 211.855 27.3397C211.149 25.7626 211.148 25.7631 210.427 24.1543C206.657 16.8822 199.585 12.4994 192.245 9.54165C179.103 6.08418 167.471 7.8746 155.754 14.6636C151.476 17.7393 148.49 21.0938 145.715 25.6378C144.852 25.269 143.99 24.8999 143.1 24.52C129.938 19.393 117.524 18.3023 104.069 23.0834C92.0985 28.688 83.9479 37.2654 78.7522 49.6866C76.5881 56.0203 75.58 61.4358 76.272 68.2029C74.7685 68.2094 74.7676 68.2092 73.235 68.216C58.597 68.9116 47.4207 74.8217 37.5189 85.9747C27.6306 99.3013 26.881 111.236 28.3208 127.795C29.5482 132.785 31.1081 136.753 33.2812 141.416C32.122 141.732 30.9633 142.049 29.7683 142.374C21.3343 146.717 16.696 153.934 11.9921 162.168C8.2608 175.188 8.29178 188.536 14.2867 200.816C18.9951 207.699 25.2333 212.87 31.6285 218.034C30.8259 220.201 30.8246 220.201 30.0063 222.411C26.4147 234.851 26.0991 250.637 31.4669 262.642C38.3528 274.275 47.215 283.059 59.7359 287.842C65.258 288.906 70.6593 289.413 76.272 289.545C76.2754 290.577 76.2806 291.608 76.2851 292.672C76.9044 306.496 81.3221 317.134 91.0942 326.817C103.857 337.209 116.555 338.594 132.489 337.219C137.295 335.942 141.204 334.297 145.715 332.11C146.417 332.912 147.12 333.713 147.842 334.539C157.722 345.338 165.121 349.335 179.51 349.882C195.116 349.458 204.058 342.829 215.161 332.11C216.696 332.918 218.231 333.726 219.811 334.559C231.894 339.801 244.956 340.43 257.344 335.975C268.603 330.059 278.577 320.439 283.606 308.38C285.371 302.191 285.972 295.972 286.261 289.545C287.864 289.686 289.465 289.827 291.117 289.971C302.805 289.923 313.26 283.496 321.693 275.538C330.886 264.848 334.704 253.114 334.599 238.925C333.873 231.688 331.541 224.887 329.25 218.034C330.109 217.494 330.969 216.955 331.854 216.398C341.66 209.642 347.349 202.529 350.746 190.792C353.449 170.502 349.1 156.519 333.887 143.485Z" fill="#626B86"/>
<path d="M324.948 135.661C322.106 133.276 322.107 133.275 318.658 133.591C319.442 132.081 320.227 130.572 321.035 129.016C326.775 116.484 326.727 104.642 322.481 91.6649C317.285 78.1679 309.76 70.3319 297.163 63.7846C290.333 61.281 284.568 59.9264 277.322 60.3787C277.279 59.4305 277.237 58.4824 277.193 57.5055C276.155 43.1308 272.218 33.9886 261.923 24.0916C250.053 14.024 240.555 11.7881 225.294 12.0738C217.065 12.9634 210.229 15.6286 202.916 19.5155C202.209 17.9384 202.209 17.9389 201.488 16.3301C197.718 9.05803 190.645 4.67517 183.306 1.71744C170.163 -1.74004 158.532 0.0503815 146.815 6.83939C142.537 9.91507 139.55 13.2696 136.776 17.8136C135.913 17.4448 135.05 17.0757 134.16 16.6958C120.999 11.5688 108.584 10.4781 95.1299 15.2592C83.1591 20.8638 75.0084 29.4412 69.8127 41.8623C67.6486 48.1961 66.6406 53.6116 67.3326 60.3787C65.829 60.3851 65.8282 60.3849 64.2956 60.3918C49.6576 61.0874 38.4813 66.9975 28.5795 78.1505C18.6911 91.4771 17.9416 103.411 19.3813 119.971C20.6087 124.961 22.1687 128.929 24.3417 133.591C23.1826 133.908 22.0238 134.225 20.8289 134.55C12.3948 138.893 7.75653 146.109 3.05267 154.343C-0.67865 167.364 -0.647675 180.712 5.34729 192.992C10.0556 199.875 16.2939 205.046 22.689 210.21C21.8864 212.376 21.8851 212.376 21.0668 214.586C17.4753 227.027 17.1596 242.813 22.5274 254.818C29.4133 266.451 38.2756 275.235 50.7964 280.018C56.3185 281.082 61.7199 281.589 67.3326 281.721C67.3359 282.753 67.3412 283.784 67.3456 284.847C67.9649 298.672 72.3827 309.31 82.1548 318.993C94.9171 329.385 107.616 330.77 123.55 329.395C128.355 328.118 132.264 326.472 136.776 324.286C137.478 325.087 138.18 325.889 138.902 326.715C148.783 337.514 156.182 341.511 170.571 342.058C186.177 341.634 195.119 335.005 206.221 324.286C207.756 325.094 209.291 325.902 210.872 326.734C222.954 331.977 236.016 332.606 248.404 328.15C259.663 322.235 269.638 312.615 274.667 300.556C276.431 294.367 277.033 288.147 277.322 281.721C278.924 281.862 280.526 282.002 282.177 282.147C293.865 282.099 304.321 275.672 312.754 267.714C321.946 257.024 325.765 245.289 325.659 231.101C324.934 223.864 322.601 217.062 320.31 210.21C321.169 209.67 322.03 209.13 322.915 208.574C332.721 201.817 338.409 194.704 341.807 182.968C344.509 162.677 340.16 148.695 324.948 135.661Z" fill="#769BFF"/>
<path d="M128.493 194.504C153.496 194.504 173.765 171.982 173.765 144.201C173.765 116.42 153.496 93.8984 128.493 93.8984C103.49 93.8984 83.2207 116.42 83.2207 144.201C83.2207 171.982 103.49 194.504 128.493 194.504Z" fill="white"/>
<path d="M206.741 194.504C231.744 194.504 252.013 171.982 252.013 144.201C252.013 116.42 231.744 93.8984 206.741 93.8984C181.738 93.8984 161.469 116.42 161.469 144.201C161.469 171.982 181.738 194.504 206.741 194.504Z" fill="white"/>
<path d="M117.872 167.679C132.072 167.679 143.583 155.167 143.583 139.733C143.583 124.299 132.072 111.787 117.872 111.787C103.673 111.787 92.1621 124.299 92.1621 139.733C92.1621 155.167 103.673 167.679 117.872 167.679Z" fill="black"/>
<path d="M197.239 167.679C211.439 167.679 222.95 155.167 222.95 139.733C222.95 124.299 211.439 111.787 197.239 111.787C183.04 111.787 171.529 124.299 171.529 139.733C171.529 155.167 183.04 167.679 197.239 167.679Z" fill="black"/>
<path d="M88.8099 223.569C91.8967 223.569 94.3991 221.067 94.3991 217.98C94.3991 214.893 91.8967 212.391 88.8099 212.391C85.7231 212.391 83.2207 214.893 83.2207 217.98C83.2207 221.067 85.7231 223.569 88.8099 223.569Z" fill="white"/>
<path d="M171.529 223.569C174.615 223.569 177.118 221.067 177.118 217.98C177.118 214.893 174.615 212.391 171.529 212.391C168.442 212.391 165.939 214.893 165.939 217.98C165.939 221.067 168.442 223.569 171.529 223.569Z" fill="white"/>
<path d="M254.247 223.569C257.334 223.569 259.837 221.067 259.837 217.98C259.837 214.893 257.334 212.391 254.247 212.391C251.161 212.391 248.658 214.893 248.658 217.98C248.658 221.067 251.161 223.569 254.247 223.569Z" fill="white"/>
<path d="M134.64 269.399C137.727 269.399 140.229 266.897 140.229 263.81C140.229 260.723 137.727 258.221 134.64 258.221C131.553 258.221 129.051 260.723 129.051 263.81C129.051 266.897 131.553 269.399 134.64 269.399Z" fill="white"/>
<path d="M214.005 269.399C217.092 269.399 219.594 266.897 219.594 263.81C219.594 260.723 217.092 258.221 214.005 258.221C210.918 258.221 208.416 260.723 208.416 263.81C208.416 266.897 210.918 269.399 214.005 269.399Z" fill="white"/>
<path d="M88.8099 223.569C91.8967 223.569 94.3991 221.067 94.3991 217.98C94.3991 214.893 91.8967 212.391 88.8099 212.391C85.7231 212.391 83.2207 214.893 83.2207 217.98C83.2207 221.067 85.7231 223.569 88.8099 223.569Z" fill="white"/>
<path d="M171.529 223.569C174.615 223.569 177.118 221.067 177.118 217.98C177.118 214.893 174.615 212.391 171.529 212.391C168.442 212.391 165.939 214.893 165.939 217.98C165.939 221.067 168.442 223.569 171.529 223.569Z" fill="white"/>
<path d="M254.247 223.569C257.334 223.569 259.837 221.067 259.837 217.98C259.837 214.893 257.334 212.391 254.247 212.391C251.161 212.391 248.658 214.893 248.658 217.98C248.658 221.067 251.161 223.569 254.247 223.569Z" fill="white"/>
<path d="M134.64 269.399C137.727 269.399 140.229 266.897 140.229 263.81C140.229 260.723 137.727 258.221 134.64 258.221C131.553 258.221 129.051 260.723 129.051 263.81C129.051 266.897 131.553 269.399 134.64 269.399Z" fill="white"/>
<path d="M214.005 269.399C217.092 269.399 219.594 266.897 219.594 263.81C219.594 260.723 217.092 258.221 214.005 258.221C210.918 258.221 208.416 260.723 208.416 263.81C208.416 266.897 210.918 269.399 214.005 269.399Z" fill="white"/>
</svg>
