<svg width="314" height="355" viewBox="0 0 314 355" fill="none" xmlns="http://www.w3.org/2000/svg">
<path fill-rule="evenodd" clip-rule="evenodd" d="M77.3601 346.087L59.9535 340.528L58.4339 345.292L80.6373 352.383L113.655 246.369L108.881 244.883L77.3601 346.087Z" fill="black"/>
<path fill-rule="evenodd" clip-rule="evenodd" d="M212.974 348.676L183.557 349.771L183.743 354.768L218.156 353.487L214.715 261.051L209.718 261.237L212.974 348.676Z" fill="black"/>
<path d="M298.246 128.361C295.704 126.227 295.705 126.226 292.619 126.509C293.321 125.158 294.023 123.808 294.746 122.416C299.882 111.205 299.838 100.611 296.039 89.0022C291.391 76.9279 284.66 69.918 273.391 64.0608C267.28 61.8211 262.123 60.6093 255.641 61.0139C255.603 60.1657 255.565 59.3175 255.526 58.4436C254.598 45.5842 251.075 37.4057 241.866 28.552C231.246 19.5457 222.75 17.5454 209.098 17.801C201.736 18.5968 195.62 20.9812 189.078 24.4583C188.446 23.0475 188.446 23.0479 187.801 21.6087C184.428 15.1032 178.101 11.1823 171.535 8.5364C159.778 5.44339 149.373 7.04507 138.891 13.1184C135.064 15.8699 132.392 18.8708 129.91 22.9358C129.138 22.6059 128.367 22.2757 127.571 21.9358C115.797 17.3493 104.691 16.3736 92.6546 20.6507C81.9456 25.6645 74.6542 33.3377 70.0062 44.4495C68.0702 50.1156 67.1684 54.9602 67.7874 61.0139C66.4424 61.0197 66.4417 61.0196 65.0706 61.0257C51.9756 61.648 41.9775 66.9351 33.1195 76.9124C24.2735 88.8342 23.603 99.5105 24.891 114.324C25.989 118.788 27.3845 122.338 29.3285 126.509C28.2915 126.792 27.2549 127.075 26.1859 127.366C18.6409 131.251 14.4915 137.708 10.2835 145.074C6.94553 156.721 6.97327 168.663 12.3363 179.648C16.5483 185.806 22.1289 190.431 27.8499 195.051C27.132 196.989 27.1308 196.989 26.3988 198.966C23.1858 210.095 22.9034 224.217 27.7054 234.956C33.8654 245.363 41.7935 253.221 52.9945 257.5C57.9345 258.452 62.7664 258.906 67.7874 259.024C67.7905 259.947 67.7952 260.87 67.7992 261.821C68.3532 274.188 72.3052 283.704 81.0472 292.366C92.4642 301.663 103.824 302.902 118.078 301.672C122.377 300.53 125.874 299.058 129.91 297.102C130.538 297.819 131.167 298.536 131.813 299.275C140.652 308.936 147.271 312.511 160.143 313C174.104 312.621 182.103 306.691 192.035 297.102C193.408 297.825 194.782 298.547 196.196 299.292C207.005 303.982 218.69 304.545 229.772 300.559C239.844 295.267 248.767 286.661 253.266 275.873C254.845 270.336 255.382 264.773 255.641 259.024C257.075 259.15 258.507 259.276 259.985 259.405C270.44 259.362 279.794 253.612 287.338 246.493C295.562 236.93 298.977 226.433 298.883 213.74C298.234 207.266 296.147 201.181 294.098 195.051C294.866 194.568 295.636 194.085 296.428 193.587C305.2 187.543 310.289 181.18 313.328 170.681C315.746 152.529 311.855 140.021 298.246 128.361Z" fill="#626B86"/>
<path d="M290.246 121.361C287.704 119.227 287.705 119.226 284.619 119.509C285.321 118.158 286.023 116.808 286.746 115.416C291.882 104.205 291.838 93.611 288.039 82.0022C283.391 69.9279 276.66 62.918 265.391 57.0608C259.28 54.8211 254.123 53.6093 247.641 54.0139C247.603 53.1657 247.565 52.3175 247.526 51.4436C246.598 38.5842 243.075 30.4057 233.866 21.552C223.246 12.5457 214.75 10.5454 201.098 10.801C193.736 11.5968 187.62 13.9812 181.078 17.4583C180.446 16.0475 180.446 16.0479 179.801 14.6087C176.428 8.10319 170.101 4.18235 163.535 1.5364C151.778 -1.55661 141.373 0.0450706 130.891 6.11843C127.064 8.86989 124.392 11.8708 121.91 15.9358C121.138 15.6059 120.367 15.2757 119.571 14.9358C107.797 10.3493 96.6906 9.37355 84.6546 13.6507C73.9456 18.6645 66.6542 26.3377 62.0062 37.4495C60.0702 43.1156 59.1684 47.9602 59.7874 54.0139C58.4424 54.0197 58.4417 54.0196 57.0706 54.0257C43.9756 54.648 33.9775 59.9351 25.1195 69.9124C16.2735 81.8342 15.603 92.5105 16.891 107.324C17.989 111.788 19.3845 115.338 21.3285 119.509C20.2915 119.792 19.2549 120.075 18.1859 120.366C10.6409 124.251 6.49155 130.708 2.28354 138.074C-1.05447 149.721 -1.02673 161.663 4.33627 172.648C8.54828 178.806 14.1289 183.431 19.8499 188.051C19.132 189.989 19.1308 189.989 18.3988 191.966C15.1858 203.095 14.9034 217.217 19.7054 227.956C25.8654 238.363 33.7935 246.221 44.9945 250.5C49.9345 251.452 54.7664 251.906 59.7874 252.024C59.7905 252.947 59.7952 253.87 59.7992 254.821C60.3532 267.188 64.3052 276.704 73.0472 285.366C84.4642 294.663 95.8245 295.902 110.078 294.672C114.377 293.53 117.874 292.058 121.91 290.102C122.538 290.819 123.167 291.536 123.813 292.275C132.652 301.936 139.271 305.511 152.143 306C166.104 305.621 174.103 299.691 184.035 290.102C185.408 290.825 186.782 291.547 188.196 292.292C199.005 296.982 210.69 297.545 221.772 293.559C231.844 288.267 240.767 279.661 245.266 268.873C246.845 263.336 247.382 257.773 247.641 252.024C249.075 252.15 250.507 252.276 251.985 252.405C262.44 252.362 271.794 246.612 279.338 239.493C287.562 229.93 290.977 219.433 290.883 206.74C290.234 200.266 288.147 194.181 286.098 188.051C286.866 187.568 287.636 187.085 288.428 186.587C297.2 180.543 302.289 174.18 305.328 163.681C307.746 145.529 303.855 133.021 290.246 121.361Z" fill="#769BFF"/>
<path d="M84.001 217C86.7624 217 89.001 214.761 89.001 212C89.001 209.239 86.7624 207 84.001 207C81.2396 207 79.001 209.239 79.001 212C79.001 214.761 81.2396 217 84.001 217Z" fill="white"/>
<path d="M158.001 217C160.762 217 163.001 214.761 163.001 212C163.001 209.239 160.762 207 158.001 207C155.24 207 153.001 209.239 153.001 212C153.001 214.761 155.24 217 158.001 217Z" fill="white"/>
<path d="M232.001 217C234.762 217 237.001 214.761 237.001 212C237.001 209.239 234.762 207 232.001 207C229.24 207 227.001 209.239 227.001 212C227.001 214.761 229.24 217 232.001 217Z" fill="white"/>
<path d="M232.001 217C234.762 217 237.001 214.761 237.001 212C237.001 209.239 234.762 207 232.001 207C229.24 207 227.001 209.239 227.001 212C227.001 214.761 229.24 217 232.001 217Z" fill="white"/>
<path d="M125.001 258C127.762 258 130.001 255.761 130.001 253C130.001 250.239 127.762 248 125.001 248C122.24 248 120.001 250.239 120.001 253C120.001 255.761 122.24 258 125.001 258Z" fill="white"/>
<path d="M196.001 258C198.762 258 201.001 255.761 201.001 253C201.001 250.239 198.762 248 196.001 248C193.24 248 191.001 250.239 191.001 253C191.001 255.761 193.24 258 196.001 258Z" fill="white"/>
<path d="M67.4885 186.973C89.8492 187.525 108.474 167.832 109.088 142.987C109.701 118.142 92.072 97.5527 69.7113 97.0003C47.3506 96.4478 28.726 116.141 28.1122 140.986C27.4984 165.832 45.1278 186.42 67.4885 186.973Z" fill="white"/>
<path d="M157.466 188.699C179.827 189.252 198.451 169.559 199.065 144.713C199.679 119.868 182.05 99.2792 159.689 98.7268C137.328 98.1744 118.704 117.868 118.09 142.713C117.476 167.558 135.105 188.147 157.466 188.699Z" fill="white"/>
<path d="M58.5843 162.744C71.2829 163.058 81.8537 152.123 82.1947 138.32C82.5357 124.517 72.5178 113.073 59.8192 112.759C47.1205 112.446 36.5497 123.381 36.2087 137.184C35.8677 150.987 45.8856 162.43 58.5843 162.744Z" fill="black"/>
<path d="M149.562 164.498C162.26 164.812 172.831 153.877 173.172 140.074C173.513 126.271 163.495 114.827 150.797 114.513C138.098 114.2 127.527 125.135 127.186 138.938C126.845 152.741 136.863 164.184 149.562 164.498Z" fill="black"/>
</svg>
