<svg width="352" height="353" viewBox="0 0 352 353" fill="none" xmlns="http://www.w3.org/2000/svg">
<path fill-rule="evenodd" clip-rule="evenodd" d="M13.3519 238.322L5.36908 221.886L0.871919 224.071L11.0545 245.038L110.584 195.814L108.366 191.332L13.3519 238.322Z" fill="black"/>
<path fill-rule="evenodd" clip-rule="evenodd" d="M112.352 340.581L127.896 348.247L125.685 352.731L105.656 342.853L146.572 259.895L151.057 262.106L112.352 340.581Z" fill="black"/>
<path d="M336.249 128.361C333.707 126.227 333.708 126.226 330.622 126.509C331.324 125.158 332.026 123.808 332.749 122.416C337.885 111.205 337.841 100.611 334.042 89.0022C329.394 76.9279 322.663 69.918 311.394 64.0608C305.283 61.8211 300.126 60.6093 293.644 61.0139C293.606 60.1657 293.568 59.3175 293.529 58.4436C292.601 45.5842 289.078 37.4057 279.868 28.552C269.249 19.5457 260.753 17.5454 247.101 17.801C239.739 18.5968 233.623 20.9812 227.081 24.4583C226.449 23.0475 226.449 23.0479 225.804 21.6087C222.431 15.1032 216.104 11.1823 209.538 8.5364C197.781 5.44339 187.376 7.04507 176.894 13.1184C173.067 15.8699 170.395 18.8708 167.913 22.9358C167.141 22.6059 166.37 22.2757 165.574 21.9358C153.8 17.3493 142.694 16.3736 130.658 20.6507C119.949 25.6645 112.657 33.3377 108.009 44.4495C106.073 50.1156 105.171 54.9602 105.79 61.0139C104.445 61.0197 104.445 61.0196 103.074 61.0257C89.9786 61.648 79.9804 66.9351 71.1224 76.9124C62.2764 88.8342 61.6059 99.5105 62.8939 114.324C63.9919 118.788 65.3874 122.338 67.3314 126.509C66.2944 126.792 65.2578 127.075 64.1888 127.366C56.6438 131.251 52.4945 137.708 48.2865 145.074C44.9485 156.721 44.9762 168.663 50.3392 179.648C54.5512 185.806 60.1319 190.431 65.8529 195.051C65.1349 196.989 65.1337 196.989 64.4017 198.966C61.1887 210.095 60.9063 224.217 65.7083 234.956C71.8683 245.363 79.7964 253.221 90.9974 257.5C95.9374 258.452 100.769 258.906 105.79 259.024C105.793 259.947 105.798 260.87 105.802 261.821C106.356 274.188 110.308 283.704 119.05 292.366C130.467 301.663 141.827 302.902 156.081 301.672C160.38 300.53 163.877 299.058 167.913 297.102C168.541 297.819 169.17 298.536 169.816 299.275C178.655 308.936 185.274 312.511 198.146 313C212.107 312.621 220.106 306.691 230.038 297.102C231.411 297.825 232.785 298.547 234.199 299.292C245.008 303.982 256.693 304.545 267.775 300.559C277.847 295.267 286.77 286.661 291.269 275.873C292.847 270.336 293.385 264.773 293.644 259.024C295.078 259.15 296.51 259.276 297.988 259.405C308.443 259.362 317.797 253.612 325.341 246.493C333.565 236.93 336.98 226.433 336.886 213.74C336.237 207.266 334.15 201.181 332.101 195.051C332.869 194.568 333.639 194.085 334.431 193.587C343.203 187.543 348.292 181.18 351.331 170.681C353.749 152.529 349.858 140.021 336.249 128.361Z" fill="#626B86"/>
<path d="M328.249 121.361C325.707 119.227 325.708 119.226 322.622 119.509C323.324 118.158 324.026 116.808 324.749 115.416C329.885 104.205 329.841 93.611 326.042 82.0022C321.394 69.9279 314.663 62.918 303.394 57.0608C297.283 54.8211 292.126 53.6093 285.644 54.0139C285.606 53.1657 285.568 52.3175 285.529 51.4436C284.601 38.5842 281.078 30.4057 271.868 21.552C261.249 12.5457 252.753 10.5454 239.101 10.801C231.739 11.5968 225.623 13.9812 219.081 17.4583C218.449 16.0475 218.449 16.0479 217.804 14.6087C214.431 8.10319 208.104 4.18235 201.538 1.5364C189.781 -1.55661 179.376 0.0450706 168.894 6.11843C165.067 8.86989 162.395 11.8708 159.913 15.9358C159.141 15.6059 158.37 15.2757 157.574 14.9358C145.8 10.3493 134.694 9.37355 122.658 13.6507C111.949 18.6645 104.657 26.3377 100.009 37.4495C98.0731 43.1156 97.1714 47.9602 97.7904 54.0139C96.4454 54.0197 96.4446 54.0196 95.0736 54.0257C81.9786 54.648 71.9804 59.9351 63.1224 69.9124C54.2764 81.8342 53.6059 92.5105 54.8939 107.324C55.9919 111.788 57.3874 115.338 59.3314 119.509C58.2944 119.792 57.2578 120.075 56.1888 120.366C48.6438 124.251 44.4945 130.708 40.2865 138.074C36.9485 149.721 36.9762 161.663 42.3392 172.648C46.5512 178.806 52.1319 183.431 57.8529 188.051C57.1349 189.989 57.1337 189.989 56.4017 191.966C53.1887 203.095 52.9063 217.217 57.7083 227.956C63.8683 238.363 71.7964 246.221 82.9974 250.5C87.9374 251.452 92.7694 251.906 97.7904 252.024C97.7934 252.947 97.7981 253.87 97.8021 254.821C98.3561 267.188 102.308 276.704 111.05 285.366C122.467 294.663 133.827 295.902 148.081 294.672C152.38 293.53 155.877 292.058 159.913 290.102C160.541 290.819 161.17 291.536 161.816 292.275C170.655 301.936 177.274 305.511 190.146 306C204.107 305.621 212.106 299.691 222.038 290.102C223.411 290.825 224.785 291.547 226.199 292.292C237.008 296.982 248.693 297.545 259.775 293.559C269.847 288.267 278.77 279.661 283.269 268.873C284.847 263.336 285.385 257.773 285.644 252.024C287.078 252.15 288.51 252.276 289.988 252.405C300.443 252.362 309.797 246.612 317.341 239.493C325.565 229.93 328.98 219.433 328.886 206.74C328.237 200.266 326.15 194.181 324.101 188.051C324.869 187.568 325.639 187.085 326.431 186.587C335.203 180.543 340.292 174.18 343.331 163.681C345.749 145.529 341.858 133.021 328.249 121.361Z" fill="#769BFF"/>
<path d="M107.635 141.698C109.639 143.597 112.804 143.512 114.703 141.508C116.603 139.503 116.518 136.339 114.513 134.439C112.509 132.54 109.344 132.625 107.445 134.629C105.545 136.634 105.63 139.798 107.635 141.698Z" fill="white"/>
<path d="M161.347 192.596C163.351 194.496 166.516 194.411 168.415 192.406C170.315 190.402 170.229 187.237 168.225 185.338C166.221 183.438 163.056 183.523 161.157 185.528C159.257 187.532 159.342 190.697 161.347 192.596Z" fill="white"/>
<path d="M215.059 243.499C217.063 245.398 220.228 245.313 222.127 243.308C224.026 241.304 223.941 238.139 221.937 236.24C219.933 234.341 216.768 234.426 214.868 236.43C212.969 238.435 213.054 241.599 215.059 243.499Z" fill="white"/>
<path d="M109.192 199.659C111.197 201.558 114.361 201.473 116.261 199.469C118.16 197.464 118.075 194.3 116.071 192.4C114.066 190.501 110.902 190.586 109.002 192.59C107.103 194.595 107.188 197.759 109.192 199.659Z" fill="white"/>
<path d="M160.727 248.495C162.732 250.394 165.897 250.309 167.796 248.305C169.695 246.3 169.61 243.135 167.606 241.236C165.601 239.337 162.437 239.422 160.537 241.426C158.638 243.431 158.723 246.595 160.727 248.495Z" fill="white"/>
<path d="M138.176 147.094C155.943 160.681 182.585 155.692 197.682 135.95C212.78 116.208 210.615 89.1895 192.847 75.6021C175.079 62.0147 148.437 67.0039 133.34 86.7458C118.243 106.488 120.408 133.506 138.176 147.094Z" fill="white"/>
<path d="M205.176 208.094C222.943 221.681 249.585 216.692 264.682 196.95C279.78 177.208 277.615 150.189 259.847 136.602C242.079 123.015 215.437 128.004 200.34 147.746C185.243 167.488 187.408 194.506 205.176 208.094Z" fill="white"/>
<path d="M156.273 131.689C166.363 139.405 181.342 136.77 189.73 125.802C198.117 114.834 196.736 99.6879 186.646 91.9716C176.556 84.2553 161.577 86.8911 153.189 97.8588C144.802 108.826 146.183 123.973 156.273 131.689Z" fill="black"/>
<path d="M210.273 184.689C220.363 192.405 235.342 189.77 243.73 178.802C252.117 167.834 250.736 152.688 240.646 144.972C230.556 137.255 215.577 139.891 207.189 150.859C198.802 161.826 200.183 176.973 210.273 184.689Z" fill="black"/>
</svg>
