<svg width="352" height="353" viewBox="0 0 352 353" fill="none" xmlns="http://www.w3.org/2000/svg">
<path fill-rule="evenodd" clip-rule="evenodd" d="M12.6174 238.322L4.63373 221.886L0.136568 224.071L10.32 245.037L109.849 195.814L107.632 191.331L12.6174 238.322Z" fill="#A8A8A8"/>
<path fill-rule="evenodd" clip-rule="evenodd" d="M111.618 340.581L127.162 348.247L124.95 352.731L104.922 342.853L145.838 259.895L150.322 262.106L111.618 340.581Z" fill="#A8A8A8"/>
<path d="M335.516 128.361C332.974 126.227 332.975 126.226 329.889 126.509C330.591 125.158 331.293 123.808 332.016 122.416C337.151 111.205 337.108 100.611 333.309 89.0022C328.661 76.9279 321.929 69.918 310.66 64.0608C304.55 61.8211 299.393 60.6093 292.91 61.0139C292.872 60.1657 292.835 59.3175 292.795 58.4436C291.867 45.5842 288.345 37.4057 279.135 28.552C268.516 19.5457 260.019 17.5454 246.368 17.801C239.006 18.5968 232.89 20.9812 226.348 24.4583C225.716 23.0475 225.716 23.0479 225.071 21.6087C221.698 15.1032 215.371 11.1823 208.805 8.5364C197.048 5.44339 186.642 7.04507 176.16 13.1184C172.333 15.8699 169.662 18.8708 167.18 22.9358C166.408 22.6059 165.636 22.2757 164.84 21.9358C153.066 17.3493 141.96 16.3736 129.924 20.6507C119.215 25.6645 111.924 33.3377 107.276 44.4495C105.34 50.1156 104.438 54.9602 105.057 61.0139C103.712 61.0197 103.711 61.0196 102.34 61.0257C89.2452 61.648 79.247 66.9351 70.389 76.9124C61.543 88.8342 60.8725 99.5105 62.1605 114.324C63.2585 118.788 64.654 122.338 66.598 126.509C65.561 126.792 64.5244 127.075 63.4554 127.366C55.9104 131.251 51.7611 137.708 47.5531 145.074C44.2151 156.721 44.2428 168.663 49.6058 179.648C53.8178 185.806 59.3985 190.431 65.1195 195.051C64.4015 196.989 64.4003 196.989 63.6683 198.966C60.4553 210.095 60.1729 224.217 64.9749 234.956C71.1349 245.363 79.063 253.221 90.264 257.5C95.204 258.452 100.036 258.906 105.057 259.024C105.06 259.947 105.065 260.87 105.069 261.821C105.623 274.188 109.575 283.704 118.317 292.366C129.734 301.663 141.094 302.902 155.348 301.672C159.647 300.53 163.144 299.058 167.18 297.102C167.808 297.819 168.436 298.536 169.082 299.275C177.921 308.936 184.54 312.511 197.412 313C211.373 312.621 219.373 306.691 229.305 297.102C230.678 297.825 232.051 298.547 233.465 299.292C244.274 303.982 255.959 304.545 267.041 300.559C277.113 295.267 286.036 286.661 290.535 275.873C292.114 270.336 292.652 264.773 292.91 259.024C294.344 259.15 295.777 259.276 297.254 259.405C307.71 259.362 317.063 253.612 324.608 246.493C332.831 236.93 336.247 226.433 336.153 213.74C335.503 207.266 333.417 201.181 331.368 195.051C332.136 194.568 332.906 194.085 333.698 193.587C342.47 187.543 347.559 181.18 350.598 170.681C353.015 152.529 349.125 140.021 335.516 128.361Z" fill="#A8A8A8"/>
<path d="M327.516 121.361C324.974 119.227 324.975 119.226 321.889 119.509C322.591 118.158 323.293 116.808 324.016 115.416C329.151 104.205 329.108 93.611 325.309 82.0022C320.661 69.9279 313.929 62.918 302.66 57.0608C296.55 54.8211 291.393 53.6093 284.91 54.0139C284.872 53.1657 284.835 52.3175 284.795 51.4436C283.867 38.5842 280.345 30.4057 271.135 21.552C260.516 12.5457 252.019 10.5454 238.368 10.801C231.006 11.5968 224.89 13.9812 218.348 17.4583C217.716 16.0475 217.716 16.0479 217.071 14.6087C213.698 8.10319 207.371 4.18235 200.805 1.5364C189.048 -1.55661 178.642 0.0450706 168.16 6.11843C164.333 8.86989 161.662 11.8708 159.18 15.9358C158.408 15.6059 157.636 15.2757 156.84 14.9358C145.066 10.3493 133.96 9.37355 121.924 13.6507C111.215 18.6645 103.924 26.3377 99.2757 37.4495C97.3397 43.1156 96.438 47.9602 97.057 54.0139C95.712 54.0197 95.7112 54.0196 94.3402 54.0257C81.2452 54.648 71.247 59.9351 62.389 69.9124C53.543 81.8342 52.8725 92.5105 54.1605 107.324C55.2585 111.788 56.654 115.338 58.598 119.509C57.561 119.792 56.5244 120.075 55.4554 120.366C47.9104 124.251 43.7611 130.708 39.5531 138.074C36.2151 149.721 36.2428 161.663 41.6058 172.648C45.8178 178.806 51.3985 183.431 57.1195 188.051C56.4015 189.989 56.4003 189.989 55.6683 191.966C52.4553 203.095 52.1729 217.217 56.9749 227.956C63.1349 238.363 71.063 246.221 82.264 250.5C87.204 251.452 92.036 251.906 97.057 252.024C97.06 252.947 97.0647 253.87 97.0687 254.821C97.6227 267.188 101.575 276.704 110.317 285.366C121.734 294.663 133.094 295.902 147.348 294.672C151.647 293.53 155.144 292.058 159.18 290.102C159.808 290.819 160.436 291.536 161.082 292.275C169.921 301.936 176.54 305.511 189.412 306C203.373 305.621 211.373 299.691 221.305 290.102C222.678 290.825 224.051 291.547 225.465 292.292C236.274 296.982 247.959 297.545 259.041 293.559C269.113 288.267 278.036 279.661 282.535 268.873C284.114 263.336 284.652 257.773 284.91 252.024C286.344 252.15 287.777 252.276 289.254 252.405C299.71 252.362 309.063 246.612 316.608 239.493C324.831 229.93 328.247 219.433 328.153 206.74C327.503 200.266 325.417 194.181 323.368 188.051C324.136 187.568 324.906 187.085 325.698 186.587C334.47 180.543 339.559 174.18 342.598 163.681C345.015 145.529 341.125 133.021 327.516 121.361Z" fill="#D4D4D4"/>
<path d="M106.899 141.698C108.904 143.597 112.068 143.512 113.968 141.508C115.867 139.503 115.782 136.339 113.778 134.439C111.773 132.54 108.609 132.625 106.709 134.629C104.81 136.634 104.895 139.798 106.899 141.698Z" fill="white"/>
<path d="M160.614 192.596C162.619 194.496 165.783 194.411 167.683 192.406C169.582 190.402 169.497 187.237 167.493 185.338C165.488 183.438 162.323 183.523 160.424 185.528C158.525 187.532 158.61 190.697 160.614 192.596Z" fill="white"/>
<path d="M214.326 243.499C216.331 245.398 219.495 245.313 221.395 243.308C223.294 241.304 223.209 238.139 221.205 236.24C219.2 234.341 216.035 234.426 214.136 236.43C212.237 238.435 212.322 241.599 214.326 243.499Z" fill="white"/>
<path d="M108.46 199.659C110.464 201.558 113.629 201.473 115.528 199.469C117.428 197.464 117.343 194.3 115.338 192.4C113.334 190.501 110.169 190.586 108.27 192.59C106.37 194.595 106.455 197.759 108.46 199.659Z" fill="white"/>
<path d="M159.994 248.495C161.998 250.394 165.163 250.309 167.063 248.305C168.962 246.3 168.877 243.135 166.872 241.236C164.868 239.337 161.703 239.422 159.804 241.426C157.905 243.431 157.99 246.595 159.994 248.495Z" fill="white"/>
<path d="M137.442 147.094C155.21 160.681 181.852 155.692 196.949 135.95C212.046 116.208 209.881 89.1895 192.114 75.6021C174.346 62.0147 147.704 67.0039 132.607 86.7458C117.51 106.488 119.675 133.506 137.442 147.094Z" fill="white"/>
<path d="M204.442 208.094C222.21 221.681 248.852 216.692 263.949 196.95C279.046 177.208 276.881 150.189 259.114 136.602C241.346 123.015 214.704 128.004 199.607 147.746C184.51 167.488 186.675 194.506 204.442 208.094Z" fill="white"/>
<path d="M155.541 131.689C165.631 139.405 180.61 136.77 188.997 125.802C197.384 114.834 196.004 99.6879 185.914 91.9716C175.823 84.2553 160.844 86.8911 152.457 97.8588C144.07 108.826 145.45 123.973 155.541 131.689Z" fill="#A8A8A8"/>
<path d="M209.541 184.689C219.631 192.405 234.61 189.77 242.997 178.802C251.384 167.834 250.004 152.688 239.914 144.972C229.823 137.255 214.844 139.891 206.457 150.859C198.07 161.826 199.45 176.973 209.541 184.689Z" fill="#A8A8A8"/>
</svg>
