<svg width="100" height="100" viewBox="0 0 100 100" fill="none" xmlns="http://www.w3.org/2000/svg">
<g id="ant-design:right-outlined">
<path id="Vector" d="M74.7754 47.5398L30.752 13.1551C30.6369 13.0645 30.4987 13.0082 30.3531 12.9927C30.2075 12.9771 30.0605 13.003 29.929 13.0672C29.7974 13.1315 29.6866 13.2315 29.6094 13.3559C29.5321 13.4803 29.4915 13.6239 29.4922 13.7703V21.3191C29.4922 21.7976 29.7168 22.2566 30.0879 22.5496L65.2441 50.0008L30.0879 77.4519C29.707 77.7449 29.4922 78.2039 29.4922 78.6824V86.2312C29.4922 86.8855 30.2441 87.2469 30.752 86.8465L74.7754 52.4617C75.1496 52.1698 75.4523 51.7965 75.6604 51.37C75.8686 50.9436 75.9769 50.4753 75.9769 50.0008C75.9769 49.5262 75.8686 49.0579 75.6604 48.6315C75.4523 48.205 75.1496 47.8317 74.7754 47.5398Z" fill="#769BFF"/>
</g>
</svg>
