<svg width="1440" height="3200" viewBox="0 0 1440 3200" fill="none" xmlns="http://www.w3.org/2000/svg">
<mask id="mask0_1395_1600" style="mask-type:luminance" maskUnits="userSpaceOnUse" x="0" y="0" width="1440" height="3200">
<path d="M1440 0H0V3200H1440V0Z" fill="white"/>
</mask>
<g mask="url(#mask0_1395_1600)">
<path d="M1440 0H0V3200H1440V0Z" fill="#EAF0FF"/>
<path d="M1440 0H0V3200H1440V0Z" fill="#EAF0FF"/>
<path d="M857.246 1582.36C854.704 1580.23 854.705 1580.23 851.619 1580.51C852.321 1579.16 853.023 1577.81 853.746 1576.42C858.882 1565.21 858.838 1554.61 855.039 1543C850.391 1530.93 843.66 1523.92 832.391 1518.06C826.28 1515.82 821.123 1514.61 814.641 1515.01C814.603 1514.17 814.565 1513.32 814.526 1512.44C813.598 1499.58 810.075 1491.41 800.866 1482.55C790.246 1473.55 781.75 1471.55 768.098 1471.8C760.736 1472.6 754.62 1474.98 748.078 1478.46C747.446 1477.05 747.446 1477.05 746.801 1475.61C743.428 1469.1 737.101 1465.18 730.535 1462.54C718.778 1459.44 708.373 1461.05 697.891 1467.12C694.064 1469.87 691.392 1472.87 688.91 1476.94C688.138 1476.61 687.367 1476.28 686.571 1475.94C674.797 1471.35 663.691 1470.37 651.655 1474.65C640.946 1479.66 633.654 1487.34 629.006 1498.45C627.07 1504.12 626.168 1508.96 626.787 1515.01C625.442 1515.02 625.442 1515.02 624.071 1515.03C610.976 1515.65 600.977 1520.94 592.119 1530.91C583.273 1542.83 582.603 1553.51 583.891 1568.32C584.989 1572.79 586.384 1576.34 588.328 1580.51C587.291 1580.79 586.255 1581.08 585.186 1581.37C577.641 1585.25 573.492 1591.71 569.284 1599.07C565.946 1610.72 565.973 1622.66 571.336 1633.65C575.548 1639.81 581.129 1644.43 586.85 1649.05C586.132 1650.99 586.131 1650.99 585.399 1652.97C582.186 1664.1 581.903 1678.22 586.705 1688.96C592.865 1699.36 600.793 1707.22 611.994 1711.5C616.934 1712.45 621.766 1712.91 626.787 1713.02C626.79 1713.95 626.795 1714.87 626.799 1715.82C627.353 1728.19 631.305 1737.7 640.047 1746.37C651.464 1755.66 662.824 1756.9 677.078 1755.67C681.377 1754.53 684.874 1753.06 688.91 1751.1C689.538 1751.82 690.167 1752.54 690.813 1753.27C699.652 1762.94 706.271 1766.51 719.143 1767C733.104 1766.62 741.103 1760.69 751.035 1751.1C752.408 1751.82 753.782 1752.55 755.196 1753.29C766.005 1757.98 777.69 1758.54 788.772 1754.56C798.844 1749.27 807.767 1740.66 812.266 1729.87C813.845 1724.34 814.382 1718.77 814.641 1713.02C816.075 1713.15 817.507 1713.28 818.985 1713.4C829.44 1713.36 838.794 1707.61 846.338 1700.49C854.562 1690.93 857.977 1680.43 857.883 1667.74C857.234 1661.27 855.147 1655.18 853.098 1649.05C853.866 1648.57 854.636 1648.09 855.428 1647.59C864.2 1641.54 869.289 1635.18 872.328 1624.68C874.746 1606.53 870.855 1594.02 857.246 1582.36Z" fill="#769BFF"/>
<path d="M646.001 1659C648.762 1659 651.001 1656.76 651.001 1654C651.001 1651.24 648.762 1649 646.001 1649C643.24 1649 641.001 1651.24 641.001 1654C641.001 1656.76 643.24 1659 646.001 1659Z" fill="white"/>
<path d="M720.001 1659C722.762 1659 725.001 1656.76 725.001 1654C725.001 1651.24 722.762 1649 720.001 1649C717.24 1649 715.001 1651.24 715.001 1654C715.001 1656.76 717.24 1659 720.001 1659Z" fill="white"/>
<path d="M794.001 1659C796.762 1659 799.001 1656.76 799.001 1654C799.001 1651.24 796.762 1649 794.001 1649C791.24 1649 789.001 1651.24 789.001 1654C789.001 1656.76 791.24 1659 794.001 1659Z" fill="white"/>
<path d="M687.001 1700C689.762 1700 692.001 1697.76 692.001 1695C692.001 1692.24 689.762 1690 687.001 1690C684.24 1690 682.001 1692.24 682.001 1695C682.001 1697.76 684.24 1700 687.001 1700Z" fill="white"/>
<path d="M758.001 1700C760.762 1700 763.001 1697.76 763.001 1695C763.001 1692.24 760.762 1690 758.001 1690C755.24 1690 753.001 1692.24 753.001 1695C753.001 1697.76 755.24 1700 758.001 1700Z" fill="white"/>
<path d="M646 1583C648.761 1583 651 1580.76 651 1578C651 1575.24 648.761 1573 646 1573C643.239 1573 641 1575.24 641 1578C641 1580.76 643.239 1583 646 1583Z" fill="white"/>
<path d="M720 1583C722.761 1583 725 1580.76 725 1578C725 1575.24 722.761 1573 720 1573C717.239 1573 715 1575.24 715 1578C715 1580.76 717.239 1583 720 1583Z" fill="white"/>
<path d="M794 1583C796.761 1583 799 1580.76 799 1578C799 1575.24 796.761 1573 794 1573C791.239 1573 789 1575.24 789 1578C789 1580.76 791.239 1583 794 1583Z" fill="white"/>
<path d="M687 1624C689.761 1624 692 1621.76 692 1619C692 1616.24 689.761 1614 687 1614C684.239 1614 682 1616.24 682 1619C682 1621.76 684.239 1624 687 1624Z" fill="white"/>
<path d="M758 1624C760.761 1624 763 1621.76 763 1619C763 1616.24 760.761 1614 758 1614C755.239 1614 753 1616.24 753 1619C753 1621.76 755.239 1624 758 1624Z" fill="white"/>
<path d="M689 1542C691.761 1542 694 1539.76 694 1537C694 1534.24 691.761 1532 689 1532C686.239 1532 684 1534.24 684 1537C684 1539.76 686.239 1542 689 1542Z" fill="white"/>
<path d="M760 1542C762.761 1542 765 1539.76 765 1537C765 1534.24 762.761 1532 760 1532C757.239 1532 755 1534.24 755 1537C755 1539.76 757.239 1542 760 1542Z" fill="white"/>
<path d="M0 1763.39C0 1763.39 61.5 1744.88 255 1794.38C448.5 1843.88 523 1864.39 686.5 1813.89C850 1763.39 998 1782.39 1161.5 1823.89C1325 1865.39 1440 1763.39 1440 1763.39V3200.38H0V1763.39Z" fill="white"/>
</g>
</svg>
