<svg width="1440" height="3200" viewBox="0 0 1440 3200" fill="none" xmlns="http://www.w3.org/2000/svg">
<mask id="mask0_1395_1646" style="mask-type:luminance" maskUnits="userSpaceOnUse" x="0" y="0" width="1440" height="3200">
<path d="M1440 0H0V3200H1440V0Z" fill="white"/>
</mask>
<g mask="url(#mask0_1395_1646)">
<path d="M1440 0H0V3200H1440V0Z" fill="#EAF0FF"/>
<path d="M1440 0H0V3200H1440V0Z" fill="#EAF0FF"/>
<path d="M1440 0H0V3200H1440V0Z" fill="#EAF0FF"/>
<path d="M857.246 1622.36C854.704 1620.23 854.705 1620.23 851.619 1620.51C852.321 1619.16 853.023 1617.81 853.746 1616.42C858.882 1605.21 858.838 1594.61 855.039 1583C850.391 1570.93 843.66 1563.92 832.391 1558.06C826.28 1555.82 821.123 1554.61 814.641 1555.01C814.603 1554.17 814.565 1553.32 814.526 1552.44C813.598 1539.58 810.075 1531.41 800.866 1522.55C790.246 1513.55 781.75 1511.55 768.098 1511.8C760.736 1512.6 754.62 1514.98 748.078 1518.46C747.446 1517.05 747.446 1517.05 746.801 1515.61C743.428 1509.1 737.101 1505.18 730.535 1502.54C718.778 1499.44 708.373 1501.05 697.891 1507.12C694.064 1509.87 691.392 1512.87 688.91 1516.94C688.138 1516.61 687.367 1516.28 686.571 1515.94C674.797 1511.35 663.691 1510.37 651.655 1514.65C640.946 1519.66 633.654 1527.34 629.006 1538.45C627.07 1544.12 626.168 1548.96 626.787 1555.01C625.442 1555.02 625.442 1555.02 624.071 1555.03C610.976 1555.65 600.977 1560.94 592.119 1570.91C583.273 1582.83 582.603 1593.51 583.891 1608.32C584.989 1612.79 586.384 1616.34 588.328 1620.51C587.291 1620.79 586.255 1621.08 585.186 1621.37C577.641 1625.25 573.492 1631.71 569.284 1639.07C565.946 1650.72 565.973 1662.66 571.336 1673.65C575.548 1679.81 581.129 1684.43 586.85 1689.05C586.132 1690.99 586.131 1690.99 585.399 1692.97C582.186 1704.1 581.903 1718.22 586.705 1728.96C592.865 1739.36 600.793 1747.22 611.994 1751.5C616.934 1752.45 621.766 1752.91 626.787 1753.02C626.79 1753.95 626.795 1754.87 626.799 1755.82C627.353 1768.19 631.305 1777.7 640.047 1786.37C651.464 1795.66 662.824 1796.9 677.078 1795.67C681.377 1794.53 684.874 1793.06 688.91 1791.1C689.538 1791.82 690.167 1792.54 690.813 1793.27C699.652 1802.94 706.271 1806.51 719.143 1807C733.104 1806.62 741.103 1800.69 751.035 1791.1C752.408 1791.82 753.782 1792.55 755.196 1793.29C766.005 1797.98 777.69 1798.54 788.772 1794.56C798.844 1789.27 807.767 1780.66 812.266 1769.87C813.845 1764.34 814.382 1758.77 814.641 1753.02C816.075 1753.15 817.507 1753.28 818.985 1753.4C829.44 1753.36 838.794 1747.61 846.338 1740.49C854.562 1730.93 857.977 1720.43 857.883 1707.74C857.234 1701.27 855.147 1695.18 853.098 1689.05C853.866 1688.57 854.636 1688.09 855.428 1687.59C864.2 1681.54 869.289 1675.18 872.328 1664.68C874.746 1646.53 870.855 1634.02 857.246 1622.36Z" fill="#769BFF"/>
<path d="M646.001 1699C648.762 1699 651.001 1696.76 651.001 1694C651.001 1691.24 648.762 1689 646.001 1689C643.24 1689 641.001 1691.24 641.001 1694C641.001 1696.76 643.24 1699 646.001 1699Z" fill="white"/>
<path d="M720.001 1699C722.762 1699 725.001 1696.76 725.001 1694C725.001 1691.24 722.762 1689 720.001 1689C717.24 1689 715.001 1691.24 715.001 1694C715.001 1696.76 717.24 1699 720.001 1699Z" fill="white"/>
<path d="M794.001 1699C796.762 1699 799.001 1696.76 799.001 1694C799.001 1691.24 796.762 1689 794.001 1689C791.24 1689 789.001 1691.24 789.001 1694C789.001 1696.76 791.24 1699 794.001 1699Z" fill="white"/>
<path d="M687.001 1740C689.762 1740 692.001 1737.76 692.001 1735C692.001 1732.24 689.762 1730 687.001 1730C684.24 1730 682.001 1732.24 682.001 1735C682.001 1737.76 684.24 1740 687.001 1740Z" fill="white"/>
<path d="M758.001 1740C760.762 1740 763.001 1737.76 763.001 1735C763.001 1732.24 760.762 1730 758.001 1730C755.24 1730 753.001 1732.24 753.001 1735C753.001 1737.76 755.24 1740 758.001 1740Z" fill="white"/>
<path d="M646 1623C648.761 1623 651 1620.76 651 1618C651 1615.24 648.761 1613 646 1613C643.239 1613 641 1615.24 641 1618C641 1620.76 643.239 1623 646 1623Z" fill="white"/>
<path d="M720 1623C722.761 1623 725 1620.76 725 1618C725 1615.24 722.761 1613 720 1613C717.239 1613 715 1615.24 715 1618C715 1620.76 717.239 1623 720 1623Z" fill="white"/>
<path d="M794 1623C796.761 1623 799 1620.76 799 1618C799 1615.24 796.761 1613 794 1613C791.239 1613 789 1615.24 789 1618C789 1620.76 791.239 1623 794 1623Z" fill="white"/>
<path d="M687 1664C689.761 1664 692 1661.76 692 1659C692 1656.24 689.761 1654 687 1654C684.239 1654 682 1656.24 682 1659C682 1661.76 684.239 1664 687 1664Z" fill="white"/>
<path d="M758 1664C760.761 1664 763 1661.76 763 1659C763 1656.24 760.761 1654 758 1654C755.239 1654 753 1656.24 753 1659C753 1661.76 755.239 1664 758 1664Z" fill="white"/>
<path d="M689 1582C691.761 1582 694 1579.76 694 1577C694 1574.24 691.761 1572 689 1572C686.239 1572 684 1574.24 684 1577C684 1579.76 686.239 1582 689 1582Z" fill="white"/>
<path d="M760 1582C762.761 1582 765 1579.76 765 1577C765 1574.24 762.761 1572 760 1572C757.239 1572 755 1574.24 755 1577C755 1579.76 757.239 1582 760 1582Z" fill="white"/>
<path d="M0 1763.39C0 1763.39 61.5 1744.88 255 1794.38C448.5 1843.88 523 1864.39 686.5 1813.89C850 1763.39 998 1782.39 1161.5 1823.89C1325 1865.39 1440 1763.39 1440 1763.39V3200.38H0V1763.39Z" fill="white"/>
</g>
</svg>
