<svg width="1440" height="3200" viewBox="0 0 1440 3200" fill="none" xmlns="http://www.w3.org/2000/svg">
<mask id="mask0_1391_1120" style="mask-type:luminance" maskUnits="userSpaceOnUse" x="0" y="0" width="1440" height="3200">
<path d="M1440 0H0V3200H1440V0Z" fill="white"/>
</mask>
<g mask="url(#mask0_1391_1120)">
<path d="M1440 0H0V3200H1440V0Z" fill="#EAF0FF"/>
<path d="M857.246 1532.36C854.704 1530.23 854.705 1530.23 851.619 1530.51C852.321 1529.16 853.023 1527.81 853.746 1526.42C858.882 1515.21 858.838 1504.61 855.039 1493C850.391 1480.93 843.66 1473.92 832.391 1468.06C826.28 1465.82 821.123 1464.61 814.641 1465.01C814.603 1464.17 814.565 1463.32 814.526 1462.44C813.598 1449.58 810.075 1441.41 800.866 1432.55C790.246 1423.55 781.75 1421.55 768.098 1421.8C760.736 1422.6 754.62 1424.98 748.078 1428.46C747.446 1427.05 747.446 1427.05 746.801 1425.61C743.428 1419.1 737.101 1415.18 730.535 1412.54C718.778 1409.44 708.373 1411.05 697.891 1417.12C694.064 1419.87 691.392 1422.87 688.91 1426.94C688.138 1426.61 687.367 1426.28 686.571 1425.94C674.797 1421.35 663.691 1420.37 651.655 1424.65C640.946 1429.66 633.654 1437.34 629.006 1448.45C627.07 1454.12 626.168 1458.96 626.787 1465.01C625.442 1465.02 625.442 1465.02 624.071 1465.03C610.976 1465.65 600.977 1470.94 592.119 1480.91C583.273 1492.83 582.603 1503.51 583.891 1518.32C584.989 1522.79 586.384 1526.34 588.328 1530.51C587.291 1530.79 586.255 1531.08 585.186 1531.37C577.641 1535.25 573.492 1541.71 569.284 1549.07C565.946 1560.72 565.973 1572.66 571.336 1583.65C575.548 1589.81 581.129 1594.43 586.85 1599.05C586.132 1600.99 586.131 1600.99 585.399 1602.97C582.186 1614.1 581.903 1628.22 586.705 1638.96C592.865 1649.36 600.793 1657.22 611.994 1661.5C616.934 1662.45 621.766 1662.91 626.787 1663.02C626.79 1663.95 626.795 1664.87 626.799 1665.82C627.353 1678.19 631.305 1687.7 640.047 1696.37C651.464 1705.66 662.824 1706.9 677.078 1705.67C681.377 1704.53 684.874 1703.06 688.91 1701.1C689.538 1701.82 690.167 1702.54 690.813 1703.27C699.652 1712.94 706.271 1716.51 719.143 1717C733.104 1716.62 741.103 1710.69 751.035 1701.1C752.408 1701.82 753.782 1702.55 755.196 1703.29C766.005 1707.98 777.69 1708.54 788.772 1704.56C798.844 1699.27 807.767 1690.66 812.266 1679.87C813.845 1674.34 814.382 1668.77 814.641 1663.02C816.075 1663.15 817.507 1663.28 818.985 1663.4C829.44 1663.36 838.794 1657.61 846.338 1650.49C854.562 1640.93 857.977 1630.43 857.883 1617.74C857.234 1611.27 855.147 1605.18 853.098 1599.05C853.866 1598.57 854.636 1598.09 855.428 1597.59C864.2 1591.54 869.289 1585.18 872.328 1574.68C874.746 1556.53 870.855 1544.02 857.246 1532.36Z" fill="#769BFF"/>
<path d="M646.001 1609C648.762 1609 651.001 1606.76 651.001 1604C651.001 1601.24 648.762 1599 646.001 1599C643.24 1599 641.001 1601.24 641.001 1604C641.001 1606.76 643.24 1609 646.001 1609Z" fill="white"/>
<path d="M720.001 1609C722.762 1609 725.001 1606.76 725.001 1604C725.001 1601.24 722.762 1599 720.001 1599C717.24 1599 715.001 1601.24 715.001 1604C715.001 1606.76 717.24 1609 720.001 1609Z" fill="white"/>
<path d="M794.001 1609C796.762 1609 799.001 1606.76 799.001 1604C799.001 1601.24 796.762 1599 794.001 1599C791.24 1599 789.001 1601.24 789.001 1604C789.001 1606.76 791.24 1609 794.001 1609Z" fill="white"/>
<path d="M687.001 1650C689.762 1650 692.001 1647.76 692.001 1645C692.001 1642.24 689.762 1640 687.001 1640C684.24 1640 682.001 1642.24 682.001 1645C682.001 1647.76 684.24 1650 687.001 1650Z" fill="white"/>
<path d="M758.001 1650C760.762 1650 763.001 1647.76 763.001 1645C763.001 1642.24 760.762 1640 758.001 1640C755.24 1640 753.001 1642.24 753.001 1645C753.001 1647.76 755.24 1650 758.001 1650Z" fill="white"/>
<path d="M646 1533C648.761 1533 651 1530.76 651 1528C651 1525.24 648.761 1523 646 1523C643.239 1523 641 1525.24 641 1528C641 1530.76 643.239 1533 646 1533Z" fill="white"/>
<path d="M720 1533C722.761 1533 725 1530.76 725 1528C725 1525.24 722.761 1523 720 1523C717.239 1523 715 1525.24 715 1528C715 1530.76 717.239 1533 720 1533Z" fill="white"/>
<path d="M794 1533C796.761 1533 799 1530.76 799 1528C799 1525.24 796.761 1523 794 1523C791.239 1523 789 1525.24 789 1528C789 1530.76 791.239 1533 794 1533Z" fill="white"/>
<path d="M687 1574C689.761 1574 692 1571.76 692 1569C692 1566.24 689.761 1564 687 1564C684.239 1564 682 1566.24 682 1569C682 1571.76 684.239 1574 687 1574Z" fill="white"/>
<path d="M758 1574C760.761 1574 763 1571.76 763 1569C763 1566.24 760.761 1564 758 1564C755.239 1564 753 1566.24 753 1569C753 1571.76 755.239 1574 758 1574Z" fill="white"/>
<path d="M689 1492C691.761 1492 694 1489.76 694 1487C694 1484.24 691.761 1482 689 1482C686.239 1482 684 1484.24 684 1487C684 1489.76 686.239 1492 689 1492Z" fill="white"/>
<path d="M760 1492C762.761 1492 765 1489.76 765 1487C765 1484.24 762.761 1482 760 1482C757.239 1482 755 1484.24 755 1487C755 1489.76 757.239 1492 760 1492Z" fill="white"/>
<path d="M0 1763.39C0 1763.39 61.5 1744.88 255 1794.38C448.5 1843.88 523 1864.39 686.5 1813.89C850 1763.39 998 1782.39 1161.5 1823.89C1325 1865.39 1440 1763.39 1440 1763.39V3200.38H0V1763.39Z" fill="white"/>
</g>
</svg>
