<svg width="1440" height="3200" viewBox="0 0 1440 3200" fill="none" xmlns="http://www.w3.org/2000/svg">
<mask id="mask0_1391_1473" style="mask-type:luminance" maskUnits="userSpaceOnUse" x="0" y="0" width="1440" height="3200">
<path d="M1440 0H0V3200H1440V0Z" fill="white"/>
</mask>
<g mask="url(#mask0_1391_1473)">
<path d="M1440 0H0V3200H1440V0Z" fill="#EAF0FF"/>
<path d="M1440 0H0V3200H1440V0Z" fill="#EAF0FF"/>
<path d="M1469 0H29V3200H1469V0Z" fill="#EAF0FF"/>
<path d="M857.246 1652.36C854.704 1650.23 854.705 1650.23 851.619 1650.51C852.321 1649.16 853.023 1647.81 853.746 1646.42C858.882 1635.21 858.838 1624.61 855.039 1613C850.391 1600.93 843.66 1593.92 832.391 1588.06C826.28 1585.82 821.123 1584.61 814.641 1585.01C814.603 1584.17 814.565 1583.32 814.526 1582.44C813.598 1569.58 810.075 1561.41 800.866 1552.55C790.246 1543.55 781.75 1541.55 768.098 1541.8C760.736 1542.6 754.62 1544.98 748.078 1548.46C747.446 1547.05 747.446 1547.05 746.801 1545.61C743.428 1539.1 737.101 1535.18 730.535 1532.54C718.778 1529.44 708.373 1531.05 697.891 1537.12C694.064 1539.87 691.392 1542.87 688.91 1546.94C688.138 1546.61 687.367 1546.28 686.571 1545.94C674.797 1541.35 663.691 1540.37 651.655 1544.65C640.946 1549.66 633.654 1557.34 629.006 1568.45C627.07 1574.12 626.168 1578.96 626.787 1585.01C625.442 1585.02 625.442 1585.02 624.071 1585.03C610.976 1585.65 600.977 1590.94 592.119 1600.91C583.273 1612.83 582.603 1623.51 583.891 1638.32C584.989 1642.79 586.384 1646.34 588.328 1650.51C587.291 1650.79 586.255 1651.08 585.186 1651.37C577.641 1655.25 573.492 1661.71 569.284 1669.07C565.946 1680.72 565.973 1692.66 571.336 1703.65C575.548 1709.81 581.129 1714.43 586.85 1719.05C586.132 1720.99 586.131 1720.99 585.399 1722.97C582.186 1734.1 581.903 1748.22 586.705 1758.96C592.865 1769.36 600.793 1777.22 611.994 1781.5C616.934 1782.45 621.766 1782.91 626.787 1783.02C626.79 1783.95 626.795 1784.87 626.799 1785.82C627.353 1798.19 631.305 1807.7 640.047 1816.37C651.464 1825.66 662.824 1826.9 677.078 1825.67C681.377 1824.53 684.874 1823.06 688.91 1821.1C689.538 1821.82 690.167 1822.54 690.813 1823.27C699.652 1832.94 706.271 1836.51 719.143 1837C733.104 1836.62 741.103 1830.69 751.035 1821.1C752.408 1821.82 753.782 1822.55 755.196 1823.29C766.005 1827.98 777.69 1828.54 788.772 1824.56C798.844 1819.27 807.767 1810.66 812.266 1799.87C813.845 1794.34 814.382 1788.77 814.641 1783.02C816.075 1783.15 817.507 1783.28 818.985 1783.4C829.44 1783.36 838.794 1777.61 846.338 1770.49C854.562 1760.93 857.977 1750.43 857.883 1737.74C857.234 1731.27 855.147 1725.18 853.098 1719.05C853.866 1718.57 854.636 1718.09 855.428 1717.59C864.2 1711.54 869.289 1705.18 872.328 1694.68C874.746 1676.53 870.855 1664.02 857.246 1652.36Z" fill="#769BFF"/>
<path d="M646.001 1729C648.762 1729 651.001 1726.76 651.001 1724C651.001 1721.24 648.762 1719 646.001 1719C643.24 1719 641.001 1721.24 641.001 1724C641.001 1726.76 643.24 1729 646.001 1729Z" fill="white"/>
<path d="M720.001 1729C722.762 1729 725.001 1726.76 725.001 1724C725.001 1721.24 722.762 1719 720.001 1719C717.24 1719 715.001 1721.24 715.001 1724C715.001 1726.76 717.24 1729 720.001 1729Z" fill="white"/>
<path d="M794.001 1729C796.762 1729 799.001 1726.76 799.001 1724C799.001 1721.24 796.762 1719 794.001 1719C791.24 1719 789.001 1721.24 789.001 1724C789.001 1726.76 791.24 1729 794.001 1729Z" fill="white"/>
<path d="M687.001 1770C689.762 1770 692.001 1767.76 692.001 1765C692.001 1762.24 689.762 1760 687.001 1760C684.24 1760 682.001 1762.24 682.001 1765C682.001 1767.76 684.24 1770 687.001 1770Z" fill="white"/>
<path d="M758.001 1770C760.762 1770 763.001 1767.76 763.001 1765C763.001 1762.24 760.762 1760 758.001 1760C755.24 1760 753.001 1762.24 753.001 1765C753.001 1767.76 755.24 1770 758.001 1770Z" fill="white"/>
<path d="M646 1653C648.761 1653 651 1650.76 651 1648C651 1645.24 648.761 1643 646 1643C643.239 1643 641 1645.24 641 1648C641 1650.76 643.239 1653 646 1653Z" fill="white"/>
<path d="M720 1653C722.761 1653 725 1650.76 725 1648C725 1645.24 722.761 1643 720 1643C717.239 1643 715 1645.24 715 1648C715 1650.76 717.239 1653 720 1653Z" fill="white"/>
<path d="M794 1653C796.761 1653 799 1650.76 799 1648C799 1645.24 796.761 1643 794 1643C791.239 1643 789 1645.24 789 1648C789 1650.76 791.239 1653 794 1653Z" fill="white"/>
<path d="M687 1694C689.761 1694 692 1691.76 692 1689C692 1686.24 689.761 1684 687 1684C684.239 1684 682 1686.24 682 1689C682 1691.76 684.239 1694 687 1694Z" fill="white"/>
<path d="M758 1694C760.761 1694 763 1691.76 763 1689C763 1686.24 760.761 1684 758 1684C755.239 1684 753 1686.24 753 1689C753 1691.76 755.239 1694 758 1694Z" fill="white"/>
<path d="M689 1612C691.761 1612 694 1609.76 694 1607C694 1604.24 691.761 1602 689 1602C686.239 1602 684 1604.24 684 1607C684 1609.76 686.239 1612 689 1612Z" fill="white"/>
<path d="M760 1612C762.761 1612 765 1609.76 765 1607C765 1604.24 762.761 1602 760 1602C757.239 1602 755 1604.24 755 1607C755 1609.76 757.239 1612 760 1612Z" fill="white"/>
<path d="M0 1763.39C0 1763.39 61.5 1744.88 255 1794.38C448.5 1843.88 523 1864.39 686.5 1813.89C850 1763.39 998 1782.39 1161.5 1823.89C1325 1865.39 1440 1763.39 1440 1763.39V3200.38H0V1763.39Z" fill="white"/>
<path d="M1114 1730.5C1114 1855.59 937.6 1957 720 1957C502.4 1957 326 1855.59 326 1730.5C326 1667.95 451.575 1779.99 525 1806.5C598.425 1833.01 568.7 1687 677.5 1687C786.3 1687 824.7 1816.51 896 1806.5C967.3 1796.49 1114 1667.95 1114 1730.5Z" fill="white"/>
<path d="M325 1672C341.569 1672 355 1658.57 355 1642C355 1625.43 341.569 1612 325 1612C308.431 1612 295 1625.43 295 1642C295 1658.57 308.431 1672 325 1672Z" fill="white"/>
<path d="M850.135 1768.39C865.121 1778.81 886.221 1774.37 897.264 1758.49C908.306 1742.6 905.109 1721.28 890.122 1710.86C875.136 1700.44 854.036 1704.88 842.994 1720.77C831.951 1736.65 835.149 1757.98 850.135 1768.39Z" fill="white"/>
<path d="M922.772 1763.77C930.378 1769.06 941.087 1766.81 946.691 1758.74C952.295 1750.68 950.673 1739.86 943.067 1734.57C935.461 1729.29 924.752 1731.54 919.148 1739.6C913.543 1747.66 915.166 1758.49 922.772 1763.77Z" fill="white"/>
<path d="M1086.77 1683.77C1096.33 1690.42 1109.8 1687.59 1116.84 1677.45C1123.89 1667.31 1121.85 1653.71 1112.28 1647.06C1102.72 1640.42 1089.26 1643.25 1082.22 1653.38C1075.17 1663.52 1077.21 1677.13 1086.77 1683.77Z" fill="white"/>
<path d="M392.5 1694C402.717 1694 411 1685.72 411 1675.5C411 1665.28 402.717 1657 392.5 1657C382.283 1657 374 1665.28 374 1675.5C374 1685.72 382.283 1694 392.5 1694Z" fill="white"/>
</g>
</svg>
