<svg width="1440" height="3200" viewBox="0 0 1440 3200" fill="none" xmlns="http://www.w3.org/2000/svg">
<mask id="mask0_1395_1578" style="mask-type:luminance" maskUnits="userSpaceOnUse" x="0" y="0" width="1440" height="3200">
<path d="M1440 0H0V3200H1440V0Z" fill="white"/>
</mask>
<g mask="url(#mask0_1395_1578)">
<path d="M1440 0H0V3200H1440V0Z" fill="#EAF0FF"/>
<path d="M1440 0H0V3200H1440V0Z" fill="#EAF0FF"/>
<path d="M857.246 1562.36C854.704 1560.23 854.705 1560.23 851.619 1560.51C852.321 1559.16 853.023 1557.81 853.746 1556.42C858.882 1545.21 858.838 1534.61 855.039 1523C850.391 1510.93 843.66 1503.92 832.391 1498.06C826.28 1495.82 821.123 1494.61 814.641 1495.01C814.603 1494.17 814.565 1493.32 814.526 1492.44C813.598 1479.58 810.075 1471.41 800.866 1462.55C790.246 1453.55 781.75 1451.55 768.098 1451.8C760.736 1452.6 754.62 1454.98 748.078 1458.46C747.446 1457.05 747.446 1457.05 746.801 1455.61C743.428 1449.1 737.101 1445.18 730.535 1442.54C718.778 1439.44 708.373 1441.05 697.891 1447.12C694.064 1449.87 691.392 1452.87 688.91 1456.94C688.138 1456.61 687.367 1456.28 686.571 1455.94C674.797 1451.35 663.691 1450.37 651.655 1454.65C640.946 1459.66 633.654 1467.34 629.006 1478.45C627.07 1484.12 626.168 1488.96 626.787 1495.01C625.442 1495.02 625.442 1495.02 624.071 1495.03C610.976 1495.65 600.977 1500.94 592.119 1510.91C583.273 1522.83 582.603 1533.51 583.891 1548.32C584.989 1552.79 586.384 1556.34 588.328 1560.51C587.291 1560.79 586.255 1561.08 585.186 1561.37C577.641 1565.25 573.492 1571.71 569.284 1579.07C565.946 1590.72 565.973 1602.66 571.336 1613.65C575.548 1619.81 581.129 1624.43 586.85 1629.05C586.132 1630.99 586.131 1630.99 585.399 1632.97C582.186 1644.1 581.903 1658.22 586.705 1668.96C592.865 1679.36 600.793 1687.22 611.994 1691.5C616.934 1692.45 621.766 1692.91 626.787 1693.02C626.79 1693.95 626.795 1694.87 626.799 1695.82C627.353 1708.19 631.305 1717.7 640.047 1726.37C651.464 1735.66 662.824 1736.9 677.078 1735.67C681.377 1734.53 684.874 1733.06 688.91 1731.1C689.538 1731.82 690.167 1732.54 690.813 1733.27C699.652 1742.94 706.271 1746.51 719.143 1747C733.104 1746.62 741.103 1740.69 751.035 1731.1C752.408 1731.82 753.782 1732.55 755.196 1733.29C766.005 1737.98 777.69 1738.54 788.772 1734.56C798.844 1729.27 807.767 1720.66 812.266 1709.87C813.845 1704.34 814.382 1698.77 814.641 1693.02C816.075 1693.15 817.507 1693.28 818.985 1693.4C829.44 1693.36 838.794 1687.61 846.338 1680.49C854.562 1670.93 857.977 1660.43 857.883 1647.74C857.234 1641.27 855.147 1635.18 853.098 1629.05C853.866 1628.57 854.636 1628.09 855.428 1627.59C864.2 1621.54 869.289 1615.18 872.328 1604.68C874.746 1586.53 870.855 1574.02 857.246 1562.36Z" fill="#769BFF"/>
<path d="M646.001 1639C648.762 1639 651.001 1636.76 651.001 1634C651.001 1631.24 648.762 1629 646.001 1629C643.24 1629 641.001 1631.24 641.001 1634C641.001 1636.76 643.24 1639 646.001 1639Z" fill="white"/>
<path d="M720.001 1639C722.762 1639 725.001 1636.76 725.001 1634C725.001 1631.24 722.762 1629 720.001 1629C717.24 1629 715.001 1631.24 715.001 1634C715.001 1636.76 717.24 1639 720.001 1639Z" fill="white"/>
<path d="M794.001 1639C796.762 1639 799.001 1636.76 799.001 1634C799.001 1631.24 796.762 1629 794.001 1629C791.24 1629 789.001 1631.24 789.001 1634C789.001 1636.76 791.24 1639 794.001 1639Z" fill="white"/>
<path d="M687.001 1680C689.762 1680 692.001 1677.76 692.001 1675C692.001 1672.24 689.762 1670 687.001 1670C684.24 1670 682.001 1672.24 682.001 1675C682.001 1677.76 684.24 1680 687.001 1680Z" fill="white"/>
<path d="M758.001 1680C760.762 1680 763.001 1677.76 763.001 1675C763.001 1672.24 760.762 1670 758.001 1670C755.24 1670 753.001 1672.24 753.001 1675C753.001 1677.76 755.24 1680 758.001 1680Z" fill="white"/>
<path d="M646 1563C648.761 1563 651 1560.76 651 1558C651 1555.24 648.761 1553 646 1553C643.239 1553 641 1555.24 641 1558C641 1560.76 643.239 1563 646 1563Z" fill="white"/>
<path d="M720 1563C722.761 1563 725 1560.76 725 1558C725 1555.24 722.761 1553 720 1553C717.239 1553 715 1555.24 715 1558C715 1560.76 717.239 1563 720 1563Z" fill="white"/>
<path d="M794 1563C796.761 1563 799 1560.76 799 1558C799 1555.24 796.761 1553 794 1553C791.239 1553 789 1555.24 789 1558C789 1560.76 791.239 1563 794 1563Z" fill="white"/>
<path d="M687 1604C689.761 1604 692 1601.76 692 1599C692 1596.24 689.761 1594 687 1594C684.239 1594 682 1596.24 682 1599C682 1601.76 684.239 1604 687 1604Z" fill="white"/>
<path d="M758 1604C760.761 1604 763 1601.76 763 1599C763 1596.24 760.761 1594 758 1594C755.239 1594 753 1596.24 753 1599C753 1601.76 755.239 1604 758 1604Z" fill="white"/>
<path d="M689 1522C691.761 1522 694 1519.76 694 1517C694 1514.24 691.761 1512 689 1512C686.239 1512 684 1514.24 684 1517C684 1519.76 686.239 1522 689 1522Z" fill="white"/>
<path d="M760 1522C762.761 1522 765 1519.76 765 1517C765 1514.24 762.761 1512 760 1512C757.239 1512 755 1514.24 755 1517C755 1519.76 757.239 1522 760 1522Z" fill="white"/>
<path d="M0 1763.39C0 1763.39 61.5 1744.88 255 1794.38C448.5 1843.88 523 1864.39 686.5 1813.89C850 1763.39 998 1782.39 1161.5 1823.89C1325 1865.39 1440 1763.39 1440 1763.39V3200.38H0V1763.39Z" fill="white"/>
</g>
</svg>
