<svg width="1440" height="3200" viewBox="0 0 1440 3200" fill="none" xmlns="http://www.w3.org/2000/svg">
<mask id="mask0_1395_1558" style="mask-type:luminance" maskUnits="userSpaceOnUse" x="0" y="0" width="1440" height="3200">
<path d="M1440 0H0V3200H1440V0Z" fill="white"/>
</mask>
<g mask="url(#mask0_1395_1558)">
<path d="M1440 0H0V3200H1440V0Z" fill="#EAF0FF"/>
<path d="M857.246 1542.36C854.704 1540.23 854.705 1540.23 851.62 1540.51C852.321 1539.16 853.023 1537.81 853.746 1536.42C858.882 1525.21 858.838 1514.61 855.039 1503C850.391 1490.93 843.66 1483.92 832.391 1478.06C826.28 1475.82 821.123 1474.61 814.641 1475.01C814.603 1474.17 814.565 1473.32 814.526 1472.44C813.598 1459.58 810.076 1451.41 800.866 1442.55C790.246 1433.55 781.75 1431.55 768.098 1431.8C760.736 1432.6 754.62 1434.98 748.078 1438.46C747.446 1437.05 747.446 1437.05 746.801 1435.61C743.428 1429.1 737.102 1425.18 730.536 1422.54C718.779 1419.44 708.373 1421.05 697.891 1427.12C694.064 1429.87 691.393 1432.87 688.911 1436.94C688.139 1436.61 687.367 1436.28 686.571 1435.94C674.797 1431.35 663.691 1430.37 651.655 1434.65C640.946 1439.66 633.654 1447.34 629.006 1458.45C627.07 1464.12 626.168 1468.96 626.787 1475.01C625.442 1475.02 625.442 1475.02 624.071 1475.03C610.976 1475.65 600.978 1480.94 592.12 1490.91C583.274 1502.83 582.603 1513.51 583.891 1528.32C584.989 1532.79 586.384 1536.34 588.328 1540.51C587.291 1540.79 586.255 1541.08 585.186 1541.37C577.641 1545.25 573.492 1551.71 569.284 1559.07C565.946 1570.72 565.973 1582.66 571.336 1593.65C575.548 1599.81 581.129 1604.43 586.85 1609.05C586.132 1610.99 586.131 1610.99 585.399 1612.97C582.186 1624.1 581.903 1638.22 586.705 1648.96C592.865 1659.36 600.794 1667.22 611.995 1671.5C616.935 1672.45 621.766 1672.91 626.787 1673.02C626.79 1673.95 626.795 1674.87 626.799 1675.82C627.353 1688.19 631.305 1697.7 640.047 1706.37C651.464 1715.66 662.824 1716.9 677.078 1715.67C681.377 1714.53 684.875 1713.06 688.911 1711.1C689.539 1711.82 690.167 1712.54 690.813 1713.27C699.652 1722.94 706.271 1726.51 719.143 1727C733.104 1726.62 741.104 1720.69 751.036 1711.1C752.409 1711.82 753.782 1712.55 755.196 1713.29C766.005 1717.98 777.69 1718.54 788.772 1714.56C798.844 1709.27 807.767 1700.66 812.266 1689.87C813.845 1684.34 814.382 1678.77 814.641 1673.02C816.075 1673.15 817.507 1673.28 818.985 1673.4C829.44 1673.36 838.794 1667.61 846.338 1660.49C854.562 1650.93 857.977 1640.43 857.883 1627.74C857.234 1621.27 855.147 1615.18 853.098 1609.05C853.866 1608.57 854.636 1608.09 855.428 1607.59C864.2 1601.54 869.289 1595.18 872.328 1584.68C874.746 1566.53 870.855 1554.02 857.246 1542.36Z" fill="#769BFF"/>
<path d="M646.001 1619C648.762 1619 651.001 1616.76 651.001 1614C651.001 1611.24 648.762 1609 646.001 1609C643.24 1609 641.001 1611.24 641.001 1614C641.001 1616.76 643.24 1619 646.001 1619Z" fill="white"/>
<path d="M720.001 1619C722.762 1619 725.001 1616.76 725.001 1614C725.001 1611.24 722.762 1609 720.001 1609C717.24 1609 715.001 1611.24 715.001 1614C715.001 1616.76 717.24 1619 720.001 1619Z" fill="white"/>
<path d="M794.001 1619C796.762 1619 799.001 1616.76 799.001 1614C799.001 1611.24 796.762 1609 794.001 1609C791.24 1609 789.001 1611.24 789.001 1614C789.001 1616.76 791.24 1619 794.001 1619Z" fill="white"/>
<path d="M687.001 1660C689.762 1660 692.001 1657.76 692.001 1655C692.001 1652.24 689.762 1650 687.001 1650C684.24 1650 682.001 1652.24 682.001 1655C682.001 1657.76 684.24 1660 687.001 1660Z" fill="white"/>
<path d="M758.001 1660C760.762 1660 763.001 1657.76 763.001 1655C763.001 1652.24 760.762 1650 758.001 1650C755.24 1650 753.001 1652.24 753.001 1655C753.001 1657.76 755.24 1660 758.001 1660Z" fill="white"/>
<path d="M646 1543C648.761 1543 651 1540.76 651 1538C651 1535.24 648.761 1533 646 1533C643.239 1533 641 1535.24 641 1538C641 1540.76 643.239 1543 646 1543Z" fill="white"/>
<path d="M720 1543C722.761 1543 725 1540.76 725 1538C725 1535.24 722.761 1533 720 1533C717.239 1533 715 1535.24 715 1538C715 1540.76 717.239 1543 720 1543Z" fill="white"/>
<path d="M794 1543C796.761 1543 799 1540.76 799 1538C799 1535.24 796.761 1533 794 1533C791.239 1533 789 1535.24 789 1538C789 1540.76 791.239 1543 794 1543Z" fill="white"/>
<path d="M687 1584C689.761 1584 692 1581.76 692 1579C692 1576.24 689.761 1574 687 1574C684.239 1574 682 1576.24 682 1579C682 1581.76 684.239 1584 687 1584Z" fill="white"/>
<path d="M758 1584C760.761 1584 763 1581.76 763 1579C763 1576.24 760.761 1574 758 1574C755.239 1574 753 1576.24 753 1579C753 1581.76 755.239 1584 758 1584Z" fill="white"/>
<path d="M689 1502C691.761 1502 694 1499.76 694 1497C694 1494.24 691.761 1492 689 1492C686.239 1492 684 1494.24 684 1497C684 1499.76 686.239 1502 689 1502Z" fill="white"/>
<path d="M760 1502C762.761 1502 765 1499.76 765 1497C765 1494.24 762.761 1492 760 1492C757.239 1492 755 1494.24 755 1497C755 1499.76 757.239 1502 760 1502Z" fill="white"/>
<path d="M0 1763.39C0 1763.39 61.5 1744.88 255 1794.38C448.5 1843.88 523 1864.39 686.5 1813.89C850 1763.39 998 1782.39 1161.5 1823.89C1325 1865.39 1440 1763.39 1440 1763.39V3200.38H0V1763.39Z" fill="white"/>
</g>
</svg>
