<svg width="1440" height="3200" viewBox="0 0 1440 3200" fill="none" xmlns="http://www.w3.org/2000/svg">
<mask id="mask0_1395_1706" style="mask-type:luminance" maskUnits="userSpaceOnUse" x="0" y="0" width="1440" height="3200">
<path d="M1440 0H0V3200H1440V0Z" fill="white"/>
</mask>
<g mask="url(#mask0_1395_1706)">
<path d="M1440 0H0V3200H1440V0Z" fill="#EAF0FF"/>
<path d="M1440 0H0V3200H1440V0Z" fill="#EAF0FF"/>
<path d="M396.6 1405C387.667 1403.67 381.867 1399.6 379.2 1392.8C376.533 1385.87 377.067 1377.13 380.8 1366.6L407.2 1291.6C409.6 1284.67 412.333 1278.73 415.4 1273.8C418.6 1268.87 422.533 1265.07 427.2 1262.4C432 1259.73 437.933 1258.4 445 1258.4C455.667 1258.4 463.667 1261.33 469 1267.2C474.467 1273.07 479 1281.2 482.6 1291.6L508.8 1366.6C512.533 1377.13 513.2 1385.87 510.8 1392.8C508.533 1399.6 502.867 1403.67 493.8 1405C486.467 1405.93 480.067 1405.07 474.6 1402.4C469.267 1399.73 466.067 1395.4 465 1389.4C464.2 1385.4 464.067 1382.07 464.6 1379.4C465.267 1376.73 465.867 1374.6 466.4 1373C466.8 1371.67 466.8 1370.4 466.4 1369.2C466.133 1367.87 465.133 1367.2 463.4 1367.2H426.2C424.467 1367.2 423.4 1367.87 423 1369.2C422.733 1370.4 422.867 1371.67 423.4 1373C423.933 1374.6 424.467 1376.73 425 1379.4C425.533 1382.07 425.467 1385.4 424.8 1389.4C423.733 1395.4 420.6 1399.73 415.4 1402.4C410.2 1405.07 403.933 1405.93 396.6 1405ZM459.6 1339.2L449.2 1306.6C448.933 1305.27 448.467 1304.27 447.8 1303.6C447.267 1302.8 446.333 1302.4 445 1302.4C443.667 1302.4 442.667 1302.8 442 1303.6C441.467 1304.27 441 1305.27 440.6 1306.6L430.4 1339.2H459.6ZM539.997 1405C533.464 1405 528.53 1403.27 525.197 1399.8C521.997 1396.33 520.397 1392 520.397 1386.8V1270.8C520.397 1265.07 521.997 1260.33 525.197 1256.6C528.53 1252.73 533.464 1250.8 539.997 1250.8C545.864 1250.8 550.397 1252.73 553.597 1256.6C556.797 1260.33 558.397 1264.93 558.397 1270.4V1386.8C558.397 1392 556.797 1396.33 553.597 1399.8C550.397 1403.27 545.864 1405 539.997 1405ZM589.802 1405C583.268 1405 578.335 1403.27 575.002 1399.8C571.802 1396.33 570.202 1392 570.202 1386.8V1270.8C570.202 1265.07 571.802 1260.33 575.002 1256.6C578.335 1252.73 583.268 1250.8 589.802 1250.8C595.668 1250.8 600.202 1252.73 603.402 1256.6C606.602 1260.33 608.202 1264.93 608.202 1270.4V1386.8C608.202 1392 606.602 1396.33 603.402 1399.8C600.202 1403.27 595.668 1405 589.802 1405ZM704.005 1404.6C697.471 1404.6 691.205 1404 685.205 1402.8C679.338 1401.6 674.138 1399.33 669.605 1396C665.205 1392.53 661.671 1387.6 659.005 1381.2C656.471 1374.67 655.205 1366.13 655.205 1355.6C655.205 1346.13 656.471 1338 659.005 1331.2C661.538 1324.4 664.538 1319 668.005 1315C671.605 1311 674.871 1308.53 677.805 1307.6L676.805 1303.8H673.405C667.271 1303.8 662.405 1301.87 658.805 1298C655.338 1294 653.538 1288.6 653.405 1281.8C653.271 1275.13 655.005 1269.8 658.605 1265.8C662.338 1261.8 667.271 1259.8 673.405 1259.8H745.205C759.471 1259.8 766.605 1266.47 766.605 1279.8C766.605 1285.8 764.871 1290.6 761.405 1294.2C757.938 1297.8 752.538 1299.6 745.205 1299.6H703.805C698.871 1299.6 696.405 1302.47 696.405 1308.2V1323.2C703.071 1321.73 710.005 1320 717.205 1318C724.538 1316 731.471 1315 738.005 1315C744.271 1315 748.938 1316.4 752.005 1319.2C755.205 1321.87 756.805 1325.53 756.805 1330.2C756.805 1335 755.205 1338.8 752.005 1341.6C748.938 1344.27 744.271 1345.67 738.005 1345.8C731.471 1345.93 724.538 1345 717.205 1343C709.871 1341 702.871 1339.27 696.205 1337.8V1364C696.205 1366.53 696.871 1368.33 698.205 1369.4C699.671 1370.33 701.938 1369.93 705.005 1368.2C711.671 1364.33 718.205 1361.27 724.605 1359C731.005 1356.6 737.271 1355.4 743.405 1355.4C752.071 1355.4 758.605 1357.67 763.005 1362.2C767.538 1366.73 769.805 1372.67 769.805 1380C769.805 1387.87 767.405 1393.93 762.605 1398.2C757.938 1402.47 750.338 1404.6 739.805 1404.6H704.005ZM806.656 1405C796.79 1405 789.056 1402.33 783.456 1397C777.99 1391.67 775.256 1384.2 775.256 1374.6C775.256 1365 778.456 1358.07 784.856 1353.8C791.256 1349.4 799.456 1347.2 809.456 1347.2C815.323 1347.2 820.656 1347.6 825.456 1348.4C830.256 1349.2 834.59 1350.33 838.456 1351.8H839.056V1348.8C839.056 1345.73 837.923 1343.33 835.656 1341.6C833.39 1339.73 830.523 1338.87 827.056 1339C823.723 1339 820.856 1339.2 818.456 1339.6C816.19 1340 813.323 1340.67 809.856 1341.6C803.456 1343.2 797.923 1343.07 793.256 1341.2C788.59 1339.33 785.39 1335.67 783.656 1330.2C782.056 1324.47 782.39 1319.67 784.656 1315.8C787.056 1311.93 790.656 1308.93 795.456 1306.8C799.59 1304.8 804.19 1303.13 809.256 1301.8C814.456 1300.47 820.056 1299.8 826.056 1299.8C843.523 1299.8 856.323 1304.07 864.456 1312.6C872.723 1321 876.856 1335.13 876.856 1355V1386C876.856 1391.47 875.19 1396 871.856 1399.6C868.523 1403.2 863.923 1405 858.056 1405C851.656 1405 846.856 1403.2 843.656 1399.6C840.59 1396 839.056 1391.6 839.056 1386.4V1381.8H835.056C835.056 1385.27 834.39 1388.8 833.056 1392.4C831.856 1396 829.256 1399 825.256 1401.4C821.39 1403.8 815.19 1405 806.656 1405ZM808.656 1361.2C808.656 1363.47 809.456 1365.07 811.056 1366C812.79 1366.93 816.456 1367.4 822.056 1367.4C827.123 1367.4 830.656 1366.93 832.656 1366C834.656 1365.07 835.656 1363.47 835.656 1361.2C835.656 1359.07 834.656 1357.6 832.656 1356.8C830.656 1355.87 827.123 1355.4 822.056 1355.4C816.456 1355.4 812.79 1355.87 811.056 1356.8C809.456 1357.6 808.656 1359.07 808.656 1361.2ZM938.572 1405.6C931.505 1405.6 925.105 1404 919.372 1400.8C913.772 1397.6 909.372 1393.07 906.172 1387.2C902.972 1381.2 901.372 1374.2 901.372 1366.2V1331L893.972 1332C889.972 1332.53 886.439 1331.13 883.372 1327.8C880.305 1324.47 878.772 1320.27 878.772 1315.2C878.772 1310.13 880.305 1306 883.372 1302.8C886.439 1299.47 889.972 1298.07 893.972 1298.6L901.372 1299.6L901.172 1286C901.039 1280.67 902.572 1276.47 905.772 1273.4C908.972 1270.2 913.639 1268.6 919.772 1268.6C925.905 1268.6 930.639 1270.2 933.972 1273.4C937.305 1276.47 938.839 1280.67 938.572 1286L938.172 1299.6L948.772 1298.2C955.972 1297.13 961.439 1298.47 965.172 1302.2C968.905 1305.8 970.772 1310.13 970.772 1315.2C970.772 1320.27 968.905 1324.67 965.172 1328.4C961.572 1332 956.305 1333.33 949.372 1332.4L938.172 1331V1360.8C938.172 1362.53 938.772 1364.13 939.972 1365.6C941.172 1366.93 942.639 1367.33 944.372 1366.8C946.372 1366.27 948.439 1365.13 950.572 1363.4C952.839 1361.67 955.705 1360.8 959.172 1360.8C964.372 1360.8 968.372 1362.67 971.172 1366.4C973.972 1370.13 975.372 1374.73 975.372 1380.2C975.372 1384.47 973.839 1388.6 970.772 1392.6C967.839 1396.47 963.639 1399.6 958.172 1402C952.705 1404.4 946.172 1405.6 938.572 1405.6ZM994.883 1280.6C994.749 1275.8 995.549 1271.33 997.283 1267.2C999.149 1262.93 1002.15 1259.53 1006.28 1257C1010.42 1254.33 1015.75 1253 1022.28 1253C1028.95 1253 1034.28 1254.33 1038.28 1257C1042.42 1259.53 1045.35 1262.93 1047.08 1267.2C1048.95 1271.33 1049.82 1275.8 1049.68 1280.6C1049.55 1285 1048.88 1289.13 1047.68 1293C1046.48 1296.87 1045.08 1300.87 1043.48 1305C1041.88 1309 1040.42 1313.47 1039.08 1318.4C1037.75 1323.2 1036.88 1328.73 1036.48 1335C1036.08 1340.2 1034.62 1344.07 1032.08 1346.6C1029.55 1349 1026.28 1350.2 1022.28 1350.2C1018.15 1350.2 1014.82 1349 1012.28 1346.6C1009.75 1344.2 1008.35 1340.33 1008.08 1335C1007.68 1328.73 1006.82 1323.2 1005.48 1318.4C1004.15 1313.47 1002.68 1309 1001.08 1305C999.483 1300.87 998.083 1296.87 996.883 1293C995.683 1289.13 995.016 1285 994.883 1280.6ZM1022.28 1408.8C1014.42 1408.8 1008.28 1406.73 1003.88 1402.6C999.483 1398.33 997.283 1392.73 997.283 1385.8C997.283 1378.73 999.483 1373 1003.88 1368.6C1008.42 1364.2 1014.55 1362 1022.28 1362C1029.75 1362 1035.68 1364.2 1040.08 1368.6C1044.48 1372.87 1046.68 1378.53 1046.68 1385.6C1046.68 1392.53 1044.55 1398.13 1040.28 1402.4C1036.02 1406.67 1030.02 1408.8 1022.28 1408.8Z" fill="#769BFF"/>
<path d="M857.247 1712.36C854.705 1710.23 854.706 1710.23 851.62 1710.51C852.322 1709.16 853.024 1707.81 853.747 1706.42C858.883 1695.21 858.839 1684.61 855.04 1673C850.392 1660.93 843.661 1653.92 832.392 1648.06C826.281 1645.82 821.124 1644.61 814.642 1645.01C814.604 1644.17 814.566 1643.32 814.527 1642.44C813.599 1629.58 810.076 1621.41 800.867 1612.55C790.247 1603.55 781.751 1601.55 768.099 1601.8C760.737 1602.6 754.621 1604.98 748.079 1608.46C747.447 1607.05 747.447 1607.05 746.802 1605.61C743.429 1599.1 737.102 1595.18 730.536 1592.54C718.779 1589.44 708.374 1591.05 697.892 1597.12C694.065 1599.87 691.393 1602.87 688.911 1606.94C688.139 1606.61 687.368 1606.28 686.572 1605.94C674.798 1601.35 663.692 1600.37 651.656 1604.65C640.947 1609.66 633.655 1617.34 629.007 1628.45C627.071 1634.12 626.169 1638.96 626.788 1645.01C625.443 1645.02 625.443 1645.02 624.072 1645.03C610.977 1645.65 600.978 1650.94 592.12 1660.91C583.274 1672.83 582.604 1683.51 583.892 1698.32C584.99 1702.79 586.385 1706.34 588.329 1710.51C587.292 1710.79 586.256 1711.08 585.187 1711.37C577.642 1715.25 573.493 1721.71 569.285 1729.07C565.947 1740.72 565.974 1752.66 571.337 1763.65C575.549 1769.81 581.13 1774.43 586.851 1779.05C586.133 1780.99 586.132 1780.99 585.4 1782.97C582.187 1794.1 581.904 1808.22 586.706 1818.96C592.866 1829.36 600.794 1837.22 611.995 1841.5C616.935 1842.45 621.767 1842.91 626.788 1843.02C626.791 1843.95 626.796 1844.87 626.8 1845.82C627.354 1858.19 631.306 1867.7 640.048 1876.37C651.465 1885.66 662.825 1886.9 677.079 1885.67C681.378 1884.53 684.875 1883.06 688.911 1881.1C689.539 1881.82 690.168 1882.54 690.814 1883.27C699.653 1892.94 706.272 1896.51 719.144 1897C733.105 1896.62 741.104 1890.69 751.036 1881.1C752.409 1881.82 753.783 1882.55 755.197 1883.29C766.006 1887.98 777.691 1888.54 788.773 1884.56C798.845 1879.27 807.768 1870.66 812.267 1859.87C813.846 1854.34 814.383 1848.77 814.642 1843.02C816.076 1843.15 817.508 1843.28 818.986 1843.4C829.441 1843.36 838.795 1837.61 846.339 1830.49C854.563 1820.93 857.978 1810.43 857.884 1797.74C857.235 1791.27 855.148 1785.18 853.099 1779.05C853.867 1778.57 854.637 1778.09 855.429 1777.59C864.201 1771.54 869.29 1765.18 872.329 1754.68C874.747 1736.53 870.856 1724.02 857.247 1712.36Z" fill="#769BFF"/>
<path d="M646.002 1789C648.763 1789 651.002 1786.76 651.002 1784C651.002 1781.24 648.763 1779 646.002 1779C643.241 1779 641.002 1781.24 641.002 1784C641.002 1786.76 643.241 1789 646.002 1789Z" fill="white"/>
<path d="M720.002 1789C722.763 1789 725.002 1786.76 725.002 1784C725.002 1781.24 722.763 1779 720.002 1779C717.241 1779 715.002 1781.24 715.002 1784C715.002 1786.76 717.241 1789 720.002 1789Z" fill="white"/>
<path d="M794.002 1789C796.763 1789 799.002 1786.76 799.002 1784C799.002 1781.24 796.763 1779 794.002 1779C791.241 1779 789.002 1781.24 789.002 1784C789.002 1786.76 791.241 1789 794.002 1789Z" fill="white"/>
<path d="M687.002 1830C689.763 1830 692.002 1827.76 692.002 1825C692.002 1822.24 689.763 1820 687.002 1820C684.241 1820 682.002 1822.24 682.002 1825C682.002 1827.76 684.241 1830 687.002 1830Z" fill="white"/>
<path d="M758.002 1830C760.763 1830 763.002 1827.76 763.002 1825C763.002 1822.24 760.763 1820 758.002 1820C755.241 1820 753.002 1822.24 753.002 1825C753.002 1827.76 755.241 1830 758.002 1830Z" fill="white"/>
<path d="M646 1713C648.761 1713 651 1710.76 651 1708C651 1705.24 648.761 1703 646 1703C643.239 1703 641 1705.24 641 1708C641 1710.76 643.239 1713 646 1713Z" fill="white"/>
<path d="M720 1713C722.761 1713 725 1710.76 725 1708C725 1705.24 722.761 1703 720 1703C717.239 1703 715 1705.24 715 1708C715 1710.76 717.239 1713 720 1713Z" fill="white"/>
<path d="M794 1713C796.761 1713 799 1710.76 799 1708C799 1705.24 796.761 1703 794 1703C791.239 1703 789 1705.24 789 1708C789 1710.76 791.239 1713 794 1713Z" fill="white"/>
<path d="M687 1754C689.761 1754 692 1751.76 692 1749C692 1746.24 689.761 1744 687 1744C684.239 1744 682 1746.24 682 1749C682 1751.76 684.239 1754 687 1754Z" fill="white"/>
<path d="M758 1754C760.761 1754 763 1751.76 763 1749C763 1746.24 760.761 1744 758 1744C755.239 1744 753 1746.24 753 1749C753 1751.76 755.239 1754 758 1754Z" fill="white"/>
<path d="M689 1672C691.761 1672 694 1669.76 694 1667C694 1664.24 691.761 1662 689 1662C686.239 1662 684 1664.24 684 1667C684 1669.76 686.239 1672 689 1672Z" fill="white"/>
<path d="M760 1672C762.761 1672 765 1669.76 765 1667C765 1664.24 762.761 1662 760 1662C757.239 1662 755 1664.24 755 1667C755 1669.76 757.239 1672 760 1672Z" fill="white"/>
<path d="M0 1763.39C0 1763.39 61.5 1744.88 255 1794.38C448.5 1843.88 523 1864.39 686.5 1813.89C850 1763.39 998 1782.39 1161.5 1823.89C1325 1865.39 1440 1763.39 1440 1763.39V3200.38H0V1763.39Z" fill="white"/>
<path d="M1114 1740.5C1114 1865.59 937.6 1967 720 1967C502.4 1967 326 1865.59 326 1740.5C326 1677.95 451.575 1789.99 525 1816.5C598.425 1843.01 568.7 1697 677.5 1697C786.3 1697 824.7 1826.51 896 1816.5C967.3 1806.49 1114 1677.95 1114 1740.5Z" fill="white"/>
<path d="M542.5 1834C565.42 1834 584 1817.88 584 1798C584 1778.12 565.42 1762 542.5 1762C519.58 1762 501 1778.12 501 1798C501 1817.88 519.58 1834 542.5 1834Z" fill="white"/>
<path d="M842.105 1814.08C858.731 1825.64 882.14 1820.72 894.39 1803.09C906.641 1785.47 903.093 1761.81 886.467 1750.26C869.841 1738.7 846.432 1743.62 834.182 1761.25C821.931 1778.87 825.479 1802.53 842.105 1814.08Z" fill="white"/>
<path d="M507.416 1762.58C515.992 1758.12 518.504 1745.97 513.028 1735.43C507.551 1724.89 496.16 1719.97 487.584 1724.42C479.009 1728.88 476.496 1741.04 481.973 1751.57C487.449 1762.11 498.841 1767.04 507.416 1762.58Z" fill="white"/>
<path d="M953 1691C959.075 1691 964 1686.08 964 1680C964 1673.92 959.075 1669 953 1669C946.925 1669 942 1673.92 942 1680C942 1686.08 946.925 1691 953 1691Z" fill="white"/>
<path d="M322.933 1707.9C328.434 1704.73 327.196 1692.29 320.169 1680.12C313.142 1667.94 302.987 1660.65 297.487 1663.83C291.986 1667 293.224 1679.44 300.251 1691.62C307.278 1703.79 317.433 1711.08 322.933 1707.9Z" fill="white"/>
<path d="M1040.56 1718.13C1044.74 1722.91 1056.71 1719.3 1067.3 1710.06C1077.89 1700.82 1083.08 1689.45 1078.91 1684.66C1074.73 1679.88 1062.76 1683.49 1052.17 1692.73C1041.58 1701.97 1036.39 1713.34 1040.56 1718.13Z" fill="white"/>
<path d="M314.291 1729.62C316.585 1726.36 312.597 1719.61 305.385 1714.53C298.173 1709.46 290.467 1707.99 288.174 1711.25C285.88 1714.51 289.868 1721.26 297.08 1726.34C304.293 1731.41 311.998 1732.88 314.291 1729.62Z" fill="white"/>
<path d="M898.303 1743.81C909.516 1748.9 924.562 1739.91 931.909 1723.73C939.255 1707.55 936.12 1690.31 924.907 1685.22C913.694 1680.13 898.648 1689.12 891.302 1705.3C883.955 1721.48 887.09 1738.72 898.303 1743.81Z" fill="white"/>
</g>
</svg>
