<svg width="1440" height="3200" viewBox="0 0 1440 3200" fill="none" xmlns="http://www.w3.org/2000/svg">
<mask id="mask0_1395_1670" style="mask-type:luminance" maskUnits="userSpaceOnUse" x="0" y="0" width="1440" height="3200">
<path d="M1440 0H0V3200H1440V0Z" fill="white"/>
</mask>
<g mask="url(#mask0_1395_1670)">
<path d="M1440 0H0V3200H1440V0Z" fill="#EAF0FF"/>
<path d="M1440 0H0V3200H1440V0Z" fill="#EAF0FF"/>
<path d="M1440 0H0V3200H1440V0Z" fill="#EAF0FF"/>
<path d="M857.247 1662.36C854.705 1660.23 854.706 1660.23 851.62 1660.51C852.322 1659.16 853.024 1657.81 853.747 1656.42C858.883 1645.21 858.839 1634.61 855.04 1623C850.392 1610.93 843.661 1603.92 832.392 1598.06C826.281 1595.82 821.124 1594.61 814.642 1595.01C814.604 1594.17 814.566 1593.32 814.527 1592.44C813.599 1579.58 810.076 1571.41 800.867 1562.55C790.247 1553.55 781.751 1551.55 768.099 1551.8C760.737 1552.6 754.621 1554.98 748.079 1558.46C747.447 1557.05 747.447 1557.05 746.802 1555.61C743.429 1549.1 737.102 1545.18 730.536 1542.54C718.779 1539.44 708.374 1541.05 697.892 1547.12C694.065 1549.87 691.393 1552.87 688.911 1556.94C688.139 1556.61 687.368 1556.28 686.572 1555.94C674.798 1551.35 663.692 1550.37 651.656 1554.65C640.947 1559.66 633.655 1567.34 629.007 1578.45C627.071 1584.12 626.169 1588.96 626.788 1595.01C625.443 1595.02 625.443 1595.02 624.072 1595.03C610.977 1595.65 600.978 1600.94 592.12 1610.91C583.274 1622.83 582.604 1633.51 583.892 1648.32C584.99 1652.79 586.385 1656.34 588.329 1660.51C587.292 1660.79 586.256 1661.08 585.187 1661.37C577.642 1665.25 573.493 1671.71 569.285 1679.07C565.947 1690.72 565.974 1702.66 571.337 1713.65C575.549 1719.81 581.13 1724.43 586.851 1729.05C586.133 1730.99 586.132 1730.99 585.4 1732.97C582.187 1744.1 581.904 1758.22 586.706 1768.96C592.866 1779.36 600.794 1787.22 611.995 1791.5C616.935 1792.45 621.767 1792.91 626.788 1793.02C626.791 1793.95 626.796 1794.87 626.8 1795.82C627.354 1808.19 631.306 1817.7 640.048 1826.37C651.465 1835.66 662.825 1836.9 677.079 1835.67C681.378 1834.53 684.875 1833.06 688.911 1831.1C689.539 1831.82 690.168 1832.54 690.814 1833.27C699.653 1842.94 706.272 1846.51 719.144 1847C733.105 1846.62 741.104 1840.69 751.036 1831.1C752.409 1831.82 753.783 1832.55 755.197 1833.29C766.006 1837.98 777.691 1838.54 788.773 1834.56C798.845 1829.27 807.768 1820.66 812.267 1809.87C813.846 1804.34 814.383 1798.77 814.642 1793.02C816.076 1793.15 817.508 1793.28 818.986 1793.4C829.441 1793.36 838.795 1787.61 846.339 1780.49C854.563 1770.93 857.978 1760.43 857.884 1747.74C857.235 1741.27 855.148 1735.18 853.099 1729.05C853.867 1728.57 854.637 1728.09 855.429 1727.59C864.201 1721.54 869.29 1715.18 872.329 1704.68C874.747 1686.53 870.856 1674.02 857.247 1662.36Z" fill="#769BFF"/>
<path d="M646.002 1739C648.763 1739 651.002 1736.76 651.002 1734C651.002 1731.24 648.763 1729 646.002 1729C643.241 1729 641.002 1731.24 641.002 1734C641.002 1736.76 643.241 1739 646.002 1739Z" fill="white"/>
<path d="M720.002 1739C722.763 1739 725.002 1736.76 725.002 1734C725.002 1731.24 722.763 1729 720.002 1729C717.241 1729 715.002 1731.24 715.002 1734C715.002 1736.76 717.241 1739 720.002 1739Z" fill="white"/>
<path d="M794.002 1739C796.763 1739 799.002 1736.76 799.002 1734C799.002 1731.24 796.763 1729 794.002 1729C791.241 1729 789.002 1731.24 789.002 1734C789.002 1736.76 791.241 1739 794.002 1739Z" fill="white"/>
<path d="M687.002 1780C689.763 1780 692.002 1777.76 692.002 1775C692.002 1772.24 689.763 1770 687.002 1770C684.241 1770 682.002 1772.24 682.002 1775C682.002 1777.76 684.241 1780 687.002 1780Z" fill="white"/>
<path d="M758.002 1780C760.763 1780 763.002 1777.76 763.002 1775C763.002 1772.24 760.763 1770 758.002 1770C755.241 1770 753.002 1772.24 753.002 1775C753.002 1777.76 755.241 1780 758.002 1780Z" fill="white"/>
<path d="M646 1663C648.761 1663 651 1660.76 651 1658C651 1655.24 648.761 1653 646 1653C643.239 1653 641 1655.24 641 1658C641 1660.76 643.239 1663 646 1663Z" fill="white"/>
<path d="M720 1663C722.761 1663 725 1660.76 725 1658C725 1655.24 722.761 1653 720 1653C717.239 1653 715 1655.24 715 1658C715 1660.76 717.239 1663 720 1663Z" fill="white"/>
<path d="M794 1663C796.761 1663 799 1660.76 799 1658C799 1655.24 796.761 1653 794 1653C791.239 1653 789 1655.24 789 1658C789 1660.76 791.239 1663 794 1663Z" fill="white"/>
<path d="M687 1704C689.761 1704 692 1701.76 692 1699C692 1696.24 689.761 1694 687 1694C684.239 1694 682 1696.24 682 1699C682 1701.76 684.239 1704 687 1704Z" fill="white"/>
<path d="M758 1704C760.761 1704 763 1701.76 763 1699C763 1696.24 760.761 1694 758 1694C755.239 1694 753 1696.24 753 1699C753 1701.76 755.239 1704 758 1704Z" fill="white"/>
<path d="M689 1622C691.761 1622 694 1619.76 694 1617C694 1614.24 691.761 1612 689 1612C686.239 1612 684 1614.24 684 1617C684 1619.76 686.239 1622 689 1622Z" fill="white"/>
<path d="M760 1622C762.761 1622 765 1619.76 765 1617C765 1614.24 762.761 1612 760 1612C757.239 1612 755 1614.24 755 1617C755 1619.76 757.239 1622 760 1622Z" fill="white"/>
<path d="M0 1763.39C0 1763.39 61.5 1744.88 255 1794.38C448.5 1843.88 523 1864.39 686.5 1813.89C850 1763.39 998 1782.39 1161.5 1823.89C1325 1865.39 1440 1763.39 1440 1763.39V3200.38H0V1763.39Z" fill="white"/>
<path d="M1114 1730.5C1114 1855.59 937.6 1957 720 1957C502.4 1957 326 1855.59 326 1730.5C326 1667.95 451.575 1779.99 525 1806.5C598.425 1833.01 568.7 1687 677.5 1687C786.3 1687 824.7 1816.51 896 1806.5C967.3 1796.49 1114 1667.95 1114 1730.5Z" fill="white"/>
<path d="M365.489 1684.05C379.567 1692.79 396.291 1691.32 402.844 1680.76C409.397 1670.2 403.297 1654.56 389.22 1645.82C375.142 1637.08 358.418 1638.56 351.865 1649.12C345.312 1659.68 351.412 1675.32 365.489 1684.05Z" fill="white"/>
<path d="M848.134 1759.39C863.12 1769.81 884.22 1765.37 895.263 1749.49C906.305 1733.6 903.108 1712.28 888.121 1701.86C873.135 1691.44 852.035 1695.88 840.993 1711.77C829.951 1727.65 833.148 1748.98 848.134 1759.39Z" fill="white"/>
<path d="M912.772 1706.77C920.378 1712.06 931.087 1709.81 936.691 1701.74C942.295 1693.68 940.673 1682.86 933.067 1677.57C925.461 1672.29 914.752 1674.54 909.148 1682.6C903.543 1690.66 905.166 1701.49 912.772 1706.77Z" fill="white"/>
<path d="M1086.31 1688.85C1095.87 1695.5 1110.29 1691.3 1118.51 1679.48C1126.72 1667.65 1125.64 1652.68 1116.07 1646.03C1106.51 1639.39 1092.1 1643.59 1083.88 1655.41C1075.66 1667.24 1076.75 1682.21 1086.31 1688.85Z" fill="white"/>
<path d="M446.5 1732C456.717 1732 465 1723.72 465 1713.5C465 1703.28 456.717 1695 446.5 1695C436.283 1695 428 1703.28 428 1713.5C428 1723.72 436.283 1732 446.5 1732Z" fill="white"/>
</g>
</svg>
