<svg width="1440" height="3200" viewBox="0 0 1440 3200" fill="none" xmlns="http://www.w3.org/2000/svg">
<mask id="mask0_1391_1201" style="mask-type:luminance" maskUnits="userSpaceOnUse" x="0" y="0" width="1440" height="3200">
<path d="M1440 0H0V3200H1440V0Z" fill="white"/>
</mask>
<g mask="url(#mask0_1391_1201)">
<path d="M1440 0H0V3200H1440V0Z" fill="#EAF0FF"/>
<path d="M1440 0H0V3200H1440V0Z" fill="#EAF0FF"/>
<path d="M857.246 1552.36C854.704 1550.23 854.705 1550.23 851.619 1550.51C852.321 1549.16 853.023 1547.81 853.746 1546.42C858.882 1535.21 858.838 1524.61 855.039 1513C850.391 1500.93 843.66 1493.92 832.391 1488.06C826.28 1485.82 821.123 1484.61 814.641 1485.01C814.603 1484.17 814.565 1483.32 814.526 1482.44C813.598 1469.58 810.075 1461.41 800.866 1452.55C790.246 1443.55 781.75 1441.55 768.098 1441.8C760.736 1442.6 754.62 1444.98 748.078 1448.46C747.446 1447.05 747.446 1447.05 746.801 1445.61C743.428 1439.1 737.101 1435.18 730.535 1432.54C718.778 1429.44 708.373 1431.05 697.891 1437.12C694.064 1439.87 691.392 1442.87 688.91 1446.94C688.138 1446.61 687.367 1446.28 686.571 1445.94C674.797 1441.35 663.691 1440.37 651.655 1444.65C640.946 1449.66 633.654 1457.34 629.006 1468.45C627.07 1474.12 626.168 1478.96 626.787 1485.01C625.442 1485.02 625.442 1485.02 624.071 1485.03C610.976 1485.65 600.977 1490.94 592.119 1500.91C583.273 1512.83 582.603 1523.51 583.891 1538.32C584.989 1542.79 586.384 1546.34 588.328 1550.51C587.291 1550.79 586.255 1551.08 585.186 1551.37C577.641 1555.25 573.492 1561.71 569.284 1569.07C565.946 1580.72 565.973 1592.66 571.336 1603.65C575.548 1609.81 581.129 1614.43 586.85 1619.05C586.132 1620.99 586.131 1620.99 585.399 1622.97C582.186 1634.1 581.903 1648.22 586.705 1658.96C592.865 1669.36 600.793 1677.22 611.994 1681.5C616.934 1682.45 621.766 1682.91 626.787 1683.02C626.79 1683.95 626.795 1684.87 626.799 1685.82C627.353 1698.19 631.305 1707.7 640.047 1716.37C651.464 1725.66 662.824 1726.9 677.078 1725.67C681.377 1724.53 684.874 1723.06 688.91 1721.1C689.538 1721.82 690.167 1722.54 690.813 1723.27C699.652 1732.94 706.271 1736.51 719.143 1737C733.104 1736.62 741.103 1730.69 751.035 1721.1C752.408 1721.82 753.782 1722.55 755.196 1723.29C766.005 1727.98 777.69 1728.54 788.772 1724.56C798.844 1719.27 807.767 1710.66 812.266 1699.87C813.845 1694.34 814.382 1688.77 814.641 1683.02C816.075 1683.15 817.507 1683.28 818.985 1683.4C829.44 1683.36 838.794 1677.61 846.338 1670.49C854.562 1660.93 857.977 1650.43 857.883 1637.74C857.234 1631.27 855.147 1625.18 853.098 1619.05C853.866 1618.57 854.636 1618.09 855.428 1617.59C864.2 1611.54 869.289 1605.18 872.328 1594.68C874.746 1576.53 870.855 1564.02 857.246 1552.36Z" fill="#769BFF"/>
<path d="M646.001 1629C648.762 1629 651.001 1626.76 651.001 1624C651.001 1621.24 648.762 1619 646.001 1619C643.24 1619 641.001 1621.24 641.001 1624C641.001 1626.76 643.24 1629 646.001 1629Z" fill="white"/>
<path d="M720.001 1629C722.762 1629 725.001 1626.76 725.001 1624C725.001 1621.24 722.762 1619 720.001 1619C717.24 1619 715.001 1621.24 715.001 1624C715.001 1626.76 717.24 1629 720.001 1629Z" fill="white"/>
<path d="M794.001 1629C796.762 1629 799.001 1626.76 799.001 1624C799.001 1621.24 796.762 1619 794.001 1619C791.24 1619 789.001 1621.24 789.001 1624C789.001 1626.76 791.24 1629 794.001 1629Z" fill="white"/>
<path d="M687.001 1670C689.762 1670 692.001 1667.76 692.001 1665C692.001 1662.24 689.762 1660 687.001 1660C684.24 1660 682.001 1662.24 682.001 1665C682.001 1667.76 684.24 1670 687.001 1670Z" fill="white"/>
<path d="M758.001 1670C760.762 1670 763.001 1667.76 763.001 1665C763.001 1662.24 760.762 1660 758.001 1660C755.24 1660 753.001 1662.24 753.001 1665C753.001 1667.76 755.24 1670 758.001 1670Z" fill="white"/>
<path d="M646 1553C648.761 1553 651 1550.76 651 1548C651 1545.24 648.761 1543 646 1543C643.239 1543 641 1545.24 641 1548C641 1550.76 643.239 1553 646 1553Z" fill="white"/>
<path d="M720 1553C722.761 1553 725 1550.76 725 1548C725 1545.24 722.761 1543 720 1543C717.239 1543 715 1545.24 715 1548C715 1550.76 717.239 1553 720 1553Z" fill="white"/>
<path d="M794 1553C796.761 1553 799 1550.76 799 1548C799 1545.24 796.761 1543 794 1543C791.239 1543 789 1545.24 789 1548C789 1550.76 791.239 1553 794 1553Z" fill="white"/>
<path d="M687 1594C689.761 1594 692 1591.76 692 1589C692 1586.24 689.761 1584 687 1584C684.239 1584 682 1586.24 682 1589C682 1591.76 684.239 1594 687 1594Z" fill="white"/>
<path d="M758 1594C760.761 1594 763 1591.76 763 1589C763 1586.24 760.761 1584 758 1584C755.239 1584 753 1586.24 753 1589C753 1591.76 755.239 1594 758 1594Z" fill="white"/>
<path d="M689 1512C691.761 1512 694 1509.76 694 1507C694 1504.24 691.761 1502 689 1502C686.239 1502 684 1504.24 684 1507C684 1509.76 686.239 1512 689 1512Z" fill="white"/>
<path d="M760 1512C762.761 1512 765 1509.76 765 1507C765 1504.24 762.761 1502 760 1502C757.239 1502 755 1504.24 755 1507C755 1509.76 757.239 1512 760 1512Z" fill="white"/>
<path d="M0 1763.39C0 1763.39 61.5 1744.88 255 1794.38C448.5 1843.88 523 1864.39 686.5 1813.89C850 1763.39 998 1782.39 1161.5 1823.89C1325 1865.39 1440 1763.39 1440 1763.39V3200.38H0V1763.39Z" fill="white"/>
</g>
</svg>
