<svg width="1440" height="3200" viewBox="0 0 1440 3200" fill="none" xmlns="http://www.w3.org/2000/svg">
<mask id="mask0_1391_1225" style="mask-type:luminance" maskUnits="userSpaceOnUse" x="0" y="0" width="1440" height="3200">
<path d="M1440 0H0V3200H1440V0Z" fill="white"/>
</mask>
<g mask="url(#mask0_1391_1225)">
<path d="M1440 0H0V3200H1440V0Z" fill="#EAF0FF"/>
<path d="M1440 0H0V3200H1440V0Z" fill="#EAF0FF"/>
<path d="M857.246 1572.36C854.704 1570.23 854.705 1570.23 851.619 1570.51C852.321 1569.16 853.023 1567.81 853.746 1566.42C858.882 1555.21 858.838 1544.61 855.039 1533C850.391 1520.93 843.66 1513.92 832.391 1508.06C826.28 1505.82 821.123 1504.61 814.641 1505.01C814.603 1504.17 814.565 1503.32 814.526 1502.44C813.598 1489.58 810.075 1481.41 800.866 1472.55C790.246 1463.55 781.75 1461.55 768.098 1461.8C760.736 1462.6 754.62 1464.98 748.078 1468.46C747.446 1467.05 747.446 1467.05 746.801 1465.61C743.428 1459.1 737.101 1455.18 730.535 1452.54C718.778 1449.44 708.373 1451.05 697.891 1457.12C694.064 1459.87 691.392 1462.87 688.91 1466.94C688.138 1466.61 687.367 1466.28 686.571 1465.94C674.797 1461.35 663.691 1460.37 651.655 1464.65C640.946 1469.66 633.654 1477.34 629.006 1488.45C627.07 1494.12 626.168 1498.96 626.787 1505.01C625.442 1505.02 625.442 1505.02 624.071 1505.03C610.976 1505.65 600.977 1510.94 592.119 1520.91C583.273 1532.83 582.603 1543.51 583.891 1558.32C584.989 1562.79 586.384 1566.34 588.328 1570.51C587.291 1570.79 586.255 1571.08 585.186 1571.37C577.641 1575.25 573.492 1581.71 569.284 1589.07C565.946 1600.72 565.973 1612.66 571.336 1623.65C575.548 1629.81 581.129 1634.43 586.85 1639.05C586.132 1640.99 586.131 1640.99 585.399 1642.97C582.186 1654.1 581.903 1668.22 586.705 1678.96C592.865 1689.36 600.793 1697.22 611.994 1701.5C616.934 1702.45 621.766 1702.91 626.787 1703.02C626.79 1703.95 626.795 1704.87 626.799 1705.82C627.353 1718.19 631.305 1727.7 640.047 1736.37C651.464 1745.66 662.824 1746.9 677.078 1745.67C681.377 1744.53 684.874 1743.06 688.91 1741.1C689.538 1741.82 690.167 1742.54 690.813 1743.27C699.652 1752.94 706.271 1756.51 719.143 1757C733.104 1756.62 741.103 1750.69 751.035 1741.1C752.408 1741.82 753.782 1742.55 755.196 1743.29C766.005 1747.98 777.69 1748.54 788.772 1744.56C798.844 1739.27 807.767 1730.66 812.266 1719.87C813.845 1714.34 814.382 1708.77 814.641 1703.02C816.075 1703.15 817.507 1703.28 818.985 1703.4C829.44 1703.36 838.794 1697.61 846.338 1690.49C854.562 1680.93 857.977 1670.43 857.883 1657.74C857.234 1651.27 855.147 1645.18 853.098 1639.05C853.866 1638.57 854.636 1638.09 855.428 1637.59C864.2 1631.54 869.289 1625.18 872.328 1614.68C874.746 1596.53 870.855 1584.02 857.246 1572.36Z" fill="#769BFF"/>
<path d="M646.001 1649C648.762 1649 651.001 1646.76 651.001 1644C651.001 1641.24 648.762 1639 646.001 1639C643.24 1639 641.001 1641.24 641.001 1644C641.001 1646.76 643.24 1649 646.001 1649Z" fill="white"/>
<path d="M720.001 1649C722.762 1649 725.001 1646.76 725.001 1644C725.001 1641.24 722.762 1639 720.001 1639C717.24 1639 715.001 1641.24 715.001 1644C715.001 1646.76 717.24 1649 720.001 1649Z" fill="white"/>
<path d="M794.001 1649C796.762 1649 799.001 1646.76 799.001 1644C799.001 1641.24 796.762 1639 794.001 1639C791.24 1639 789.001 1641.24 789.001 1644C789.001 1646.76 791.24 1649 794.001 1649Z" fill="white"/>
<path d="M687.001 1690C689.762 1690 692.001 1687.76 692.001 1685C692.001 1682.24 689.762 1680 687.001 1680C684.24 1680 682.001 1682.24 682.001 1685C682.001 1687.76 684.24 1690 687.001 1690Z" fill="white"/>
<path d="M758.001 1690C760.762 1690 763.001 1687.76 763.001 1685C763.001 1682.24 760.762 1680 758.001 1680C755.24 1680 753.001 1682.24 753.001 1685C753.001 1687.76 755.24 1690 758.001 1690Z" fill="white"/>
<path d="M646 1573C648.761 1573 651 1570.76 651 1568C651 1565.24 648.761 1563 646 1563C643.239 1563 641 1565.24 641 1568C641 1570.76 643.239 1573 646 1573Z" fill="white"/>
<path d="M720 1573C722.761 1573 725 1570.76 725 1568C725 1565.24 722.761 1563 720 1563C717.239 1563 715 1565.24 715 1568C715 1570.76 717.239 1573 720 1573Z" fill="white"/>
<path d="M794 1573C796.761 1573 799 1570.76 799 1568C799 1565.24 796.761 1563 794 1563C791.239 1563 789 1565.24 789 1568C789 1570.76 791.239 1573 794 1573Z" fill="white"/>
<path d="M687 1614C689.761 1614 692 1611.76 692 1609C692 1606.24 689.761 1604 687 1604C684.239 1604 682 1606.24 682 1609C682 1611.76 684.239 1614 687 1614Z" fill="white"/>
<path d="M758 1614C760.761 1614 763 1611.76 763 1609C763 1606.24 760.761 1604 758 1604C755.239 1604 753 1606.24 753 1609C753 1611.76 755.239 1614 758 1614Z" fill="white"/>
<path d="M689 1532C691.761 1532 694 1529.76 694 1527C694 1524.24 691.761 1522 689 1522C686.239 1522 684 1524.24 684 1527C684 1529.76 686.239 1532 689 1532Z" fill="white"/>
<path d="M760 1532C762.761 1532 765 1529.76 765 1527C765 1524.24 762.761 1522 760 1522C757.239 1522 755 1524.24 755 1527C755 1529.76 757.239 1532 760 1532Z" fill="white"/>
<path d="M0 1763.39C0 1763.39 61.5 1744.88 255 1794.38C448.5 1843.88 523 1864.39 686.5 1813.89C850 1763.39 998 1782.39 1161.5 1823.89C1325 1865.39 1440 1763.39 1440 1763.39V3200.38H0V1763.39Z" fill="white"/>
</g>
</svg>
