<svg width="1440" height="3200" viewBox="0 0 1440 3200" fill="none" xmlns="http://www.w3.org/2000/svg">
<mask id="mask0_1393_1510" style="mask-type:luminance" maskUnits="userSpaceOnUse" x="0" y="0" width="1440" height="3200">
<path d="M1440 0H0V3200H1440V0Z" fill="white"/>
</mask>
<g mask="url(#mask0_1393_1510)">
<path d="M1440 0H0V3200H1440V0Z" fill="#EAF0FF"/>
<path d="M1440 0H0V3200H1440V0Z" fill="#EAF0FF"/>
<path d="M396.6 1405C387.667 1403.67 381.867 1399.6 379.2 1392.8C376.533 1385.87 377.067 1377.13 380.8 1366.6L407.2 1291.6C409.6 1284.67 412.333 1278.73 415.4 1273.8C418.6 1268.87 422.533 1265.07 427.2 1262.4C432 1259.73 437.933 1258.4 445 1258.4C455.667 1258.4 463.667 1261.33 469 1267.2C474.467 1273.07 479 1281.2 482.6 1291.6L508.8 1366.6C512.533 1377.13 513.2 1385.87 510.8 1392.8C508.533 1399.6 502.867 1403.67 493.8 1405C486.467 1405.93 480.067 1405.07 474.6 1402.4C469.267 1399.73 466.067 1395.4 465 1389.4C464.2 1385.4 464.067 1382.07 464.6 1379.4C465.267 1376.73 465.867 1374.6 466.4 1373C466.8 1371.67 466.8 1370.4 466.4 1369.2C466.133 1367.87 465.133 1367.2 463.4 1367.2H426.2C424.467 1367.2 423.4 1367.87 423 1369.2C422.733 1370.4 422.867 1371.67 423.4 1373C423.933 1374.6 424.467 1376.73 425 1379.4C425.533 1382.07 425.467 1385.4 424.8 1389.4C423.733 1395.4 420.6 1399.73 415.4 1402.4C410.2 1405.07 403.933 1405.93 396.6 1405ZM459.6 1339.2L449.2 1306.6C448.933 1305.27 448.467 1304.27 447.8 1303.6C447.267 1302.8 446.333 1302.4 445 1302.4C443.667 1302.4 442.667 1302.8 442 1303.6C441.467 1304.27 441 1305.27 440.6 1306.6L430.4 1339.2H459.6ZM539.997 1405C533.464 1405 528.53 1403.27 525.197 1399.8C521.997 1396.33 520.397 1392 520.397 1386.8V1270.8C520.397 1265.07 521.997 1260.33 525.197 1256.6C528.53 1252.73 533.464 1250.8 539.997 1250.8C545.864 1250.8 550.397 1252.73 553.597 1256.6C556.797 1260.33 558.397 1264.93 558.397 1270.4V1386.8C558.397 1392 556.797 1396.33 553.597 1399.8C550.397 1403.27 545.864 1405 539.997 1405ZM589.802 1405C583.268 1405 578.335 1403.27 575.002 1399.8C571.802 1396.33 570.202 1392 570.202 1386.8V1270.8C570.202 1265.07 571.802 1260.33 575.002 1256.6C578.335 1252.73 583.268 1250.8 589.802 1250.8C595.668 1250.8 600.202 1252.73 603.402 1256.6C606.602 1260.33 608.202 1264.93 608.202 1270.4V1386.8C608.202 1392 606.602 1396.33 603.402 1399.8C600.202 1403.27 595.668 1405 589.802 1405ZM704.005 1404.6C697.471 1404.6 691.205 1404 685.205 1402.8C679.338 1401.6 674.138 1399.33 669.605 1396C665.205 1392.53 661.671 1387.6 659.005 1381.2C656.471 1374.67 655.205 1366.13 655.205 1355.6C655.205 1346.13 656.471 1338 659.005 1331.2C661.538 1324.4 664.538 1319 668.005 1315C671.605 1311 674.871 1308.53 677.805 1307.6L676.805 1303.8H673.405C667.271 1303.8 662.405 1301.87 658.805 1298C655.338 1294 653.538 1288.6 653.405 1281.8C653.271 1275.13 655.005 1269.8 658.605 1265.8C662.338 1261.8 667.271 1259.8 673.405 1259.8H745.205C759.471 1259.8 766.605 1266.47 766.605 1279.8C766.605 1285.8 764.871 1290.6 761.405 1294.2C757.938 1297.8 752.538 1299.6 745.205 1299.6H703.805C698.871 1299.6 696.405 1302.47 696.405 1308.2V1323.2C703.071 1321.73 710.005 1320 717.205 1318C724.538 1316 731.471 1315 738.005 1315C744.271 1315 748.938 1316.4 752.005 1319.2C755.205 1321.87 756.805 1325.53 756.805 1330.2C756.805 1335 755.205 1338.8 752.005 1341.6C748.938 1344.27 744.271 1345.67 738.005 1345.8C731.471 1345.93 724.538 1345 717.205 1343C709.871 1341 702.871 1339.27 696.205 1337.8V1364C696.205 1366.53 696.871 1368.33 698.205 1369.4C699.671 1370.33 701.938 1369.93 705.005 1368.2C711.671 1364.33 718.205 1361.27 724.605 1359C731.005 1356.6 737.271 1355.4 743.405 1355.4C752.071 1355.4 758.605 1357.67 763.005 1362.2C767.538 1366.73 769.805 1372.67 769.805 1380C769.805 1387.87 767.405 1393.93 762.605 1398.2C757.938 1402.47 750.338 1404.6 739.805 1404.6H704.005ZM806.656 1405C796.79 1405 789.056 1402.33 783.456 1397C777.99 1391.67 775.256 1384.2 775.256 1374.6C775.256 1365 778.456 1358.07 784.856 1353.8C791.256 1349.4 799.456 1347.2 809.456 1347.2C815.323 1347.2 820.656 1347.6 825.456 1348.4C830.256 1349.2 834.59 1350.33 838.456 1351.8H839.056V1348.8C839.056 1345.73 837.923 1343.33 835.656 1341.6C833.39 1339.73 830.523 1338.87 827.056 1339C823.723 1339 820.856 1339.2 818.456 1339.6C816.19 1340 813.323 1340.67 809.856 1341.6C803.456 1343.2 797.923 1343.07 793.256 1341.2C788.59 1339.33 785.39 1335.67 783.656 1330.2C782.056 1324.47 782.39 1319.67 784.656 1315.8C787.056 1311.93 790.656 1308.93 795.456 1306.8C799.59 1304.8 804.19 1303.13 809.256 1301.8C814.456 1300.47 820.056 1299.8 826.056 1299.8C843.523 1299.8 856.323 1304.07 864.456 1312.6C872.723 1321 876.856 1335.13 876.856 1355V1386C876.856 1391.47 875.19 1396 871.856 1399.6C868.523 1403.2 863.923 1405 858.056 1405C851.656 1405 846.856 1403.2 843.656 1399.6C840.59 1396 839.056 1391.6 839.056 1386.4V1381.8H835.056C835.056 1385.27 834.39 1388.8 833.056 1392.4C831.856 1396 829.256 1399 825.256 1401.4C821.39 1403.8 815.19 1405 806.656 1405ZM808.656 1361.2C808.656 1363.47 809.456 1365.07 811.056 1366C812.79 1366.93 816.456 1367.4 822.056 1367.4C827.123 1367.4 830.656 1366.93 832.656 1366C834.656 1365.07 835.656 1363.47 835.656 1361.2C835.656 1359.07 834.656 1357.6 832.656 1356.8C830.656 1355.87 827.123 1355.4 822.056 1355.4C816.456 1355.4 812.79 1355.87 811.056 1356.8C809.456 1357.6 808.656 1359.07 808.656 1361.2ZM938.572 1405.6C931.505 1405.6 925.105 1404 919.372 1400.8C913.772 1397.6 909.372 1393.07 906.172 1387.2C902.972 1381.2 901.372 1374.2 901.372 1366.2V1331L893.972 1332C889.972 1332.53 886.439 1331.13 883.372 1327.8C880.305 1324.47 878.772 1320.27 878.772 1315.2C878.772 1310.13 880.305 1306 883.372 1302.8C886.439 1299.47 889.972 1298.07 893.972 1298.6L901.372 1299.6L901.172 1286C901.039 1280.67 902.572 1276.47 905.772 1273.4C908.972 1270.2 913.639 1268.6 919.772 1268.6C925.905 1268.6 930.639 1270.2 933.972 1273.4C937.305 1276.47 938.839 1280.67 938.572 1286L938.172 1299.6L948.772 1298.2C955.972 1297.13 961.439 1298.47 965.172 1302.2C968.905 1305.8 970.772 1310.13 970.772 1315.2C970.772 1320.27 968.905 1324.67 965.172 1328.4C961.572 1332 956.305 1333.33 949.372 1332.4L938.172 1331V1360.8C938.172 1362.53 938.772 1364.13 939.972 1365.6C941.172 1366.93 942.639 1367.33 944.372 1366.8C946.372 1366.27 948.439 1365.13 950.572 1363.4C952.839 1361.67 955.705 1360.8 959.172 1360.8C964.372 1360.8 968.372 1362.67 971.172 1366.4C973.972 1370.13 975.372 1374.73 975.372 1380.2C975.372 1384.47 973.839 1388.6 970.772 1392.6C967.839 1396.47 963.639 1399.6 958.172 1402C952.705 1404.4 946.172 1405.6 938.572 1405.6ZM994.883 1280.6C994.749 1275.8 995.549 1271.33 997.283 1267.2C999.149 1262.93 1002.15 1259.53 1006.28 1257C1010.42 1254.33 1015.75 1253 1022.28 1253C1028.95 1253 1034.28 1254.33 1038.28 1257C1042.42 1259.53 1045.35 1262.93 1047.08 1267.2C1048.95 1271.33 1049.82 1275.8 1049.68 1280.6C1049.55 1285 1048.88 1289.13 1047.68 1293C1046.48 1296.87 1045.08 1300.87 1043.48 1305C1041.88 1309 1040.42 1313.47 1039.08 1318.4C1037.75 1323.2 1036.88 1328.73 1036.48 1335C1036.08 1340.2 1034.62 1344.07 1032.08 1346.6C1029.55 1349 1026.28 1350.2 1022.28 1350.2C1018.15 1350.2 1014.82 1349 1012.28 1346.6C1009.75 1344.2 1008.35 1340.33 1008.08 1335C1007.68 1328.73 1006.82 1323.2 1005.48 1318.4C1004.15 1313.47 1002.68 1309 1001.08 1305C999.483 1300.87 998.083 1296.87 996.883 1293C995.683 1289.13 995.016 1285 994.883 1280.6ZM1022.28 1408.8C1014.42 1408.8 1008.28 1406.73 1003.88 1402.6C999.483 1398.33 997.283 1392.73 997.283 1385.8C997.283 1378.73 999.483 1373 1003.88 1368.6C1008.42 1364.2 1014.55 1362 1022.28 1362C1029.75 1362 1035.68 1364.2 1040.08 1368.6C1044.48 1372.87 1046.68 1378.53 1046.68 1385.6C1046.68 1392.53 1044.55 1398.13 1040.28 1402.4C1036.02 1406.67 1030.02 1408.8 1022.28 1408.8Z" fill="#769BFF"/>
<path d="M857.247 1692.36C854.705 1690.23 854.706 1690.23 851.62 1690.51C852.322 1689.16 853.024 1687.81 853.747 1686.42C858.883 1675.21 858.839 1664.61 855.04 1653C850.392 1640.93 843.661 1633.92 832.392 1628.06C826.281 1625.82 821.124 1624.61 814.642 1625.01C814.604 1624.17 814.566 1623.32 814.527 1622.44C813.599 1609.58 810.076 1601.41 800.867 1592.55C790.247 1583.55 781.751 1581.55 768.099 1581.8C760.737 1582.6 754.621 1584.98 748.079 1588.46C747.447 1587.05 747.447 1587.05 746.802 1585.61C743.429 1579.1 737.102 1575.18 730.536 1572.54C718.779 1569.44 708.374 1571.05 697.892 1577.12C694.065 1579.87 691.393 1582.87 688.911 1586.94C688.139 1586.61 687.368 1586.28 686.572 1585.94C674.798 1581.35 663.692 1580.37 651.656 1584.65C640.947 1589.66 633.655 1597.34 629.007 1608.45C627.071 1614.12 626.169 1618.96 626.788 1625.01C625.443 1625.02 625.443 1625.02 624.072 1625.03C610.977 1625.65 600.978 1630.94 592.12 1640.91C583.274 1652.83 582.604 1663.51 583.892 1678.32C584.99 1682.79 586.385 1686.34 588.329 1690.51C587.292 1690.79 586.256 1691.08 585.187 1691.37C577.642 1695.25 573.493 1701.71 569.285 1709.07C565.947 1720.72 565.974 1732.66 571.337 1743.65C575.549 1749.81 581.13 1754.43 586.851 1759.05C586.133 1760.99 586.132 1760.99 585.4 1762.97C582.187 1774.1 581.904 1788.22 586.706 1798.96C592.866 1809.36 600.794 1817.22 611.995 1821.5C616.935 1822.45 621.767 1822.91 626.788 1823.02C626.791 1823.95 626.796 1824.87 626.8 1825.82C627.354 1838.19 631.306 1847.7 640.048 1856.37C651.465 1865.66 662.825 1866.9 677.079 1865.67C681.378 1864.53 684.875 1863.06 688.911 1861.1C689.539 1861.82 690.168 1862.54 690.814 1863.27C699.653 1872.94 706.272 1876.51 719.144 1877C733.105 1876.62 741.104 1870.69 751.036 1861.1C752.409 1861.82 753.783 1862.55 755.197 1863.29C766.006 1867.98 777.691 1868.54 788.773 1864.56C798.845 1859.27 807.768 1850.66 812.267 1839.87C813.846 1834.34 814.383 1828.77 814.642 1823.02C816.076 1823.15 817.508 1823.28 818.986 1823.4C829.441 1823.36 838.795 1817.61 846.339 1810.49C854.563 1800.93 857.978 1790.43 857.884 1777.74C857.235 1771.27 855.148 1765.18 853.099 1759.05C853.867 1758.57 854.637 1758.09 855.429 1757.59C864.201 1751.54 869.29 1745.18 872.329 1734.68C874.747 1716.53 870.856 1704.02 857.247 1692.36Z" fill="#769BFF"/>
<path d="M646.002 1769C648.763 1769 651.002 1766.76 651.002 1764C651.002 1761.24 648.763 1759 646.002 1759C643.241 1759 641.002 1761.24 641.002 1764C641.002 1766.76 643.241 1769 646.002 1769Z" fill="white"/>
<path d="M720.002 1769C722.763 1769 725.002 1766.76 725.002 1764C725.002 1761.24 722.763 1759 720.002 1759C717.241 1759 715.002 1761.24 715.002 1764C715.002 1766.76 717.241 1769 720.002 1769Z" fill="white"/>
<path d="M794.002 1769C796.763 1769 799.002 1766.76 799.002 1764C799.002 1761.24 796.763 1759 794.002 1759C791.241 1759 789.002 1761.24 789.002 1764C789.002 1766.76 791.241 1769 794.002 1769Z" fill="white"/>
<path d="M687.002 1810C689.763 1810 692.002 1807.76 692.002 1805C692.002 1802.24 689.763 1800 687.002 1800C684.241 1800 682.002 1802.24 682.002 1805C682.002 1807.76 684.241 1810 687.002 1810Z" fill="white"/>
<path d="M758.002 1810C760.763 1810 763.002 1807.76 763.002 1805C763.002 1802.24 760.763 1800 758.002 1800C755.241 1800 753.002 1802.24 753.002 1805C753.002 1807.76 755.241 1810 758.002 1810Z" fill="white"/>
<path d="M646 1693C648.761 1693 651 1690.76 651 1688C651 1685.24 648.761 1683 646 1683C643.239 1683 641 1685.24 641 1688C641 1690.76 643.239 1693 646 1693Z" fill="white"/>
<path d="M720 1693C722.761 1693 725 1690.76 725 1688C725 1685.24 722.761 1683 720 1683C717.239 1683 715 1685.24 715 1688C715 1690.76 717.239 1693 720 1693Z" fill="white"/>
<path d="M794 1693C796.761 1693 799 1690.76 799 1688C799 1685.24 796.761 1683 794 1683C791.239 1683 789 1685.24 789 1688C789 1690.76 791.239 1693 794 1693Z" fill="white"/>
<path d="M687 1734C689.761 1734 692 1731.76 692 1729C692 1726.24 689.761 1724 687 1724C684.239 1724 682 1726.24 682 1729C682 1731.76 684.239 1734 687 1734Z" fill="white"/>
<path d="M758 1734C760.761 1734 763 1731.76 763 1729C763 1726.24 760.761 1724 758 1724C755.239 1724 753 1726.24 753 1729C753 1731.76 755.239 1734 758 1734Z" fill="white"/>
<path d="M689 1652C691.761 1652 694 1649.76 694 1647C694 1644.24 691.761 1642 689 1642C686.239 1642 684 1644.24 684 1647C684 1649.76 686.239 1652 689 1652Z" fill="white"/>
<path d="M760 1652C762.761 1652 765 1649.76 765 1647C765 1644.24 762.761 1642 760 1642C757.239 1642 755 1644.24 755 1647C755 1649.76 757.239 1652 760 1652Z" fill="white"/>
<path d="M0 1763.39C0 1763.39 61.5 1744.88 255 1794.38C448.5 1843.88 523 1864.39 686.5 1813.89C850 1763.39 998 1782.39 1161.5 1823.89C1325 1865.39 1440 1763.39 1440 1763.39V3200.38H0V1763.39Z" fill="white"/>
<path d="M1114 1730.5C1114 1855.59 937.6 1957 720 1957C502.4 1957 326 1855.59 326 1730.5C326 1667.95 451.575 1779.99 525 1806.5C598.425 1833.01 568.7 1687 677.5 1687C786.3 1687 824.7 1816.51 896 1806.5C967.3 1796.49 1114 1667.95 1114 1730.5Z" fill="white"/>
<path d="M550 1825C566.569 1825 580 1811.57 580 1795C580 1778.43 566.569 1765 550 1765C533.431 1765 520 1778.43 520 1795C520 1811.57 533.431 1825 550 1825Z" fill="white"/>
<path d="M837.828 1802.64C849.331 1810.63 865.527 1807.23 874.003 1795.03C882.479 1782.84 880.025 1766.47 868.522 1758.48C857.018 1750.48 840.822 1753.89 832.347 1766.08C823.871 1778.28 826.325 1794.64 837.828 1802.64Z" fill="white"/>
<path d="M509.5 1767C519.717 1767 528 1758.72 528 1748.5C528 1738.28 519.717 1730 509.5 1730C499.283 1730 491 1738.28 491 1748.5C491 1758.72 499.283 1767 509.5 1767Z" fill="white"/>
<path d="M328.075 1704.93C336.415 1700.12 337.479 1686.35 330.452 1674.18C323.425 1662.01 310.968 1656.04 302.628 1660.86C294.288 1665.67 293.224 1679.44 300.251 1691.62C307.278 1703.79 319.735 1709.75 328.075 1704.93Z" fill="white"/>
<path d="M880.674 1757.9C888.225 1761.33 897.772 1756.57 901.996 1747.26C906.22 1737.96 903.522 1727.64 895.971 1724.21C888.419 1720.78 878.873 1725.54 874.648 1734.84C870.424 1744.15 873.122 1754.47 880.674 1757.9Z" fill="white"/>
</g>
</svg>
