<svg width="1440" height="3200" viewBox="0 0 1440 3200" fill="none" xmlns="http://www.w3.org/2000/svg">
<mask id="mask0_1391_1271" style="mask-type:luminance" maskUnits="userSpaceOnUse" x="0" y="0" width="1440" height="3200">
<path d="M1440 0H0V3200H1440V0Z" fill="white"/>
</mask>
<g mask="url(#mask0_1391_1271)">
<path d="M1440 0H0V3200H1440V0Z" fill="#EAF0FF"/>
<path d="M1440 0H0V3200H1440V0Z" fill="#EAF0FF"/>
<path d="M1440 0H0V3200H1440V0Z" fill="#EAF0FF"/>
<path d="M857.246 1612.36C854.704 1610.23 854.705 1610.23 851.619 1610.51C852.321 1609.16 853.023 1607.81 853.746 1606.42C858.882 1595.21 858.838 1584.61 855.039 1573C850.391 1560.93 843.66 1553.92 832.391 1548.06C826.28 1545.82 821.123 1544.61 814.641 1545.01C814.603 1544.17 814.565 1543.32 814.526 1542.44C813.598 1529.58 810.075 1521.41 800.866 1512.55C790.246 1503.55 781.75 1501.55 768.098 1501.8C760.736 1502.6 754.62 1504.98 748.078 1508.46C747.446 1507.05 747.446 1507.05 746.801 1505.61C743.428 1499.1 737.101 1495.18 730.535 1492.54C718.778 1489.44 708.373 1491.05 697.891 1497.12C694.064 1499.87 691.392 1502.87 688.91 1506.94C688.138 1506.61 687.367 1506.28 686.571 1505.94C674.797 1501.35 663.691 1500.37 651.655 1504.65C640.946 1509.66 633.654 1517.34 629.006 1528.45C627.07 1534.12 626.168 1538.96 626.787 1545.01C625.442 1545.02 625.442 1545.02 624.071 1545.03C610.976 1545.65 600.977 1550.94 592.119 1560.91C583.273 1572.83 582.603 1583.51 583.891 1598.32C584.989 1602.79 586.384 1606.34 588.328 1610.51C587.291 1610.79 586.255 1611.08 585.186 1611.37C577.641 1615.25 573.492 1621.71 569.284 1629.07C565.946 1640.72 565.973 1652.66 571.336 1663.65C575.548 1669.81 581.129 1674.43 586.85 1679.05C586.132 1680.99 586.131 1680.99 585.399 1682.97C582.186 1694.1 581.903 1708.22 586.705 1718.96C592.865 1729.36 600.793 1737.22 611.994 1741.5C616.934 1742.45 621.766 1742.91 626.787 1743.02C626.79 1743.95 626.795 1744.87 626.799 1745.82C627.353 1758.19 631.305 1767.7 640.047 1776.37C651.464 1785.66 662.824 1786.9 677.078 1785.67C681.377 1784.53 684.874 1783.06 688.91 1781.1C689.538 1781.82 690.167 1782.54 690.813 1783.27C699.652 1792.94 706.271 1796.51 719.143 1797C733.104 1796.62 741.103 1790.69 751.035 1781.1C752.408 1781.82 753.782 1782.55 755.196 1783.29C766.005 1787.98 777.69 1788.54 788.772 1784.56C798.844 1779.27 807.767 1770.66 812.266 1759.87C813.845 1754.34 814.382 1748.77 814.641 1743.02C816.075 1743.15 817.507 1743.28 818.985 1743.4C829.44 1743.36 838.794 1737.61 846.338 1730.49C854.562 1720.93 857.977 1710.43 857.883 1697.74C857.234 1691.27 855.147 1685.18 853.098 1679.05C853.866 1678.57 854.636 1678.09 855.428 1677.59C864.2 1671.54 869.289 1665.18 872.328 1654.68C874.746 1636.53 870.855 1624.02 857.246 1612.36Z" fill="#769BFF"/>
<path d="M646.001 1689C648.762 1689 651.001 1686.76 651.001 1684C651.001 1681.24 648.762 1679 646.001 1679C643.24 1679 641.001 1681.24 641.001 1684C641.001 1686.76 643.24 1689 646.001 1689Z" fill="white"/>
<path d="M720.001 1689C722.762 1689 725.001 1686.76 725.001 1684C725.001 1681.24 722.762 1679 720.001 1679C717.24 1679 715.001 1681.24 715.001 1684C715.001 1686.76 717.24 1689 720.001 1689Z" fill="white"/>
<path d="M794.001 1689C796.762 1689 799.001 1686.76 799.001 1684C799.001 1681.24 796.762 1679 794.001 1679C791.24 1679 789.001 1681.24 789.001 1684C789.001 1686.76 791.24 1689 794.001 1689Z" fill="white"/>
<path d="M687.001 1730C689.762 1730 692.001 1727.76 692.001 1725C692.001 1722.24 689.762 1720 687.001 1720C684.24 1720 682.001 1722.24 682.001 1725C682.001 1727.76 684.24 1730 687.001 1730Z" fill="white"/>
<path d="M758.001 1730C760.762 1730 763.001 1727.76 763.001 1725C763.001 1722.24 760.762 1720 758.001 1720C755.24 1720 753.001 1722.24 753.001 1725C753.001 1727.76 755.24 1730 758.001 1730Z" fill="white"/>
<path d="M646 1613C648.761 1613 651 1610.76 651 1608C651 1605.24 648.761 1603 646 1603C643.239 1603 641 1605.24 641 1608C641 1610.76 643.239 1613 646 1613Z" fill="white"/>
<path d="M720 1613C722.761 1613 725 1610.76 725 1608C725 1605.24 722.761 1603 720 1603C717.239 1603 715 1605.24 715 1608C715 1610.76 717.239 1613 720 1613Z" fill="white"/>
<path d="M794 1613C796.761 1613 799 1610.76 799 1608C799 1605.24 796.761 1603 794 1603C791.239 1603 789 1605.24 789 1608C789 1610.76 791.239 1613 794 1613Z" fill="white"/>
<path d="M687 1654C689.761 1654 692 1651.76 692 1649C692 1646.24 689.761 1644 687 1644C684.239 1644 682 1646.24 682 1649C682 1651.76 684.239 1654 687 1654Z" fill="white"/>
<path d="M758 1654C760.761 1654 763 1651.76 763 1649C763 1646.24 760.761 1644 758 1644C755.239 1644 753 1646.24 753 1649C753 1651.76 755.239 1654 758 1654Z" fill="white"/>
<path d="M689 1572C691.761 1572 694 1569.76 694 1567C694 1564.24 691.761 1562 689 1562C686.239 1562 684 1564.24 684 1567C684 1569.76 686.239 1572 689 1572Z" fill="white"/>
<path d="M760 1572C762.761 1572 765 1569.76 765 1567C765 1564.24 762.761 1562 760 1562C757.239 1562 755 1564.24 755 1567C755 1569.76 757.239 1572 760 1572Z" fill="white"/>
<path d="M0 1763.39C0 1763.39 61.5 1744.88 255 1794.38C448.5 1843.88 523 1864.39 686.5 1813.89C850 1763.39 998 1782.39 1161.5 1823.89C1325 1865.39 1440 1763.39 1440 1763.39V3200.38H0V1763.39Z" fill="white"/>
</g>
</svg>
