<svg width="1440" height="3200" viewBox="0 0 1440 3200" fill="none" xmlns="http://www.w3.org/2000/svg">
<mask id="mask0_1391_1297" style="mask-type:luminance" maskUnits="userSpaceOnUse" x="0" y="0" width="1440" height="3200">
<path d="M1440 0H0V3200H1440V0Z" fill="white"/>
</mask>
<g mask="url(#mask0_1391_1297)">
<path d="M1440 0H0V3200H1440V0Z" fill="#EAF0FF"/>
<path d="M1440 0H0V3200H1440V0Z" fill="#EAF0FF"/>
<path d="M1440 0H0V3200H1440V0Z" fill="#EAF0FF"/>
<path d="M857.246 1632.36C854.704 1630.23 854.705 1630.23 851.619 1630.51C852.321 1629.16 853.023 1627.81 853.746 1626.42C858.882 1615.21 858.838 1604.61 855.039 1593C850.391 1580.93 843.66 1573.92 832.391 1568.06C826.28 1565.82 821.123 1564.61 814.641 1565.01C814.603 1564.17 814.565 1563.32 814.526 1562.44C813.598 1549.58 810.075 1541.41 800.866 1532.55C790.246 1523.55 781.75 1521.55 768.098 1521.8C760.736 1522.6 754.62 1524.98 748.078 1528.46C747.446 1527.05 747.446 1527.05 746.801 1525.61C743.428 1519.1 737.101 1515.18 730.535 1512.54C718.778 1509.44 708.373 1511.05 697.891 1517.12C694.064 1519.87 691.392 1522.87 688.91 1526.94C688.138 1526.61 687.367 1526.28 686.571 1525.94C674.797 1521.35 663.691 1520.37 651.655 1524.65C640.946 1529.66 633.654 1537.34 629.006 1548.45C627.07 1554.12 626.168 1558.96 626.787 1565.01C625.442 1565.02 625.442 1565.02 624.071 1565.03C610.976 1565.65 600.977 1570.94 592.119 1580.91C583.273 1592.83 582.603 1603.51 583.891 1618.32C584.989 1622.79 586.384 1626.34 588.328 1630.51C587.291 1630.79 586.255 1631.08 585.186 1631.37C577.641 1635.25 573.492 1641.71 569.284 1649.07C565.946 1660.72 565.973 1672.66 571.336 1683.65C575.548 1689.81 581.129 1694.43 586.85 1699.05C586.132 1700.99 586.131 1700.99 585.399 1702.97C582.186 1714.1 581.903 1728.22 586.705 1738.96C592.865 1749.36 600.793 1757.22 611.994 1761.5C616.934 1762.45 621.766 1762.91 626.787 1763.02C626.79 1763.95 626.795 1764.87 626.799 1765.82C627.353 1778.19 631.305 1787.7 640.047 1796.37C651.464 1805.66 662.824 1806.9 677.078 1805.67C681.377 1804.53 684.874 1803.06 688.91 1801.1C689.538 1801.82 690.167 1802.54 690.813 1803.27C699.652 1812.94 706.271 1816.51 719.143 1817C733.104 1816.62 741.103 1810.69 751.035 1801.1C752.408 1801.82 753.782 1802.55 755.196 1803.29C766.005 1807.98 777.69 1808.54 788.772 1804.56C798.844 1799.27 807.767 1790.66 812.266 1779.87C813.845 1774.34 814.382 1768.77 814.641 1763.02C816.075 1763.15 817.507 1763.28 818.985 1763.4C829.44 1763.36 838.794 1757.61 846.338 1750.49C854.562 1740.93 857.977 1730.43 857.883 1717.74C857.234 1711.27 855.147 1705.18 853.098 1699.05C853.866 1698.57 854.636 1698.09 855.428 1697.59C864.2 1691.54 869.289 1685.18 872.328 1674.68C874.746 1656.53 870.855 1644.02 857.246 1632.36Z" fill="#769BFF"/>
<path d="M646.001 1709C648.762 1709 651.001 1706.76 651.001 1704C651.001 1701.24 648.762 1699 646.001 1699C643.24 1699 641.001 1701.24 641.001 1704C641.001 1706.76 643.24 1709 646.001 1709Z" fill="white"/>
<path d="M720.001 1709C722.762 1709 725.001 1706.76 725.001 1704C725.001 1701.24 722.762 1699 720.001 1699C717.24 1699 715.001 1701.24 715.001 1704C715.001 1706.76 717.24 1709 720.001 1709Z" fill="white"/>
<path d="M794.001 1709C796.762 1709 799.001 1706.76 799.001 1704C799.001 1701.24 796.762 1699 794.001 1699C791.24 1699 789.001 1701.24 789.001 1704C789.001 1706.76 791.24 1709 794.001 1709Z" fill="white"/>
<path d="M687.001 1750C689.762 1750 692.001 1747.76 692.001 1745C692.001 1742.24 689.762 1740 687.001 1740C684.24 1740 682.001 1742.24 682.001 1745C682.001 1747.76 684.24 1750 687.001 1750Z" fill="white"/>
<path d="M758.001 1750C760.762 1750 763.001 1747.76 763.001 1745C763.001 1742.24 760.762 1740 758.001 1740C755.24 1740 753.001 1742.24 753.001 1745C753.001 1747.76 755.24 1750 758.001 1750Z" fill="white"/>
<path d="M646 1633C648.761 1633 651 1630.76 651 1628C651 1625.24 648.761 1623 646 1623C643.239 1623 641 1625.24 641 1628C641 1630.76 643.239 1633 646 1633Z" fill="white"/>
<path d="M720 1633C722.761 1633 725 1630.76 725 1628C725 1625.24 722.761 1623 720 1623C717.239 1623 715 1625.24 715 1628C715 1630.76 717.239 1633 720 1633Z" fill="white"/>
<path d="M794 1633C796.761 1633 799 1630.76 799 1628C799 1625.24 796.761 1623 794 1623C791.239 1623 789 1625.24 789 1628C789 1630.76 791.239 1633 794 1633Z" fill="white"/>
<path d="M687 1674C689.761 1674 692 1671.76 692 1669C692 1666.24 689.761 1664 687 1664C684.239 1664 682 1666.24 682 1669C682 1671.76 684.239 1674 687 1674Z" fill="white"/>
<path d="M758 1674C760.761 1674 763 1671.76 763 1669C763 1666.24 760.761 1664 758 1664C755.239 1664 753 1666.24 753 1669C753 1671.76 755.239 1674 758 1674Z" fill="white"/>
<path d="M689 1592C691.761 1592 694 1589.76 694 1587C694 1584.24 691.761 1582 689 1582C686.239 1582 684 1584.24 684 1587C684 1589.76 686.239 1592 689 1592Z" fill="white"/>
<path d="M760 1592C762.761 1592 765 1589.76 765 1587C765 1584.24 762.761 1582 760 1582C757.239 1582 755 1584.24 755 1587C755 1589.76 757.239 1592 760 1592Z" fill="white"/>
<path d="M0 1763.39C0 1763.39 61.5 1744.88 255 1794.38C448.5 1843.88 523 1864.39 686.5 1813.89C850 1763.39 998 1782.39 1161.5 1823.89C1325 1865.39 1440 1763.39 1440 1763.39V3200.38H0V1763.39Z" fill="white"/>
<path d="M1114 1730.5C1114 1855.59 937.6 1957 720 1957C502.4 1957 326 1855.59 326 1730.5C326 1667.95 451.575 1779.99 525 1806.5C598.425 1833.01 568.7 1687 677.5 1687C786.3 1687 824.7 1816.51 896 1806.5C967.3 1796.49 1114 1667.95 1114 1730.5Z" fill="white"/>
</g>
</svg>
