<svg width="1440" height="3200" viewBox="0 0 1440 3200" fill="none" xmlns="http://www.w3.org/2000/svg">
<mask id="mask0_1395_1622" style="mask-type:luminance" maskUnits="userSpaceOnUse" x="0" y="0" width="1440" height="3200">
<path d="M1440 0H0V3200H1440V0Z" fill="white"/>
</mask>
<g mask="url(#mask0_1395_1622)">
<path d="M1440 0H0V3200H1440V0Z" fill="#EAF0FF"/>
<path d="M1440 0H0V3200H1440V0Z" fill="#EAF0FF"/>
<path d="M1440 0H0V3200H1440V0Z" fill="#EAF0FF"/>
<path d="M857.246 1602.36C854.704 1600.23 854.705 1600.23 851.619 1600.51C852.321 1599.16 853.023 1597.81 853.746 1596.42C858.882 1585.21 858.838 1574.61 855.039 1563C850.391 1550.93 843.66 1543.92 832.391 1538.06C826.28 1535.82 821.123 1534.61 814.641 1535.01C814.603 1534.17 814.565 1533.32 814.526 1532.44C813.598 1519.58 810.075 1511.41 800.866 1502.55C790.246 1493.55 781.75 1491.55 768.098 1491.8C760.736 1492.6 754.62 1494.98 748.078 1498.46C747.446 1497.05 747.446 1497.05 746.801 1495.61C743.428 1489.1 737.101 1485.18 730.535 1482.54C718.778 1479.44 708.373 1481.05 697.891 1487.12C694.064 1489.87 691.392 1492.87 688.91 1496.94C688.138 1496.61 687.367 1496.28 686.571 1495.94C674.797 1491.35 663.691 1490.37 651.655 1494.65C640.946 1499.66 633.654 1507.34 629.006 1518.45C627.07 1524.12 626.168 1528.96 626.787 1535.01C625.442 1535.02 625.442 1535.02 624.071 1535.03C610.976 1535.65 600.977 1540.94 592.119 1550.91C583.273 1562.83 582.603 1573.51 583.891 1588.32C584.989 1592.79 586.384 1596.34 588.328 1600.51C587.291 1600.79 586.255 1601.08 585.186 1601.37C577.641 1605.25 573.492 1611.71 569.284 1619.07C565.946 1630.72 565.973 1642.66 571.336 1653.65C575.548 1659.81 581.129 1664.43 586.85 1669.05C586.132 1670.99 586.131 1670.99 585.399 1672.97C582.186 1684.1 581.903 1698.22 586.705 1708.96C592.865 1719.36 600.793 1727.22 611.994 1731.5C616.934 1732.45 621.766 1732.91 626.787 1733.02C626.79 1733.95 626.795 1734.87 626.799 1735.82C627.353 1748.19 631.305 1757.7 640.047 1766.37C651.464 1775.66 662.824 1776.9 677.078 1775.67C681.377 1774.53 684.874 1773.06 688.91 1771.1C689.538 1771.82 690.167 1772.54 690.813 1773.27C699.652 1782.94 706.271 1786.51 719.143 1787C733.104 1786.62 741.103 1780.69 751.035 1771.1C752.408 1771.82 753.782 1772.55 755.196 1773.29C766.005 1777.98 777.69 1778.54 788.772 1774.56C798.844 1769.27 807.767 1760.66 812.266 1749.87C813.845 1744.34 814.382 1738.77 814.641 1733.02C816.075 1733.15 817.507 1733.28 818.985 1733.4C829.44 1733.36 838.794 1727.61 846.338 1720.49C854.562 1710.93 857.977 1700.43 857.883 1687.74C857.234 1681.27 855.147 1675.18 853.098 1669.05C853.866 1668.57 854.636 1668.09 855.428 1667.59C864.2 1661.54 869.289 1655.18 872.328 1644.68C874.746 1626.53 870.855 1614.02 857.246 1602.36Z" fill="#769BFF"/>
<path d="M646.001 1679C648.762 1679 651.001 1676.76 651.001 1674C651.001 1671.24 648.762 1669 646.001 1669C643.24 1669 641.001 1671.24 641.001 1674C641.001 1676.76 643.24 1679 646.001 1679Z" fill="white"/>
<path d="M720.001 1679C722.762 1679 725.001 1676.76 725.001 1674C725.001 1671.24 722.762 1669 720.001 1669C717.24 1669 715.001 1671.24 715.001 1674C715.001 1676.76 717.24 1679 720.001 1679Z" fill="white"/>
<path d="M794.001 1679C796.762 1679 799.001 1676.76 799.001 1674C799.001 1671.24 796.762 1669 794.001 1669C791.24 1669 789.001 1671.24 789.001 1674C789.001 1676.76 791.24 1679 794.001 1679Z" fill="white"/>
<path d="M687.001 1720C689.762 1720 692.001 1717.76 692.001 1715C692.001 1712.24 689.762 1710 687.001 1710C684.24 1710 682.001 1712.24 682.001 1715C682.001 1717.76 684.24 1720 687.001 1720Z" fill="white"/>
<path d="M758.001 1720C760.762 1720 763.001 1717.76 763.001 1715C763.001 1712.24 760.762 1710 758.001 1710C755.24 1710 753.001 1712.24 753.001 1715C753.001 1717.76 755.24 1720 758.001 1720Z" fill="white"/>
<path d="M646 1603C648.761 1603 651 1600.76 651 1598C651 1595.24 648.761 1593 646 1593C643.239 1593 641 1595.24 641 1598C641 1600.76 643.239 1603 646 1603Z" fill="white"/>
<path d="M720 1603C722.761 1603 725 1600.76 725 1598C725 1595.24 722.761 1593 720 1593C717.239 1593 715 1595.24 715 1598C715 1600.76 717.239 1603 720 1603Z" fill="white"/>
<path d="M794 1603C796.761 1603 799 1600.76 799 1598C799 1595.24 796.761 1593 794 1593C791.239 1593 789 1595.24 789 1598C789 1600.76 791.239 1603 794 1603Z" fill="white"/>
<path d="M687 1644C689.761 1644 692 1641.76 692 1639C692 1636.24 689.761 1634 687 1634C684.239 1634 682 1636.24 682 1639C682 1641.76 684.239 1644 687 1644Z" fill="white"/>
<path d="M758 1644C760.761 1644 763 1641.76 763 1639C763 1636.24 760.761 1634 758 1634C755.239 1634 753 1636.24 753 1639C753 1641.76 755.239 1644 758 1644Z" fill="white"/>
<path d="M689 1562C691.761 1562 694 1559.76 694 1557C694 1554.24 691.761 1552 689 1552C686.239 1552 684 1554.24 684 1557C684 1559.76 686.239 1562 689 1562Z" fill="white"/>
<path d="M760 1562C762.761 1562 765 1559.76 765 1557C765 1554.24 762.761 1552 760 1552C757.239 1552 755 1554.24 755 1557C755 1559.76 757.239 1562 760 1562Z" fill="white"/>
<path d="M0 1763.39C0 1763.39 61.5 1744.88 255 1794.38C448.5 1843.88 523 1864.39 686.5 1813.89C850 1763.39 998 1782.39 1161.5 1823.89C1325 1865.39 1440 1763.39 1440 1763.39V3200.38H0V1763.39Z" fill="white"/>
</g>
</svg>
