<svg width="1440" height="3200" viewBox="0 0 1440 3200" fill="none" xmlns="http://www.w3.org/2000/svg">
<mask id="mask0_1391_1247" style="mask-type:luminance" maskUnits="userSpaceOnUse" x="0" y="0" width="1440" height="3200">
<path d="M1440 0H0V3200H1440V0Z" fill="white"/>
</mask>
<g mask="url(#mask0_1391_1247)">
<path d="M1440 0H0V3200H1440V0Z" fill="#EAF0FF"/>
<path d="M1440 0H0V3200H1440V0Z" fill="#EAF0FF"/>
<path d="M1440 0H0V3200H1440V0Z" fill="#EAF0FF"/>
<path d="M857.246 1592.36C854.704 1590.23 854.705 1590.23 851.619 1590.51C852.321 1589.16 853.023 1587.81 853.746 1586.42C858.882 1575.21 858.838 1564.61 855.039 1553C850.391 1540.93 843.66 1533.92 832.391 1528.06C826.28 1525.82 821.123 1524.61 814.641 1525.01C814.603 1524.17 814.565 1523.32 814.526 1522.44C813.598 1509.58 810.075 1501.41 800.866 1492.55C790.246 1483.55 781.75 1481.55 768.098 1481.8C760.736 1482.6 754.62 1484.98 748.078 1488.46C747.446 1487.05 747.446 1487.05 746.801 1485.61C743.428 1479.1 737.101 1475.18 730.535 1472.54C718.778 1469.44 708.373 1471.05 697.891 1477.12C694.064 1479.87 691.392 1482.87 688.91 1486.94C688.138 1486.61 687.367 1486.28 686.571 1485.94C674.797 1481.35 663.691 1480.37 651.655 1484.65C640.946 1489.66 633.654 1497.34 629.006 1508.45C627.07 1514.12 626.168 1518.96 626.787 1525.01C625.442 1525.02 625.442 1525.02 624.071 1525.03C610.976 1525.65 600.977 1530.94 592.119 1540.91C583.273 1552.83 582.603 1563.51 583.891 1578.32C584.989 1582.79 586.384 1586.34 588.328 1590.51C587.291 1590.79 586.255 1591.08 585.186 1591.37C577.641 1595.25 573.492 1601.71 569.284 1609.07C565.946 1620.72 565.973 1632.66 571.336 1643.65C575.548 1649.81 581.129 1654.43 586.85 1659.05C586.132 1660.99 586.131 1660.99 585.399 1662.97C582.186 1674.1 581.903 1688.22 586.705 1698.96C592.865 1709.36 600.793 1717.22 611.994 1721.5C616.934 1722.45 621.766 1722.91 626.787 1723.02C626.79 1723.95 626.795 1724.87 626.799 1725.82C627.353 1738.19 631.305 1747.7 640.047 1756.37C651.464 1765.66 662.824 1766.9 677.078 1765.67C681.377 1764.53 684.874 1763.06 688.91 1761.1C689.538 1761.82 690.167 1762.54 690.813 1763.27C699.652 1772.94 706.271 1776.51 719.143 1777C733.104 1776.62 741.103 1770.69 751.035 1761.1C752.408 1761.82 753.782 1762.55 755.196 1763.29C766.005 1767.98 777.69 1768.54 788.772 1764.56C798.844 1759.27 807.767 1750.66 812.266 1739.87C813.845 1734.34 814.382 1728.77 814.641 1723.02C816.075 1723.15 817.507 1723.28 818.985 1723.4C829.44 1723.36 838.794 1717.61 846.338 1710.49C854.562 1700.93 857.977 1690.43 857.883 1677.74C857.234 1671.27 855.147 1665.18 853.098 1659.05C853.866 1658.57 854.636 1658.09 855.428 1657.59C864.2 1651.54 869.289 1645.18 872.328 1634.68C874.746 1616.53 870.855 1604.02 857.246 1592.36Z" fill="#769BFF"/>
<path d="M646.001 1669C648.762 1669 651.001 1666.76 651.001 1664C651.001 1661.24 648.762 1659 646.001 1659C643.24 1659 641.001 1661.24 641.001 1664C641.001 1666.76 643.24 1669 646.001 1669Z" fill="white"/>
<path d="M720.001 1669C722.762 1669 725.001 1666.76 725.001 1664C725.001 1661.24 722.762 1659 720.001 1659C717.24 1659 715.001 1661.24 715.001 1664C715.001 1666.76 717.24 1669 720.001 1669Z" fill="white"/>
<path d="M794.001 1669C796.762 1669 799.001 1666.76 799.001 1664C799.001 1661.24 796.762 1659 794.001 1659C791.24 1659 789.001 1661.24 789.001 1664C789.001 1666.76 791.24 1669 794.001 1669Z" fill="white"/>
<path d="M687.001 1710C689.762 1710 692.001 1707.76 692.001 1705C692.001 1702.24 689.762 1700 687.001 1700C684.24 1700 682.001 1702.24 682.001 1705C682.001 1707.76 684.24 1710 687.001 1710Z" fill="white"/>
<path d="M758.001 1710C760.762 1710 763.001 1707.76 763.001 1705C763.001 1702.24 760.762 1700 758.001 1700C755.24 1700 753.001 1702.24 753.001 1705C753.001 1707.76 755.24 1710 758.001 1710Z" fill="white"/>
<path d="M646 1593C648.761 1593 651 1590.76 651 1588C651 1585.24 648.761 1583 646 1583C643.239 1583 641 1585.24 641 1588C641 1590.76 643.239 1593 646 1593Z" fill="white"/>
<path d="M720 1593C722.761 1593 725 1590.76 725 1588C725 1585.24 722.761 1583 720 1583C717.239 1583 715 1585.24 715 1588C715 1590.76 717.239 1593 720 1593Z" fill="white"/>
<path d="M794 1593C796.761 1593 799 1590.76 799 1588C799 1585.24 796.761 1583 794 1583C791.239 1583 789 1585.24 789 1588C789 1590.76 791.239 1593 794 1593Z" fill="white"/>
<path d="M687 1634C689.761 1634 692 1631.76 692 1629C692 1626.24 689.761 1624 687 1624C684.239 1624 682 1626.24 682 1629C682 1631.76 684.239 1634 687 1634Z" fill="white"/>
<path d="M758 1634C760.761 1634 763 1631.76 763 1629C763 1626.24 760.761 1624 758 1624C755.239 1624 753 1626.24 753 1629C753 1631.76 755.239 1634 758 1634Z" fill="white"/>
<path d="M689 1552C691.761 1552 694 1549.76 694 1547C694 1544.24 691.761 1542 689 1542C686.239 1542 684 1544.24 684 1547C684 1549.76 686.239 1552 689 1552Z" fill="white"/>
<path d="M760 1552C762.761 1552 765 1549.76 765 1547C765 1544.24 762.761 1542 760 1542C757.239 1542 755 1544.24 755 1547C755 1549.76 757.239 1552 760 1552Z" fill="white"/>
<path d="M0 1763.39C0 1763.39 61.5 1744.88 255 1794.38C448.5 1843.88 523 1864.39 686.5 1813.89C850 1763.39 998 1782.39 1161.5 1823.89C1325 1865.39 1440 1763.39 1440 1763.39V3200.38H0V1763.39Z" fill="white"/>
</g>
</svg>
