<svg width="415" height="415" viewBox="0 0 415 415" fill="none" xmlns="http://www.w3.org/2000/svg">
<path fill-rule="evenodd" clip-rule="evenodd" d="M415 0H0V415H415V0ZM368.424 167.312C368.162 167.168 367.912 167.064 367.65 166.994C367.051 166.832 366.383 166.84 365.354 166.922C365.02 166.947 364.648 166.98 364.229 167.02L366.756 162.154C372.857 148.832 372.807 136.242 368.293 122.447C362.768 108.1 354.77 99.7695 341.377 92.8086C334.115 90.1465 327.988 88.707 320.285 89.1875L320.148 86.1328C319.045 70.8516 314.859 61.1328 303.914 50.6113C291.295 39.9082 281.199 37.5312 264.975 37.8359C256.227 38.7812 248.959 41.6152 241.186 45.7461L239.668 42.3594C235.658 34.6289 228.141 29.9707 220.338 26.8262C206.367 23.1504 194.002 25.0527 181.545 32.2715C176.996 35.541 173.822 39.1074 170.873 43.9375L168.092 42.748C154.1 37.2988 140.902 36.1387 126.6 41.2227C113.873 47.1797 105.209 56.2988 99.6855 69.5039C97.3848 76.2363 96.3125 81.9941 97.0488 89.1875L93.8203 89.2012C78.2598 89.9414 66.377 96.2246 55.8516 108.08C45.3398 122.248 44.543 134.936 46.0723 152.539C47.377 157.844 49.0352 162.062 51.3457 167.02L47.6113 168.037C38.6445 172.654 33.7148 180.326 28.7148 189.08C24.748 202.922 24.7793 217.113 31.1543 230.166C36.1582 237.484 42.791 242.98 49.5898 248.471L47.8652 253.123C44.0469 266.35 43.7109 283.131 49.418 295.893C56.7383 308.26 66.1582 317.598 79.4688 322.684C85.3398 323.814 91.082 324.354 97.0488 324.492L97.0625 327.816C97.7207 342.514 102.418 353.822 112.807 364.115C126.373 375.164 139.873 376.637 156.812 375.174C161.92 373.818 166.076 372.068 170.873 369.744L173.133 372.326C183.637 383.807 191.504 388.055 206.799 388.637C223.391 388.186 232.896 381.139 244.699 369.744L249.643 372.346C262.488 377.92 276.373 378.588 289.543 373.852C301.512 367.562 312.115 357.336 317.463 344.516C319.338 337.936 319.977 331.324 320.285 324.492L325.447 324.945C337.871 324.895 348.986 318.062 357.951 309.604C367.725 298.238 371.783 285.764 371.672 270.68C370.926 263.238 368.582 256.23 366.225 249.186L365.984 248.471L368.754 246.73C379.178 239.549 385.227 231.986 388.838 219.51C391.711 197.939 387.088 183.076 370.914 169.219C369.773 168.262 369.064 167.666 368.424 167.312ZM356.32 171.377C355.977 171.104 355.686 170.885 355.414 170.713C354.492 170.133 353.818 170.094 352.25 170.223L351.328 170.305L353.646 165.842C359.246 153.617 359.199 142.066 355.057 129.408C349.988 116.244 342.648 108.602 330.363 102.215C323.699 99.7734 318.076 98.4512 311.01 98.8926L310.883 96.0898C309.871 82.0703 306.031 73.1523 295.99 63.498C284.412 53.6797 275.146 51.498 260.262 51.7773C252.236 52.6445 245.568 55.2441 238.436 59.0352L237.041 55.9277C233.365 48.8359 226.467 44.5605 219.307 41.6758C206.488 38.3027 195.143 40.0488 183.715 46.6719C179.541 49.6719 176.629 52.9434 173.922 57.375L171.371 56.2852C158.533 51.2832 146.424 50.2207 133.301 54.8828C121.625 60.3496 113.676 68.7168 108.607 80.832C106.496 87.0098 105.514 92.293 106.188 98.8926L103.227 98.9062C88.9492 99.584 78.0469 105.35 68.3887 116.227C58.7441 129.227 58.0137 140.867 59.418 157.02C60.6152 161.887 62.1367 165.756 64.2559 170.305L60.8281 171.238C52.6035 175.475 48.0781 182.514 43.4902 190.545C39.8516 203.246 39.8809 216.266 45.7285 228.242C50.3203 234.957 56.4062 240 62.6426 245.037L61.0605 249.305C57.5586 261.439 57.25 276.838 62.4863 288.547C69.2031 299.895 77.8457 308.461 90.0586 313.127C95.4453 314.164 100.713 314.66 106.188 314.787L106.201 317.838C106.805 331.322 111.113 341.697 120.646 351.143C133.094 361.279 145.48 362.629 161.021 361.289C162.77 360.824 164.396 360.311 165.977 359.736C166.527 359.537 167.072 359.33 167.615 359.115C169.691 358.295 171.734 357.365 173.922 356.305L175.996 358.674C185.635 369.209 192.852 373.107 206.885 373.641C222.107 373.227 230.83 366.76 241.658 356.305L246.195 358.693C257.98 363.807 270.721 364.42 282.803 360.074C293.785 354.305 303.514 344.922 308.42 333.16C310.141 327.123 310.727 321.057 311.01 314.787L315.746 315.203C327.146 315.156 337.344 308.889 345.57 301.125C354.535 290.699 358.26 279.254 358.158 265.414C357.473 258.584 355.32 252.152 353.156 245.688L352.939 245.037L355.48 243.441C365.045 236.852 370.594 229.912 373.908 218.465C376.543 198.674 372.301 185.035 357.463 172.322C357.02 171.951 356.646 171.639 356.32 171.377Z" fill="#EAF0FF"/>
</svg>
