<svg width="324" height="369" viewBox="0 0 324 369" fill="none" xmlns="http://www.w3.org/2000/svg">
<path fill-rule="evenodd" clip-rule="evenodd" d="M99.0187 361.915L81.9113 355.495L80.1558 360.177L101.978 368.367L140.246 264.133L135.552 262.411L99.0187 361.915Z" fill="black"/>
<path fill-rule="evenodd" clip-rule="evenodd" d="M280.331 340.457L262.083 363.559L266.007 366.658L287.354 339.633L214.768 282.297L211.668 286.22L280.331 340.457Z" fill="black"/>
<path d="M298.247 154.482C295.705 152.348 295.704 152.347 292.618 152.63C293.32 151.279 294.022 149.929 294.745 148.537C299.88 137.326 299.839 126.732 296.04 115.123C291.392 103.049 284.659 96.0391 273.39 90.1819C267.279 87.9422 262.122 86.7304 255.64 87.135C255.602 86.2868 255.564 85.4386 255.525 84.5647C254.596 71.7053 251.076 63.5268 241.866 54.6731C231.247 45.6668 222.751 43.6665 209.099 43.9221C201.737 44.7179 195.619 47.1023 189.077 50.5794C188.445 49.1686 188.447 49.169 187.802 47.7298C184.429 41.2243 178.102 37.3034 171.536 34.6575C159.779 31.5645 149.372 33.1662 138.89 39.2395C135.063 41.991 132.393 44.9919 129.911 49.0569C129.139 48.727 128.367 48.3968 127.571 48.0569C115.797 43.4704 104.691 42.4946 92.6554 46.7717C81.9464 51.7855 74.653 59.4588 70.0051 70.5706C68.069 76.2367 67.1673 81.0813 67.7863 87.135C66.4413 87.1408 66.4425 87.1406 65.0715 87.1467C51.9765 87.769 41.9763 93.0562 33.1183 103.033C24.2723 114.955 23.6038 125.632 24.8918 140.446C25.9897 144.91 27.3833 148.459 29.3273 152.63C28.2903 152.913 27.2537 153.197 26.1847 153.488C18.6397 157.373 14.4923 163.829 10.2843 171.195C6.94632 182.843 6.97211 194.784 12.3351 205.769C16.5471 211.927 22.1278 216.552 27.8488 221.172C27.1308 223.11 27.1316 223.11 26.3996 225.087C23.1866 236.216 22.9023 250.338 27.7043 261.077C33.8643 271.484 41.7943 279.342 52.9953 283.621C57.9353 284.573 62.7653 285.027 67.7863 285.145C67.7893 286.068 67.794 286.991 67.798 287.942C68.352 300.309 72.306 309.826 81.048 318.488C92.465 327.785 103.823 329.023 118.077 327.793C122.376 326.651 125.875 325.179 129.911 323.223C130.539 323.94 131.166 324.657 131.812 325.396C140.651 335.057 147.27 338.632 160.142 339.121C174.103 338.742 182.104 332.812 192.036 323.223C193.409 323.946 194.782 324.668 196.196 325.413C207.005 330.103 218.691 330.666 229.773 326.68C239.845 321.388 248.766 312.782 253.265 301.994C254.843 296.457 255.381 290.894 255.64 285.145C257.074 285.271 258.508 285.397 259.986 285.526C270.441 285.483 279.795 279.734 287.339 272.615C295.562 263.052 298.976 252.554 298.882 239.861C298.233 233.387 296.148 227.302 294.099 221.172C294.867 220.689 295.635 220.206 296.427 219.708C305.199 213.664 310.288 207.301 313.327 196.802C315.745 178.65 311.856 166.142 298.247 154.482Z" fill="#626B86"/>
<path d="M290.247 147.482C287.705 145.348 287.704 145.347 284.618 145.63C285.32 144.279 286.022 142.929 286.745 141.537C291.88 130.326 291.839 119.732 288.04 108.123C283.392 96.049 276.659 89.0391 265.39 83.1819C259.279 80.9422 254.122 79.7304 247.64 80.135C247.602 79.2868 247.564 78.4386 247.525 77.5647C246.596 64.7053 243.076 56.5268 233.866 47.6731C223.247 38.6668 214.751 36.6665 201.099 36.9221C193.737 37.7179 187.619 40.1023 181.077 43.5794C180.445 42.1686 180.447 42.169 179.802 40.7298C176.429 34.2243 170.102 30.3034 163.536 27.6575C151.779 24.5645 141.372 26.1662 130.89 32.2395C127.063 34.991 124.393 37.9919 121.911 42.0569C121.139 41.727 120.367 41.3968 119.571 41.0569C107.797 36.4704 96.6914 35.4946 84.6554 39.7717C73.9464 44.7855 66.653 52.4588 62.0051 63.5706C60.069 69.2367 59.1673 74.0813 59.7863 80.135C58.4413 80.1408 58.4425 80.1406 57.0715 80.1467C43.9765 80.769 33.9763 86.0562 25.1183 96.0335C16.2723 107.955 15.6038 118.632 16.8918 133.446C17.9897 137.91 19.3833 141.459 21.3273 145.63C20.2903 145.913 19.2537 146.197 18.1847 146.488C10.6397 150.373 6.49234 156.829 2.28433 164.195C-1.05368 175.843 -1.02789 187.784 4.33511 198.769C8.54712 204.927 14.1278 209.552 19.8488 214.172C19.1308 216.11 19.1316 216.11 18.3996 218.087C15.1866 229.216 14.9023 243.338 19.7043 254.077C25.8643 264.484 33.7943 272.342 44.9953 276.621C49.9353 277.573 54.7653 278.027 59.7863 278.145C59.7893 279.068 59.794 279.991 59.798 280.942C60.352 293.309 64.306 302.826 73.048 311.488C84.465 320.785 95.8233 322.023 110.077 320.793C114.376 319.651 117.875 318.179 121.911 316.223C122.539 316.94 123.166 317.657 123.812 318.396C132.651 328.057 139.27 331.632 152.142 332.121C166.103 331.742 174.104 325.812 184.036 316.223C185.409 316.946 186.782 317.668 188.196 318.413C199.005 323.103 210.691 323.666 221.773 319.68C231.845 314.388 240.766 305.782 245.265 294.994C246.843 289.457 247.381 283.894 247.64 278.145C249.074 278.271 250.508 278.397 251.986 278.526C262.441 278.483 271.795 272.734 279.339 265.615C287.562 256.052 290.976 245.554 290.882 232.861C290.233 226.387 288.148 220.302 286.099 214.172C286.867 213.689 287.635 213.206 288.427 212.708C297.199 206.664 302.288 200.301 305.327 189.802C307.745 171.65 303.856 159.142 290.247 147.482Z" fill="#769BFF"/>
<path d="M84 243.121C86.7614 243.121 89 240.883 89 238.121C89 235.36 86.7614 233.121 84 233.121C81.2386 233.121 79 235.36 79 238.121C79 240.883 81.2386 243.121 84 243.121Z" fill="white"/>
<path d="M158 243.121C160.761 243.121 163 240.883 163 238.121C163 235.36 160.761 233.121 158 233.121C155.239 233.121 153 235.36 153 238.121C153 240.883 155.239 243.121 158 243.121Z" fill="white"/>
<path d="M232 243.121C234.761 243.121 237 240.883 237 238.121C237 235.36 234.761 233.121 232 233.121C229.239 233.121 227 235.36 227 238.121C227 240.883 229.239 243.121 232 243.121Z" fill="white"/>
<path d="M125 284.121C127.761 284.121 130 281.883 130 279.121C130 276.36 127.761 274.121 125 274.121C122.239 274.121 120 276.36 120 279.121C120 281.883 122.239 284.121 125 284.121Z" fill="white"/>
<path d="M196 284.121C198.761 284.121 201 281.883 201 279.121C201 276.36 198.761 274.121 196 274.121C193.239 274.121 191 276.36 191 279.121C191 281.883 193.239 284.121 196 284.121Z" fill="white"/>
<path d="M58.4876 213.092C80.8483 213.644 99.4728 193.951 100.087 169.106C100.7 144.261 83.071 123.674 60.7103 123.121C38.3496 122.569 19.7251 142.26 19.1113 167.105C18.4975 191.951 36.1268 212.54 58.4876 213.092Z" fill="white"/>
<path d="M148.465 214.82C170.826 215.373 189.45 195.68 190.064 170.834C190.678 145.989 173.049 125.4 150.688 124.848C128.327 124.295 109.703 143.989 109.089 168.834C108.475 193.679 126.104 214.268 148.465 214.82Z" fill="white"/>
<path d="M49.5833 188.865C62.282 189.179 72.8527 178.244 73.1937 164.441C73.5347 150.638 63.5169 139.194 50.8182 138.881C38.1195 138.567 27.5488 149.502 27.2078 163.305C26.8667 177.108 36.8846 188.552 49.5833 188.865Z" fill="black"/>
<path d="M140.561 190.619C153.26 190.933 163.83 179.998 164.171 166.195C164.512 152.392 154.494 140.948 141.796 140.634C129.097 140.321 118.526 151.256 118.185 165.059C117.844 178.862 127.862 190.305 140.561 190.619Z" fill="black"/>
<path d="M251.465 46.8424C253.063 43.7667 254.392 40.7005 255.452 37.6425C256.512 34.5845 257.222 31.7675 257.583 29.1928C257.943 26.6181 257.927 24.4813 257.533 22.7818C257.139 21.0823 256.398 19.9512 255.31 19.3857C254.221 18.8202 252.869 18.8632 251.252 19.5177C249.635 20.1723 247.877 21.3873 245.977 23.1623C244.077 24.9372 242.181 27.1378 240.288 29.763C238.395 32.3882 236.649 35.238 235.051 38.3137L243.258 42.5782L251.465 46.8424Z" fill="url(#paint0_linear_2_1942)"/>
<path d="M280.737 32.0187C282.776 29.2157 284.548 26.3801 286.052 23.5143C287.556 20.6485 288.678 17.9705 289.418 15.4783C290.158 12.9861 290.461 10.8708 290.325 9.13156C290.188 7.39236 289.625 6.16173 288.633 5.44034C287.641 4.71893 286.296 4.56138 284.6 4.96759C282.903 5.37379 280.984 6.31316 278.841 7.78513C276.698 9.25711 274.495 11.1488 272.232 13.4625C269.969 15.7762 267.817 18.3356 265.778 21.1386L273.258 26.579L280.737 32.0187Z" fill="url(#paint1_linear_2_1942)"/>
<path d="M304.704 55.5123C307.225 53.1334 309.488 50.6747 311.495 48.1355C313.502 45.5964 315.099 43.1698 316.287 40.857C317.474 38.5441 318.161 36.5208 318.348 34.7864C318.535 33.0519 318.207 31.7398 317.365 30.8478C316.524 29.9558 315.232 29.5515 313.49 29.6378C311.747 29.7241 309.688 30.2933 307.31 31.3447C304.932 32.3961 302.417 33.8505 299.766 35.707C297.115 37.5635 294.529 39.6806 292.009 42.0595L298.357 48.7862L304.704 55.5123Z" fill="url(#paint2_linear_2_1942)"/>
<path d="M274.81 65.0773C276.986 62.3798 278.897 59.6381 280.543 56.8511C282.188 54.0642 283.444 51.4442 284.308 48.9922C285.172 46.5402 285.58 44.4426 285.531 42.6988C285.482 40.955 284.98 39.6992 284.025 38.929C283.071 38.1589 281.736 37.9327 280.022 38.2534C278.307 38.5742 276.343 39.4163 274.129 40.7792C271.915 42.142 269.619 43.9227 267.243 46.1201C264.867 48.3176 262.591 50.7645 260.415 53.462L267.613 59.27L274.81 65.0773Z" fill="url(#paint3_linear_2_1942)"/>
<path d="M293.716 85.497C296.243 83.1242 298.512 80.671 300.525 78.1366C302.538 75.6023 304.141 73.1796 305.334 70.8696C306.527 68.5595 307.219 66.5379 307.411 64.8039C307.602 63.0699 307.277 61.757 306.437 60.863C305.598 59.969 304.307 59.5616 302.564 59.6437C300.822 59.7258 298.761 60.2901 296.381 61.3358C294 62.3815 291.482 63.8298 288.826 65.68C286.171 67.5301 283.58 69.6411 281.054 72.0139L287.385 78.7558L293.716 85.497Z" fill="url(#paint4_linear_2_1942)"/>
<defs>
<linearGradient id="paint0_linear_2_1942" x1="255.309" y1="19.3855" x2="243.258" y2="42.578" gradientUnits="userSpaceOnUse">
<stop stop-color="#769BFF"/>
<stop offset="0.495097" stop-color="#769BFF" stop-opacity="0"/>
<stop offset="1" stop-color="#769BFF" stop-opacity="0"/>
</linearGradient>
<linearGradient id="paint1_linear_2_1942" x1="288.633" y1="5.44005" x2="273.258" y2="26.5787" gradientUnits="userSpaceOnUse">
<stop stop-color="#769BFF"/>
<stop offset="0.495097" stop-color="#769BFF" stop-opacity="0"/>
<stop offset="1" stop-color="#769BFF" stop-opacity="0"/>
</linearGradient>
<linearGradient id="paint2_linear_2_1942" x1="317.365" y1="30.8475" x2="298.356" y2="48.7859" gradientUnits="userSpaceOnUse">
<stop stop-color="#769BFF"/>
<stop offset="0.495097" stop-color="#769BFF" stop-opacity="0"/>
<stop offset="1" stop-color="#769BFF" stop-opacity="0"/>
</linearGradient>
<linearGradient id="paint3_linear_2_1942" x1="284.025" y1="38.9287" x2="267.612" y2="59.2697" gradientUnits="userSpaceOnUse">
<stop stop-color="#769BFF"/>
<stop offset="0.495097" stop-color="#769BFF" stop-opacity="0"/>
<stop offset="1" stop-color="#769BFF" stop-opacity="0"/>
</linearGradient>
<linearGradient id="paint4_linear_2_1942" x1="306.437" y1="60.8627" x2="287.385" y2="78.7555" gradientUnits="userSpaceOnUse">
<stop stop-color="#769BFF"/>
<stop offset="0.495097" stop-color="#769BFF" stop-opacity="0"/>
<stop offset="1" stop-color="#769BFF" stop-opacity="0"/>
</linearGradient>
</defs>
</svg>
