<svg width="324" height="369" viewBox="0 0 324 369" fill="none" xmlns="http://www.w3.org/2000/svg">
<path fill-rule="evenodd" clip-rule="evenodd" d="M99.0209 361.913L81.9135 355.493L80.1562 360.174L101.978 368.364L140.248 264.132L135.554 262.409L99.0209 361.913Z" fill="#A8A8A8"/>
<path fill-rule="evenodd" clip-rule="evenodd" d="M280.332 340.457L262.086 363.557L266.009 366.657L287.355 339.633L214.769 282.297L211.669 286.22L280.332 340.457Z" fill="#A8A8A8"/>
<path d="M298.246 154.48C295.704 152.346 295.705 152.345 292.619 152.628C293.321 151.277 294.023 149.927 294.746 148.535C299.882 137.324 299.838 126.73 296.039 115.121C291.391 103.047 284.66 96.0372 273.391 90.18C267.28 87.9403 262.123 86.7285 255.641 87.1331C255.603 86.2849 255.565 85.4367 255.526 84.5628C254.598 71.7034 251.075 63.5249 241.866 54.6712C231.246 45.6649 222.75 43.6646 209.098 43.9202C201.736 44.716 195.62 47.1003 189.078 50.5774C188.446 49.1666 188.446 49.167 187.801 47.7278C184.428 41.2223 178.101 37.3015 171.535 34.6555C159.778 31.5625 149.373 33.1642 138.891 39.2376C135.064 41.989 132.392 44.99 129.91 49.0549C129.138 48.725 128.367 48.3948 127.571 48.0549C115.797 43.4684 104.691 42.4927 92.6546 46.7698C81.9456 51.7836 74.6542 59.4568 70.0062 70.5686C68.0702 76.2347 67.1684 81.0794 67.7874 87.1331C66.4424 87.1389 66.4417 87.1387 65.0706 87.1448C51.9756 87.7671 41.9775 93.0542 33.1195 103.032C24.2735 114.953 23.603 125.63 24.891 140.444C25.989 144.908 27.3845 148.457 29.3285 152.628C28.2915 152.911 27.2549 153.195 26.1859 153.486C18.6409 157.371 14.4915 163.827 10.2835 171.193C6.94553 182.841 6.97327 194.782 12.3363 205.767C16.5483 211.925 22.1289 216.55 27.8499 221.17C27.132 223.108 27.1308 223.108 26.3988 225.085C23.1858 236.214 22.9034 250.336 27.7054 261.075C33.8654 271.482 41.7935 279.34 52.9945 283.619C57.9345 284.571 62.7664 285.025 67.7874 285.143C67.7905 286.066 67.7952 286.989 67.7992 287.94C68.3532 300.307 72.3052 309.824 81.0472 318.486C92.4642 327.783 103.824 329.021 118.078 327.791C122.377 326.649 125.874 325.177 129.91 323.221C130.538 323.938 131.167 324.655 131.813 325.394C140.652 335.055 147.271 338.63 160.143 339.119C174.104 338.74 182.103 332.81 192.035 323.221C193.408 323.944 194.782 324.666 196.196 325.411C207.005 330.101 218.69 330.664 229.772 326.678C239.844 321.386 248.767 312.78 253.266 301.992C254.845 296.455 255.382 290.892 255.641 285.143C257.075 285.269 258.507 285.395 259.985 285.524C270.44 285.481 279.794 279.732 287.338 272.613C295.562 263.05 298.977 252.552 298.883 239.859C298.234 233.385 296.147 227.3 294.098 221.17C294.866 220.687 295.636 220.204 296.428 219.706C305.2 213.662 310.289 207.299 313.328 196.8C315.746 178.648 311.855 166.14 298.246 154.48Z" fill="#A8A8A8"/>
<path d="M290.246 147.48C287.704 145.346 287.705 145.345 284.619 145.628C285.321 144.277 286.023 142.927 286.746 141.535C291.882 130.324 291.838 119.73 288.039 108.121C283.391 96.0471 276.66 89.0372 265.391 83.18C259.28 80.9403 254.123 79.7285 247.641 80.1331C247.603 79.2849 247.565 78.4367 247.526 77.5628C246.598 64.7034 243.075 56.5249 233.866 47.6712C223.246 38.6649 214.75 36.6646 201.098 36.9202C193.736 37.716 187.62 40.1003 181.078 43.5774C180.446 42.1666 180.446 42.167 179.801 40.7278C176.428 34.2223 170.101 30.3015 163.535 27.6555C151.778 24.5625 141.373 26.1642 130.891 32.2376C127.064 34.989 124.392 37.99 121.91 42.0549C121.138 41.725 120.367 41.3948 119.571 41.0549C107.797 36.4684 96.6906 35.4927 84.6546 39.7698C73.9456 44.7836 66.6542 52.4568 62.0062 63.5686C60.0702 69.2347 59.1684 74.0794 59.7874 80.1331C58.4424 80.1389 58.4417 80.1387 57.0706 80.1448C43.9756 80.7671 33.9775 86.0542 25.1195 96.0315C16.2735 107.953 15.603 118.63 16.891 133.444C17.989 137.908 19.3845 141.457 21.3285 145.628C20.2915 145.911 19.2549 146.195 18.1859 146.486C10.6409 150.371 6.49155 156.827 2.28354 164.193C-1.05447 175.841 -1.02673 187.782 4.33627 198.767C8.54828 204.925 14.1289 209.55 19.8499 214.17C19.132 216.108 19.1308 216.108 18.3988 218.085C15.1858 229.214 14.9034 243.336 19.7054 254.075C25.8654 264.482 33.7935 272.34 44.9945 276.619C49.9345 277.571 54.7664 278.025 59.7874 278.143C59.7905 279.066 59.7952 279.989 59.7992 280.94C60.3532 293.307 64.3052 302.824 73.0472 311.486C84.4642 320.783 95.8245 322.021 110.078 320.791C114.377 319.649 117.874 318.177 121.91 316.221C122.538 316.938 123.167 317.655 123.813 318.394C132.652 328.055 139.271 331.63 152.143 332.119C166.104 331.74 174.103 325.81 184.035 316.221C185.408 316.944 186.782 317.666 188.196 318.411C199.005 323.101 210.69 323.664 221.772 319.678C231.844 314.386 240.767 305.78 245.266 294.992C246.845 289.455 247.382 283.892 247.641 278.143C249.075 278.269 250.507 278.395 251.985 278.524C262.44 278.481 271.794 272.732 279.338 265.613C287.562 256.05 290.977 245.552 290.883 232.859C290.234 226.385 288.147 220.3 286.098 214.17C286.866 213.687 287.636 213.204 288.428 212.706C297.2 206.662 302.289 200.299 305.328 189.8C307.746 171.648 303.855 159.14 290.246 147.48Z" fill="#D4D4D4"/>
<path d="M84.001 243.119C86.7624 243.119 89.001 240.881 89.001 238.119C89.001 235.358 86.7624 233.119 84.001 233.119C81.2396 233.119 79.001 235.358 79.001 238.119C79.001 240.881 81.2396 243.119 84.001 243.119Z" fill="white"/>
<path d="M158.001 243.119C160.762 243.119 163.001 240.881 163.001 238.119C163.001 235.358 160.762 233.119 158.001 233.119C155.24 233.119 153.001 235.358 153.001 238.119C153.001 240.881 155.24 243.119 158.001 243.119Z" fill="white"/>
<path d="M232.001 243.119C234.762 243.119 237.001 240.881 237.001 238.119C237.001 235.358 234.762 233.119 232.001 233.119C229.24 233.119 227.001 235.358 227.001 238.119C227.001 240.881 229.24 243.119 232.001 243.119Z" fill="white"/>
<path d="M125.001 284.119C127.762 284.119 130.001 281.881 130.001 279.119C130.001 276.358 127.762 274.119 125.001 274.119C122.24 274.119 120.001 276.358 120.001 279.119C120.001 281.881 122.24 284.119 125.001 284.119Z" fill="white"/>
<path d="M196.001 284.119C198.762 284.119 201.001 281.881 201.001 279.119C201.001 276.358 198.762 274.119 196.001 274.119C193.24 274.119 191.001 276.358 191.001 279.119C191.001 281.881 193.24 284.119 196.001 284.119Z" fill="white"/>
<path d="M58.4885 213.092C80.8492 213.644 99.4737 193.951 100.088 169.106C100.701 144.261 83.072 123.672 60.7113 123.119C38.3506 122.567 19.726 142.26 19.1122 167.105C18.4984 191.951 36.1278 212.54 58.4885 213.092Z" fill="white"/>
<path d="M148.466 214.819C170.827 215.371 189.451 195.678 190.065 170.832C190.679 145.987 173.05 125.398 150.689 124.846C128.328 124.294 109.704 143.987 109.09 168.832C108.476 193.677 126.105 214.266 148.466 214.819Z" fill="white"/>
<path d="M49.5843 188.863C62.2829 189.177 72.8537 178.242 73.1947 164.439C73.5357 150.636 63.5178 139.192 50.8192 138.879C38.1205 138.565 27.5497 149.5 27.2087 163.303C26.8677 177.106 36.8856 188.55 49.5843 188.863Z" fill="#A8A8A8"/>
<path d="M140.562 190.617C153.26 190.931 163.831 179.996 164.172 166.193C164.513 152.39 154.495 140.946 141.797 140.633C129.098 140.319 118.527 151.254 118.186 165.057C117.845 178.86 127.863 190.304 140.562 190.617Z" fill="#A8A8A8"/>
<path d="M251.466 46.8422C253.064 43.7665 254.395 40.699 255.455 37.641C256.515 34.583 257.224 31.7678 257.585 29.1931C257.945 26.6183 257.928 24.4811 257.534 22.7816C257.141 21.0821 256.4 19.9492 255.312 19.3837C254.223 18.8182 252.871 18.8634 251.254 19.518C249.637 20.1725 247.878 21.3871 245.978 23.162C244.079 24.937 242.183 27.1359 240.29 29.7611C238.397 32.3862 236.65 35.2378 235.052 38.3134L243.259 42.578L251.466 46.8422Z" fill="url(#paint0_linear_584_1047)"/>
<path d="M280.739 32.0171C282.778 29.2141 284.55 26.3807 286.054 23.5149C287.558 20.6491 288.68 17.9695 289.421 15.4773C290.161 12.9851 290.463 10.8692 290.327 9.12998C290.191 7.39078 289.626 6.16173 288.634 5.44034C287.642 4.71893 286.299 4.56037 284.602 4.96658C282.906 5.37279 280.986 6.31158 278.843 7.78356C276.7 9.25553 274.496 11.1488 272.233 13.4625C269.97 15.7762 267.819 18.334 265.781 21.137L273.26 26.5774L280.739 32.0171Z" fill="url(#paint1_linear_584_1047)"/>
<path d="M304.706 55.5124C307.227 53.1335 309.492 50.6735 311.498 48.1343C313.505 45.5951 315.101 43.1699 316.289 40.8571C317.476 38.5442 318.163 36.5202 318.35 34.7857C318.537 33.0513 318.21 31.7378 317.368 30.8459C316.527 29.9539 315.234 29.5516 313.492 29.6379C311.75 29.7242 309.689 30.2927 307.311 31.3441C304.934 32.3955 302.42 33.8485 299.769 35.705C297.118 37.5615 294.531 39.68 292.01 42.0589L298.358 48.7856L304.706 55.5124Z" fill="url(#paint2_linear_584_1047)"/>
<path d="M274.81 65.0769C276.986 62.3794 278.898 59.6361 280.544 56.8492C282.189 54.0623 283.443 51.4438 284.307 48.9918C285.172 46.5397 285.58 44.4422 285.531 42.6984C285.482 40.9545 284.98 39.6966 284.025 38.9265C283.071 38.1563 281.736 37.9322 280.021 38.253C278.307 38.5738 276.343 39.4159 274.129 40.7787C271.915 42.1416 269.62 43.9207 267.244 46.1182C264.868 48.3157 262.591 50.7641 260.414 53.4616L267.612 59.2689L274.81 65.0769Z" fill="url(#paint3_linear_584_1047)"/>
<path d="M293.717 85.4971C296.243 83.1243 298.514 80.6698 300.527 78.1354C302.54 75.601 304.142 73.1797 305.335 70.8697C306.527 68.5596 307.219 66.5373 307.41 64.8033C307.601 63.0693 307.278 61.7551 306.438 60.8611C305.599 59.9671 304.307 59.5617 302.565 59.6438C300.822 59.7259 298.76 60.2895 296.38 61.3352C294 62.3809 291.483 63.8279 288.827 65.678C286.172 67.5281 283.58 69.6404 281.053 72.0133L287.385 78.7552L293.717 85.4971Z" fill="url(#paint4_linear_584_1047)"/>
<defs>
<linearGradient id="paint0_linear_584_1047" x1="255.311" y1="19.3835" x2="243.259" y2="42.5778" gradientUnits="userSpaceOnUse">
<stop stop-color="#D9D9D9"/>
<stop offset="1" stop-color="white" stop-opacity="0"/>
</linearGradient>
<linearGradient id="paint1_linear_584_1047" x1="288.634" y1="5.44005" x2="273.26" y2="26.5771" gradientUnits="userSpaceOnUse">
<stop stop-color="#D9D9D9"/>
<stop offset="1" stop-color="white" stop-opacity="0"/>
</linearGradient>
<linearGradient id="paint2_linear_584_1047" x1="317.368" y1="30.8459" x2="298.358" y2="48.7856" gradientUnits="userSpaceOnUse">
<stop stop-color="#D9D9D9"/>
<stop offset="1" stop-color="white" stop-opacity="0"/>
</linearGradient>
<linearGradient id="paint3_linear_584_1047" x1="284.026" y1="38.9268" x2="267.612" y2="59.2692" gradientUnits="userSpaceOnUse">
<stop stop-color="#D9D9D9"/>
<stop offset="1" stop-color="white" stop-opacity="0"/>
</linearGradient>
<linearGradient id="paint4_linear_584_1047" x1="306.438" y1="60.8611" x2="287.385" y2="78.7552" gradientUnits="userSpaceOnUse">
<stop stop-color="#D9D9D9"/>
<stop offset="1" stop-color="white" stop-opacity="0"/>
</linearGradient>
</defs>
</svg>
