<svg width="12" height="7" viewBox="0 0 12 7" fill="none" xmlns="http://www.w3.org/2000/svg">
<path d="M5.99883 2.80156L2.09883 6.70156C1.91549 6.8849 1.68216 6.97656 1.39883 6.97656C1.11549 6.97656 0.882161 6.8849 0.698828 6.70156C0.515495 6.51823 0.423828 6.2849 0.423828 6.00156C0.423828 5.71823 0.515495 5.4849 0.698828 5.30156L5.29883 0.701562C5.39883 0.601562 5.50716 0.530729 5.62383 0.489062C5.7405 0.447396 5.8655 0.426562 5.99883 0.426562C6.13216 0.426562 6.25716 0.447396 6.37383 0.489062C6.4905 0.530729 6.59883 0.601562 6.69883 0.701562L11.2988 5.30156C11.4822 5.4849 11.5738 5.71823 11.5738 6.00156C11.5738 6.2849 11.4822 6.51823 11.2988 6.70156C11.1155 6.8849 10.8822 6.97656 10.5988 6.97656C10.3155 6.97656 10.0822 6.8849 9.89883 6.70156L5.99883 2.80156Z" fill="#3D3D3D"/>
</svg>
