<svg width="24" height="24" viewBox="0 0 24 24" fill="none" xmlns="http://www.w3.org/2000/svg">
<mask id="mask0_981_1041" style="mask-type:alpha" maskUnits="userSpaceOnUse" x="0" y="0" width="24" height="24">
<rect width="24" height="24" fill="#D9D9D9"/>
</mask>
<g mask="url(#mask0_981_1041)">
<path d="M10.7313 12.0051L15.63 17.5339C15.8767 17.8123 16 18.1504 16 18.5482C16 18.9459 15.8708 19.2907 15.6123 19.5824C15.3656 19.8608 15.0661 20 14.7137 20C14.3612 20 14.0617 19.8608 13.815 19.5824L8.65198 13.7751C8.42878 13.5232 8.26432 13.2448 8.15859 12.9398C8.05286 12.6349 8 12.3233 8 12.0051C8 11.6869 8.05286 11.3753 8.15859 11.0704C8.26432 10.7654 8.42878 10.487 8.65198 10.2351L13.815 4.42781C14.0617 4.14938 14.3612 4.00685 14.7137 4.00022C15.0661 3.99359 15.3715 4.13612 15.63 4.42781C15.8767 4.70624 16 5.04765 16 5.45203C16 5.85642 15.8767 6.19783 15.63 6.47626L10.7313 12.0051Z" fill="white"/>
</g>
</svg>
