<svg width="24" height="24" viewBox="0 0 24 24" fill="none" xmlns="http://www.w3.org/2000/svg">
<mask id="mask0_981_1046" style="mask-type:alpha" maskUnits="userSpaceOnUse" x="0" y="0" width="24" height="24">
<rect x="24" y="24" width="24" height="24" transform="rotate(-180 24 24)" fill="#D9D9D9"/>
</mask>
<g mask="url(#mask0_981_1046)">
<path d="M13.2687 11.9949L8.37004 6.46609C8.12335 6.18766 8 5.84957 8 5.45181C8 5.05406 8.12922 4.70933 8.38767 4.41765C8.63436 4.13922 8.93392 4 9.28634 4C9.63877 4 9.93833 4.13922 10.185 4.41765L15.348 10.2249C15.5712 10.4768 15.7357 10.7552 15.8414 11.0602C15.9471 11.3651 16 11.6767 16 11.9949C16 12.3131 15.9471 12.6247 15.8414 12.9296C15.7357 13.2346 15.5712 13.513 15.348 13.7649L10.185 19.5722C9.93833 19.8506 9.63877 19.9931 9.28634 19.9998C8.93392 20.0064 8.62849 19.8639 8.37004 19.5722C8.12335 19.2938 8 18.9524 8 18.548C8 18.1436 8.12335 17.8022 8.37004 17.5237L13.2687 11.9949Z" fill="#769BFF"/>
</g>
</svg>
