<svg width="12" height="7" viewBox="0 0 12 7" fill="none" xmlns="http://www.w3.org/2000/svg">
<path d="M5.99922 4.60078L9.89922 0.700781C10.0826 0.517448 10.3159 0.425781 10.5992 0.425781C10.8826 0.425781 11.1159 0.517448 11.2992 0.700781C11.4826 0.884115 11.5742 1.11745 11.5742 1.40078C11.5742 1.68411 11.4826 1.91745 11.2992 2.10078L6.69922 6.70078C6.59922 6.80078 6.49089 6.87161 6.37422 6.91328C6.25755 6.95495 6.13255 6.97578 5.99922 6.97578C5.86589 6.97578 5.74089 6.95495 5.62422 6.91328C5.50755 6.87161 5.39922 6.80078 5.29922 6.70078L0.699219 2.10078C0.515885 1.91745 0.424218 1.68411 0.424218 1.40078C0.424218 1.11745 0.515885 0.884115 0.699219 0.700781C0.882552 0.517448 1.11588 0.425781 1.39922 0.425781C1.68255 0.425781 1.91588 0.517448 2.09922 0.700781L5.99922 4.60078Z" fill="#3D3D3D"/>
</svg>
