<svg width="47" height="58" viewBox="0 0 47 58" fill="none" xmlns="http://www.w3.org/2000/svg">
<path d="M23.3333 50.7031L9.33333 56.7031C7.11111 57.6476 5 57.467 3 56.1615C1 54.8559 0 53.0087 0 50.6198V7.36979C0 5.53646 0.652778 3.96701 1.95833 2.66146C3.26389 1.3559 4.83333 0.703125 6.66667 0.703125H40C41.8333 0.703125 43.4028 1.3559 44.7083 2.66146C46.0139 3.96701 46.6667 5.53646 46.6667 7.36979V50.6198C46.6667 53.0087 45.6667 54.8559 43.6667 56.1615C41.6667 57.467 39.5556 57.6476 37.3333 56.7031L23.3333 50.7031ZM23.3333 43.3698L40 50.5365V7.36979H6.66667V50.5365L23.3333 43.3698Z" fill="#B7CAFF"/>
</svg>
