<svg width="75" height="76" viewBox="0 0 75 76" fill="none" xmlns="http://www.w3.org/2000/svg">
<mask id="mask0_1307_1092" style="mask-type:alpha" maskUnits="userSpaceOnUse" x="0" y="0" width="75" height="76">
<rect y="0.5" width="75" height="75" fill="#D9D9D9"/>
</mask>
<g mask="url(#mask0_1307_1092)">
<path d="M37.5 54.6406C41.25 54.6406 44.401 53.3646 46.9531 50.8125C49.5052 48.2604 50.7812 45.1094 50.7812 41.3594C50.7812 37.5573 49.5052 34.3932 46.9531 31.8672C44.401 29.3411 41.25 28.0781 37.5 28.0781C33.6979 28.0781 30.5339 29.3411 28.0078 31.8672C25.4818 34.3932 24.2188 37.5573 24.2188 41.3594C24.2188 45.1094 25.4818 48.2604 28.0078 50.8125C30.5339 53.3646 33.6979 54.6406 37.5 54.6406ZM37.5 49.9531C35 49.9531 32.9427 49.1328 31.3281 47.4922C29.7135 45.8516 28.9062 43.8073 28.9062 41.3594C28.9062 38.8594 29.7135 36.8021 31.3281 35.1875C32.9427 33.5729 35 32.7656 37.5 32.7656C39.9479 32.7656 41.9922 33.5729 43.6328 35.1875C45.2734 36.8021 46.0938 38.8594 46.0938 41.3594C46.0938 43.8073 45.2734 45.8516 43.6328 47.4922C41.9922 49.1328 39.9479 49.9531 37.5 49.9531ZM10.9375 66.125C9.6875 66.125 8.59375 65.6563 7.65625 64.7188C6.71875 63.7813 6.25 62.6875 6.25 61.4375V21.3594C6.25 20.1615 6.71875 19.0807 7.65625 18.1172C8.59375 17.1536 9.6875 16.6719 10.9375 16.6719H22.4219L26.7188 11.5156C27.1354 10.9427 27.6563 10.526 28.2813 10.2656C28.9063 10.0052 29.5833 9.875 30.3125 9.875H44.6875C45.4167 9.875 46.0937 10.0052 46.7187 10.2656C47.3437 10.526 47.8646 10.9427 48.2812 11.5156L52.5781 16.6719H64.0625C65.2604 16.6719 66.3411 17.1536 67.3047 18.1172C68.2682 19.0807 68.75 20.1615 68.75 21.3594V61.4375C68.75 62.6875 68.2682 63.7813 67.3047 64.7188C66.3411 65.6563 65.2604 66.125 64.0625 66.125H10.9375Z" fill="#769BFF"/>
</g>
</svg>
