<svg width="50" height="51" viewBox="0 0 50 51" fill="none" xmlns="http://www.w3.org/2000/svg">
<mask id="mask0_273_1091" style="mask-type:alpha" maskUnits="userSpaceOnUse" x="0" y="0" width="50" height="51">
<rect y="0.382812" width="50" height="50" fill="#D9D9D9"/>
</mask>
<g mask="url(#mask0_273_1091)">
<path d="M27.0827 24.5488V17.0488C27.0827 16.4586 26.883 15.9638 26.4837 15.5645C26.0844 15.1651 25.5896 14.9655 24.9994 14.9655C24.4091 14.9655 23.9143 15.1651 23.515 15.5645C23.1157 15.9638 22.916 16.4586 22.916 17.0488V25.3301C22.916 25.6079 22.9681 25.877 23.0723 26.1374C23.1764 26.3978 23.3327 26.6322 23.541 26.8405L30.416 33.7155C30.798 34.0974 31.2841 34.2884 31.8744 34.2884C32.4646 34.2884 32.9507 34.0974 33.3327 33.7155C33.7146 33.3336 33.9056 32.8474 33.9056 32.2572C33.9056 31.6669 33.7146 31.1808 33.3327 30.7988L27.0827 24.5488ZM24.9994 46.2155C22.1174 46.2155 19.4091 45.6686 16.8743 44.5749C14.3396 43.4811 12.1348 41.9967 10.2598 40.1217C8.38477 38.2467 6.90039 36.0419 5.80664 33.5072C4.71289 30.9724 4.16602 28.2641 4.16602 25.3822C4.16602 22.5002 4.71289 19.7919 5.80664 17.2572C6.90039 14.7224 8.38477 12.5176 10.2598 10.6426C12.1348 8.76758 14.3396 7.2832 16.8743 6.18945C19.4091 5.0957 22.1174 4.54883 24.9994 4.54883C27.8813 4.54883 30.5896 5.0957 33.1244 6.18945C35.6591 7.2832 37.8639 8.76758 39.7389 10.6426C41.6139 12.5176 43.0983 14.7224 44.1921 17.2572C45.2858 19.7919 45.8327 22.5002 45.8327 25.3822C45.8327 28.2641 45.2858 30.9724 44.1921 33.5072C43.0983 36.0419 41.6139 38.2467 39.7389 40.1217C37.8639 41.9967 35.6591 43.4811 33.1244 44.5749C30.5896 45.6686 27.8813 46.2155 24.9994 46.2155Z" fill="#B7CAFF"/>
</g>
</svg>
