<svg width="80" height="80" viewBox="0 0 80 80" fill="none" xmlns="http://www.w3.org/2000/svg">
<mask id="mask0_93_3320" style="mask-type:alpha" maskUnits="userSpaceOnUse" x="0" y="0" width="80" height="80">
<rect width="80" height="80" fill="#D9D9D9"/>
</mask>
<g mask="url(#mask0_93_3320)">
<path d="M59.1673 68.3337C55.6673 68.3337 52.709 67.1253 50.2923 64.7087C47.8757 62.292 46.6673 59.3337 46.6673 55.8337C46.6673 52.3337 47.8757 49.3753 50.2923 46.9587C52.709 44.542 55.6673 43.3337 59.1673 43.3337C62.6673 43.3337 65.6257 44.542 68.0423 46.9587C70.459 49.3753 71.6673 52.3337 71.6673 55.8337C71.6673 59.3337 70.459 62.292 68.0423 64.7087C65.6257 67.1253 62.6673 68.3337 59.1673 68.3337ZM10.0007 58.3337V53.3337H40.0007V58.3337H10.0007ZM20.834 36.667C17.334 36.667 14.3757 35.4587 11.959 33.042C9.54232 30.6253 8.33398 27.667 8.33398 24.167C8.33398 20.667 9.54232 17.7087 11.959 15.292C14.3757 12.8753 17.334 11.667 20.834 11.667C24.334 11.667 27.2923 12.8753 29.709 15.292C32.1257 17.7087 33.334 20.667 33.334 24.167C33.334 27.667 32.1257 30.6253 29.709 33.042C27.2923 35.4587 24.334 36.667 20.834 36.667ZM40.0007 26.667V21.667H70.0006V26.667H40.0007Z" fill="#769BFF"/>
</g>
</svg>
