<svg width="700" height="476" viewBox="0 0 700 476" fill="none" xmlns="http://www.w3.org/2000/svg">
<g filter="url(#filter0_bd_119_3875)">
<rect width="660" height="415.89" rx="16" fill="white" fill-opacity="0.3" shape-rendering="crispEdges"/>
<rect x="0.5" y="0.5" width="659" height="414.89" rx="15.5" stroke="url(#paint0_linear_119_3875)" shape-rendering="crispEdges"/>
</g>
<path opacity="0.6" d="M60.5584 62.9004C60.3258 62.6912 60.3259 62.6911 60.0435 62.7189C60.1077 62.5864 60.172 62.454 60.2381 62.3175C60.708 61.2182 60.7041 60.1793 60.3565 59.041C59.9311 57.857 59.3152 57.1696 58.2841 56.5953C57.7249 56.3757 57.253 56.2568 56.6599 56.2965C56.6564 56.2133 56.6529 56.1302 56.6493 56.0445C56.5644 54.7835 56.2421 53.9815 55.3994 53.1134C54.4277 52.2302 53.6502 52.0341 52.401 52.0591C51.7274 52.1372 51.1678 52.371 50.5692 52.7119C50.5114 52.5736 50.5113 52.5736 50.4523 52.4325C50.1437 51.7946 49.5648 51.4101 48.964 51.1507C47.8882 50.8474 46.936 51.0044 45.9769 51.6C45.6267 51.8698 45.3822 52.164 45.1551 52.5626C45.0845 52.5303 45.0139 52.4979 44.941 52.4646C43.8637 52.0148 42.8474 51.9192 41.7461 52.3386C40.7662 52.8302 40.099 53.5826 39.6737 54.6722C39.4966 55.2278 39.414 55.7029 39.4707 56.2965C39.3476 56.2971 39.3475 56.2971 39.2221 56.2977C38.0238 56.3587 37.109 56.8771 36.2984 57.8555C35.489 59.0245 35.4277 60.0714 35.5455 61.5241C35.646 61.9618 35.7737 62.3099 35.9516 62.7189C35.8567 62.7466 35.7618 62.7744 35.664 62.8029C34.9736 63.1839 34.5939 63.817 34.2089 64.5393C33.9035 65.6814 33.906 66.8524 34.3967 67.9295C34.7821 68.5334 35.2928 68.9869 35.8163 69.44C35.7506 69.63 35.7505 69.63 35.6835 69.8239C35.3895 70.9152 35.3636 72.3 35.803 73.353C36.3667 74.3735 37.0921 75.144 38.1171 75.5636C38.5691 75.657 39.0112 75.7014 39.4707 75.713C39.471 75.8035 39.4714 75.894 39.4717 75.9873C39.5224 77.2 39.8841 78.1332 40.684 78.9826C41.7287 79.8942 42.7682 80.0157 44.0725 79.8951C44.4658 79.7831 44.7858 79.6387 45.1551 79.4469C45.2126 79.5172 45.2701 79.5875 45.3292 79.66C46.138 80.6073 46.7437 80.9579 47.9215 81.0059C49.199 80.9687 49.931 80.3872 50.8398 79.4469C50.9654 79.5178 51.0911 79.5886 51.2204 79.6617C52.2095 80.1216 53.2787 80.1767 54.2928 79.7859C55.2144 79.267 56.0309 78.4231 56.4426 77.3653C56.587 76.8223 56.6362 76.2768 56.6599 75.713C56.7911 75.7254 56.9222 75.7377 57.0573 75.7504C58.0141 75.7461 58.8699 75.1824 59.5603 74.4843C60.3127 73.5466 60.6253 72.5172 60.6167 71.2725C60.5573 70.6377 60.3663 70.0411 60.1788 69.44C60.2491 69.3926 60.3196 69.3453 60.392 69.2964C61.1947 68.7038 61.6604 68.0798 61.9385 67.0503C62.1597 65.2703 61.8037 64.0438 60.5584 62.9004Z" fill="white"/>
<path opacity="0.8" d="M67.6416 79L76.3574 54.2539H81.8262L90.5762 79H85.8252L83.7573 72.8818H74.4434L72.3926 79H67.6416ZM82.561 69.293L79.1943 59.3125H78.9893L75.6396 69.293H82.561ZM96.9855 79H92.6105V54.2539H96.9855V79ZM104.83 79H100.455V54.2539H104.83V79ZM108.505 54.2539H124.604V57.9795H112.949V64.7471H123.75V68.4727H112.949V75.2402H124.672V79H108.505V54.2539ZM127.117 73.7705C127.117 71.8678 127.761 70.4893 129.048 69.6348C130.347 68.7803 132.005 68.2904 134.021 68.165C135.058 68.0853 136.647 67.9998 138.789 67.9087L138.772 66.4219C138.772 65.499 138.482 64.7869 137.901 64.2856C137.331 63.7729 136.505 63.5166 135.423 63.5166C134.477 63.5166 133.702 63.716 133.098 64.1147C132.495 64.5135 132.107 65.0547 131.936 65.7383H127.732C127.835 64.6787 128.211 63.7331 128.86 62.9014C129.51 62.0583 130.404 61.3975 131.543 60.9189C132.683 60.4404 134.01 60.2012 135.525 60.2012C136.824 60.2012 138.043 60.4062 139.182 60.8164C140.333 61.2152 141.273 61.8931 142.002 62.8501C142.743 63.7957 143.113 65.0433 143.113 66.5928V79H138.943V76.4365H138.806C138.351 77.3024 137.667 78.0088 136.756 78.5557C135.844 79.1025 134.705 79.376 133.338 79.376C132.141 79.376 131.07 79.1595 130.125 78.7266C129.191 78.2936 128.456 77.6613 127.92 76.8296C127.385 75.9865 127.117 74.9668 127.117 73.7705ZM131.321 73.7363C131.321 74.5111 131.606 75.1092 132.176 75.5308C132.757 75.9523 133.52 76.1631 134.466 76.1631C135.32 76.1631 136.078 75.9922 136.739 75.6504C137.399 75.3086 137.906 74.8472 138.26 74.2661C138.624 73.6737 138.806 73.0299 138.806 72.335L138.789 70.814C138.22 70.8368 137.542 70.8766 136.756 70.9336C135.981 70.9792 135.297 71.0247 134.705 71.0703C133.645 71.1615 132.814 71.4292 132.21 71.8735C131.617 72.3179 131.321 72.9388 131.321 73.7363ZM155.777 63.79H152.12V73.4287C152.12 74.2946 152.308 74.87 152.684 75.1548C153.071 75.4396 153.618 75.582 154.325 75.582C154.815 75.582 155.379 75.5592 156.017 75.5137V79.0684C155.31 79.1823 154.473 79.2393 153.504 79.2393C152.388 79.2393 151.397 79.0513 150.531 78.6753C149.665 78.2993 148.987 77.7297 148.497 76.9663C148.007 76.203 147.768 75.263 147.779 74.1465V63.79H145.113V60.4404H147.779V55.9971H152.12V60.4404H155.777V63.79Z" fill="white"/>
<path opacity="0.6" d="M47.7842 329.234C46.4248 329.234 45.2569 328.895 44.2803 328.215C43.3037 327.527 42.5577 326.531 42.042 325.227C41.5264 323.922 41.2686 322.352 41.2686 320.516C41.2686 318.688 41.5264 317.121 42.042 315.816C42.5655 314.504 43.3155 313.508 44.292 312.828C45.2686 312.141 46.4327 311.797 47.7842 311.797C49.1358 311.797 50.2998 312.141 51.2764 312.828C52.253 313.508 52.9991 314.504 53.5147 315.816C54.0381 317.121 54.2998 318.688 54.2998 320.516C54.2998 322.352 54.0381 323.926 53.5147 325.238C52.9991 326.543 52.253 327.535 51.2764 328.215C50.3077 328.895 49.1436 329.234 47.7842 329.234ZM44.3389 320.516C44.3389 322.523 44.6397 324.051 45.2412 325.098C45.8506 326.145 46.6983 326.672 47.7842 326.68C48.4952 326.672 49.1084 326.438 49.6241 325.977C50.1397 325.516 50.5342 324.824 50.8077 323.902C51.0889 322.98 51.2295 321.852 51.2295 320.516C51.2295 319.188 51.0889 318.062 50.8077 317.141C50.5342 316.211 50.1397 315.512 49.6241 315.043C49.1084 314.574 48.4952 314.336 47.7842 314.328C47.0733 314.336 46.46 314.574 45.9444 315.043C45.4287 315.512 45.0303 316.211 44.7491 317.141C44.4756 318.062 44.3389 319.188 44.3389 320.516ZM63.898 314.703V314.586H55.3667V312.031H67.062V314.633L59.7027 329H56.5386L63.898 314.703ZM70.5195 331.555H67.8945L73.3789 311.234H75.9805L70.5195 331.555ZM77.1645 326.797L83.1645 321.008C83.813 320.359 84.313 319.828 84.6645 319.414C85.0239 318.992 85.2973 318.578 85.4848 318.172C85.6723 317.758 85.7661 317.32 85.7661 316.859C85.7661 316.344 85.6372 315.891 85.3794 315.5C85.1294 315.109 84.7817 314.809 84.3364 314.598C83.8989 314.387 83.4067 314.281 82.8598 314.281C82.2817 314.281 81.7739 314.398 81.3364 314.633C80.9067 314.859 80.5747 315.184 80.3403 315.605C80.1138 316.027 80.0005 316.523 80.0005 317.094H77.0942C77.0942 316.039 77.3364 315.113 77.8208 314.316C78.313 313.512 78.9966 312.891 79.8716 312.453C80.7544 312.016 81.7583 311.797 82.8833 311.797C84.0239 311.797 85.0317 312.008 85.9067 312.43C86.7895 312.852 87.4731 313.438 87.9575 314.188C88.4497 314.93 88.6958 315.773 88.6958 316.719C88.688 317.375 88.5591 318.008 88.3091 318.617C88.0591 319.219 87.6294 319.891 87.02 320.633C86.4106 321.375 85.5473 322.273 84.4302 323.328L81.4067 326.328V326.445H88.9536V329H77.1645V326.797ZM97.3095 329.234C96.0673 329.234 94.9541 329.031 93.9697 328.625C92.9931 328.211 92.2314 327.641 91.6845 326.914C91.1377 326.188 90.8642 325.367 90.8642 324.453C90.8642 323.75 91.0205 323.094 91.333 322.484C91.6533 321.875 92.0908 321.371 92.6455 320.973C93.208 320.574 93.8252 320.32 94.497 320.211V320.117C93.9111 319.992 93.3916 319.75 92.9384 319.391C92.4853 319.031 92.1298 318.586 91.872 318.055C91.622 317.523 91.497 316.953 91.497 316.344C91.497 315.477 91.747 314.699 92.247 314.012C92.7548 313.316 93.4502 312.773 94.333 312.383C95.2158 311.992 96.208 311.797 97.3095 311.797C98.4033 311.797 99.3916 311.992 100.274 312.383C101.157 312.773 101.849 313.316 102.349 314.012C102.849 314.707 103.099 315.484 103.099 316.344C103.099 316.953 102.97 317.523 102.712 318.055C102.462 318.586 102.106 319.031 101.645 319.391C101.192 319.75 100.677 319.992 100.099 320.117V320.211C100.77 320.32 101.384 320.574 101.938 320.973C102.493 321.371 102.935 321.875 103.263 322.484C103.591 323.094 103.755 323.75 103.755 324.453C103.755 325.367 103.478 326.188 102.923 326.914C102.368 327.641 101.603 328.211 100.626 328.625C99.6494 329.031 98.5439 329.234 97.3095 329.234ZM94.0048 324.172C94.0048 324.695 94.1377 325.156 94.4033 325.555C94.6767 325.953 95.0634 326.266 95.5634 326.492C96.0634 326.711 96.6455 326.82 97.3095 326.82C97.9658 326.82 98.54 326.711 99.0322 326.492C99.5322 326.266 99.9189 325.953 100.192 325.555C100.474 325.156 100.614 324.695 100.614 324.172C100.614 323.648 100.47 323.176 100.181 322.754C99.8994 322.332 99.5048 322.004 98.997 321.77C98.497 321.527 97.9345 321.406 97.3095 321.406C96.6845 321.406 96.1181 321.523 95.6103 321.758C95.1025 321.992 94.708 322.32 94.4267 322.742C94.1455 323.164 94.0048 323.641 94.0048 324.172ZM94.4736 316.625C94.4736 317.117 94.5947 317.555 94.8369 317.938C95.0791 318.312 95.415 318.605 95.8447 318.816C96.2744 319.027 96.7627 319.133 97.3095 319.133C97.8486 319.133 98.3291 319.027 98.7509 318.816C99.1806 318.605 99.5166 318.312 99.7588 317.938C100.001 317.555 100.122 317.117 100.122 316.625C100.122 316.148 100.001 315.727 99.7588 315.359C99.5244 314.992 99.1923 314.707 98.7627 314.504C98.3408 314.293 97.8564 314.188 97.3095 314.188C96.747 314.188 96.2509 314.293 95.8213 314.504C95.3994 314.707 95.0673 314.992 94.8252 315.359C94.5908 315.727 94.4736 316.148 94.4736 316.625Z" fill="white"/>
<path opacity="0.8" d="M49.484 342.496C50.9879 342.496 52.3648 342.828 53.6148 343.492C54.8648 344.146 55.8805 345.24 56.6617 346.773C57.443 348.297 57.8336 350.289 57.8336 352.75C57.8336 355.162 57.4869 357.232 56.7936 358.961C56.1002 360.689 55.1139 362.013 53.8346 362.931C52.5553 363.839 51.0465 364.293 49.3082 364.293C47.9703 364.293 46.7691 364.034 45.7047 363.517C44.65 362.999 43.7955 362.281 43.1412 361.363C42.4869 360.445 42.0816 359.4 41.9254 358.229H45.7047C45.9 359.078 46.3102 359.752 46.9352 360.25C47.5699 360.738 48.3609 360.982 49.3082 360.982C50.3238 360.982 51.193 360.694 51.9156 360.118C52.6383 359.542 53.1852 358.712 53.5563 357.628C53.9371 356.534 54.1324 355.23 54.1422 353.717H53.9078C53.3707 354.635 52.6188 355.357 51.652 355.885C50.6852 356.402 49.6207 356.656 48.4586 356.646C47.2086 356.646 46.0709 356.354 45.0455 355.768C44.0201 355.182 43.2096 354.366 42.6139 353.321C42.0182 352.267 41.7203 351.08 41.7203 349.762C41.7203 348.395 42.0426 347.159 42.6871 346.056C43.3414 344.942 44.2545 344.073 45.4264 343.448C46.608 342.813 47.9605 342.496 49.484 342.496ZM45.441 349.615C45.441 350.377 45.6119 351.075 45.9537 351.71C46.3053 352.335 46.7887 352.833 47.4039 353.204C48.0289 353.565 48.732 353.746 49.5133 353.746C50.275 353.746 50.9732 353.561 51.608 353.189C52.2525 352.818 52.7555 352.32 53.1168 351.695C53.4879 351.07 53.6734 350.396 53.6734 349.674C53.6734 348.961 53.4928 348.292 53.1314 347.667C52.7799 347.032 52.2916 346.524 51.6666 346.144C51.0416 345.763 50.3434 345.572 49.5719 345.572C48.7906 345.572 48.0875 345.753 47.4625 346.114C46.8375 346.476 46.3443 346.964 45.983 347.579C45.6217 348.194 45.441 348.873 45.441 349.615ZM68.1027 364.293C66.55 364.293 65.1584 364.039 63.9279 363.531C62.7072 363.014 61.7551 362.301 61.0715 361.393C60.3879 360.484 60.0461 359.459 60.0461 358.316C60.0461 357.438 60.2414 356.617 60.632 355.855C61.0324 355.094 61.5793 354.464 62.2727 353.966C62.9758 353.468 63.7473 353.15 64.5871 353.014V352.896C63.8547 352.74 63.2053 352.438 62.6389 351.988C62.0725 351.539 61.6281 350.982 61.3059 350.318C60.9934 349.654 60.8371 348.941 60.8371 348.18C60.8371 347.096 61.1496 346.124 61.7746 345.265C62.4094 344.396 63.2785 343.717 64.382 343.229C65.4855 342.74 66.7258 342.496 68.1027 342.496C69.4699 342.496 70.7053 342.74 71.8088 343.229C72.9123 343.717 73.7766 344.396 74.4016 345.265C75.0266 346.134 75.3391 347.105 75.3391 348.18C75.3391 348.941 75.1779 349.654 74.8557 350.318C74.5432 350.982 74.0988 351.539 73.5227 351.988C72.9563 352.438 72.3117 352.74 71.5891 352.896V353.014C72.4289 353.15 73.1955 353.468 73.8889 353.966C74.5822 354.464 75.134 355.094 75.5441 355.855C75.9543 356.617 76.1594 357.438 76.1594 358.316C76.1594 359.459 75.8127 360.484 75.1193 361.393C74.426 362.301 73.4689 363.014 72.2482 363.531C71.0275 364.039 69.6457 364.293 68.1027 364.293ZM63.9719 357.965C63.9719 358.619 64.1379 359.195 64.4699 359.693C64.8117 360.191 65.2951 360.582 65.9201 360.865C66.5451 361.139 67.2727 361.275 68.1027 361.275C68.923 361.275 69.6408 361.139 70.2561 360.865C70.8811 360.582 71.3645 360.191 71.7063 359.693C72.0578 359.195 72.2336 358.619 72.2336 357.965C72.2336 357.311 72.0529 356.72 71.6916 356.192C71.34 355.665 70.8469 355.255 70.2121 354.962C69.5871 354.659 68.884 354.508 68.1027 354.508C67.3215 354.508 66.6135 354.654 65.9787 354.947C65.3439 355.24 64.8508 355.65 64.4992 356.178C64.1477 356.705 63.9719 357.301 63.9719 357.965ZM64.5578 348.531C64.5578 349.146 64.7092 349.693 65.0119 350.172C65.3146 350.641 65.7346 351.007 66.2717 351.271C66.8088 351.534 67.4191 351.666 68.1027 351.666C68.7766 351.666 69.3771 351.534 69.9045 351.271C70.4416 351.007 70.8615 350.641 71.1643 350.172C71.467 349.693 71.6184 349.146 71.6184 348.531C71.6184 347.936 71.467 347.408 71.1643 346.949C70.8713 346.49 70.4563 346.134 69.9191 345.88C69.3918 345.616 68.7863 345.484 68.1027 345.484C67.3996 345.484 66.7795 345.616 66.2424 345.88C65.715 346.134 65.3 346.49 64.9973 346.949C64.7043 347.408 64.5578 347.936 64.5578 348.531ZM88.7137 346.129V345.982H78.0496V342.789H92.6688V346.041L83.4695 364H79.5145L88.7137 346.129ZM102.674 364.293C101.17 364.293 99.7934 363.966 98.5434 363.312C97.2934 362.647 96.2826 361.549 95.5111 360.016C94.7397 358.482 94.3539 356.471 94.3539 353.98C94.3539 351.588 94.6957 349.532 95.3793 347.813C96.0727 346.085 97.059 344.767 98.3383 343.858C99.6176 342.95 101.121 342.496 102.85 342.496C104.178 342.496 105.374 342.755 106.439 343.272C107.503 343.79 108.358 344.503 109.002 345.411C109.657 346.319 110.067 347.35 110.233 348.502H106.454C106.258 347.672 105.843 347.013 105.208 346.524C104.583 346.036 103.797 345.797 102.85 345.807C101.834 345.807 100.965 346.095 100.243 346.671C99.5297 347.237 98.9877 348.058 98.6166 349.132C98.2455 350.206 98.0551 351.49 98.0453 352.984H98.2504C98.7973 352.066 99.5492 351.354 100.506 350.846C101.473 350.328 102.538 350.074 103.7 350.084C104.959 350.084 106.102 350.377 107.127 350.963C108.153 351.549 108.958 352.369 109.544 353.424C110.14 354.469 110.438 355.65 110.438 356.969C110.438 358.365 110.116 359.62 109.471 360.733C108.827 361.837 107.913 362.706 106.732 363.341C105.55 363.976 104.198 364.293 102.674 364.293ZM98.4555 357.086C98.4652 357.818 98.6508 358.502 99.0121 359.137C99.3734 359.762 99.8666 360.265 100.492 360.646C101.126 361.026 101.834 361.217 102.616 361.217C103.387 361.217 104.085 361.031 104.71 360.66C105.345 360.289 105.843 359.791 106.204 359.166C106.566 358.531 106.746 357.828 106.746 357.057C106.746 356.314 106.566 355.631 106.204 355.006C105.853 354.381 105.37 353.888 104.754 353.526C104.139 353.165 103.446 352.984 102.674 352.984C101.893 352.984 101.18 353.17 100.536 353.541C99.9008 353.912 99.3979 354.415 99.0268 355.05C98.6557 355.675 98.4652 356.354 98.4555 357.086ZM119.199 356.998L128.369 342.789H133.115V356.91H135.898V360.045H133.115V364H129.482V360.045H119.199V356.998ZM129.541 356.91V347.125H129.306L123.095 356.764V356.91H129.541ZM145.874 364.293C144.478 364.293 143.218 364.034 142.095 363.517C140.982 362.999 140.098 362.281 139.444 361.363C138.789 360.445 138.443 359.41 138.404 358.258H142.124C142.163 358.814 142.354 359.317 142.696 359.767C143.037 360.216 143.487 360.572 144.043 360.836C144.6 361.09 145.21 361.217 145.874 361.217C146.655 361.217 147.354 361.041 147.969 360.689C148.594 360.328 149.077 359.84 149.419 359.225C149.771 358.609 149.946 357.916 149.946 357.145C149.946 356.344 149.766 355.626 149.404 354.991C149.043 354.356 148.54 353.863 147.896 353.512C147.251 353.16 146.519 352.984 145.698 352.984C144.029 352.984 142.876 353.59 142.241 354.801H138.696L139.986 342.789H152.525V345.982H143.12L142.476 351.607H142.681C143.101 351.129 143.677 350.743 144.409 350.45C145.142 350.157 145.933 350.006 146.782 349.996C148.081 349.996 149.253 350.299 150.298 350.904C151.343 351.51 152.158 352.35 152.744 353.424C153.34 354.488 153.638 355.689 153.638 357.027C153.638 358.424 153.311 359.674 152.656 360.777C152.002 361.881 151.084 362.745 149.903 363.37C148.721 363.985 147.378 364.293 145.874 364.293ZM156.261 361.246L163.761 354.01C164.571 353.199 165.196 352.535 165.636 352.018C166.085 351.49 166.427 350.973 166.661 350.465C166.895 349.947 167.013 349.4 167.013 348.824C167.013 348.18 166.851 347.613 166.529 347.125C166.217 346.637 165.782 346.261 165.225 345.997C164.679 345.733 164.063 345.602 163.38 345.602C162.657 345.602 162.022 345.748 161.475 346.041C160.938 346.324 160.523 346.729 160.23 347.257C159.947 347.784 159.805 348.404 159.805 349.117H156.173C156.173 347.799 156.475 346.642 157.081 345.646C157.696 344.64 158.551 343.863 159.644 343.316C160.748 342.77 162.003 342.496 163.409 342.496C164.835 342.496 166.095 342.76 167.188 343.287C168.292 343.814 169.146 344.547 169.752 345.484C170.367 346.412 170.675 347.467 170.675 348.648C170.665 349.469 170.504 350.26 170.191 351.021C169.879 351.773 169.342 352.613 168.58 353.541C167.818 354.469 166.739 355.592 165.343 356.91L161.563 360.66V360.807H170.997V364H156.261V361.246ZM181.442 364.293C179.948 364.293 178.61 364.039 177.428 363.531C176.246 363.023 175.319 362.311 174.645 361.393C173.971 360.475 173.62 359.43 173.59 358.258H177.428C177.457 358.814 177.653 359.308 178.014 359.737C178.375 360.167 178.854 360.499 179.45 360.733C180.045 360.958 180.709 361.07 181.442 361.07C182.213 361.07 182.902 360.938 183.507 360.675C184.122 360.411 184.601 360.04 184.943 359.562C185.285 359.083 185.455 358.531 185.455 357.906C185.455 357.271 185.28 356.71 184.928 356.222C184.577 355.724 184.069 355.333 183.405 355.05C182.741 354.767 181.959 354.625 181.061 354.625H179.157V351.695H181.061C181.803 351.695 182.462 351.568 183.038 351.314C183.624 351.051 184.074 350.685 184.386 350.216C184.708 349.737 184.87 349.195 184.87 348.59C184.87 348.004 184.728 347.486 184.445 347.037C184.171 346.578 183.776 346.227 183.258 345.982C182.75 345.729 182.155 345.602 181.471 345.602C180.807 345.602 180.187 345.724 179.611 345.968C179.044 346.202 178.585 346.539 178.234 346.979C177.892 347.418 177.711 347.926 177.692 348.502H174.03C174.059 347.34 174.406 346.305 175.07 345.396C175.734 344.479 176.627 343.766 177.75 343.258C178.873 342.75 180.123 342.496 181.5 342.496C182.897 342.496 184.132 342.76 185.206 343.287C186.281 343.805 187.111 344.513 187.697 345.411C188.283 346.31 188.571 347.301 188.561 348.385C188.571 349.166 188.414 349.874 188.092 350.509C187.77 351.134 187.316 351.656 186.73 352.076C186.144 352.496 185.465 352.789 184.694 352.955V353.131C185.68 353.258 186.525 353.546 187.228 353.995C187.931 354.444 188.463 355.021 188.825 355.724C189.186 356.427 189.362 357.223 189.352 358.111C189.362 359.293 189.025 360.353 188.341 361.29C187.667 362.228 186.725 362.965 185.514 363.502C184.313 364.029 182.955 364.293 181.442 364.293ZM207.224 364H203.386V346.51H203.269L198.318 349.674V346.188L203.562 342.789H207.224V364ZM211.78 361.246L219.28 354.01C220.091 353.199 220.716 352.535 221.155 352.018C221.605 351.49 221.946 350.973 222.181 350.465C222.415 349.947 222.532 349.4 222.532 348.824C222.532 348.18 222.371 347.613 222.049 347.125C221.737 346.637 221.302 346.261 220.745 345.997C220.198 345.733 219.583 345.602 218.9 345.602C218.177 345.602 217.542 345.748 216.995 346.041C216.458 346.324 216.043 346.729 215.75 347.257C215.467 347.784 215.325 348.404 215.325 349.117H211.693C211.693 347.799 211.995 346.642 212.601 345.646C213.216 344.64 214.07 343.863 215.164 343.316C216.268 342.77 217.523 342.496 218.929 342.496C220.355 342.496 221.614 342.76 222.708 343.287C223.812 343.814 224.666 344.547 225.272 345.484C225.887 346.412 226.195 347.467 226.195 348.648C226.185 349.469 226.024 350.26 225.711 351.021C225.399 351.773 224.862 352.613 224.1 353.541C223.338 354.469 222.259 355.592 220.862 356.91L217.083 360.66V360.807H226.517V364H211.78V361.246ZM237.87 364H234.032V346.51H233.915L228.964 349.674V346.188L234.208 342.789H237.87V364ZM242.426 361.246L249.926 354.01C250.737 353.199 251.362 352.535 251.801 352.018C252.25 351.49 252.592 350.973 252.827 350.465C253.061 349.947 253.178 349.4 253.178 348.824C253.178 348.18 253.017 347.613 252.695 347.125C252.382 346.637 251.948 346.261 251.391 345.997C250.844 345.733 250.229 345.602 249.545 345.602C248.823 345.602 248.188 345.748 247.641 346.041C247.104 346.324 246.689 346.729 246.396 347.257C246.113 347.784 245.971 348.404 245.971 349.117H242.338C242.338 347.799 242.641 346.642 243.246 345.646C243.862 344.64 244.716 343.863 245.81 343.316C246.913 342.77 248.168 342.496 249.575 342.496C251 342.496 252.26 342.76 253.354 343.287C254.457 343.814 255.312 344.547 255.917 345.484C256.533 346.412 256.84 347.467 256.84 348.648C256.83 349.469 256.669 350.26 256.357 351.021C256.044 351.773 255.507 352.613 254.746 353.541C253.984 354.469 252.905 355.592 251.508 356.91L247.729 360.66V360.807H257.163V364H242.426V361.246Z" fill="white"/>
<rect x="523" y="118" width="72" height="56.6808" rx="8" fill="#FCEB57" fill-opacity="0.6"/>
<rect x="523.5" y="118.5" width="71" height="55.6808" rx="7.5" stroke="white" stroke-opacity="0.6"/>
<defs>
<filter id="filter0_bd_119_3875" x="-24" y="-24" width="724" height="499.891" filterUnits="userSpaceOnUse" color-interpolation-filters="sRGB">
<feFlood flood-opacity="0" result="BackgroundImageFix"/>
<feGaussianBlur in="BackgroundImageFix" stdDeviation="12"/>
<feComposite in2="SourceAlpha" operator="in" result="effect1_backgroundBlur_119_3875"/>
<feColorMatrix in="SourceAlpha" type="matrix" values="0 0 0 0 0 0 0 0 0 0 0 0 0 0 0 0 0 0 127 0" result="hardAlpha"/>
<feOffset dx="20" dy="40"/>
<feGaussianBlur stdDeviation="10"/>
<feComposite in2="hardAlpha" operator="out"/>
<feColorMatrix type="matrix" values="0 0 0 0 0 0 0 0 0 0 0 0 0 0 0 0 0 0 0.25 0"/>
<feBlend mode="normal" in2="effect1_backgroundBlur_119_3875" result="effect2_dropShadow_119_3875"/>
<feBlend mode="normal" in="SourceGraphic" in2="effect2_dropShadow_119_3875" result="shape"/>
</filter>
<linearGradient id="paint0_linear_119_3875" x1="330" y1="0" x2="330" y2="415.89" gradientUnits="userSpaceOnUse">
<stop stop-color="white" stop-opacity="0.8"/>
<stop offset="1" stop-color="white" stop-opacity="0.1"/>
</linearGradient>
</defs>
</svg>
