<svg width="57" height="56" viewBox="0 0 57 56" fill="none" xmlns="http://www.w3.org/2000/svg">
<path d="M53.8519 22.4154C53.3808 22.03 53.3811 22.0299 52.8092 22.0811C52.9393 21.8371 53.069 21.593 53.203 21.3416C54.1546 19.3169 54.1468 17.4033 53.4429 15.3065C52.5815 13.1258 51.334 11.8597 49.2457 10.8018C48.1133 10.3973 47.1573 10.1785 45.9561 10.2516C45.949 10.0984 45.9419 9.94517 45.9346 9.78733C45.7626 7.46474 45.1102 5.98769 43.4035 4.38858C41.4355 2.76192 39.8609 2.4006 37.3311 2.44676C35.9668 2.59049 34.8334 3.02108 33.6211 3.64907C33.5039 3.39428 33.5037 3.39434 33.3842 3.13439C32.7591 1.95941 31.5872 1.25151 30.3703 0.773614C28.1914 0.214972 26.2627 0.504161 24.3202 1.60109C23.6109 2.09805 23.1164 2.63993 22.6564 3.37414C22.5133 3.31456 22.3698 3.25482 22.2226 3.19343C20.0404 2.36503 17.9826 2.18894 15.7522 2.96144C13.7677 3.86703 12.416 5.25291 11.5544 7.25986C11.1957 8.28324 11.0289 9.15823 11.1435 10.2516C10.8945 10.2527 10.8943 10.2526 10.6402 10.2537C8.21341 10.3661 6.36041 11.3209 4.71903 13.1229C3.07953 15.2761 2.9554 17.2046 3.19414 19.8802C3.39747 20.6864 3.65625 21.3278 4.01655 22.0811C3.82418 22.1322 3.63201 22.1833 3.43401 22.2359C2.03543 22.9376 1.26682 24.1037 0.487018 25.434C-0.131439 27.5379 -0.126467 29.6945 0.867324 31.6784C1.64776 32.7908 2.6822 33.6263 3.74241 34.4608C3.60926 34.8108 3.60913 34.8106 3.47347 35.1679C2.8782 37.1777 2.82571 39.7286 3.71549 41.6681C4.85716 43.5475 6.32653 44.9671 8.40246 45.7399C9.31793 45.9118 10.213 45.9935 11.1435 46.0152C11.1442 46.1819 11.1447 46.3481 11.1457 46.52C11.2484 48.7536 11.9809 50.4728 13.601 52.0371C15.7167 53.7162 17.8219 53.94 20.4636 53.7177C21.26 53.5116 21.9086 53.2456 22.6564 52.8923C22.7727 53.0218 22.8889 53.1513 23.0086 53.2847C24.6465 55.0298 25.8731 55.6757 28.2585 55.7639C30.8458 55.6955 32.3287 54.6243 34.1693 52.8923C34.4237 53.023 34.6779 53.1534 34.94 53.2877C36.9432 54.1351 39.1086 54.2368 41.1623 53.5167C43.0289 52.561 44.6824 51.0069 45.5161 49.0582C45.8086 48.0582 45.9082 47.0533 45.9561 46.0152C46.2218 46.0377 46.4876 46.0602 46.7613 46.0837C48.699 46.0758 50.4323 45.0377 51.8305 43.7519C53.3544 42.0245 53.9872 40.1286 53.9697 37.8361C53.8494 36.6669 53.4631 35.568 53.0834 34.4608C53.2258 34.3735 53.368 34.2861 53.5148 34.1963C55.1404 33.1047 56.0836 31.9552 56.6469 30.059C57.0948 26.7804 56.3739 24.5215 53.8519 22.4154Z" fill="#EEA9A9"/>
</svg>
