<svg width="121" height="120" viewBox="0 0 121 120" fill="none" xmlns="http://www.w3.org/2000/svg">
<mask id="mask0_198_2457" style="mask-type:alpha" maskUnits="userSpaceOnUse" x="0" y="0" width="121" height="120">
<rect x="0.5" width="120" height="120" fill="#D9D9D9"/>
</mask>
<g mask="url(#mask0_198_2457)">
<path d="M45.5 75.002V53.752L93.25 6.00195C94 5.25195 94.8333 4.71029 95.75 4.37695C96.6667 4.04362 97.5833 3.87695 98.5 3.87695C99.4167 3.87695 100.354 4.06445 101.312 4.43945C102.271 4.81445 103.125 5.37695 103.875 6.12695L114.25 16.627C115 17.377 115.562 18.2103 115.938 19.127C116.312 20.0436 116.5 20.9603 116.5 21.877C116.5 22.7936 116.312 23.7311 115.938 24.6895C115.562 25.6478 115 26.502 114.25 27.252L66.75 75.002H45.5ZM100.5 30.627L109 21.877L98.5 11.377L89.875 20.002L100.5 30.627ZM23 105.002C21 105.002 19.25 104.252 17.75 102.752C16.25 101.252 15.5 99.502 15.5 97.502V22.502C15.5 20.502 16.25 18.752 17.75 17.252C19.25 15.752 21 15.002 23 15.002H73.625L38 50.627V82.502H69.5L105.5 46.502V97.502C105.5 99.502 104.75 101.252 103.25 102.752C101.75 104.252 100 105.002 98 105.002H23Z" fill="#DB8989"/>
</g>
</svg>
