<svg width="101" height="101" viewBox="0 0 101 101" fill="none" xmlns="http://www.w3.org/2000/svg">
<path d="M90.7507 77.6655C88.4647 79.8018 85.904 81.267 83.2493 81.3089C83.0152 81.2884 82.7831 81.2681 82.5528 81.2481C82.3375 81.2293 82.1239 81.2106 81.9117 81.1921L79.8331 81.0102L79.7394 83.0947C79.6587 84.8912 79.4963 86.5126 79.0623 88.0836C77.7919 91.0465 75.2977 93.4997 72.3924 95.0574C69.2972 96.1345 66.0403 95.9792 62.9796 94.6692L61.6755 93.983L60.3955 93.3092L59.3548 94.3138C56.2133 97.3466 54.0403 98.879 50.2269 98.9988C48.3144 98.9205 47.0253 98.6201 45.9294 98.0775C44.8084 97.5226 43.7318 96.637 42.3561 95.1353L41.7435 94.4354L40.7389 93.2878L39.3664 93.9529C38.1525 94.5412 37.16 94.958 35.9844 95.2831C31.6594 95.6386 28.5778 95.2148 25.4486 92.6997C23.0017 90.2469 21.9038 87.6178 21.737 84.0572L21.7332 83.1765L21.7255 81.231L19.7805 81.185C18.2766 81.1495 16.8489 81.0182 15.4039 80.7505C12.3461 79.5381 10.107 77.3665 8.28475 74.3227C7.00054 71.3573 7.03379 67.2974 7.97441 63.9849C8.06813 63.732 8.12287 63.5843 8.17363 63.4474C8.23937 63.2701 8.29845 63.1107 8.42692 62.7639L8.92619 61.4161L7.80796 60.5131C5.94659 59.0101 4.35858 57.6763 3.16487 55.9755C1.75624 53 1.69199 49.7167 2.61251 46.3521C3.90039 44.1168 4.98506 42.5661 6.74334 41.5997L7.56564 41.3754L9.85498 40.7514L8.85239 38.6007C8.2686 37.3484 7.86993 36.3339 7.55402 35.0938C7.16747 30.5193 7.43045 27.627 9.84464 24.3377C12.4265 21.455 15.2143 20.0162 18.8899 19.8317L19.7419 19.8279L21.9471 19.8184L21.7229 17.6246C21.5581 16.0125 21.7774 14.7234 22.3365 13.0712C23.6709 9.91567 25.6957 7.78817 28.7022 6.35818C32.0906 5.17805 35.2207 5.42781 38.7109 6.78191L39.4527 7.09884L41.044 7.77875L41.9456 6.30172C42.6223 5.19318 43.3087 4.42052 44.2912 3.70032C47.2476 2.0104 50.0842 1.58 53.3467 2.4098C55.2693 3.20099 56.767 4.23222 57.5459 5.69615C57.643 5.91273 57.6928 6.02381 57.746 6.14243C57.7952 6.2521 57.8473 6.36821 57.9423 6.58012L58.8171 8.53223L60.706 7.52827C62.7037 6.46654 64.4502 5.79829 66.5037 5.56323C68.6171 5.52849 70.1778 5.67427 71.568 6.10381C72.9412 6.52808 74.2725 7.26852 75.8497 8.59852C77.2082 9.91223 78.0739 11.1031 78.6472 12.3735C79.2272 13.6587 79.5592 15.1386 79.7027 17.097L79.7394 17.9173L79.8303 19.9509L81.8619 19.8241C83.5902 19.7162 84.9794 20.0137 86.787 20.6673C90.0238 22.372 91.8587 24.3129 93.1866 27.7366C94.2889 31.1334 94.2725 34.0778 92.8461 37.2184L92.1679 38.5238L90.4804 41.7721L94.1256 41.4374C94.1981 41.4308 94.2594 41.4251 94.3133 41.4204C94.3681 41.4658 94.4306 41.5182 94.5068 41.5821C96.542 43.3276 97.7416 45.0381 98.3828 46.8914C99.0193 48.7312 99.1637 50.8793 98.815 53.6112C97.9567 56.4818 96.5986 58.1863 94.0989 59.9155L93.3668 60.3758L92.0357 61.2122L92.5341 62.7033L92.5675 62.803C93.2353 64.8003 93.8159 66.5365 94.0106 68.3464C94.0213 72.0261 93.0483 74.9594 90.7507 77.6655Z" stroke="#769BFF" stroke-width="4"/>
</svg>
