<svg width="330" height="317" viewBox="0 0 330 317" fill="none" xmlns="http://www.w3.org/2000/svg">
<path d="M317.457 109.519C315.433 107.698 315.433 107.698 312.977 107.939C313.535 106.787 314.094 105.635 314.67 104.447C318.759 94.8818 318.724 85.8427 315.699 75.9379C311.999 65.636 306.639 59.6551 297.667 54.6576C292.802 52.7467 288.696 51.7128 283.535 52.058C283.505 51.3343 283.475 50.6106 283.443 49.865C282.705 38.8932 279.9 31.9152 272.568 24.3611C264.113 16.6768 257.348 14.9702 246.479 15.1882C240.617 15.8672 235.748 17.9016 230.54 20.8683C230.037 19.6645 230.036 19.6649 229.523 18.4369C226.837 12.8864 221.8 9.54108 216.573 7.28353C207.212 4.64453 198.927 6.01111 190.582 11.193C187.535 13.5405 185.408 16.101 183.432 19.5693C182.817 19.2878 182.203 19.0061 181.569 18.7161C172.195 14.8028 163.352 13.9703 153.77 17.6196C145.243 21.8974 139.438 28.4443 135.737 37.925C134.196 42.7594 133.478 46.8929 133.971 52.058C132.9 52.0629 132.899 52.0628 131.808 52.068C121.382 52.5989 113.422 57.11 106.369 65.6227C99.3261 75.7945 98.7923 84.9037 99.8177 97.5432C100.692 101.352 101.803 104.38 103.351 107.939C102.525 108.181 101.7 108.422 100.849 108.671C94.8416 111.986 91.538 117.494 88.1877 123.779C85.53 133.717 85.5521 143.905 89.822 153.278C93.1755 158.532 97.6187 162.478 102.174 166.42C101.602 168.074 101.601 168.074 101.018 169.76C98.4601 179.256 98.2353 191.305 102.059 200.468C106.963 209.347 113.275 216.052 122.193 219.702C126.126 220.515 129.973 220.902 133.971 221.002C133.973 221.79 133.977 222.577 133.98 223.389C134.421 233.94 137.568 242.06 144.528 249.451C153.618 257.383 162.663 258.44 174.011 257.39C177.434 256.416 180.218 255.16 183.432 253.491C183.932 254.103 184.432 254.714 184.946 255.345C191.984 263.588 197.254 266.639 207.502 267.056C218.617 266.732 224.986 261.672 232.894 253.491C233.987 254.108 235.081 254.724 236.206 255.36C244.812 259.361 254.116 259.842 262.939 256.441C270.958 251.925 278.062 244.583 281.644 235.379C282.901 230.654 283.329 225.907 283.535 221.002C284.677 221.11 285.817 221.217 286.994 221.327C295.318 221.291 302.765 216.385 308.772 210.311C315.319 202.152 318.039 193.195 317.964 182.365C317.447 176.842 315.785 171.65 314.154 166.42C314.766 166.008 315.379 165.596 316.009 165.171C322.993 160.014 327.045 154.585 329.465 145.627C331.389 130.14 328.292 119.467 317.457 109.519Z" fill="#626B86"/>
<path d="M310.189 103.546C308.02 101.726 308.021 101.725 305.388 101.967C305.987 100.814 306.586 99.6622 307.203 98.4745C311.584 88.9092 311.547 79.87 308.306 69.9653C304.34 59.6633 298.597 53.6824 288.982 48.685C283.769 46.774 279.369 45.7401 273.838 46.0853C273.806 45.3616 273.773 44.6379 273.74 43.8923C272.948 32.9205 269.943 25.9425 262.085 18.3884C253.025 10.7042 245.775 8.9975 234.128 9.21558C227.846 9.89457 222.629 11.9289 217.047 14.8956C216.508 13.6919 216.507 13.6922 215.957 12.4643C213.079 6.91374 207.681 3.56843 202.079 1.31087C192.048 -1.32812 183.17 0.0384545 174.227 5.22031C170.962 7.56789 168.683 10.1283 166.565 13.5966C165.906 13.3151 165.248 13.0334 164.569 12.7434C154.523 8.83016 145.047 7.99763 134.778 11.6469C125.641 15.9247 119.42 22.4716 115.455 31.9523C113.803 36.7867 113.033 40.9202 113.562 46.0853C112.414 46.0903 112.413 46.0901 111.244 46.0953C100.071 46.6263 91.5405 51.1373 83.9828 59.6501C76.4354 69.8219 75.8633 78.9311 76.9623 91.5705C77.8991 95.3793 79.0897 98.4078 80.7483 101.967C79.8636 102.208 78.9791 102.45 78.0671 102.698C71.6297 106.013 68.0895 111.521 64.4992 117.806C61.6512 127.744 61.6749 137.933 66.2506 147.305C69.8443 152.559 74.6057 156.506 79.4869 160.447C78.8743 162.101 78.8733 162.101 78.2487 163.788C75.5074 173.283 75.2665 185.332 79.3635 194.495C84.6192 203.374 91.3835 210.079 100.94 213.73C105.155 214.542 109.278 214.929 113.562 215.03C113.564 215.817 113.568 216.605 113.572 217.416C114.044 227.968 117.416 236.088 124.875 243.478C134.616 251.41 144.308 252.467 156.47 251.418C160.138 250.443 163.121 249.187 166.565 247.518C167.101 248.13 167.637 248.742 168.188 249.372C175.729 257.615 181.377 260.666 192.359 261.083C204.271 260.76 211.096 255.7 219.57 247.518C220.741 248.135 221.913 248.752 223.119 249.387C232.342 253.389 242.311 253.869 251.767 250.468C260.36 245.953 267.973 238.61 271.812 229.406C273.159 224.682 273.618 219.935 273.838 215.03C275.061 215.137 276.284 215.245 277.544 215.355C286.465 215.318 294.445 210.413 300.882 204.339C307.898 196.179 310.813 187.222 310.732 176.393C310.178 170.869 308.398 165.678 306.65 160.447C307.305 160.035 307.962 159.623 308.638 159.198C316.122 154.042 320.464 148.612 323.057 139.655C325.12 124.167 321.8 113.495 310.189 103.546Z" fill="url(#paint0_linear_146_759)"/>
<path d="M142.897 170.643C145.095 170.643 146.878 168.733 146.878 166.377C146.878 164.021 145.095 162.111 142.897 162.111C140.698 162.111 138.916 164.021 138.916 166.377C138.916 168.733 140.698 170.643 142.897 170.643Z" fill="white"/>
<path d="M201.813 170.643C204.011 170.643 205.794 168.733 205.794 166.377C205.794 164.021 204.011 162.111 201.813 162.111C199.614 162.111 197.832 164.021 197.832 166.377C197.832 168.733 199.614 170.643 201.813 170.643Z" fill="white"/>
<path d="M260.731 170.643C262.929 170.643 264.712 168.733 264.712 166.377C264.712 164.021 262.929 162.111 260.731 162.111C258.532 162.111 256.75 164.021 256.75 166.377C256.75 168.733 258.532 170.643 260.731 170.643Z" fill="white"/>
<path d="M175.541 205.624C177.74 205.624 179.522 203.714 179.522 201.358C179.522 199.002 177.74 197.092 175.541 197.092C173.343 197.092 171.561 199.002 171.561 201.358C171.561 203.714 173.343 205.624 175.541 205.624Z" fill="white"/>
<path d="M232.069 205.624C234.267 205.624 236.05 203.714 236.05 201.358C236.05 199.002 234.267 197.092 232.069 197.092C229.87 197.092 228.088 199.002 228.088 201.358C228.088 203.714 229.87 205.624 232.069 205.624Z" fill="white"/>
<path d="M142.897 170.643C145.095 170.643 146.878 168.733 146.878 166.377C146.878 164.021 145.095 162.111 142.897 162.111C140.698 162.111 138.916 164.021 138.916 166.377C138.916 168.733 140.698 170.643 142.897 170.643Z" fill="white"/>
<path d="M201.813 170.643C204.011 170.643 205.794 168.733 205.794 166.377C205.794 164.021 204.011 162.111 201.813 162.111C199.614 162.111 197.832 164.021 197.832 166.377C197.832 168.733 199.614 170.643 201.813 170.643Z" fill="white"/>
<path d="M260.731 170.643C262.929 170.643 264.712 168.733 264.712 166.377C264.712 164.021 262.929 162.111 260.731 162.111C258.532 162.111 256.75 164.021 256.75 166.377C256.75 168.733 258.532 170.643 260.731 170.643Z" fill="white"/>
<path d="M175.541 205.624C177.74 205.624 179.522 203.714 179.522 201.358C179.522 199.002 177.74 197.092 175.541 197.092C173.343 197.092 171.561 199.002 171.561 201.358C171.561 203.714 173.343 205.624 175.541 205.624Z" fill="white"/>
<path d="M232.069 205.624C234.267 205.624 236.05 203.714 236.05 201.358C236.05 199.002 234.267 197.092 232.069 197.092C229.87 197.092 228.088 199.002 228.088 201.358C228.088 203.714 229.87 205.624 232.069 205.624Z" fill="white"/>
<path d="M142.981 121.054C145.179 121.054 146.962 119.144 146.962 116.788C146.962 114.431 145.179 112.521 142.981 112.521C140.782 112.521 139 114.431 139 116.788C139 119.144 140.782 121.054 142.981 121.054Z" fill="white"/>
<path d="M201.897 121.054C204.095 121.054 205.878 119.144 205.878 116.788C205.878 114.431 204.095 112.521 201.897 112.521C199.698 112.521 197.916 114.431 197.916 116.788C197.916 119.144 199.698 121.054 201.897 121.054Z" fill="white"/>
<path d="M260.815 121.054C263.013 121.054 264.796 119.144 264.796 116.788C264.796 114.431 263.013 112.521 260.815 112.521C258.616 112.521 256.834 114.431 256.834 116.788C256.834 119.144 258.616 121.054 260.815 121.054Z" fill="white"/>
<path d="M142.981 121.054C145.179 121.054 146.962 119.144 146.962 116.788C146.962 114.431 145.179 112.521 142.981 112.521C140.782 112.521 139 114.431 139 116.788C139 119.144 140.782 121.054 142.981 121.054Z" fill="white"/>
<path d="M201.897 121.054C204.095 121.054 205.878 119.144 205.878 116.788C205.878 114.431 204.095 112.521 201.897 112.521C199.698 112.521 197.916 114.431 197.916 116.788C197.916 119.144 199.698 121.054 201.897 121.054Z" fill="white"/>
<path d="M260.815 121.054C263.013 121.054 264.796 119.144 264.796 116.788C264.796 114.431 263.013 112.521 260.815 112.521C258.616 112.521 256.834 114.431 256.834 116.788C256.834 119.144 258.616 121.054 260.815 121.054Z" fill="white"/>
<path d="M175.981 78.1884C178.179 78.1884 179.962 76.2784 179.962 73.9223C179.962 71.5662 178.179 69.6562 175.981 69.6562C173.782 69.6562 172 71.5662 172 73.9223C172 76.2784 173.782 78.1884 175.981 78.1884Z" fill="white"/>
<path d="M232.508 78.1884C234.707 78.1884 236.489 76.2784 236.489 73.9223C236.489 71.5662 234.707 69.6562 232.508 69.6562C230.31 69.6562 228.527 71.5662 228.527 73.9223C228.527 76.2784 230.31 78.1884 232.508 78.1884Z" fill="white"/>
<path d="M175.981 78.1884C178.179 78.1884 179.962 76.2784 179.962 73.9223C179.962 71.5662 178.179 69.6562 175.981 69.6562C173.782 69.6562 172 71.5662 172 73.9223C172 76.2784 173.782 78.1884 175.981 78.1884Z" fill="white"/>
<path d="M232.508 78.1884C234.707 78.1884 236.489 76.2784 236.489 73.9223C236.489 71.5662 234.707 69.6562 232.508 69.6562C230.31 69.6562 228.527 71.5662 228.527 73.9223C228.527 76.2784 230.31 78.1884 232.508 78.1884Z" fill="white"/>
<path d="M170.969 210.812C169.512 209.585 169.512 209.585 167.743 209.747C168.145 208.97 168.548 208.194 168.962 207.394C171.906 200.946 171.881 194.854 169.704 188.178C167.039 181.234 163.18 177.203 156.72 173.834C153.218 172.546 150.261 171.849 146.545 172.082C146.523 171.594 146.502 171.106 146.479 170.604C145.947 163.209 143.928 158.505 138.649 153.414C132.561 148.234 127.691 147.084 119.865 147.231C115.645 147.689 112.139 149.06 108.389 151.059C108.026 150.248 108.026 150.248 107.656 149.421C105.723 145.68 102.096 143.425 98.3322 141.903C91.5926 140.124 85.6276 141.045 79.6189 144.538C77.4251 146.12 75.8937 147.846 74.4709 150.184C74.0283 149.994 73.5859 149.804 73.1295 149.609C66.3801 146.971 60.0137 146.41 53.1141 148.87C46.9752 151.753 42.7954 156.166 40.131 162.556C39.0211 165.815 38.5042 168.601 38.8591 172.082C38.088 172.085 38.0876 172.085 37.3017 172.089C29.795 172.447 24.0636 175.487 18.9858 181.225C13.9149 188.081 13.5305 194.221 14.2688 202.74C14.8982 205.307 15.6982 207.349 16.8126 209.747C16.2181 209.91 15.6239 210.073 15.0111 210.24C10.686 212.475 8.30739 216.187 5.89517 220.423C3.98167 227.122 3.99757 233.989 7.0719 240.306C9.4864 243.848 12.6855 246.508 15.965 249.165C15.5535 250.279 15.5528 250.279 15.1332 251.416C13.2913 257.816 13.1295 265.938 15.8822 272.114C19.4134 278.098 23.9581 282.617 30.3791 285.078C33.2109 285.626 35.9808 285.886 38.8591 285.954C38.8608 286.485 38.8635 287.016 38.8658 287.563C39.1834 294.675 41.4489 300.148 46.4602 305.129C53.0049 310.476 59.5171 311.188 67.6882 310.481C70.1526 309.824 72.1572 308.977 74.4709 307.852C74.8309 308.265 75.191 308.677 75.5614 309.102C80.6283 314.658 84.4226 316.714 91.8015 316.995C99.8046 316.777 104.39 313.367 110.084 307.852C110.871 308.268 111.658 308.684 112.469 309.112C118.665 311.809 125.363 312.133 131.716 309.84C137.49 306.797 142.605 301.848 145.184 295.644C146.089 292.46 146.397 289.26 146.545 285.954C147.367 286.027 148.189 286.099 149.035 286.173C155.029 286.149 160.391 282.842 164.716 278.748C169.43 273.249 171.388 267.212 171.334 259.912C170.962 256.189 169.765 252.69 168.591 249.165C169.031 248.887 169.473 248.609 169.926 248.323C174.955 244.847 177.872 241.188 179.614 235.15C181 224.711 178.77 217.518 170.969 210.812Z" fill="#626B86"/>
<path d="M166.383 206.789C164.926 205.561 164.926 205.561 163.157 205.724C163.559 204.947 163.962 204.171 164.376 203.37C167.32 196.923 167.295 190.83 165.118 184.154C162.453 177.211 158.594 173.179 152.135 169.811C148.632 168.523 145.675 167.826 141.959 168.059C141.938 167.571 141.916 167.083 141.893 166.58C141.361 159.185 139.342 154.482 134.063 149.39C127.975 144.211 123.105 143.061 115.279 143.208C111.059 143.665 107.553 145.036 103.803 147.036C103.44 146.225 103.44 146.225 103.07 145.397C101.137 141.656 97.5102 139.401 93.7463 137.88C87.0066 136.101 81.0417 137.022 75.0329 140.515C72.8391 142.097 71.3077 143.823 69.8849 146.161C69.4424 145.971 68.9999 145.781 68.5436 145.585C61.7942 142.948 55.4277 142.387 48.5281 144.846C42.3893 147.73 38.2095 152.142 35.545 158.533C34.4352 161.791 33.9183 164.577 34.2731 168.059C33.5021 168.062 33.5016 168.062 32.7157 168.065C25.2091 168.423 19.4777 171.464 14.3998 177.202C9.32892 184.058 8.94455 190.197 9.68289 198.717C10.3123 201.284 11.1123 203.325 12.2267 205.724C11.6322 205.887 11.038 206.05 10.4252 206.217C6.10005 208.451 3.72145 212.164 1.30923 216.4C-0.604263 223.099 -0.588364 229.966 2.48596 236.283C4.90047 239.824 8.09956 242.484 11.3791 245.141C10.9675 246.256 10.9668 246.256 10.5472 247.393C8.7054 253.793 8.54353 261.914 11.2963 268.09C14.8275 274.075 19.3722 278.594 25.7931 281.055C28.625 281.602 31.3949 281.863 34.2731 281.931C34.2748 282.462 34.2776 282.992 34.2798 283.539C34.5974 290.651 36.8629 296.124 41.8742 301.106C48.419 306.452 54.9312 307.165 63.1022 306.457C65.5666 305.801 67.5713 304.954 69.8849 303.829C70.2449 304.241 70.6051 304.654 70.9754 305.079C76.0424 310.634 79.8367 312.691 87.2155 312.972C95.2186 312.754 99.8044 309.343 105.498 303.829C106.285 304.245 107.072 304.66 107.883 305.089C114.079 307.786 120.777 308.109 127.13 305.817C132.904 302.774 138.019 297.825 140.598 291.621C141.503 288.437 141.811 285.237 141.959 281.931C142.781 282.003 143.603 282.076 144.449 282.15C150.443 282.125 155.805 278.819 160.13 274.725C164.844 269.225 166.802 263.188 166.748 255.889C166.376 252.166 165.18 248.666 164.005 245.141C164.445 244.863 164.887 244.586 165.34 244.299C170.369 240.824 173.286 237.164 175.029 231.126C176.414 220.687 174.184 213.494 166.383 206.789Z" fill="url(#paint1_linear_146_759)"/>
<path d="M45.2862 252.015C46.8691 252.015 48.1524 250.727 48.1524 249.139C48.1524 247.551 46.8691 246.264 45.2862 246.264C43.7032 246.264 42.4199 247.551 42.4199 249.139C42.4199 250.727 43.7032 252.015 45.2862 252.015Z" fill="white"/>
<path d="M87.7061 252.015C89.289 252.015 90.5723 250.727 90.5723 249.139C90.5723 247.551 89.289 246.264 87.7061 246.264C86.1231 246.264 84.8398 247.551 84.8398 249.139C84.8398 250.727 86.1231 252.015 87.7061 252.015Z" fill="white"/>
<path d="M130.128 252.015C131.711 252.015 132.994 250.727 132.994 249.139C132.994 247.551 131.711 246.264 130.128 246.264C128.545 246.264 127.262 247.551 127.262 249.139C127.262 250.727 128.545 252.015 130.128 252.015Z" fill="white"/>
<path d="M68.7901 275.591C70.373 275.591 71.6563 274.303 71.6563 272.715C71.6563 271.127 70.373 269.84 68.7901 269.84C67.2071 269.84 65.9238 271.127 65.9238 272.715C65.9238 274.303 67.2071 275.591 68.7901 275.591Z" fill="white"/>
<path d="M109.491 275.591C111.074 275.591 112.357 274.303 112.357 272.715C112.357 271.127 111.074 269.84 109.491 269.84C107.908 269.84 106.625 271.127 106.625 272.715C106.625 274.303 107.908 275.591 109.491 275.591Z" fill="white"/>
<path d="M45.2862 252.015C46.8691 252.015 48.1524 250.727 48.1524 249.139C48.1524 247.551 46.8691 246.264 45.2862 246.264C43.7032 246.264 42.4199 247.551 42.4199 249.139C42.4199 250.727 43.7032 252.015 45.2862 252.015Z" fill="white"/>
<path d="M87.7061 252.015C89.289 252.015 90.5723 250.727 90.5723 249.139C90.5723 247.551 89.289 246.264 87.7061 246.264C86.1231 246.264 84.8398 247.551 84.8398 249.139C84.8398 250.727 86.1231 252.015 87.7061 252.015Z" fill="white"/>
<path d="M130.128 252.015C131.711 252.015 132.994 250.727 132.994 249.139C132.994 247.551 131.711 246.264 130.128 246.264C128.545 246.264 127.262 247.551 127.262 249.139C127.262 250.727 128.545 252.015 130.128 252.015Z" fill="white"/>
<path d="M68.7901 275.591C70.373 275.591 71.6563 274.303 71.6563 272.715C71.6563 271.127 70.373 269.84 68.7901 269.84C67.2071 269.84 65.9238 271.127 65.9238 272.715C65.9238 274.303 67.2071 275.591 68.7901 275.591Z" fill="white"/>
<path d="M109.491 275.591C111.074 275.591 112.357 274.303 112.357 272.715C112.357 271.127 111.074 269.84 109.491 269.84C107.908 269.84 106.625 271.127 106.625 272.715C106.625 274.303 107.908 275.591 109.491 275.591Z" fill="white"/>
<path d="M45.3467 218.589C46.9297 218.589 48.2129 217.301 48.2129 215.713C48.2129 214.125 46.9297 212.838 45.3467 212.838C43.7637 212.838 42.4805 214.125 42.4805 215.713C42.4805 217.301 43.7637 218.589 45.3467 218.589Z" fill="white"/>
<path d="M87.7627 218.589C89.3457 218.589 90.6289 217.301 90.6289 215.713C90.6289 214.125 89.3457 212.838 87.7627 212.838C86.1797 212.838 84.8965 214.125 84.8965 215.713C84.8965 217.301 86.1797 218.589 87.7627 218.589Z" fill="white"/>
<path d="M130.185 218.589C131.768 218.589 133.051 217.301 133.051 215.713C133.051 214.125 131.768 212.838 130.185 212.838C128.602 212.838 127.318 214.125 127.318 215.713C127.318 217.301 128.602 218.589 130.185 218.589Z" fill="white"/>
<path d="M45.3467 218.589C46.9297 218.589 48.2129 217.301 48.2129 215.713C48.2129 214.125 46.9297 212.838 45.3467 212.838C43.7637 212.838 42.4805 214.125 42.4805 215.713C42.4805 217.301 43.7637 218.589 45.3467 218.589Z" fill="white"/>
<path d="M87.7627 218.589C89.3457 218.589 90.6289 217.301 90.6289 215.713C90.6289 214.125 89.3457 212.838 87.7627 212.838C86.1797 212.838 84.8965 214.125 84.8965 215.713C84.8965 217.301 86.1797 218.589 87.7627 218.589Z" fill="white"/>
<path d="M130.185 218.589C131.768 218.589 133.051 217.301 133.051 215.713C133.051 214.125 131.768 212.838 130.185 212.838C128.602 212.838 127.318 214.125 127.318 215.713C127.318 217.301 128.602 218.589 130.185 218.589Z" fill="white"/>
<path d="M69.1045 189.696C70.6875 189.696 71.9707 188.409 71.9707 186.821C71.9707 185.233 70.6875 183.945 69.1045 183.945C67.5215 183.945 66.2383 185.233 66.2383 186.821C66.2383 188.409 67.5215 189.696 69.1045 189.696Z" fill="white"/>
<path d="M109.806 189.696C111.389 189.696 112.672 188.409 112.672 186.821C112.672 185.233 111.389 183.945 109.806 183.945C108.223 183.945 106.939 185.233 106.939 186.821C106.939 188.409 108.223 189.696 109.806 189.696Z" fill="white"/>
<path d="M69.1045 189.696C70.6875 189.696 71.9707 188.409 71.9707 186.821C71.9707 185.233 70.6875 183.945 69.1045 183.945C67.5215 183.945 66.2383 185.233 66.2383 186.821C66.2383 188.409 67.5215 189.696 69.1045 189.696Z" fill="white"/>
<path d="M109.806 189.696C111.389 189.696 112.672 188.409 112.672 186.821C112.672 185.233 111.389 183.945 109.806 183.945C108.223 183.945 106.939 185.233 106.939 186.821C106.939 188.409 108.223 189.696 109.806 189.696Z" fill="white"/>
<defs>
<linearGradient id="paint0_linear_146_759" x1="110" y1="15.4961" x2="270" y2="260.996" gradientUnits="userSpaceOnUse">
<stop stop-color="#C0C0C0"/>
<stop offset="1" stop-color="#949393"/>
</linearGradient>
<linearGradient id="paint1_linear_146_759" x1="87.7071" y1="136.996" x2="87.7071" y2="312.972" gradientUnits="userSpaceOnUse">
<stop stop-color="white"/>
<stop offset="0.520002" stop-color="#D9D9D9"/>
</linearGradient>
</defs>
</svg>
