<svg width="57" height="56" viewBox="0 0 57 56" fill="none" xmlns="http://www.w3.org/2000/svg">
<path d="M53.8519 22.3549C53.3808 21.9695 53.3811 21.9694 52.8092 22.0206C52.9393 21.7766 53.069 21.5325 53.203 21.2811C54.1546 19.2563 54.1468 17.3427 53.4429 15.246C52.5815 13.0652 51.334 11.7991 49.2457 10.7412C48.1133 10.3367 47.1573 10.118 45.9561 10.1911C45.949 10.0379 45.9419 9.88462 45.9346 9.72678C45.7626 7.40419 45.1102 5.92714 43.4035 4.32804C41.4355 2.70137 39.8609 2.34005 37.3311 2.38622C35.9668 2.52994 34.8334 2.96053 33.6211 3.58852C33.5039 3.33373 33.5037 3.33379 33.3842 3.07385C32.7591 1.89887 31.5872 1.19096 30.3703 0.713067C28.1914 0.154426 26.2627 0.443614 24.3202 1.54055C23.6109 2.0375 23.1164 2.57939 22.6564 3.31359C22.5133 3.25401 22.3698 3.19427 22.2226 3.13289C20.0404 2.30449 17.9826 2.12839 15.7522 2.90089C13.7677 3.80648 12.416 5.19236 11.5544 7.19932C11.1957 8.22269 11.0289 9.09768 11.1435 10.1911C10.8945 10.1921 10.8943 10.1921 10.6402 10.1932C8.21341 10.3056 6.36041 11.2603 4.71903 13.0623C3.07953 15.2156 2.9554 17.144 3.19414 19.8197C3.39747 20.6259 3.65625 21.2672 4.01655 22.0206C3.82418 22.0717 3.63201 22.1228 3.43401 22.1754C2.03543 22.8771 1.26682 24.0432 0.487018 25.3735C-0.131439 27.4773 -0.126467 29.6339 0.867324 31.6179C1.64776 32.7303 2.6822 33.5658 3.74241 34.4003C3.60926 34.7502 3.60913 34.7501 3.47347 35.1073C2.8782 37.1171 2.82571 39.668 3.71549 41.6076C4.85716 43.487 6.32653 44.9065 8.40246 45.6794C9.31793 45.8513 10.213 45.9329 11.1435 45.9546C11.1442 46.1213 11.1447 46.2875 11.1457 46.4594C11.2484 48.6931 11.9809 50.4123 13.601 51.9766C15.7167 53.6557 17.8219 53.8795 20.4636 53.6572C21.26 53.4511 21.9086 53.1851 22.6564 52.8318C22.7727 52.9613 22.8889 53.0908 23.0086 53.2242C24.6465 54.9693 25.8731 55.6151 28.2585 55.7034C30.8458 55.635 32.3287 54.5637 34.1693 52.8318C34.4237 52.9625 34.6779 53.0928 34.94 53.2272C36.9432 54.0745 39.1086 54.1762 41.1623 53.4562C43.0289 52.5005 44.6824 50.9464 45.5161 48.9976C45.8086 47.9976 45.9082 46.9928 45.9561 45.9546C46.2218 45.9772 46.4876 45.9997 46.7613 46.0232C48.699 46.0152 50.4323 44.9772 51.8305 43.6913C53.3544 41.964 53.9872 40.0681 53.9697 37.7755C53.8494 36.6063 53.4631 35.5075 53.0834 34.4003C53.2258 34.313 53.368 34.2256 53.5148 34.1358C55.1404 33.0442 56.0836 31.8947 56.6469 29.9984C57.0948 26.7199 56.3739 24.4609 53.8519 22.3549Z" fill="#FFD2A4"/>
</svg>
