<svg width="77" height="97" viewBox="0 0 77 97" fill="none" xmlns="http://www.w3.org/2000/svg">
<path d="M19.2139 76.0547H57.7868V68.8672H19.2139V76.0547ZM19.2139 55.6901H57.7868V48.5026H19.2139V55.6901ZM7.35449 96.4193C5.43783 96.4193 3.76074 95.7005 2.32324 94.263C0.885742 92.8255 0.166992 91.1484 0.166992 89.2318V7.77344C0.166992 5.85677 0.885742 4.17969 2.32324 2.74219C3.76074 1.30469 5.43783 0.585938 7.35449 0.585938H50.5993L76.8337 26.8203V89.2318C76.8337 91.1484 76.1149 92.8255 74.6774 94.263C73.2399 95.7005 71.5628 96.4193 69.6462 96.4193H7.35449ZM47.0055 30.0547H69.6462L47.0055 7.77344V30.0547Z" fill="#769BFF"/>
</svg>
