<svg width="115" height="115" viewBox="0 0 115 115" fill="none" xmlns="http://www.w3.org/2000/svg">
<mask id="mask0_1331_273" style="mask-type:alpha" maskUnits="userSpaceOnUse" x="0" y="0" width="115" height="115">
<rect width="115" height="115" fill="#D9D9D9"/>
</mask>
<g mask="url(#mask0_1331_273)">
<path d="M38.2139 85.0527H76.7868V77.8652H38.2139V85.0527ZM38.2139 64.6882H76.7868V57.5007H38.2139V64.6882ZM26.3545 105.417C24.4378 105.417 22.7607 104.699 21.3232 103.261C19.8857 101.824 19.167 100.146 19.167 98.2298V16.7715C19.167 14.8548 19.8857 13.1777 21.3232 11.7402C22.7607 10.3027 24.4378 9.58398 26.3545 9.58398H69.5993L95.8337 35.8184V98.2298C95.8337 100.146 95.1149 101.824 93.6774 103.261C92.2399 104.699 90.5628 105.417 88.6462 105.417H26.3545ZM66.0055 39.0527H88.6462L66.0055 16.7715V39.0527Z" fill="#A7A7A7"/>
</g>
</svg>
