<svg width="68" height="68" viewBox="0 0 68 68" fill="none" xmlns="http://www.w3.org/2000/svg">
<path d="M64.4993 26.9689C63.9344 26.4948 63.9343 26.4946 63.2486 26.5576C63.4045 26.2574 63.5604 25.9574 63.721 25.6481C64.8622 23.1569 64.8527 20.8023 64.0086 18.2226C62.9757 15.5394 61.4798 13.9816 58.9756 12.68C57.6177 12.1823 56.4716 11.9131 55.0311 12.003C55.0227 11.8145 55.0142 11.6261 55.0055 11.4319C54.7992 8.57426 54.0168 6.75676 51.9701 4.78928C49.6103 2.78787 47.7219 2.34352 44.6883 2.40032C43.0523 2.57716 41.6932 3.10684 40.2394 3.87951C40.0989 3.56602 40.0988 3.56616 39.9555 3.24633C39.2059 1.80067 37.8003 0.929383 36.341 0.341393C33.7283 -0.345943 31.4157 0.0100984 29.0865 1.35973C28.2359 1.97117 27.6427 2.63784 27.0913 3.54117C26.9197 3.46787 26.7481 3.39457 26.5713 3.31905C23.9548 2.29981 21.4868 2.08304 18.8121 3.0335C16.4324 4.14769 14.8117 5.85283 13.7788 8.32209C13.3486 9.58124 13.1483 10.6577 13.2858 12.003C12.987 12.0043 12.9869 12.0043 12.6821 12.0056C9.77213 12.144 7.55009 13.3189 5.58162 15.5361C3.61588 18.1854 3.46718 20.5578 3.75346 23.8498C3.99744 24.8418 4.30752 25.6307 4.73959 26.5576C4.50907 26.6204 4.27846 26.6834 4.041 26.7481C2.36419 27.6115 1.44246 29.046 0.507523 30.6827C-0.234016 33.2712 -0.2285 35.9248 0.963402 38.3659C1.89928 39.7343 3.13948 40.7625 4.41088 41.7891C4.25135 42.2198 4.25127 42.2197 4.08848 42.6591C3.37455 45.1322 3.31168 48.2705 4.37867 50.657C5.74752 52.9695 7.50943 54.7159 9.99864 55.6667C11.0964 55.8783 12.1699 55.979 13.2858 56.0054C13.2866 56.2105 13.2875 56.4153 13.2884 56.6266C13.4116 59.3748 14.2899 61.4898 16.2325 63.4147C18.7696 65.4806 21.294 65.756 24.4616 65.4825C25.4169 65.229 26.1944 64.9018 27.0913 64.4672C27.2307 64.6264 27.37 64.7855 27.5136 64.9496C29.4777 67.0965 30.9489 67.8913 33.8093 68C36.9118 67.9158 38.6897 66.598 40.8969 64.4672C41.202 64.6278 41.5069 64.7882 41.8212 64.9536C44.2233 65.9958 46.82 66.1209 49.2826 65.2352C51.5209 64.0592 53.5037 62.147 54.5035 59.7497C54.8543 58.5192 54.9737 57.2828 55.0311 56.0054C55.3498 56.0333 55.6684 56.061 55.9967 56.0897C58.3202 56.0801 60.3986 54.8025 62.0752 53.2206C63.9026 51.0955 64.6614 48.7628 64.6404 45.9422C64.4962 44.5035 64.0327 43.1514 63.5773 41.7891C63.748 41.6818 63.919 41.5743 64.0949 41.4638C66.0443 40.1206 67.1751 38.7066 67.8505 36.3734C68.3877 32.3396 67.5235 29.5602 64.4993 26.9689Z" fill="#769BFF"/>
</svg>
