<svg width="121" height="121" viewBox="0 0 121 121" fill="none" xmlns="http://www.w3.org/2000/svg">
<path d="M90.5 60.5C90.5 68.4565 87.3393 76.0871 81.7132 81.7132C76.0871 87.3393 68.4565 90.5 60.5 90.5C52.5435 90.5 44.9129 87.3393 39.2868 81.7132C33.6607 76.0871 30.5 68.4565 30.5 60.5C30.5 52.5435 33.6607 44.9129 39.2868 39.2868C44.9129 33.6607 52.5435 30.5 60.5 30.5C68.4565 30.5 76.0871 33.6607 81.7132 39.2868C87.3393 44.9129 90.5 52.5435 90.5 60.5Z" fill="#A8A8A8"/>
<path fill-rule="evenodd" clip-rule="evenodd" d="M60.5 6.75C61.4946 6.75 62.4484 7.14509 63.1516 7.84835C63.8549 8.55161 64.25 9.50544 64.25 10.5V15.5C64.25 16.4946 63.8549 17.4484 63.1516 18.1517C62.4484 18.8549 61.4946 19.25 60.5 19.25C59.5054 19.25 58.5516 18.8549 57.8484 18.1517C57.1451 17.4484 56.75 16.4946 56.75 15.5V10.5C56.75 9.50544 57.1451 8.55161 57.8484 7.84835C58.5516 7.14509 59.5054 6.75 60.5 6.75ZM22.495 22.495C23.1981 21.7927 24.1512 21.3983 25.145 21.3983C26.1388 21.3983 27.0919 21.7927 27.795 22.495L29.76 24.455C30.4434 25.1619 30.8219 26.109 30.8138 27.0923C30.8057 28.0755 30.4118 29.0162 29.7168 29.7119C29.0219 30.4075 28.0815 30.8023 27.0983 30.8113C26.115 30.8203 25.1676 30.4428 24.46 29.76L22.495 27.795C21.7927 27.0919 21.3983 26.1388 21.3983 25.145C21.3983 24.1512 21.7927 23.1981 22.495 22.495ZM98.505 22.495C99.2073 23.1981 99.6017 24.1512 99.6017 25.145C99.6017 26.1388 99.2073 27.0919 98.505 27.795L96.54 29.76C95.8291 30.4224 94.8889 30.783 93.9174 30.7659C92.9459 30.7487 92.019 30.3552 91.3319 29.6681C90.6448 28.981 90.2513 28.0541 90.2341 27.0826C90.217 26.1111 90.5776 25.1709 91.24 24.46L93.205 22.495C93.9081 21.7927 94.8612 21.3983 95.855 21.3983C96.8487 21.3983 97.8019 21.7927 98.505 22.495ZM6.75 60.5C6.75 59.5054 7.14509 58.5516 7.84835 57.8484C8.55161 57.1451 9.50544 56.75 10.5 56.75H15.5C16.4946 56.75 17.4484 57.1451 18.1517 57.8484C18.8549 58.5516 19.25 59.5054 19.25 60.5C19.25 61.4946 18.8549 62.4484 18.1517 63.1516C17.4484 63.8549 16.4946 64.25 15.5 64.25H10.5C9.50544 64.25 8.55161 63.8549 7.84835 63.1516C7.14509 62.4484 6.75 61.4946 6.75 60.5ZM101.75 60.5C101.75 59.5054 102.145 58.5516 102.848 57.8484C103.552 57.1451 104.505 56.75 105.5 56.75H110.5C111.495 56.75 112.448 57.1451 113.152 57.8484C113.855 58.5516 114.25 59.5054 114.25 60.5C114.25 61.4946 113.855 62.4484 113.152 63.1516C112.448 63.8549 111.495 64.25 110.5 64.25H105.5C104.505 64.25 103.552 63.8549 102.848 63.1516C102.145 62.4484 101.75 61.4946 101.75 60.5ZM91.24 91.24C91.9431 90.5378 92.8962 90.1433 93.89 90.1433C94.8838 90.1433 95.8369 90.5378 96.54 91.24L98.505 93.205C98.8734 93.5483 99.1689 93.9623 99.3739 94.4223C99.5789 94.8823 99.6891 95.3789 99.698 95.8824C99.7068 96.3859 99.6142 96.886 99.4256 97.353C99.237 97.8199 98.9563 98.2441 98.6002 98.6002C98.2441 98.9563 97.8199 99.237 97.353 99.4256C96.886 99.6142 96.3859 99.7068 95.8824 99.698C95.3789 99.6891 94.8823 99.5789 94.4223 99.3739C93.9623 99.1689 93.5483 98.8734 93.205 98.505L91.24 96.54C90.5378 95.8369 90.1433 94.8838 90.1433 93.89C90.1433 92.8962 90.5378 91.9431 91.24 91.24ZM29.76 91.24C30.4623 91.9431 30.8567 92.8962 30.8567 93.89C30.8567 94.8838 30.4623 95.8369 29.76 96.54L27.795 98.505C27.4517 98.8734 27.0377 99.1689 26.5777 99.3739C26.1177 99.5789 25.6211 99.6891 25.1176 99.698C24.6141 99.7068 24.114 99.6142 23.647 99.4256C23.1801 99.237 22.7559 98.9563 22.3998 98.6002C22.0437 98.2441 21.763 97.8199 21.5744 97.353C21.3858 96.886 21.2932 96.3859 21.302 95.8824C21.3109 95.3789 21.4211 94.8823 21.6261 94.4223C21.8311 93.9623 22.1266 93.5483 22.495 93.205L24.455 91.24C24.8033 90.8915 25.2168 90.6151 25.6719 90.4265C26.127 90.2379 26.6148 90.1408 27.1075 90.1408C27.6002 90.1408 28.088 90.2379 28.5431 90.4265C28.9982 90.6151 29.4118 90.8915 29.76 91.24ZM60.5 101.75C61.4946 101.75 62.4484 102.145 63.1516 102.848C63.8549 103.552 64.25 104.505 64.25 105.5V110.5C64.25 111.495 63.8549 112.448 63.1516 113.152C62.4484 113.855 61.4946 114.25 60.5 114.25C59.5054 114.25 58.5516 113.855 57.8484 113.152C57.1451 112.448 56.75 111.495 56.75 110.5V105.5C56.75 104.505 57.1451 103.552 57.8484 102.848C58.5516 102.145 59.5054 101.75 60.5 101.75Z" fill="#A8A8A8"/>
</svg>
