<svg width="65" height="65" viewBox="0 0 65 65" fill="none" xmlns="http://www.w3.org/2000/svg">
<mask id="mask0_93_3615" style="mask-type:alpha" maskUnits="userSpaceOnUse" x="0" y="0" width="65" height="65">
<rect width="65" height="65" fill="#D9D9D9"/>
</mask>
<g mask="url(#mask0_93_3615)">
<path d="M8.125 27.4216C8.125 25.3903 8.74566 23.4042 9.98698 21.4632C11.2283 19.5222 13.0451 18.2132 15.4375 17.5361C16.1597 13.0674 18.1571 9.47884 21.4297 6.77051C24.7023 4.06217 28.3924 2.70801 32.5 2.70801C36.6076 2.70801 40.2865 4.06217 43.5365 6.77051C46.7865 9.47884 48.7951 13.0674 49.5625 17.5361C51.9549 18.2132 53.7717 19.5222 55.013 21.4632C56.2543 23.4042 56.875 25.3903 56.875 27.4216C56.875 30.807 55.5998 33.4476 53.0495 35.3434C50.4991 37.2393 47.8021 37.9163 44.9583 37.3747L34.2604 58.6351C34.0347 58.9962 33.7639 59.2783 33.4479 59.4814C33.1319 59.6846 32.7934 59.7861 32.4323 59.7861C32.0712 59.7861 31.7214 59.6846 31.3828 59.4814C31.0443 59.2783 30.7847 58.9962 30.6042 58.6351L20.1771 37.3747C17.0625 37.9163 14.2752 37.2393 11.8151 35.3434C9.35503 33.4476 8.125 30.807 8.125 27.4216ZM32.4323 53.083L41.099 36.0205L40.6927 35.6143C39.4288 36.2913 38.0634 36.7879 36.5964 37.1038C35.1293 37.4198 33.8316 37.5778 32.7031 37.5778C31.2587 37.5778 29.7917 37.4198 28.3021 37.1038C26.8125 36.7879 25.5035 36.2913 24.375 35.6143L23.9687 35.9528L32.4323 53.083Z" fill="#A8A8A8"/>
</g>
</svg>
