<svg width="218" height="199" viewBox="0 0 218 199" fill="none" xmlns="http://www.w3.org/2000/svg">
<path d="M75 155C116.421 155 150 121.421 150 80C150 38.5786 116.421 5 75 5C33.5786 5 0 38.5786 0 80C0 121.421 33.5786 155 75 155Z" fill="#FFDFDF"/>
<path d="M144.617 57.9268L181.44 21.083H133.68V0.25H217.013V83.583H196.18V35.8125L159.336 72.6562C193.959 118.042 169.803 184.027 114.06 196.33C58.3172 208.633 8.62994 158.946 20.933 103.203C33.236 47.4608 99.2212 23.3035 144.607 57.9268H144.617ZM97.2211 177.333C128.862 177.333 154.513 151.683 154.513 120.042C154.513 88.4004 128.862 62.75 97.2211 62.75C65.5798 62.75 39.93 88.4004 39.93 120.042C39.93 151.683 65.5798 177.333 97.2211 177.333Z" fill="black"/>
</svg>
