<svg width="115" height="115" viewBox="0 0 115 115" fill="none" xmlns="http://www.w3.org/2000/svg">
<path d="M109.08 45.6092C108.124 44.8074 108.124 44.807 106.964 44.9135C107.228 44.4059 107.492 43.8985 107.764 43.3755C109.693 39.1625 109.677 35.1804 108.25 30.8176C106.503 26.2798 103.973 23.6453 99.7382 21.4441C97.4417 20.6024 95.5035 20.1471 93.0673 20.2992C93.0531 19.9804 93.0388 19.6618 93.0241 19.3333C92.6752 14.5006 91.3519 11.4269 87.8906 8.09951C83.8998 4.71478 80.7062 3.9633 75.5758 4.05936C72.809 4.35843 70.5106 5.25422 68.052 6.56094C67.8144 6.03077 67.8142 6.03101 67.5719 5.49012C66.3041 3.04526 63.9269 1.57175 61.4591 0.577355C57.0405 -0.585051 53.1295 0.0170782 49.1904 2.29955C47.752 3.33359 46.7487 4.46105 45.8162 5.98875C45.526 5.86478 45.2358 5.74082 44.9368 5.61309C40.5117 3.88938 36.338 3.52278 31.8146 5.13018C27.7901 7.01447 25.0492 9.89816 23.3024 14.0741C22.5748 16.2036 22.236 18.0241 22.4686 20.2992C21.9634 20.3013 21.9631 20.3014 21.4477 20.3037C16.5264 20.5376 12.7685 22.5246 9.43951 26.2743C6.11509 30.7547 5.86361 34.7669 6.34776 40.3343C6.76038 42.0119 7.28477 43.3461 8.01549 44.9135C7.62564 45.0198 7.23563 45.1264 6.83405 45.2358C3.99826 46.6959 2.43945 49.1219 0.858307 51.8899C-0.395767 56.2675 -0.386444 60.7553 1.62928 64.8835C3.21203 67.1977 5.30943 68.9365 7.45958 70.6728C7.18979 71.4011 7.18965 71.401 6.91434 72.144C5.70695 76.3266 5.60065 81.6339 7.40511 85.67C9.72007 89.5808 12.6998 92.5342 16.9095 94.1422C18.766 94.5 20.5815 94.6704 22.4686 94.715C22.4699 95.0618 22.4716 95.4082 22.4731 95.7656C22.6813 100.413 24.1668 103.99 27.4521 107.245C31.7427 110.739 36.012 111.205 41.3689 110.743C42.9844 110.314 44.2993 109.76 45.8162 109.025C46.0519 109.295 46.2876 109.564 46.5304 109.841C49.852 113.472 52.34 114.816 57.1775 115C62.4244 114.858 65.4311 112.629 69.1638 109.025C69.6798 109.297 70.1955 109.568 70.7271 109.848C74.7893 111.611 79.1809 111.822 83.3456 110.324C87.131 108.336 90.4842 105.102 92.1751 101.047C92.7682 98.9664 92.9703 96.8753 93.0673 94.715C93.6062 94.7621 94.145 94.809 94.7002 94.8576C98.6297 94.8413 102.145 92.6807 104.98 90.0055C108.071 86.4115 109.354 82.4665 109.318 77.6963C109.074 75.2633 108.291 72.9766 107.52 70.6728C107.809 70.4913 108.098 70.3095 108.396 70.1225C111.693 67.8509 113.605 65.4597 114.747 61.5138C115.656 54.692 114.194 49.9914 109.08 45.6092Z" fill="#A7A7A7"/>
<path d="M34.125 78.7C45.2397 78.7 54.25 68.9174 54.25 56.85C54.25 44.7826 45.2397 35 34.125 35C23.0103 35 14 44.7826 14 56.85C14 68.9174 23.0103 78.7 34.125 78.7Z" fill="white"/>
<path d="M67.4746 78.7C78.5893 78.7 87.5996 68.9174 87.5996 56.85C87.5996 44.7826 78.5893 35 67.4746 35C56.3599 35 47.3496 44.7826 47.3496 56.85C47.3496 68.9174 56.3599 78.7 67.4746 78.7Z" fill="white"/>
<path d="M29.5246 67.2008C35.5583 67.2008 40.4496 61.7946 40.4496 55.1258C40.4496 48.4569 35.5583 43.0508 29.5246 43.0508C23.4909 43.0508 18.5996 48.4569 18.5996 55.1258C18.5996 61.7946 23.4909 67.2008 29.5246 67.2008Z" fill="black"/>
<path d="M64.0246 67.2008C70.0583 67.2008 74.9496 61.7946 74.9496 55.1258C74.9496 48.4569 70.0583 43.0508 64.0246 43.0508C57.9909 43.0508 53.0996 48.4569 53.0996 55.1258C53.0996 61.7946 57.9909 67.2008 64.0246 67.2008Z" fill="black"/>
</svg>
