<svg width="72" height="72" viewBox="0 0 72 72" fill="none" xmlns="http://www.w3.org/2000/svg">
<path d="M68.2934 28.5554C67.6953 28.0533 67.6951 28.0531 66.9691 28.1198C67.1342 27.802 67.2992 27.4843 67.4693 27.1568C68.6776 24.5191 68.6676 22.026 67.7738 19.2945C66.6801 16.4535 65.0963 14.804 62.4448 13.4259C61.007 12.8989 59.7935 12.6139 58.2682 12.709C58.2593 12.5095 58.2504 12.31 58.2412 12.1044C58.0227 9.07863 57.1942 7.15422 55.0272 5.071C52.5286 2.95186 50.5291 2.48137 47.317 2.54151C45.5848 2.72875 44.1457 3.2896 42.6065 4.10772C42.4577 3.77579 42.4576 3.77594 42.3059 3.43729C41.5121 1.90659 40.0238 0.984052 38.4788 0.361475C35.7123 -0.366293 33.2637 0.0106924 30.7975 1.43972C29.8969 2.08712 29.2688 2.793 28.6849 3.74948C28.5033 3.67186 28.3216 3.59425 28.1344 3.51428C25.3639 2.43509 22.7507 2.20557 19.9187 3.21194C17.399 4.39167 15.683 6.19711 14.5893 8.81162C14.1338 10.1448 13.9217 11.2847 14.0673 12.709C13.751 12.7104 13.7508 12.7104 13.4281 12.7119C10.347 12.8583 7.99422 14.1024 5.90996 16.45C3.82858 19.2551 3.67113 21.7671 3.97425 25.2528C4.23259 26.3031 4.56091 27.1384 5.01839 28.1198C4.77431 28.1863 4.53013 28.253 4.27871 28.3216C2.50326 29.2357 1.52731 30.7546 0.537376 32.4876C-0.247787 35.2283 -0.241943 38.0381 1.02007 40.6227C2.01101 42.0716 3.32416 43.1603 4.67035 44.2473C4.50143 44.7033 4.50135 44.7032 4.32898 45.1684C3.57305 47.7871 3.50649 51.1099 4.63625 53.6368C6.08561 56.0854 7.95116 57.9344 10.5868 58.9412C11.7492 59.1652 12.8858 59.2719 14.0673 59.2998C14.0681 59.517 14.0691 59.7338 14.0701 59.9576C14.2005 62.8675 15.1305 65.1069 17.1874 67.1449C19.8737 69.3324 22.5466 69.624 25.9005 69.3344C26.912 69.066 27.7352 68.7196 28.6849 68.2594C28.8325 68.428 28.98 68.5965 29.1321 68.7702C31.2117 71.0434 32.7694 71.8849 35.7981 72C39.0831 71.9109 40.9656 70.5155 43.3025 68.2594C43.6256 68.4294 43.9485 68.5992 44.2813 68.7744C46.8246 69.878 49.5741 70.0104 52.1816 69.0725C54.5516 67.8274 56.651 65.8027 57.7096 63.2644C58.081 61.9615 58.2075 60.6523 58.2682 59.2998C58.6056 59.3293 58.943 59.3587 59.2906 59.3891C61.7507 59.3789 63.9514 58.0262 65.7266 56.3513C67.6616 54.1011 68.465 51.6312 68.4428 48.6447C68.29 47.1214 67.7993 45.6897 67.3171 44.2473C67.4979 44.1337 67.6789 44.0199 67.8652 43.9028C69.9292 42.4806 71.1266 40.9835 71.8417 38.513C72.4105 34.242 71.4955 31.299 68.2934 28.5554Z" fill="#DB8989"/>
<path d="M21.3656 49.2741C28.3244 49.2741 33.9656 43.1493 33.9656 35.5941C33.9656 28.0388 28.3244 21.9141 21.3656 21.9141C14.4068 21.9141 8.76562 28.0388 8.76562 35.5941C8.76562 43.1493 14.4068 49.2741 21.3656 49.2741Z" fill="white"/>
<path d="M42.2445 49.2741C49.2033 49.2741 54.8445 43.1493 54.8445 35.5941C54.8445 28.0388 49.2033 21.9141 42.2445 21.9141C35.2857 21.9141 29.6445 28.0388 29.6445 35.5941C29.6445 43.1493 35.2857 49.2741 42.2445 49.2741Z" fill="white"/>
<path d="M18.4845 42.0741C22.2622 42.0741 25.3245 38.6894 25.3245 34.5141C25.3245 30.3388 22.2622 26.9541 18.4845 26.9541C14.7069 26.9541 11.6445 30.3388 11.6445 34.5141C11.6445 38.6894 14.7069 42.0741 18.4845 42.0741Z" fill="black"/>
<path d="M40.0861 42.0741C43.8637 42.0741 46.9261 38.6894 46.9261 34.5141C46.9261 30.3388 43.8637 26.9541 40.0861 26.9541C36.3085 26.9541 33.2461 30.3388 33.2461 34.5141C33.2461 38.6894 36.3085 42.0741 40.0861 42.0741Z" fill="black"/>
</svg>
