<svg width="68" height="78" viewBox="0 0 68 78" fill="none" xmlns="http://www.w3.org/2000/svg">
<path d="M0.666626 65.7943V60.0471H8.99996V30.9284C8.99996 25.5644 10.7187 20.7591 14.1562 16.5126C17.5937 12.2662 22.125 9.60013 27.75 8.51456V6.40728C27.75 4.81086 28.3576 3.4539 29.5729 2.3364C30.7882 1.2189 32.2638 0.660156 34 0.660156C35.7361 0.660156 37.2118 1.2189 38.427 2.3364C39.6423 3.4539 40.25 4.81086 40.25 6.40728V8.51456C45.875 9.60013 50.4062 12.2662 53.8437 16.5126C57.2812 20.7591 59 25.5644 59 30.9284V60.0471H67.3333V65.7943H0.666626ZM34 77.2885C31.7083 77.2885 29.7465 76.5382 28.1145 75.0376C26.4826 73.5369 25.6666 71.7329 25.6666 69.6257H42.3333C42.3333 71.7329 41.5173 73.5369 39.8854 75.0376C38.2534 76.5382 36.2916 77.2885 34 77.2885Z" fill="#769BFF"/>
</svg>
