<svg width="58" height="56" viewBox="0 0 58 56" fill="none" xmlns="http://www.w3.org/2000/svg">
<path d="M54.434 22.2162C53.9629 21.8308 53.9631 21.8307 53.3912 21.8819C53.5213 21.6379 53.651 21.3938 53.785 21.1424C54.7367 19.1177 54.7289 17.2041 54.0249 15.1073C53.1635 12.9265 51.9161 11.6604 49.8278 10.6026C48.6953 10.198 47.7394 9.97933 46.5381 10.0524C46.531 9.8992 46.5239 9.74595 46.5167 9.58811C46.3446 7.26552 45.6923 5.78847 43.9855 4.18936C42.0175 2.5627 40.443 2.20138 37.9131 2.24755C36.5488 2.39127 35.4155 2.82186 34.2031 3.44985C34.0859 3.19506 34.0858 3.19512 33.9663 2.93517C33.3411 1.7602 32.1692 1.05229 30.9523 0.574396C28.7734 0.0157536 26.8447 0.304942 24.9023 1.40188C24.193 1.89883 23.6984 2.44071 23.2385 3.17492C23.0953 3.11534 22.9519 3.0556 22.8046 2.99422C20.6225 2.16581 18.5646 1.98972 16.3342 2.76222C14.3498 3.66781 12.9981 5.05369 12.1365 7.06065C11.7777 8.08402 11.6109 8.95901 11.7256 10.0524C11.4765 10.0535 11.4764 10.0534 11.2223 10.0545C8.79544 10.1669 6.94245 11.1216 5.30106 12.9237C3.66156 15.0769 3.53743 17.0053 3.77617 19.681C3.9795 20.4872 4.23829 21.1286 4.59859 21.8819C4.40622 21.933 4.21405 21.9841 4.01604 22.0367C2.61747 22.7384 1.84886 23.9045 1.06905 25.2348C0.450596 27.3386 0.45557 29.4953 1.44936 31.4792C2.22979 32.5916 3.26424 33.4271 4.32445 34.2616C4.1913 34.6116 4.19117 34.6114 4.05551 34.9686C3.46024 36.9784 3.40775 39.5293 4.29752 41.4689C5.43919 43.3483 6.90856 44.7679 8.98449 45.5407C9.89996 45.7126 10.7951 45.7943 11.7256 45.8159C11.7262 45.9827 11.7268 46.1489 11.7277 46.3208C11.8305 48.5544 12.5629 50.2736 14.183 51.8379C16.2988 53.517 18.4039 53.7408 21.0457 53.5185C21.8421 53.3124 22.4906 53.0464 23.2385 52.6931C23.3547 52.8226 23.4709 52.9521 23.5906 53.0855C25.2286 54.8306 26.4551 55.4764 28.8406 55.5647C31.4278 55.4963 32.9107 54.425 34.7514 52.6931C35.0058 52.8238 35.26 52.9542 35.5221 53.0885C37.5252 53.9359 39.6907 54.0375 41.7443 53.3175C43.6109 52.3618 45.2644 50.8077 46.0981 48.859C46.3907 47.859 46.4902 46.8541 46.5381 45.8159C46.8038 45.8385 47.0696 45.861 47.3434 45.8845C49.281 45.8766 51.0143 44.8385 52.4125 43.5527C53.9364 41.8253 54.5692 39.9294 54.5517 37.6368C54.4314 36.4677 54.0452 35.3688 53.6654 34.2616C53.8078 34.1743 53.9501 34.0869 54.0968 33.9971C55.7224 32.9055 56.6657 31.756 57.2289 29.8597C57.6769 26.5812 56.9559 24.3222 54.434 22.2162Z" fill="#769BFF"/>
<path d="M23.9 39.6992L12.7 28.4992L14.85 26.3492L23.9 35.3992L43.1 16.1992L45.25 18.3492L23.9 39.6992Z" fill="white"/>
</svg>
