<svg width="97" height="77" viewBox="0 0 97 77" fill="none" xmlns="http://www.w3.org/2000/svg">
<path d="M7.77051 76.8307C5.85384 76.8307 4.17676 76.112 2.73926 74.6745C1.30176 73.237 0.583008 71.5599 0.583008 69.6432V7.35156C0.583008 5.4349 1.30176 3.75781 2.73926 2.32031C4.17676 0.882812 5.85384 0.164062 7.77051 0.164062H89.2288C91.1455 0.164062 92.8226 0.882812 94.2601 2.32031C95.6976 3.75781 96.4164 5.4349 96.4164 7.35156V69.6432C96.4164 71.5599 95.6976 73.237 94.2601 74.6745C92.8226 76.112 91.1455 76.8307 89.2288 76.8307H7.77051ZM7.77051 35.862H89.2288V20.4089H7.77051V35.862Z" fill="#769BFF"/>
</svg>
