<svg width="115" height="115" viewBox="0 0 115 115" fill="none" xmlns="http://www.w3.org/2000/svg">
<mask id="mask0_1331_268" style="mask-type:alpha" maskUnits="userSpaceOnUse" x="0" y="0" width="115" height="115">
<rect width="115" height="115" fill="#D9D9D9"/>
</mask>
<g mask="url(#mask0_1331_268)">
<path d="M16.7705 95.8327C14.8538 95.8327 13.1768 95.1139 11.7393 93.6764C10.3018 92.2389 9.58301 90.5618 9.58301 88.6452V26.3535C9.58301 24.4368 10.3018 22.7598 11.7393 21.3223C13.1768 19.8848 14.8538 19.166 16.7705 19.166H98.2288C100.146 19.166 101.823 19.8848 103.26 21.3223C104.698 22.7598 105.416 24.4368 105.416 26.3535V88.6452C105.416 90.5618 104.698 92.2389 103.26 93.6764C101.823 95.1139 100.146 95.8327 98.2288 95.8327H16.7705ZM16.7705 54.8639H98.2288V39.4108H16.7705V54.8639Z" fill="#A7A7A7"/>
</g>
</svg>
