<svg width="300" height="300" viewBox="0 0 300 300" fill="none" xmlns="http://www.w3.org/2000/svg">
<g clip-path="url(#clip0_119_2776)">
<path d="M300 0H0V300H300V0Z" fill="white"/>
<path d="M24.1212 16H16V24.1212H24.1212V16Z" fill="black"/>
<path d="M32.2424 16H24.1212V24.1212H32.2424V16Z" fill="black"/>
<path d="M40.3636 16H32.2424V24.1212H40.3636V16Z" fill="black"/>
<path d="M48.4848 16H40.3636V24.1212H48.4848V16Z" fill="black"/>
<path d="M56.6061 16H48.4848V24.1212H56.6061V16Z" fill="black"/>
<path d="M64.7273 16H56.6061V24.1212H64.7273V16Z" fill="black"/>
<path d="M72.8485 16H64.7273V24.1212H72.8485V16Z" fill="black"/>
<path d="M89.0909 16H80.9697V24.1212H89.0909V16Z" fill="black"/>
<path d="M97.2121 16H89.0909V24.1212H97.2121V16Z" fill="black"/>
<path d="M121.576 16H113.455V24.1212H121.576V16Z" fill="black"/>
<path d="M137.818 16H129.697V24.1212H137.818V16Z" fill="black"/>
<path d="M145.939 16H137.818V24.1212H145.939V16Z" fill="black"/>
<path d="M194.667 16H186.545V24.1212H194.667V16Z" fill="black"/>
<path d="M219.03 16H210.909V24.1212H219.03V16Z" fill="black"/>
<path d="M235.273 16H227.152V24.1212H235.273V16Z" fill="black"/>
<path d="M243.394 16H235.273V24.1212H243.394V16Z" fill="black"/>
<path d="M251.515 16H243.394V24.1212H251.515V16Z" fill="black"/>
<path d="M259.636 16H251.515V24.1212H259.636V16Z" fill="black"/>
<path d="M267.758 16H259.636V24.1212H267.758V16Z" fill="black"/>
<path d="M275.879 16H267.758V24.1212H275.879V16Z" fill="black"/>
<path d="M284 16H275.879V24.1212H284V16Z" fill="black"/>
<path d="M24.1212 24.1212H16V32.2424H24.1212V24.1212Z" fill="black"/>
<path d="M72.8485 24.1212H64.7273V32.2424H72.8485V24.1212Z" fill="black"/>
<path d="M97.2121 24.1212H89.0909V32.2424H97.2121V24.1212Z" fill="black"/>
<path d="M105.333 24.1212H97.2121V32.2424H105.333V24.1212Z" fill="black"/>
<path d="M137.818 24.1212H129.697V32.2424H137.818V24.1212Z" fill="black"/>
<path d="M162.182 24.1212H154.061V32.2424H162.182V24.1212Z" fill="black"/>
<path d="M186.545 24.1212H178.424V32.2424H186.545V24.1212Z" fill="black"/>
<path d="M194.667 24.1212H186.545V32.2424H194.667V24.1212Z" fill="black"/>
<path d="M219.03 24.1212H210.909V32.2424H219.03V24.1212Z" fill="black"/>
<path d="M235.273 24.1212H227.152V32.2424H235.273V24.1212Z" fill="black"/>
<path d="M284 24.1212H275.879V32.2424H284V24.1212Z" fill="black"/>
<path d="M24.1212 32.2424H16V40.3636H24.1212V32.2424Z" fill="black"/>
<path d="M40.3636 32.2424H32.2424V40.3636H40.3636V32.2424Z" fill="black"/>
<path d="M48.4848 32.2424H40.3636V40.3636H48.4848V32.2424Z" fill="black"/>
<path d="M56.6061 32.2424H48.4848V40.3636H56.6061V32.2424Z" fill="black"/>
<path d="M72.8485 32.2424H64.7273V40.3636H72.8485V32.2424Z" fill="black"/>
<path d="M129.697 32.2424H121.576V40.3636H129.697V32.2424Z" fill="black"/>
<path d="M137.818 32.2424H129.697V40.3636H137.818V32.2424Z" fill="black"/>
<path d="M178.424 32.2424H170.303V40.3636H178.424V32.2424Z" fill="black"/>
<path d="M186.545 32.2424H178.424V40.3636H186.545V32.2424Z" fill="black"/>
<path d="M235.273 32.2424H227.152V40.3636H235.273V32.2424Z" fill="black"/>
<path d="M251.515 32.2424H243.394V40.3636H251.515V32.2424Z" fill="black"/>
<path d="M259.636 32.2424H251.515V40.3636H259.636V32.2424Z" fill="black"/>
<path d="M267.758 32.2424H259.636V40.3636H267.758V32.2424Z" fill="black"/>
<path d="M284 32.2424H275.879V40.3636H284V32.2424Z" fill="black"/>
<path d="M24.1212 40.3636H16V48.4848H24.1212V40.3636Z" fill="black"/>
<path d="M40.3636 40.3636H32.2424V48.4848H40.3636V40.3636Z" fill="black"/>
<path d="M48.4848 40.3636H40.3636V48.4848H48.4848V40.3636Z" fill="black"/>
<path d="M56.6061 40.3636H48.4848V48.4848H56.6061V40.3636Z" fill="black"/>
<path d="M72.8485 40.3636H64.7273V48.4848H72.8485V40.3636Z" fill="black"/>
<path d="M97.2121 40.3636H89.0909V48.4848H97.2121V40.3636Z" fill="black"/>
<path d="M121.576 40.3636H113.455V48.4848H121.576V40.3636Z" fill="black"/>
<path d="M137.818 40.3636H129.697V48.4848H137.818V40.3636Z" fill="black"/>
<path d="M154.061 40.3636H145.939V48.4848H154.061V40.3636Z" fill="black"/>
<path d="M186.545 40.3636H178.424V48.4848H186.545V40.3636Z" fill="black"/>
<path d="M210.909 40.3636H202.788V48.4848H210.909V40.3636Z" fill="black"/>
<path d="M219.03 40.3636H210.909V48.4848H219.03V40.3636Z" fill="black"/>
<path d="M235.273 40.3636H227.152V48.4848H235.273V40.3636Z" fill="black"/>
<path d="M251.515 40.3636H243.394V48.4848H251.515V40.3636Z" fill="black"/>
<path d="M259.636 40.3636H251.515V48.4848H259.636V40.3636Z" fill="black"/>
<path d="M267.758 40.3636H259.636V48.4848H267.758V40.3636Z" fill="black"/>
<path d="M284 40.3636H275.879V48.4848H284V40.3636Z" fill="black"/>
<path d="M24.1212 48.4848H16V56.6061H24.1212V48.4848Z" fill="black"/>
<path d="M40.3636 48.4848H32.2424V56.6061H40.3636V48.4848Z" fill="black"/>
<path d="M48.4848 48.4848H40.3636V56.6061H48.4848V48.4848Z" fill="black"/>
<path d="M56.6061 48.4848H48.4848V56.6061H56.6061V48.4848Z" fill="black"/>
<path d="M72.8485 48.4848H64.7273V56.6061H72.8485V48.4848Z" fill="black"/>
<path d="M89.0909 48.4848H80.9697V56.6061H89.0909V48.4848Z" fill="black"/>
<path d="M121.576 48.4848H113.455V56.6061H121.576V48.4848Z" fill="black"/>
<path d="M129.697 48.4848H121.576V56.6061H129.697V48.4848Z" fill="black"/>
<path d="M145.939 48.4848H137.818V56.6061H145.939V48.4848Z" fill="black"/>
<path d="M170.303 48.4848H162.182V56.6061H170.303V48.4848Z" fill="black"/>
<path d="M186.545 48.4848H178.424V56.6061H186.545V48.4848Z" fill="black"/>
<path d="M194.667 48.4848H186.545V56.6061H194.667V48.4848Z" fill="black"/>
<path d="M235.273 48.4848H227.152V56.6061H235.273V48.4848Z" fill="black"/>
<path d="M251.515 48.4848H243.394V56.6061H251.515V48.4848Z" fill="black"/>
<path d="M259.636 48.4848H251.515V56.6061H259.636V48.4848Z" fill="black"/>
<path d="M267.758 48.4848H259.636V56.6061H267.758V48.4848Z" fill="black"/>
<path d="M284 48.4848H275.879V56.6061H284V48.4848Z" fill="black"/>
<path d="M24.1212 56.6061H16V64.7273H24.1212V56.6061Z" fill="black"/>
<path d="M72.8485 56.6061H64.7273V64.7273H72.8485V56.6061Z" fill="black"/>
<path d="M97.2121 56.6061H89.0909V64.7273H97.2121V56.6061Z" fill="black"/>
<path d="M121.576 56.6061H113.455V64.7273H121.576V56.6061Z" fill="black"/>
<path d="M137.818 56.6061H129.697V64.7273H137.818V56.6061Z" fill="black"/>
<path d="M194.667 56.6061H186.545V64.7273H194.667V56.6061Z" fill="black"/>
<path d="M202.788 56.6061H194.667V64.7273H202.788V56.6061Z" fill="black"/>
<path d="M219.03 56.6061H210.909V64.7273H219.03V56.6061Z" fill="black"/>
<path d="M235.273 56.6061H227.152V64.7273H235.273V56.6061Z" fill="black"/>
<path d="M284 56.6061H275.879V64.7273H284V56.6061Z" fill="black"/>
<path d="M24.1212 64.7273H16V72.8485H24.1212V64.7273Z" fill="black"/>
<path d="M32.2424 64.7273H24.1212V72.8485H32.2424V64.7273Z" fill="black"/>
<path d="M40.3636 64.7273H32.2424V72.8485H40.3636V64.7273Z" fill="black"/>
<path d="M48.4848 64.7273H40.3636V72.8485H48.4848V64.7273Z" fill="black"/>
<path d="M56.6061 64.7273H48.4848V72.8485H56.6061V64.7273Z" fill="black"/>
<path d="M64.7273 64.7273H56.6061V72.8485H64.7273V64.7273Z" fill="black"/>
<path d="M72.8485 64.7273H64.7273V72.8485H72.8485V64.7273Z" fill="black"/>
<path d="M89.0909 64.7273H80.9697V72.8485H89.0909V64.7273Z" fill="black"/>
<path d="M105.333 64.7273H97.2121V72.8485H105.333V64.7273Z" fill="black"/>
<path d="M121.576 64.7273H113.455V72.8485H121.576V64.7273Z" fill="black"/>
<path d="M137.818 64.7273H129.697V72.8485H137.818V64.7273Z" fill="black"/>
<path d="M154.061 64.7273H145.939V72.8485H154.061V64.7273Z" fill="black"/>
<path d="M170.303 64.7273H162.182V72.8485H170.303V64.7273Z" fill="black"/>
<path d="M186.545 64.7273H178.424V72.8485H186.545V64.7273Z" fill="black"/>
<path d="M202.788 64.7273H194.667V72.8485H202.788V64.7273Z" fill="black"/>
<path d="M219.03 64.7273H210.909V72.8485H219.03V64.7273Z" fill="black"/>
<path d="M235.273 64.7273H227.152V72.8485H235.273V64.7273Z" fill="black"/>
<path d="M243.394 64.7273H235.273V72.8485H243.394V64.7273Z" fill="black"/>
<path d="M251.515 64.7273H243.394V72.8485H251.515V64.7273Z" fill="black"/>
<path d="M259.636 64.7273H251.515V72.8485H259.636V64.7273Z" fill="black"/>
<path d="M267.758 64.7273H259.636V72.8485H267.758V64.7273Z" fill="black"/>
<path d="M275.879 64.7273H267.758V72.8485H275.879V64.7273Z" fill="black"/>
<path d="M284 64.7273H275.879V72.8485H284V64.7273Z" fill="black"/>
<path d="M89.0909 72.8485H80.9697V80.9697H89.0909V72.8485Z" fill="black"/>
<path d="M113.455 72.8485H105.333V80.9697H113.455V72.8485Z" fill="black"/>
<path d="M121.576 72.8485H113.455V80.9697H121.576V72.8485Z" fill="black"/>
<path d="M129.697 72.8485H121.576V80.9697H129.697V72.8485Z" fill="black"/>
<path d="M137.818 72.8485H129.697V80.9697H137.818V72.8485Z" fill="black"/>
<path d="M145.939 72.8485H137.818V80.9697H145.939V72.8485Z" fill="black"/>
<path d="M178.424 72.8485H170.303L170.303 80.9697H178.424V72.8485Z" fill="black"/>
<path d="M186.545 72.8485H178.424V80.9697H186.545V72.8485Z" fill="black"/>
<path d="M202.788 72.8485H194.667V80.9697H202.788V72.8485Z" fill="black"/>
<path d="M24.1212 80.9697H16V89.0909H24.1212V80.9697Z" fill="black"/>
<path d="M48.4848 80.9697H40.3636V89.0909H48.4848V80.9697Z" fill="black"/>
<path d="M56.6061 80.9697H48.4848V89.0909H56.6061V80.9697Z" fill="black"/>
<path d="M64.7273 80.9697H56.6061V89.0909H64.7273V80.9697Z" fill="black"/>
<path d="M72.8485 80.9697H64.7273V89.0909H72.8485V80.9697Z" fill="black"/>
<path d="M80.9697 80.9697H72.8485V89.0909H80.9697V80.9697Z" fill="black"/>
<path d="M89.0909 80.9697H80.9697V89.0909H89.0909V80.9697Z" fill="black"/>
<path d="M113.455 80.9697H105.333V89.0909H113.455V80.9697Z" fill="black"/>
<path d="M129.697 80.9697H121.576V89.0909H129.697V80.9697Z" fill="black"/>
<path d="M145.939 80.9697H137.818V89.0909H145.939V80.9697Z" fill="black"/>
<path d="M194.667 80.9697H186.545V89.0909H194.667V80.9697Z" fill="black"/>
<path d="M219.03 80.9697H210.909V89.0909H219.03V80.9697Z" fill="black"/>
<path d="M227.152 80.9697H219.03V89.0909H227.152V80.9697Z" fill="black"/>
<path d="M235.273 80.9697H227.152V89.0909H235.273V80.9697Z" fill="black"/>
<path d="M251.515 80.9697H243.394V89.0909H251.515V80.9697Z" fill="black"/>
<path d="M284 80.9697H275.879V89.0909H284V80.9697Z" fill="black"/>
<path d="M24.1212 89.0909H16V97.2121H24.1212V89.0909Z" fill="black"/>
<path d="M32.2424 89.0909H24.1212V97.2121H32.2424V89.0909Z" fill="black"/>
<path d="M40.3636 89.0909H32.2424V97.2121H40.3636V89.0909Z" fill="black"/>
<path d="M56.6061 89.0909H48.4848V97.2121H56.6061V89.0909Z" fill="black"/>
<path d="M80.9697 89.0909H72.8485V97.2121H80.9697V89.0909Z" fill="black"/>
<path d="M113.455 89.0909H105.333V97.2121H113.455V89.0909Z" fill="black"/>
<path d="M121.576 89.0909H113.455V97.2121H121.576V89.0909Z" fill="black"/>
<path d="M137.818 89.0909H129.697V97.2121H137.818V89.0909Z" fill="black"/>
<path d="M145.939 89.0909H137.818V97.2121H145.939V89.0909Z" fill="black"/>
<path d="M170.303 89.0909H162.182V97.2121H170.303V89.0909Z" fill="black"/>
<path d="M194.667 89.0909H186.545V97.2121H194.667V89.0909Z" fill="black"/>
<path d="M202.788 89.0909H194.667V97.2121H202.788V89.0909Z" fill="black"/>
<path d="M210.909 89.0909H202.788V97.2121H210.909V89.0909Z" fill="black"/>
<path d="M227.152 89.0909H219.03V97.2121H227.152V89.0909Z" fill="black"/>
<path d="M259.636 89.0909H251.515V97.2121H259.636V89.0909Z" fill="black"/>
<path d="M267.758 89.0909H259.636V97.2121H267.758V89.0909Z" fill="black"/>
<path d="M284 89.0909H275.879V97.2121H284V89.0909Z" fill="black"/>
<path d="M24.1212 97.2121H16V105.333H24.1212V97.2121Z" fill="black"/>
<path d="M40.3636 97.2121H32.2424V105.333H40.3636V97.2121Z" fill="black"/>
<path d="M64.7273 97.2121H56.6061V105.333H64.7273V97.2121Z" fill="black"/>
<path d="M72.8485 97.2121H64.7273V105.333H72.8485V97.2121Z" fill="black"/>
<path d="M80.9697 97.2121H72.8485V105.333H80.9697V97.2121Z" fill="black"/>
<path d="M97.2121 97.2121H89.0909V105.333H97.2121V97.2121Z" fill="black"/>
<path d="M105.333 97.2121H97.2121V105.333H105.333V97.2121Z" fill="black"/>
<path d="M113.455 97.2121H105.333V105.333H113.455V97.2121Z" fill="black"/>
<path d="M145.939 97.2121H137.818V105.333H145.939V97.2121Z" fill="black"/>
<path d="M154.061 97.2121H145.939V105.333H154.061V97.2121Z" fill="black"/>
<path d="M162.182 97.2121H154.061V105.333H162.182V97.2121Z" fill="black"/>
<path d="M170.303 97.2121H162.182V105.333H170.303V97.2121Z" fill="black"/>
<path d="M227.152 97.2121H219.03V105.333H227.152V97.2121Z" fill="black"/>
<path d="M251.515 97.2121H243.394V105.333H251.515V97.2121Z" fill="black"/>
<path d="M259.636 97.2121H251.515V105.333H259.636V97.2121Z" fill="black"/>
<path d="M275.879 97.2121H267.758V105.333H275.879V97.2121Z" fill="black"/>
<path d="M24.1212 105.333H16V113.455H24.1212V105.333Z" fill="black"/>
<path d="M32.2424 105.333H24.1212V113.455H32.2424V105.333Z" fill="black"/>
<path d="M48.4848 105.333H40.3636V113.455H48.4848V105.333Z" fill="black"/>
<path d="M64.7273 105.333H56.6061V113.455H64.7273V105.333Z" fill="black"/>
<path d="M89.0909 105.333H80.9697V113.455H89.0909V105.333Z" fill="black"/>
<path d="M97.2121 105.333H89.0909V113.455H97.2121V105.333Z" fill="black"/>
<path d="M105.333 105.333H97.2121V113.455H105.333V105.333Z" fill="black"/>
<path d="M113.455 105.333H105.333V113.455H113.455V105.333Z" fill="black"/>
<path d="M137.818 105.333H129.697V113.455H137.818V105.333Z" fill="black"/>
<path d="M162.182 105.333H154.061V113.455H162.182V105.333Z" fill="black"/>
<path d="M178.424 105.333H170.303L170.303 113.455H178.424V105.333Z" fill="black"/>
<path d="M186.545 105.333H178.424V113.455H186.545V105.333Z" fill="black"/>
<path d="M202.788 105.333H194.667V113.455H202.788V105.333Z" fill="black"/>
<path d="M219.03 105.333H210.909V113.455H219.03V105.333Z" fill="black"/>
<path d="M235.273 105.333H227.152V113.455H235.273V105.333Z" fill="black"/>
<path d="M243.394 105.333H235.273V113.455H243.394V105.333Z" fill="black"/>
<path d="M251.515 105.333H243.394V113.455H251.515V105.333Z" fill="black"/>
<path d="M259.636 105.333H251.515V113.455H259.636V105.333Z" fill="black"/>
<path d="M267.758 105.333H259.636V113.455H267.758V105.333Z" fill="black"/>
<path d="M275.879 105.333H267.758V113.455H275.879V105.333Z" fill="black"/>
<path d="M284 105.333H275.879V113.455H284V105.333Z" fill="black"/>
<path d="M32.2424 113.455H24.1212V121.576H32.2424V113.455Z" fill="black"/>
<path d="M40.3636 113.455H32.2424V121.576H40.3636V113.455Z" fill="black"/>
<path d="M48.4848 113.455H40.3636V121.576H48.4848V113.455Z" fill="black"/>
<path d="M56.6061 113.455H48.4848V121.576H56.6061V113.455Z" fill="black"/>
<path d="M72.8485 113.455H64.7273V121.576H72.8485V113.455Z" fill="black"/>
<path d="M97.2121 113.455H89.0909V121.576H97.2121V113.455Z" fill="black"/>
<path d="M105.333 113.455H97.2121V121.576H105.333V113.455Z" fill="black"/>
<path d="M113.455 113.455H105.333V121.576H113.455V113.455Z" fill="black"/>
<path d="M129.697 113.455H121.576V121.576H129.697V113.455Z" fill="black"/>
<path d="M162.182 113.455H154.061V121.576H162.182V113.455Z" fill="black"/>
<path d="M178.424 113.455H170.303V121.576H178.424V113.455Z" fill="black"/>
<path d="M194.667 113.455H186.545V121.576H194.667V113.455Z" fill="black"/>
<path d="M202.788 113.455H194.667V121.576H202.788V113.455Z" fill="black"/>
<path d="M219.03 113.455H210.909V121.576H219.03V113.455Z" fill="black"/>
<path d="M227.152 113.455H219.03V121.576H227.152V113.455Z" fill="black"/>
<path d="M235.273 113.455H227.152V121.576H235.273V113.455Z" fill="black"/>
<path d="M267.758 113.455H259.636V121.576H267.758V113.455Z" fill="black"/>
<path d="M275.879 113.455H267.758V121.576H275.879V113.455Z" fill="black"/>
<path d="M284 113.455H275.879V121.576H284V113.455Z" fill="black"/>
<path d="M40.3636 121.576H32.2424V129.697H40.3636V121.576Z" fill="black"/>
<path d="M89.0909 121.576H80.9697V129.697H89.0909V121.576Z" fill="black"/>
<path d="M97.2121 121.576H89.0909V129.697H97.2121V121.576Z" fill="black"/>
<path d="M121.576 121.576H113.455V129.697H121.576V121.576Z" fill="black"/>
<path d="M145.939 121.576H137.818V129.697H145.939V121.576Z" fill="black"/>
<path d="M154.061 121.576H145.939V129.697H154.061V121.576Z" fill="black"/>
<path d="M162.182 121.576H154.061V129.697H162.182V121.576Z" fill="black"/>
<path d="M202.788 121.576H194.667V129.697H202.788V121.576Z" fill="black"/>
<path d="M210.909 121.576H202.788V129.697H210.909V121.576Z" fill="black"/>
<path d="M251.515 121.576H243.394V129.697H251.515V121.576Z" fill="black"/>
<path d="M259.636 121.576H251.515V129.697H259.636V121.576Z" fill="black"/>
<path d="M267.758 121.576H259.636V129.697H267.758V121.576Z" fill="black"/>
<path d="M275.879 121.576H267.758V129.697H275.879V121.576Z" fill="black"/>
<path d="M24.1212 129.697H16V137.818H24.1212V129.697Z" fill="black"/>
<path d="M48.4848 129.697H40.3636V137.818H48.4848V129.697Z" fill="black"/>
<path d="M56.6061 129.697H48.4848V137.818H56.6061V129.697Z" fill="black"/>
<path d="M72.8485 129.697H64.7273V137.818H72.8485V129.697Z" fill="black"/>
<path d="M80.9697 129.697H72.8485V137.818H80.9697V129.697Z" fill="black"/>
<path d="M97.2121 129.697H89.0909V137.818H97.2121V129.697Z" fill="black"/>
<path d="M113.455 129.697H105.333V137.818H113.455V129.697Z" fill="black"/>
<path d="M121.576 129.697H113.455V137.818H121.576V129.697Z" fill="black"/>
<path d="M170.303 129.697H162.182V137.818H170.303V129.697Z" fill="black"/>
<path d="M186.545 129.697H178.424V137.818H186.545V129.697Z" fill="black"/>
<path d="M194.667 129.697H186.545V137.818H194.667V129.697Z" fill="black"/>
<path d="M202.788 129.697H194.667V137.818H202.788V129.697Z" fill="black"/>
<path d="M210.909 129.697H202.788V137.818H210.909V129.697Z" fill="black"/>
<path d="M227.152 129.697H219.03V137.818H227.152V129.697Z" fill="black"/>
<path d="M235.273 129.697H227.152V137.818H235.273V129.697Z" fill="black"/>
<path d="M251.515 129.697H243.394V137.818H251.515V129.697Z" fill="black"/>
<path d="M259.636 129.697H251.515V137.818H259.636V129.697Z" fill="black"/>
<path d="M24.1212 137.818H16V145.939H24.1212V137.818Z" fill="black"/>
<path d="M48.4848 137.818H40.3636V145.939H48.4848V137.818Z" fill="black"/>
<path d="M80.9697 137.818H72.8485V145.939H80.9697V137.818Z" fill="black"/>
<path d="M97.2121 137.818H89.0909V145.939H97.2121V137.818Z" fill="black"/>
<path d="M105.333 137.818H97.2121V145.939H105.333V137.818Z" fill="black"/>
<path d="M121.576 137.818H113.455V145.939H121.576V137.818Z" fill="black"/>
<path d="M154.061 137.818H145.939V145.939H154.061V137.818Z" fill="black"/>
<path d="M170.303 137.818H162.182V145.939H170.303V137.818Z" fill="black"/>
<path d="M186.545 137.818H178.424V145.939H186.545V137.818Z" fill="black"/>
<path d="M202.788 137.818H194.667V145.939H202.788V137.818Z" fill="black"/>
<path d="M210.909 137.818H202.788V145.939H210.909V137.818Z" fill="black"/>
<path d="M235.273 137.818H227.152V145.939H235.273V137.818Z" fill="black"/>
<path d="M284 137.818H275.879V145.939H284V137.818Z" fill="black"/>
<path d="M64.7273 145.939H56.6061V154.061H64.7273V145.939Z" fill="black"/>
<path d="M72.8485 145.939H64.7273V154.061H72.8485V145.939Z" fill="black"/>
<path d="M80.9697 145.939H72.8485V154.061H80.9697V145.939Z" fill="black"/>
<path d="M89.0909 145.939H80.9697V154.061H89.0909V145.939Z" fill="black"/>
<path d="M105.333 145.939H97.2121V154.061H105.333V145.939Z" fill="black"/>
<path d="M113.455 145.939H105.333V154.061H113.455V145.939Z" fill="black"/>
<path d="M129.697 145.939H121.576V154.061H129.697V145.939Z" fill="black"/>
<path d="M137.818 145.939H129.697V154.061H137.818V145.939Z" fill="black"/>
<path d="M162.182 145.939H154.061V154.061H162.182V145.939Z" fill="black"/>
<path d="M178.424 145.939H170.303L170.303 154.061H178.424V145.939Z" fill="black"/>
<path d="M186.545 145.939H178.424V154.061H186.545V145.939Z" fill="black"/>
<path d="M210.909 145.939H202.788V154.061H210.909V145.939Z" fill="black"/>
<path d="M227.152 145.939H219.03V154.061H227.152V145.939Z" fill="black"/>
<path d="M243.394 145.939H235.273V154.061H243.394V145.939Z" fill="black"/>
<path d="M259.636 145.939H251.515V154.061H259.636V145.939Z" fill="black"/>
<path d="M267.758 145.939H259.636V154.061H267.758V145.939Z" fill="black"/>
<path d="M284 145.939H275.879V154.061H284V145.939Z" fill="black"/>
<path d="M24.1212 154.061H16V162.182H24.1212V154.061Z" fill="black"/>
<path d="M32.2424 154.061H24.1212V162.182H32.2424V154.061Z" fill="black"/>
<path d="M48.4848 154.061H40.3636V162.182H48.4848V154.061Z" fill="black"/>
<path d="M64.7273 154.061H56.6061V162.182H64.7273V154.061Z" fill="black"/>
<path d="M80.9697 154.061H72.8485V162.182H80.9697V154.061Z" fill="black"/>
<path d="M89.0909 154.061H80.9697V162.182H89.0909V154.061Z" fill="black"/>
<path d="M105.333 154.061H97.2121V162.182H105.333V154.061Z" fill="black"/>
<path d="M113.455 154.061H105.333V162.182H113.455V154.061Z" fill="black"/>
<path d="M137.818 154.061H129.697V162.182H137.818V154.061Z" fill="black"/>
<path d="M145.939 154.061H137.818V162.182H145.939V154.061Z" fill="black"/>
<path d="M154.061 154.061H145.939V162.182H154.061V154.061Z" fill="black"/>
<path d="M162.182 154.061H154.061V162.182H162.182V154.061Z" fill="black"/>
<path d="M202.788 154.061H194.667V162.182H202.788V154.061Z" fill="black"/>
<path d="M210.909 154.061H202.788V162.182H210.909V154.061Z" fill="black"/>
<path d="M235.273 154.061H227.152V162.182H235.273V154.061Z" fill="black"/>
<path d="M243.394 154.061H235.273V162.182H243.394V154.061Z" fill="black"/>
<path d="M267.758 154.061H259.636V162.182H267.758V154.061Z" fill="black"/>
<path d="M275.879 154.061H267.758V162.182H275.879V154.061Z" fill="black"/>
<path d="M284 154.061H275.879V162.182H284V154.061Z" fill="black"/>
<path d="M24.1212 162.182H16V170.303H24.1212V162.182Z" fill="black"/>
<path d="M48.4848 162.182H40.3636V170.303H48.4848V162.182Z" fill="black"/>
<path d="M56.6061 162.182H48.4848V170.303H56.6061V162.182Z" fill="black"/>
<path d="M64.7273 162.182H56.6061V170.303H64.7273V162.182Z" fill="black"/>
<path d="M72.8485 162.182H64.7273V170.303H72.8485V162.182Z" fill="black"/>
<path d="M80.9697 162.182H72.8485V170.303H80.9697V162.182Z" fill="black"/>
<path d="M89.0909 162.182H80.9697V170.303H89.0909V162.182Z" fill="black"/>
<path d="M113.455 162.182H105.333V170.303H113.455V162.182Z" fill="black"/>
<path d="M121.576 162.182H113.455V170.303H121.576V162.182Z" fill="black"/>
<path d="M145.939 162.182H137.818V170.303H145.939V162.182Z" fill="black"/>
<path d="M154.061 162.182H145.939V170.303H154.061V162.182Z" fill="black"/>
<path d="M170.303 162.182H162.182V170.303H170.303V162.182Z" fill="black"/>
<path d="M194.667 162.182H186.545V170.303H194.667V162.182Z" fill="black"/>
<path d="M243.394 162.182H235.273V170.303H243.394V162.182Z" fill="black"/>
<path d="M251.515 162.182H243.394V170.303H251.515V162.182Z" fill="black"/>
<path d="M275.879 162.182H267.758V170.303H275.879V162.182Z" fill="black"/>
<path d="M284 162.182H275.879V170.303H284V162.182Z" fill="black"/>
<path d="M24.1212 170.303H16V178.424H24.1212V170.303Z" fill="black"/>
<path d="M32.2424 170.303L24.1212 170.303V178.424H32.2424V170.303Z" fill="black"/>
<path d="M40.3636 170.303L32.2424 170.303V178.424H40.3636V170.303Z" fill="black"/>
<path d="M48.4848 170.303H40.3636V178.424H48.4848V170.303Z" fill="black"/>
<path d="M56.6061 170.303H48.4848V178.424H56.6061V170.303Z" fill="black"/>
<path d="M64.7273 170.303H56.6061V178.424H64.7273V170.303Z" fill="black"/>
<path d="M89.0909 170.303H80.9697V178.424H89.0909V170.303Z" fill="black"/>
<path d="M113.455 170.303H105.333V178.424H113.455V170.303Z" fill="black"/>
<path d="M121.576 170.303H113.455V178.424H121.576V170.303Z" fill="black"/>
<path d="M129.697 170.303L121.576 170.303V178.424H129.697V170.303Z" fill="black"/>
<path d="M137.818 170.303L129.697 170.303V178.424H137.818V170.303Z" fill="black"/>
<path d="M145.939 170.303H137.818V178.424H145.939V170.303Z" fill="black"/>
<path d="M178.424 170.303L170.303 170.303L170.303 178.424H178.424V170.303Z" fill="black"/>
<path d="M186.545 170.303L178.424 170.303V178.424H186.545V170.303Z" fill="black"/>
<path d="M194.667 170.303H186.545V178.424H194.667V170.303Z" fill="black"/>
<path d="M219.03 170.303H210.909V178.424H219.03V170.303Z" fill="black"/>
<path d="M243.394 170.303H235.273V178.424H243.394V170.303Z" fill="black"/>
<path d="M259.636 170.303L251.515 170.303V178.424H259.636V170.303Z" fill="black"/>
<path d="M267.758 170.303L259.636 170.303V178.424H267.758V170.303Z" fill="black"/>
<path d="M275.879 170.303H267.758V178.424H275.879V170.303Z" fill="black"/>
<path d="M40.3636 178.424H32.2424V186.545H40.3636V178.424Z" fill="black"/>
<path d="M48.4848 178.424H40.3636V186.545H48.4848V178.424Z" fill="black"/>
<path d="M56.6061 178.424H48.4848V186.545H56.6061V178.424Z" fill="black"/>
<path d="M72.8485 178.424H64.7273V186.545H72.8485V178.424Z" fill="black"/>
<path d="M89.0909 178.424H80.9697V186.545H89.0909V178.424Z" fill="black"/>
<path d="M97.2121 178.424H89.0909V186.545H97.2121V178.424Z" fill="black"/>
<path d="M105.333 178.424H97.2121V186.545H105.333V178.424Z" fill="black"/>
<path d="M121.576 178.424H113.455V186.545H121.576V178.424Z" fill="black"/>
<path d="M145.939 178.424H137.818V186.545H145.939V178.424Z" fill="black"/>
<path d="M154.061 178.424H145.939V186.545H154.061V178.424Z" fill="black"/>
<path d="M170.303 178.424H162.182V186.545H170.303L170.303 178.424Z" fill="black"/>
<path d="M194.667 178.424H186.545V186.545H194.667V178.424Z" fill="black"/>
<path d="M202.788 178.424H194.667V186.545H202.788V178.424Z" fill="black"/>
<path d="M219.03 178.424H210.909V186.545H219.03V178.424Z" fill="black"/>
<path d="M243.394 178.424H235.273V186.545H243.394V178.424Z" fill="black"/>
<path d="M251.515 178.424H243.394V186.545H251.515V178.424Z" fill="black"/>
<path d="M275.879 178.424H267.758V186.545H275.879V178.424Z" fill="black"/>
<path d="M284 178.424H275.879V186.545H284V178.424Z" fill="black"/>
<path d="M24.1212 186.545H16V194.667H24.1212V186.545Z" fill="black"/>
<path d="M32.2424 186.545H24.1212V194.667H32.2424V186.545Z" fill="black"/>
<path d="M48.4848 186.545H40.3636V194.667H48.4848V186.545Z" fill="black"/>
<path d="M80.9697 186.545H72.8485V194.667H80.9697V186.545Z" fill="black"/>
<path d="M89.0909 186.545H80.9697V194.667H89.0909V186.545Z" fill="black"/>
<path d="M105.333 186.545H97.2121V194.667H105.333V186.545Z" fill="black"/>
<path d="M113.455 186.545H105.333V194.667H113.455V186.545Z" fill="black"/>
<path d="M129.697 186.545H121.576V194.667H129.697V186.545Z" fill="black"/>
<path d="M137.818 186.545H129.697V194.667H137.818V186.545Z" fill="black"/>
<path d="M145.939 186.545H137.818V194.667H145.939V186.545Z" fill="black"/>
<path d="M154.061 186.545H145.939V194.667H154.061V186.545Z" fill="black"/>
<path d="M162.182 186.545H154.061V194.667H162.182V186.545Z" fill="black"/>
<path d="M194.667 186.545H186.545V194.667H194.667V186.545Z" fill="black"/>
<path d="M202.788 186.545H194.667V194.667H202.788V186.545Z" fill="black"/>
<path d="M210.909 186.545H202.788V194.667H210.909V186.545Z" fill="black"/>
<path d="M219.03 186.545H210.909V194.667H219.03V186.545Z" fill="black"/>
<path d="M235.273 186.545H227.152V194.667H235.273V186.545Z" fill="black"/>
<path d="M243.394 186.545H235.273V194.667H243.394V186.545Z" fill="black"/>
<path d="M275.879 186.545H267.758V194.667H275.879V186.545Z" fill="black"/>
<path d="M284 186.545H275.879V194.667H284V186.545Z" fill="black"/>
<path d="M24.1212 194.667H16V202.788H24.1212V194.667Z" fill="black"/>
<path d="M32.2424 194.667H24.1212V202.788H32.2424V194.667Z" fill="black"/>
<path d="M40.3636 194.667H32.2424V202.788H40.3636V194.667Z" fill="black"/>
<path d="M64.7273 194.667H56.6061V202.788H64.7273V194.667Z" fill="black"/>
<path d="M72.8485 194.667H64.7273V202.788H72.8485V194.667Z" fill="black"/>
<path d="M80.9697 194.667H72.8485V202.788H80.9697V194.667Z" fill="black"/>
<path d="M89.0909 194.667H80.9697V202.788H89.0909V194.667Z" fill="black"/>
<path d="M105.333 194.667H97.2121V202.788H105.333V194.667Z" fill="black"/>
<path d="M129.697 194.667H121.576V202.788H129.697V194.667Z" fill="black"/>
<path d="M137.818 194.667H129.697V202.788H137.818V194.667Z" fill="black"/>
<path d="M154.061 194.667H145.939V202.788H154.061V194.667Z" fill="black"/>
<path d="M178.424 194.667H170.303V202.788H178.424V194.667Z" fill="black"/>
<path d="M186.545 194.667H178.424V202.788H186.545V194.667Z" fill="black"/>
<path d="M219.03 194.667H210.909V202.788H219.03V194.667Z" fill="black"/>
<path d="M235.273 194.667H227.152V202.788H235.273V194.667Z" fill="black"/>
<path d="M259.636 194.667H251.515V202.788H259.636V194.667Z" fill="black"/>
<path d="M24.1212 202.788H16V210.909H24.1212V202.788Z" fill="black"/>
<path d="M48.4848 202.788H40.3636V210.909H48.4848V202.788Z" fill="black"/>
<path d="M80.9697 202.788H72.8485V210.909H80.9697V202.788Z" fill="black"/>
<path d="M97.2121 202.788H89.0909V210.909H97.2121V202.788Z" fill="black"/>
<path d="M105.333 202.788H97.2121V210.909H105.333V202.788Z" fill="black"/>
<path d="M121.576 202.788H113.455V210.909H121.576V202.788Z" fill="black"/>
<path d="M154.061 202.788H145.939V210.909H154.061V202.788Z" fill="black"/>
<path d="M162.182 202.788H154.061V210.909H162.182V202.788Z" fill="black"/>
<path d="M170.303 202.788H162.182V210.909H170.303L170.303 202.788Z" fill="black"/>
<path d="M178.424 202.788H170.303L170.303 210.909H178.424V202.788Z" fill="black"/>
<path d="M202.788 202.788H194.667V210.909H202.788V202.788Z" fill="black"/>
<path d="M227.152 202.788H219.03V210.909H227.152V202.788Z" fill="black"/>
<path d="M275.879 202.788H267.758V210.909H275.879V202.788Z" fill="black"/>
<path d="M284 202.788H275.879V210.909H284V202.788Z" fill="black"/>
<path d="M48.4848 210.909H40.3636V219.03H48.4848V210.909Z" fill="black"/>
<path d="M56.6061 210.909H48.4848V219.03H56.6061V210.909Z" fill="black"/>
<path d="M72.8485 210.909H64.7273V219.03H72.8485V210.909Z" fill="black"/>
<path d="M105.333 210.909H97.2121V219.03H105.333V210.909Z" fill="black"/>
<path d="M113.455 210.909H105.333V219.03H113.455V210.909Z" fill="black"/>
<path d="M121.576 210.909H113.455V219.03H121.576V210.909Z" fill="black"/>
<path d="M145.939 210.909H137.818V219.03H145.939V210.909Z" fill="black"/>
<path d="M154.061 210.909H145.939V219.03H154.061V210.909Z" fill="black"/>
<path d="M186.545 210.909H178.424V219.03H186.545V210.909Z" fill="black"/>
<path d="M194.667 210.909H186.545V219.03H194.667V210.909Z" fill="black"/>
<path d="M202.788 210.909H194.667V219.03H202.788V210.909Z" fill="black"/>
<path d="M210.909 210.909H202.788V219.03H210.909V210.909Z" fill="black"/>
<path d="M219.03 210.909H210.909V219.03H219.03V210.909Z" fill="black"/>
<path d="M227.152 210.909H219.03V219.03H227.152V210.909Z" fill="black"/>
<path d="M235.273 210.909H227.152V219.03H235.273V210.909Z" fill="black"/>
<path d="M243.394 210.909H235.273V219.03H243.394V210.909Z" fill="black"/>
<path d="M251.515 210.909H243.394V219.03H251.515V210.909Z" fill="black"/>
<path d="M267.758 210.909H259.636V219.03H267.758V210.909Z" fill="black"/>
<path d="M275.879 210.909H267.758V219.03H275.879V210.909Z" fill="black"/>
<path d="M284 210.909H275.879V219.03H284V210.909Z" fill="black"/>
<path d="M89.0909 219.03H80.9697V227.152H89.0909V219.03Z" fill="black"/>
<path d="M97.2121 219.03H89.0909V227.152H97.2121V219.03Z" fill="black"/>
<path d="M105.333 219.03H97.2121V227.152H105.333V219.03Z" fill="black"/>
<path d="M129.697 219.03H121.576V227.152H129.697V219.03Z" fill="black"/>
<path d="M137.818 219.03H129.697V227.152H137.818V219.03Z" fill="black"/>
<path d="M145.939 219.03H137.818V227.152H145.939V219.03Z" fill="black"/>
<path d="M162.182 219.03H154.061V227.152H162.182V219.03Z" fill="black"/>
<path d="M210.909 219.03H202.788V227.152H210.909V219.03Z" fill="black"/>
<path d="M219.03 219.03H210.909V227.152H219.03V219.03Z" fill="black"/>
<path d="M251.515 219.03H243.394V227.152H251.515V219.03Z" fill="black"/>
<path d="M259.636 219.03H251.515V227.152H259.636V219.03Z" fill="black"/>
<path d="M284 219.03H275.879V227.152H284V219.03Z" fill="black"/>
<path d="M24.1212 227.152H16V235.273H24.1212V227.152Z" fill="black"/>
<path d="M32.2424 227.152H24.1212V235.273H32.2424V227.152Z" fill="black"/>
<path d="M40.3636 227.152H32.2424V235.273H40.3636V227.152Z" fill="black"/>
<path d="M48.4848 227.152H40.3636V235.273H48.4848V227.152Z" fill="black"/>
<path d="M56.6061 227.152H48.4848V235.273H56.6061V227.152Z" fill="black"/>
<path d="M64.7273 227.152H56.6061V235.273H64.7273V227.152Z" fill="black"/>
<path d="M72.8485 227.152H64.7273V235.273H72.8485V227.152Z" fill="black"/>
<path d="M89.0909 227.152H80.9697V235.273H89.0909V227.152Z" fill="black"/>
<path d="M105.333 227.152H97.2121V235.273H105.333V227.152Z" fill="black"/>
<path d="M113.455 227.152H105.333V235.273H113.455V227.152Z" fill="black"/>
<path d="M121.576 227.152H113.455V235.273H121.576V227.152Z" fill="black"/>
<path d="M137.818 227.152H129.697V235.273H137.818V227.152Z" fill="black"/>
<path d="M145.939 227.152H137.818V235.273H145.939V227.152Z" fill="black"/>
<path d="M154.061 227.152H145.939V235.273H154.061V227.152Z" fill="black"/>
<path d="M170.303 227.152H162.182V235.273H170.303V227.152Z" fill="black"/>
<path d="M178.424 227.152H170.303V235.273H178.424V227.152Z" fill="black"/>
<path d="M186.545 227.152H178.424V235.273H186.545V227.152Z" fill="black"/>
<path d="M202.788 227.152H194.667V235.273H202.788V227.152Z" fill="black"/>
<path d="M219.03 227.152H210.909V235.273H219.03V227.152Z" fill="black"/>
<path d="M235.273 227.152H227.152V235.273H235.273V227.152Z" fill="black"/>
<path d="M251.515 227.152H243.394V235.273H251.515V227.152Z" fill="black"/>
<path d="M259.636 227.152H251.515V235.273H259.636V227.152Z" fill="black"/>
<path d="M267.758 227.152H259.636V235.273H267.758V227.152Z" fill="black"/>
<path d="M284 227.152H275.879V235.273H284V227.152Z" fill="black"/>
<path d="M24.1212 235.273H16V243.394H24.1212V235.273Z" fill="black"/>
<path d="M72.8485 235.273H64.7273V243.394H72.8485V235.273Z" fill="black"/>
<path d="M89.0909 235.273H80.9697V243.394H89.0909V235.273Z" fill="black"/>
<path d="M137.818 235.273H129.697V243.394H137.818V235.273Z" fill="black"/>
<path d="M145.939 235.273H137.818V243.394H145.939V235.273Z" fill="black"/>
<path d="M170.303 235.273H162.182V243.394H170.303V235.273Z" fill="black"/>
<path d="M178.424 235.273H170.303V243.394H178.424V235.273Z" fill="black"/>
<path d="M186.545 235.273H178.424V243.394H186.545V235.273Z" fill="black"/>
<path d="M202.788 235.273H194.667V243.394H202.788V235.273Z" fill="black"/>
<path d="M210.909 235.273H202.788V243.394H210.909V235.273Z" fill="black"/>
<path d="M219.03 235.273H210.909V243.394H219.03V235.273Z" fill="black"/>
<path d="M251.515 235.273H243.394V243.394H251.515V235.273Z" fill="black"/>
<path d="M259.636 235.273H251.515V243.394H259.636V235.273Z" fill="black"/>
<path d="M267.758 235.273H259.636V243.394H267.758V235.273Z" fill="black"/>
<path d="M24.1212 243.394H16V251.515H24.1212V243.394Z" fill="black"/>
<path d="M40.3636 243.394H32.2424V251.515H40.3636V243.394Z" fill="black"/>
<path d="M48.4848 243.394H40.3636V251.515H48.4848V243.394Z" fill="black"/>
<path d="M56.6061 243.394H48.4848V251.515H56.6061V243.394Z" fill="black"/>
<path d="M72.8485 243.394H64.7273V251.515H72.8485V243.394Z" fill="black"/>
<path d="M89.0909 243.394H80.9697V251.515H89.0909V243.394Z" fill="black"/>
<path d="M121.576 243.394H113.455V251.515H121.576V243.394Z" fill="black"/>
<path d="M145.939 243.394H137.818V251.515H145.939V243.394Z" fill="black"/>
<path d="M154.061 243.394H145.939V251.515H154.061V243.394Z" fill="black"/>
<path d="M186.545 243.394H178.424V251.515H186.545V243.394Z" fill="black"/>
<path d="M202.788 243.394H194.667V251.515H202.788V243.394Z" fill="black"/>
<path d="M210.909 243.394H202.788V251.515H210.909V243.394Z" fill="black"/>
<path d="M219.03 243.394H210.909V251.515H219.03V243.394Z" fill="black"/>
<path d="M227.152 243.394H219.03V251.515H227.152V243.394Z" fill="black"/>
<path d="M235.273 243.394H227.152V251.515H235.273V243.394Z" fill="black"/>
<path d="M243.394 243.394H235.273V251.515H243.394V243.394Z" fill="black"/>
<path d="M251.515 243.394H243.394V251.515H251.515V243.394Z" fill="black"/>
<path d="M259.636 243.394H251.515V251.515H259.636V243.394Z" fill="black"/>
<path d="M267.758 243.394H259.636V251.515H267.758V243.394Z" fill="black"/>
<path d="M24.1212 251.515H16V259.636H24.1212V251.515Z" fill="black"/>
<path d="M40.3636 251.515H32.2424V259.636H40.3636V251.515Z" fill="black"/>
<path d="M48.4848 251.515H40.3636V259.636H48.4848V251.515Z" fill="black"/>
<path d="M56.6061 251.515H48.4848V259.636H56.6061V251.515Z" fill="black"/>
<path d="M72.8485 251.515H64.7273V259.636H72.8485V251.515Z" fill="black"/>
<path d="M89.0909 251.515H80.9697V259.636H89.0909V251.515Z" fill="black"/>
<path d="M97.2121 251.515H89.0909V259.636H97.2121V251.515Z" fill="black"/>
<path d="M105.333 251.515H97.2121V259.636H105.333V251.515Z" fill="black"/>
<path d="M121.576 251.515H113.455V259.636H121.576V251.515Z" fill="black"/>
<path d="M129.697 251.515H121.576V259.636H129.697V251.515Z" fill="black"/>
<path d="M145.939 251.515H137.818V259.636H145.939V251.515Z" fill="black"/>
<path d="M154.061 251.515H145.939V259.636H154.061V251.515Z" fill="black"/>
<path d="M162.182 251.515H154.061V259.636H162.182V251.515Z" fill="black"/>
<path d="M170.303 251.515H162.182V259.636H170.303V251.515Z" fill="black"/>
<path d="M186.545 251.515H178.424V259.636H186.545V251.515Z" fill="black"/>
<path d="M194.667 251.515H186.545V259.636H194.667V251.515Z" fill="black"/>
<path d="M210.909 251.515H202.788V259.636H210.909V251.515Z" fill="black"/>
<path d="M219.03 251.515H210.909V259.636H219.03V251.515Z" fill="black"/>
<path d="M235.273 251.515H227.152V259.636H235.273V251.515Z" fill="black"/>
<path d="M251.515 251.515H243.394V259.636H251.515V251.515Z" fill="black"/>
<path d="M259.636 251.515H251.515V259.636H259.636V251.515Z" fill="black"/>
<path d="M267.758 251.515H259.636V259.636H267.758V251.515Z" fill="black"/>
<path d="M275.879 251.515H267.758V259.636H275.879V251.515Z" fill="black"/>
<path d="M284 251.515H275.879V259.636H284V251.515Z" fill="black"/>
<path d="M24.1212 259.636H16V267.758H24.1212V259.636Z" fill="black"/>
<path d="M40.3636 259.636H32.2424V267.758H40.3636V259.636Z" fill="black"/>
<path d="M48.4848 259.636H40.3636V267.758H48.4848V259.636Z" fill="black"/>
<path d="M56.6061 259.636H48.4848V267.758H56.6061V259.636Z" fill="black"/>
<path d="M72.8485 259.636H64.7273V267.758H72.8485V259.636Z" fill="black"/>
<path d="M97.2121 259.636H89.0909V267.758H97.2121V259.636Z" fill="black"/>
<path d="M162.182 259.636H154.061V267.758H162.182V259.636Z" fill="black"/>
<path d="M194.667 259.636H186.545V267.758H194.667V259.636Z" fill="black"/>
<path d="M202.788 259.636H194.667V267.758H202.788V259.636Z" fill="black"/>
<path d="M227.152 259.636H219.03V267.758H227.152V259.636Z" fill="black"/>
<path d="M259.636 259.636H251.515V267.758H259.636V259.636Z" fill="black"/>
<path d="M24.1212 267.758H16V275.879H24.1212V267.758Z" fill="black"/>
<path d="M72.8485 267.758H64.7273V275.879H72.8485V267.758Z" fill="black"/>
<path d="M97.2121 267.758H89.0909V275.879H97.2121V267.758Z" fill="black"/>
<path d="M113.455 267.758H105.333V275.879H113.455V267.758Z" fill="black"/>
<path d="M137.818 267.758H129.697V275.879H137.818V267.758Z" fill="black"/>
<path d="M154.061 267.758H145.939V275.879H154.061V267.758Z" fill="black"/>
<path d="M162.182 267.758H154.061V275.879H162.182V267.758Z" fill="black"/>
<path d="M170.303 267.758H162.182V275.879H170.303V267.758Z" fill="black"/>
<path d="M178.424 267.758H170.303V275.879H178.424V267.758Z" fill="black"/>
<path d="M194.667 267.758H186.545V275.879H194.667V267.758Z" fill="black"/>
<path d="M202.788 267.758H194.667V275.879H202.788V267.758Z" fill="black"/>
<path d="M219.03 267.758H210.909V275.879H219.03V267.758Z" fill="black"/>
<path d="M227.152 267.758H219.03V275.879H227.152V267.758Z" fill="black"/>
<path d="M235.273 267.758H227.152V275.879H235.273V267.758Z" fill="black"/>
<path d="M243.394 267.758H235.273V275.879H243.394V267.758Z" fill="black"/>
<path d="M251.515 267.758H243.394V275.879H251.515V267.758Z" fill="black"/>
<path d="M259.636 267.758H251.515V275.879H259.636V267.758Z" fill="black"/>
<path d="M24.1212 275.879H16V284H24.1212V275.879Z" fill="black"/>
<path d="M32.2424 275.879H24.1212V284H32.2424V275.879Z" fill="black"/>
<path d="M40.3636 275.879H32.2424V284H40.3636V275.879Z" fill="black"/>
<path d="M48.4848 275.879H40.3636V284H48.4848V275.879Z" fill="black"/>
<path d="M56.6061 275.879H48.4848V284H56.6061V275.879Z" fill="black"/>
<path d="M64.7273 275.879H56.6061V284H64.7273V275.879Z" fill="black"/>
<path d="M72.8485 275.879H64.7273V284H72.8485V275.879Z" fill="black"/>
<path d="M89.0909 275.879H80.9697V284H89.0909V275.879Z" fill="black"/>
<path d="M113.455 275.879H105.333V284H113.455V275.879Z" fill="black"/>
<path d="M121.576 275.879H113.455V284H121.576V275.879Z" fill="black"/>
<path d="M162.182 275.879H154.061V284H162.182V275.879Z" fill="black"/>
<path d="M210.909 275.879H202.788V284H210.909V275.879Z" fill="black"/>
<path d="M227.152 275.879H219.03V284H227.152V275.879Z" fill="black"/>
<path d="M284 275.879H275.879V284H284V275.879Z" fill="black"/>
</g>
<defs>
<clipPath id="clip0_119_2776">
<rect width="300" height="300" fill="white"/>
</clipPath>
</defs>
</svg>
