<svg width="70" height="71" viewBox="0 0 70 71" fill="none" xmlns="http://www.w3.org/2000/svg">
<path d="M66.3961 28.6918C65.8146 28.2037 65.8148 28.2036 65.109 28.2685C65.2695 27.9594 65.4297 27.6502 65.595 27.3318C66.7698 24.7673 66.7601 22.3437 65.8911 19.688C64.8278 16.9259 63.288 15.3223 60.7102 13.9825C59.3123 13.4701 58.1323 13.1931 56.6494 13.2856C56.6407 13.0916 56.632 12.8975 56.623 12.6976C56.4106 9.75589 55.6053 7.88512 53.4985 5.85976C51.0692 3.79949 49.1256 3.34186 46.0028 3.40033C44.3186 3.58237 42.9196 4.12773 41.4231 4.92312C41.2785 4.60041 41.2782 4.60049 41.1307 4.27125C40.3591 2.78307 38.9124 1.88647 37.4103 1.28118C34.7207 0.57363 32.3399 0.939905 29.9421 2.32924C29.0665 2.95866 28.456 3.64499 27.8883 4.5749C27.7116 4.49944 27.5345 4.42378 27.3528 4.34603C24.6591 3.29681 22.1189 3.07378 19.3657 4.0522C16.9161 5.19918 15.2475 6.95448 14.184 9.49641C13.7412 10.7926 13.5352 11.9008 13.6768 13.2856C13.3693 13.287 13.3691 13.2869 13.0555 13.2883C10.0598 13.4306 7.77247 14.6399 5.74634 16.9223C3.72253 19.6495 3.56931 22.092 3.86401 25.4808C4.11501 26.5019 4.43446 27.3143 4.8792 28.2685C4.64175 28.3331 4.40453 28.3978 4.1601 28.4645C2.4337 29.3532 1.48493 30.8302 0.522339 32.5151C-0.241081 35.1797 -0.234947 37.9112 0.991791 40.424C1.95516 41.8329 3.23208 42.8911 4.5408 43.9481C4.37644 44.3913 4.37629 44.3911 4.20883 44.8436C3.47402 47.3891 3.40923 50.62 4.50757 53.0765C5.91685 55.4569 7.73064 57.2549 10.2932 58.2337C11.4232 58.4514 12.5282 58.5548 13.6768 58.5823C13.6775 58.7935 13.6783 59.004 13.6794 59.2217C13.8063 62.0507 14.7104 64.2282 16.7103 66.2095C19.3219 68.3362 21.9205 68.6196 25.1815 68.3381C26.1646 68.077 26.9652 67.7401 27.8883 67.2927C28.0318 67.4566 28.1753 67.6207 28.323 67.7897C30.3449 69.9999 31.859 70.8179 34.8035 70.9297C37.9973 70.8431 39.8278 69.4863 42.0999 67.2927C42.4139 67.4582 42.7277 67.6233 43.0512 67.7935C45.5239 68.8667 48.1969 68.9955 50.732 68.0835C53.0361 66.873 55.0772 64.9047 56.1063 62.4365C56.4674 61.1699 56.5903 59.8972 56.6494 58.5823C56.9774 58.6109 57.3055 58.6394 57.6435 58.6692C60.0353 58.6591 62.1749 57.3443 63.9008 55.7157C65.7819 53.5279 66.5631 51.1267 66.5415 48.223C66.393 46.7422 65.9162 45.3504 65.4474 43.9481C65.6231 43.8375 65.7988 43.7268 65.9799 43.6131C67.9866 42.2305 69.1509 40.7746 69.8462 38.3728C70.3991 34.2204 69.5092 31.3593 66.3961 28.6918Z" fill="#769BFF"/>
<mask id="mask0_71_326" style="mask-type:alpha" maskUnits="userSpaceOnUse" x="5" y="5" width="60" height="62">
<rect x="5.37402" y="5.61914" width="59.2513" height="60.7949" fill="#D9D9D9"/>
</mask>
<g mask="url(#mask0_71_326)">
<path d="M28.7047 50.8345L14.8794 36.649L17.5334 33.9259L28.7047 45.3883L52.4052 21.0703L55.0592 23.7934L28.7047 50.8345Z" fill="white"/>
</g>
</svg>
