<svg width="75" height="75" viewBox="0 0 75 75" fill="none" xmlns="http://www.w3.org/2000/svg">
<mask id="mask0_198_1577" style="mask-type:alpha" maskUnits="userSpaceOnUse" x="0" y="0" width="75" height="75">
<rect width="75" height="75" fill="#F4ACAC"/>
</mask>
<g mask="url(#mask0_198_1577)">
<path d="M56.0938 67.1094H58.6719V58.5156H67.2656V55.9375H58.6719V47.3438H56.0938V55.9375H47.5V58.5156H56.0938V67.1094ZM57.2656 71.7969C53.2031 71.7969 49.7396 70.3516 46.875 67.4609C44.0104 64.5703 42.5781 61.1458 42.5781 57.1875C42.5781 53.125 44.0104 49.6484 46.875 46.7578C49.7396 43.8672 53.2031 42.4219 57.2656 42.4219C61.276 42.4219 64.7266 43.8672 67.6172 46.7578C70.5078 49.6484 71.9531 53.125 71.9531 57.1875C71.9531 61.1458 70.5078 64.5703 67.6172 67.4609C64.7266 70.3516 61.276 71.7969 57.2656 71.7969ZM21.875 26.5625H53.125V21.875H21.875V26.5625ZM39.8438 65.625H14.0625C12.7604 65.625 11.6536 65.1693 10.7422 64.2578C9.83073 63.3464 9.375 62.2396 9.375 60.9375V14.0625C9.375 12.7604 9.83073 11.6536 10.7422 10.7422C11.6536 9.83073 12.7604 9.375 14.0625 9.375H60.9375C62.2396 9.375 63.3464 9.83073 64.2578 10.7422C65.1693 11.6536 65.625 12.7604 65.625 14.0625V39.7656C64.3229 39.0885 62.9688 38.5938 61.5625 38.2813C60.1563 37.9688 58.724 37.8125 57.2656 37.8125C56.5365 37.8125 55.8333 37.8516 55.1562 37.9297C54.4792 38.0078 53.8021 38.125 53.125 38.2813V35.1563H21.875V39.8438H48.75C46.875 40.7813 45.1953 41.9922 43.7109 43.4766C42.2266 44.9609 41.0156 46.6146 40.0781 48.4375H21.875V53.125H38.3594C38.2031 53.8021 38.0859 54.4792 38.0078 55.1563C37.9297 55.8333 37.8906 56.5365 37.8906 57.2656C37.8906 58.776 38.0469 60.2083 38.3594 61.5625C38.6719 62.9167 39.1667 64.2708 39.8438 65.625Z" fill="#DB8989"/>
</g>
</svg>
