<svg width="50" height="51" viewBox="0 0 50 51" fill="none" xmlns="http://www.w3.org/2000/svg">
<g clip-path="url(#clip0_1314_1221)">
<path d="M12.5 17.6875C12.5 14.3723 13.817 11.1929 16.1612 8.84867C18.5054 6.50446 21.6848 5.1875 25 5.1875C28.3152 5.1875 31.4946 6.50446 33.8388 8.84867C36.183 11.1929 37.5 14.3723 37.5 17.6875C37.5 21.0027 36.183 24.1821 33.8388 26.5263C31.4946 28.8705 28.3152 30.1875 25 30.1875C21.6848 30.1875 18.5054 28.8705 16.1612 26.5263C13.817 24.1821 12.5 21.0027 12.5 17.6875ZM38.2617 6.75C35.1074 2.93164 30.3418 0.5 25 0.5C19.6582 0.5 14.8926 2.93164 11.7383 6.75H6.25C2.80273 6.75 0 9.55273 0 13V44.25C0 47.6973 2.80273 50.5 6.25 50.5H43.75C47.1973 50.5 50 47.6973 50 44.25V13C50 9.55273 47.1973 6.75 43.75 6.75H38.2617ZM28.9062 22.375C28.9062 21.3398 28.5059 20.4023 27.8418 19.6992L31.123 12.0527C31.4648 11.2617 31.0937 10.3438 30.3027 10.002C29.5117 9.66016 28.5937 10.0312 28.252 10.8223L24.9707 18.4688C22.8223 18.4785 21.0938 20.2266 21.0938 22.375C21.0938 24.5332 22.8418 26.2812 25 26.2812C27.1582 26.2812 28.9062 24.5332 28.9062 22.375Z" fill="#B7CAFF"/>
</g>
<defs>
<clipPath id="clip0_1314_1221">
<rect width="50" height="50" fill="white" transform="translate(0 0.5)"/>
</clipPath>
</defs>
</svg>
