<svg width="68" height="68" viewBox="0 0 68 68" fill="none" xmlns="http://www.w3.org/2000/svg">
<path d="M26.3337 67.3346L24.667 56.8346C23.6114 56.4458 22.5003 55.918 21.3337 55.2513C20.167 54.5846 19.1392 53.8902 18.2503 53.168L8.41699 57.668L0.666992 44.0013L9.66699 37.418C9.55588 36.918 9.48644 36.3485 9.45866 35.7096C9.43088 35.0707 9.41699 34.5013 9.41699 34.0013C9.41699 33.5013 9.43088 32.9319 9.45866 32.293C9.48644 31.6541 9.55588 31.0846 9.66699 30.5846L0.666992 24.0013L8.41699 10.3346L18.2503 14.8346C19.1392 14.1124 20.167 13.418 21.3337 12.7513C22.5003 12.0846 23.6114 11.5846 24.667 11.2513L26.3337 0.667969H41.667L43.3337 11.168C44.3892 11.5569 45.5142 12.0707 46.7087 12.7096C47.9031 13.3485 48.917 14.0569 49.7503 14.8346L59.5837 10.3346L67.3337 24.0013L58.3337 30.418C58.4448 30.9735 58.5142 31.5707 58.542 32.2096C58.5698 32.8485 58.5837 33.4457 58.5837 34.0013C58.5837 34.5569 58.5698 35.1402 58.542 35.7513C58.5142 36.3624 58.4448 36.9457 58.3337 37.5013L67.3337 44.0013L59.5837 57.668L49.7503 53.168C48.8614 53.8902 47.8475 54.5985 46.7087 55.293C45.5698 55.9874 44.4448 56.5013 43.3337 56.8346L41.667 67.3346H26.3337ZM34.0003 44.8346C37.0003 44.8346 39.5559 43.7791 41.667 41.668C43.7781 39.5569 44.8337 37.0013 44.8337 34.0013C44.8337 31.0013 43.7781 28.4457 41.667 26.3346C39.5559 24.2235 37.0003 23.168 34.0003 23.168C31.0003 23.168 28.4448 24.2235 26.3337 26.3346C24.2225 28.4457 23.167 31.0013 23.167 34.0013C23.167 37.0013 24.2225 39.5569 26.3337 41.668C28.4448 43.7791 31.0003 44.8346 34.0003 44.8346Z" fill="#B7CAFF"/>
</svg>
