<svg width="68" height="68" viewBox="0 0 68 68" fill="none" xmlns="http://www.w3.org/2000/svg">
<path d="M26.3346 67.3346L24.668 56.8346C23.6124 56.4458 22.5013 55.918 21.3346 55.2513C20.168 54.5846 19.1402 53.8902 18.2513 53.168L8.41797 57.668L0.667969 44.0013L9.66797 37.418C9.55686 36.918 9.48741 36.3485 9.45964 35.7096C9.43186 35.0707 9.41797 34.5013 9.41797 34.0013C9.41797 33.5013 9.43186 32.9319 9.45964 32.293C9.48741 31.6541 9.55686 31.0846 9.66797 30.5846L0.667969 24.0013L8.41797 10.3346L18.2513 14.8346C19.1402 14.1124 20.168 13.418 21.3346 12.7513C22.5013 12.0846 23.6124 11.5846 24.668 11.2513L26.3346 0.667969H41.668L43.3346 11.168C44.3902 11.5569 45.5152 12.0707 46.7096 12.7096C47.9041 13.3485 48.918 14.0569 49.7513 14.8346L59.5846 10.3346L67.3346 24.0013L58.3346 30.418C58.4458 30.9735 58.5152 31.5707 58.543 32.2096C58.5708 32.8485 58.5846 33.4457 58.5846 34.0013C58.5846 34.5569 58.5708 35.1402 58.543 35.7513C58.5152 36.3624 58.4458 36.9457 58.3346 37.5013L67.3346 44.0013L59.5846 57.668L49.7513 53.168C48.8624 53.8902 47.8485 54.5985 46.7096 55.293C45.5707 55.9874 44.4458 56.5013 43.3346 56.8346L41.668 67.3346H26.3346ZM34.0013 44.8346C37.0013 44.8346 39.5569 43.7791 41.668 41.668C43.7791 39.5569 44.8346 37.0013 44.8346 34.0013C44.8346 31.0013 43.7791 28.4457 41.668 26.3346C39.5569 24.2235 37.0013 23.168 34.0013 23.168C31.0013 23.168 28.4457 24.2235 26.3346 26.3346C24.2235 28.4457 23.168 31.0013 23.168 34.0013C23.168 37.0013 24.2235 39.5569 26.3346 41.668C28.4457 43.7791 31.0013 44.8346 34.0013 44.8346Z" fill="#769BFF"/>
</svg>
