<svg width="100" height="101" viewBox="0 0 100 101" fill="none" xmlns="http://www.w3.org/2000/svg">
<path fill-rule="evenodd" clip-rule="evenodd" d="M98 52.073C98 48.5275 97.6818 45.1184 97.0909 41.8457H50V61.1866H76.9091C75.75 67.4366 72.2273 72.7321 66.9318 76.2775V88.823H83.0909C92.5455 80.1184 98 67.3002 98 52.073Z" fill="#4285F4"/>
<path fill-rule="evenodd" clip-rule="evenodd" d="M49.9987 100.945C63.4987 100.945 74.8169 96.468 83.0896 88.8317L66.9305 76.2862C62.4533 79.2862 56.726 81.0589 49.9987 81.0589C36.976 81.0589 25.9533 72.2635 22.0214 60.4453H5.31689V73.3999C13.5442 89.7408 30.4533 100.945 49.9987 100.945Z" fill="#34A853"/>
<path fill-rule="evenodd" clip-rule="evenodd" d="M22.0227 60.4448C21.0227 57.4448 20.4545 54.2402 20.4545 50.9448C20.4545 47.6493 21.0227 44.4448 22.0227 41.4448V28.4902H5.31818C1.93182 35.2402 0 42.8766 0 50.9448C0 59.013 1.93182 66.6493 5.31818 73.3993L22.0227 60.4448Z" fill="#FBBC05"/>
<path fill-rule="evenodd" clip-rule="evenodd" d="M49.9987 20.8258C57.3396 20.8258 63.9305 23.3485 69.1124 28.3031L83.4533 13.9622C74.7942 5.894 63.476 0.939453 49.9987 0.939453C30.4533 0.939453 13.5442 12.144 5.31689 28.4849L22.0214 41.4395C25.9533 29.6213 36.976 20.8258 49.9987 20.8258Z" fill="#EA4335"/>
</svg>
