<svg width="49" height="49" viewBox="0 0 49 49" fill="none" xmlns="http://www.w3.org/2000/svg">
<mask id="mask0_839_1041" style="mask-type:alpha" maskUnits="userSpaceOnUse" x="0" y="0" width="49" height="49">
<rect x="0.462891" y="0.896484" width="48" height="48" fill="#D9D9D9"/>
</mask>
<g mask="url(#mask0_839_1041)">
<path d="M8.81289 40.8965V37.8965H15.3129L14.5629 37.2965C12.4296 35.5965 10.8796 33.7465 9.91289 31.7465C8.94622 29.7465 8.46289 27.5132 8.46289 25.0465C8.46289 21.5132 9.50456 18.3382 11.5879 15.5215C13.6712 12.7048 16.4129 10.7632 19.8129 9.69648V12.7965C17.3129 13.7632 15.2962 15.3715 13.7629 17.6215C12.2296 19.8715 11.4629 22.3465 11.4629 25.0465C11.4629 27.1465 11.8546 28.9715 12.6379 30.5215C13.4212 32.0715 14.4796 33.4132 15.8129 34.5465L17.3129 35.5965V29.3965H20.3129V40.8965H8.81289ZM29.1629 40.1465V36.9965C31.6962 36.0298 33.7129 34.4215 35.2129 32.1715C36.7129 29.9215 37.4629 27.4465 37.4629 24.7465C37.4629 23.1465 37.0712 21.5215 36.2879 19.8715C35.5046 18.2215 34.4796 16.7632 33.2129 15.4965L31.7629 14.1965V20.3965H28.7629V8.89648H40.2629V11.8965H33.7129L34.4629 12.5965C36.4629 14.4632 37.9629 16.4632 38.9629 18.5965C39.9629 20.7298 40.4629 22.7798 40.4629 24.7465C40.4629 28.2798 39.4296 31.4632 37.3629 34.2965C35.2962 37.1298 32.5629 39.0798 29.1629 40.1465Z" fill="white"/>
</g>
</svg>
