<svg width="49" height="49" viewBox="0 0 49 49" fill="none" xmlns="http://www.w3.org/2000/svg">
<mask id="mask0_839_1053" style="mask-type:alpha" maskUnits="userSpaceOnUse" x="0" y="0" width="49" height="49">
<rect x="0.882812" y="0.292969" width="48" height="48" fill="#D9D9D9"/>
</mask>
<g mask="url(#mask0_839_1053)">
<path d="M12.7828 37.743C10.8828 35.9763 9.42448 33.9346 8.40781 31.618C7.39115 29.3013 6.88281 26.8596 6.88281 24.293C6.88281 19.293 8.63281 15.043 12.1328 11.543C15.6328 8.04297 19.8828 6.29297 24.8828 6.29297V2.29297L34.0328 9.29297L24.8828 16.293V12.293C21.5495 12.293 18.7161 13.4596 16.3828 15.793C14.0495 18.1263 12.8828 20.9596 12.8828 24.293C12.8828 26.193 13.2995 27.9846 14.1328 29.668C14.9661 31.3513 16.0828 32.8263 17.4828 34.093L12.7828 37.743ZM24.8828 46.293L15.7328 39.293L24.8828 32.293V36.293C28.2161 36.293 31.0495 35.1263 33.3828 32.793C35.7161 30.4596 36.8828 27.6263 36.8828 24.293C36.8828 22.393 36.4661 20.593 35.6328 18.893C34.7995 17.193 33.6328 15.7263 32.1328 14.493L36.8828 10.943C38.8161 12.643 40.2995 14.6513 41.3328 16.968C42.3661 19.2846 42.8828 21.7263 42.8828 24.293C42.8828 29.293 41.1328 33.543 37.6328 37.043C34.1328 40.543 29.8828 42.293 24.8828 42.293V46.293Z" fill="white"/>
</g>
</svg>
