<svg width="57" height="57" viewBox="0 0 57 57" fill="none" xmlns="http://www.w3.org/2000/svg">
<path d="M53.8519 22.8842C53.3808 22.4988 53.3811 22.4987 52.8092 22.5499C52.9393 22.3059 53.069 22.0617 53.203 21.8104C54.1546 19.7856 54.1468 17.872 53.4429 15.7753C52.5815 13.5945 51.334 12.3284 49.2457 11.2705C48.1133 10.866 47.1573 10.6473 45.9561 10.7204C45.949 10.5672 45.9419 10.4139 45.9346 10.2561C45.7626 7.93349 45.1102 6.45644 43.4035 4.85733C41.4355 3.23067 39.8609 2.86935 37.3311 2.91551C35.9668 3.05924 34.8334 3.48983 33.6211 4.11782C33.5039 3.86303 33.5037 3.86309 33.3842 3.60314C32.7591 2.42816 31.5872 1.72026 30.3703 1.24236C28.1914 0.683722 26.2627 0.972911 24.3202 2.06984C23.6109 2.5668 23.1164 3.10868 22.6564 3.84289C22.5133 3.78331 22.3698 3.72357 22.2226 3.66218C20.0404 2.83378 17.9826 2.65769 15.7522 3.43019C13.7677 4.33578 12.416 5.72166 11.5544 7.72861C11.1957 8.75199 11.0289 9.62698 11.1435 10.7204C10.8945 10.7214 10.8943 10.7214 10.6402 10.7225C8.21341 10.8349 6.36041 11.7896 4.71903 13.5916C3.07953 15.7449 2.9554 17.6733 3.19414 20.349C3.39747 21.1552 3.65625 21.7965 4.01655 22.5499C3.82418 22.601 3.63201 22.652 3.43401 22.7047C2.03543 23.4063 1.26682 24.5725 0.487018 25.9028C-0.131439 28.0066 -0.126467 30.1632 0.867324 32.1472C1.64776 33.2596 2.6822 34.0951 3.74241 34.9296C3.60926 35.2795 3.60913 35.2793 3.47347 35.6366C2.8782 37.6464 2.82571 40.1973 3.71549 42.1369C4.85716 44.0163 6.32653 45.4358 8.40246 46.2087C9.31793 46.3806 10.213 46.4622 11.1435 46.4839C11.1442 46.6506 11.1447 46.8168 11.1457 46.9887C11.2484 49.2224 11.9809 50.9416 13.601 52.5059C15.7167 54.185 17.8219 54.4088 20.4636 54.1865C21.26 53.9804 21.9086 53.7144 22.6564 53.3611C22.7727 53.4905 22.8889 53.6201 23.0086 53.7535C24.6465 55.4986 25.8731 56.1444 28.2585 56.2327C30.8458 56.1643 32.3287 55.093 34.1693 53.3611C34.4237 53.4918 34.6779 53.6221 34.94 53.7565C36.9432 54.6038 39.1086 54.7055 41.1623 53.9855C43.0289 53.0298 44.6824 51.4757 45.5161 49.5269C45.8086 48.5269 45.9082 47.5221 45.9561 46.4839C46.2218 46.5065 46.4876 46.529 46.7613 46.5525C48.699 46.5445 50.4323 45.5065 51.8305 44.2206C53.3544 42.4933 53.9872 40.5974 53.9697 38.3048C53.8494 37.1356 53.4631 36.0368 53.0834 34.9296C53.2258 34.8423 53.368 34.7549 53.5148 34.6651C55.1404 33.5735 56.0836 32.424 56.6469 30.5277C57.0948 27.2492 56.3739 24.9902 53.8519 22.8842Z" fill="#AEC3FE"/>
</svg>
