<svg width="50" height="51" viewBox="0 0 50 51" fill="none" xmlns="http://www.w3.org/2000/svg">
<mask id="mask0_201_918" style="mask-type:alpha" maskUnits="userSpaceOnUse" x="0" y="0" width="50" height="51">
<rect y="0.882812" width="50" height="50" fill="#D9D9D9"/>
</mask>
<g mask="url(#mask0_201_918)">
<path d="M10.4167 44.6328C9.27083 44.6328 8.28993 44.2248 7.47396 43.4089C6.65799 42.5929 6.25 41.612 6.25 40.4661V11.2995C6.25 10.1536 6.65799 9.17274 7.47396 8.35677C8.28993 7.5408 9.27083 7.13281 10.4167 7.13281H39.5833C40.7292 7.13281 41.7101 7.5408 42.526 8.35677C43.342 9.17274 43.75 10.1536 43.75 11.2995H27.0833C24.6181 11.2995 22.6128 12.072 21.0677 13.6172C19.5226 15.1623 18.75 17.1675 18.75 19.6328V32.1328C18.75 34.5981 19.5226 36.6033 21.0677 38.1484C22.6128 39.6936 24.6181 40.4661 27.0833 40.4661H43.75C43.75 41.612 43.342 42.5929 42.526 43.4089C41.7101 44.2248 40.7292 44.6328 39.5833 44.6328H10.4167ZM27.0833 36.2995C25.9375 36.2995 24.9566 35.8915 24.1406 35.0755C23.3247 34.2595 22.9167 33.2786 22.9167 32.1328V19.6328C22.9167 18.487 23.3247 17.5061 24.1406 16.6901C24.9566 15.8741 25.9375 15.4661 27.0833 15.4661H41.6667C42.8125 15.4661 43.7934 15.8741 44.6094 16.6901C45.4253 17.5061 45.8333 18.487 45.8333 19.6328V32.1328C45.8333 33.2786 45.4253 34.2595 44.6094 35.0755C43.7934 35.8915 42.8125 36.2995 41.6667 36.2995H27.0833ZM33.3333 29.0078C34.2361 29.0078 34.9826 28.7127 35.5729 28.1224C36.1632 27.5321 36.4583 26.7856 36.4583 25.8828C36.4583 24.98 36.1632 24.2335 35.5729 23.6432C34.9826 23.053 34.2361 22.7578 33.3333 22.7578C32.4306 22.7578 31.684 23.053 31.0938 23.6432C30.5035 24.2335 30.2083 24.98 30.2083 25.8828C30.2083 26.7856 30.5035 27.5321 31.0938 28.1224C31.684 28.7127 32.4306 29.0078 33.3333 29.0078Z" fill="#B7CAFF"/>
</g>
</svg>
