<svg width="90" height="90" viewBox="0 0 90 90" fill="none" xmlns="http://www.w3.org/2000/svg">
<path d="M0 89.1667V6.6875C0 4.90417 0.66875 3.34375 2.00625 2.00625C3.34375 0.66875 4.90417 0 6.6875 0H82.4792C84.2625 0 85.8229 0.66875 87.1604 2.00625C88.4979 3.34375 89.1667 4.90417 89.1667 6.6875V64.6458C89.1667 66.4292 88.4979 67.9896 87.1604 69.3271C85.8229 70.6646 84.2625 71.3333 82.4792 71.3333H17.8333L0 89.1667ZM44.5811 57.1781C45.6229 57.1781 46.4967 56.8259 47.2026 56.1215C47.9085 55.4171 48.2615 54.544 48.2615 53.5022C48.2615 52.4605 47.9092 51.5866 47.2048 50.8807C46.5004 50.1748 45.6273 49.8219 44.5856 49.8219C43.5438 49.8219 42.67 50.1741 41.9641 50.8785C41.2582 51.5829 40.9052 52.456 40.9052 53.4978C40.9052 54.5395 41.2574 55.4134 41.9618 56.1193C42.6662 56.8252 43.5393 57.1781 44.5811 57.1781ZM41.2396 41.351H47.9271V13.375H41.2396V41.351Z" fill="#D60000"/>
</svg>
