<svg width="158" height="240" viewBox="0 0 158 240" fill="none" xmlns="http://www.w3.org/2000/svg">
<path d="M68.5081 155.98C27.7849 150.46 -1.70142 114.337 1.04426 73.333C3.78994 32.329 37.8293 0.460134 78.9251 0.418006C120.075 0.378305 154.201 32.265 156.951 73.3233C159.7 114.382 130.131 150.533 89.3421 155.98V177.501H141.425V198.335H89.3421V240.001H68.5081V198.335H16.4251V177.501H68.5081V155.98ZM78.9251 135.835C110.566 135.835 136.216 110.184 136.216 78.543C136.216 46.9016 110.566 21.251 78.9251 21.251C47.2838 21.251 21.6331 46.9016 21.6331 78.543C21.6331 110.184 47.2838 135.835 78.9251 135.835Z" fill="#D4D4D4"/>
</svg>
