<svg width="158" height="240" viewBox="0 0 158 240" fill="none" xmlns="http://www.w3.org/2000/svg">
<path d="M79.5 190.387C120.921 190.387 154.5 156.808 154.5 115.387C154.5 73.9654 120.921 40.3867 79.5 40.3867C38.0786 40.3867 4.5 73.9654 4.5 115.387C4.5 156.808 38.0786 190.387 79.5 190.387Z" fill="#FFDFDF"/>
<path d="M68.5824 155.867C27.8591 150.346 -1.6272 114.224 1.11848 73.2198C3.86416 32.2158 37.9035 0.346853 78.9993 0.304725C120.15 0.265024 154.276 32.1517 157.026 73.21C159.775 114.269 130.205 150.42 89.4163 155.867V177.388H141.499V198.222H89.4163V239.888H68.5824V198.222H16.4993V177.388H68.5824V155.867ZM78.9993 135.722C110.641 135.722 136.29 110.071 136.29 78.4297C136.29 46.7883 110.641 21.1377 78.9993 21.1377C47.358 21.1377 21.7073 46.7883 21.7073 78.4297C21.7073 110.071 47.358 135.722 78.9993 135.722Z" fill="#3D3D3D"/>
</svg>
